G04 #@! TF.FileFunction,Legend,Top*
%FSLAX46Y46*%
G04 Gerber Fmt 4.6, Leading zero omitted, Abs format (unit mm)*
G04 Created by KiCad (PCBNEW 4.0.1-stable) date 29-05-2017 19:13:36*
%MOMM*%
G01*
G04 APERTURE LIST*
%ADD10C,0.100000*%
%ADD11C,0.300000*%
%ADD12C,0.120000*%
%ADD13C,0.150000*%
G04 APERTURE END LIST*
D10*
D11*
X262166172Y-141521943D02*
X263309029Y-141521943D01*
X262737600Y-142093371D02*
X262737600Y-140950514D01*
X259630458Y-143707657D02*
X259844744Y-143779086D01*
X259916172Y-143850514D01*
X259987601Y-143993371D01*
X259987601Y-144207657D01*
X259916172Y-144350514D01*
X259844744Y-144421943D01*
X259701886Y-144493371D01*
X259130458Y-144493371D01*
X259130458Y-142993371D01*
X259630458Y-142993371D01*
X259773315Y-143064800D01*
X259844744Y-143136229D01*
X259916172Y-143279086D01*
X259916172Y-143421943D01*
X259844744Y-143564800D01*
X259773315Y-143636229D01*
X259630458Y-143707657D01*
X259130458Y-143707657D01*
X261273315Y-144493371D02*
X261273315Y-143707657D01*
X261201886Y-143564800D01*
X261059029Y-143493371D01*
X260773315Y-143493371D01*
X260630458Y-143564800D01*
X261273315Y-144421943D02*
X261130458Y-144493371D01*
X260773315Y-144493371D01*
X260630458Y-144421943D01*
X260559029Y-144279086D01*
X260559029Y-144136229D01*
X260630458Y-143993371D01*
X260773315Y-143921943D01*
X261130458Y-143921943D01*
X261273315Y-143850514D01*
X261773315Y-143493371D02*
X262344744Y-143493371D01*
X261987601Y-142993371D02*
X261987601Y-144279086D01*
X262059029Y-144421943D01*
X262201887Y-144493371D01*
X262344744Y-144493371D01*
X262630458Y-143493371D02*
X263201887Y-143493371D01*
X262844744Y-142993371D02*
X262844744Y-144279086D01*
X262916172Y-144421943D01*
X263059030Y-144493371D01*
X263201887Y-144493371D01*
X264273315Y-144421943D02*
X264130458Y-144493371D01*
X263844744Y-144493371D01*
X263701887Y-144421943D01*
X263630458Y-144279086D01*
X263630458Y-143707657D01*
X263701887Y-143564800D01*
X263844744Y-143493371D01*
X264130458Y-143493371D01*
X264273315Y-143564800D01*
X264344744Y-143707657D01*
X264344744Y-143850514D01*
X263630458Y-143993371D01*
X264987601Y-144493371D02*
X264987601Y-143493371D01*
X264987601Y-143779086D02*
X265059029Y-143636229D01*
X265130458Y-143564800D01*
X265273315Y-143493371D01*
X265416172Y-143493371D01*
X265773315Y-143493371D02*
X266130458Y-144493371D01*
X266487600Y-143493371D02*
X266130458Y-144493371D01*
X265987600Y-144850514D01*
X265916172Y-144921943D01*
X265773315Y-144993371D01*
X262166172Y-146321943D02*
X263309029Y-146321943D01*
X214414172Y-141521943D02*
X215557029Y-141521943D01*
X214985600Y-142093371D02*
X214985600Y-140950514D01*
X212199886Y-144493371D02*
X212199886Y-142993371D01*
X212771314Y-142993371D01*
X212914172Y-143064800D01*
X212985600Y-143136229D01*
X213057029Y-143279086D01*
X213057029Y-143493371D01*
X212985600Y-143636229D01*
X212914172Y-143707657D01*
X212771314Y-143779086D01*
X212199886Y-143779086D01*
X214342743Y-144493371D02*
X214342743Y-143707657D01*
X214271314Y-143564800D01*
X214128457Y-143493371D01*
X213842743Y-143493371D01*
X213699886Y-143564800D01*
X214342743Y-144421943D02*
X214199886Y-144493371D01*
X213842743Y-144493371D01*
X213699886Y-144421943D01*
X213628457Y-144279086D01*
X213628457Y-144136229D01*
X213699886Y-143993371D01*
X213842743Y-143921943D01*
X214199886Y-143921943D01*
X214342743Y-143850514D01*
X215057029Y-143493371D02*
X215057029Y-144493371D01*
X215057029Y-143636229D02*
X215128457Y-143564800D01*
X215271315Y-143493371D01*
X215485600Y-143493371D01*
X215628457Y-143564800D01*
X215699886Y-143707657D01*
X215699886Y-144493371D01*
X216985600Y-144421943D02*
X216842743Y-144493371D01*
X216557029Y-144493371D01*
X216414172Y-144421943D01*
X216342743Y-144279086D01*
X216342743Y-143707657D01*
X216414172Y-143564800D01*
X216557029Y-143493371D01*
X216842743Y-143493371D01*
X216985600Y-143564800D01*
X217057029Y-143707657D01*
X217057029Y-143850514D01*
X216342743Y-143993371D01*
X217914172Y-144493371D02*
X217771314Y-144421943D01*
X217699886Y-144279086D01*
X217699886Y-142993371D01*
X214414172Y-146321943D02*
X215557029Y-146321943D01*
D12*
X234092000Y-104912000D02*
X247492000Y-104912000D01*
X247492000Y-104912000D02*
X247492000Y-99812000D01*
X247492000Y-99812000D02*
X234092000Y-99812000D01*
X234092000Y-104912000D02*
X234092000Y-99812000D01*
D10*
X251113036Y-134621798D02*
X256563036Y-134621798D01*
X251113036Y-138671798D02*
X256563036Y-138671798D01*
X251113036Y-134621798D02*
X251113036Y-138671798D01*
X256563036Y-134621798D02*
X256563036Y-138671798D01*
D12*
X236029500Y-115896700D02*
X241169500Y-115896700D01*
X241169500Y-115896700D02*
X241169500Y-110696700D01*
X241169500Y-110696700D02*
X233429500Y-110696700D01*
X233429500Y-110696700D02*
X233429500Y-113296700D01*
X233429500Y-113296700D02*
X236029500Y-113296700D01*
X236029500Y-113296700D02*
X236029500Y-115896700D01*
X234759500Y-115896700D02*
X233429500Y-115896700D01*
X233429500Y-115896700D02*
X233429500Y-114566700D01*
X216395500Y-111029200D02*
X217395500Y-111029200D01*
X217395500Y-112389200D02*
X216395500Y-112389200D01*
X220742700Y-127212600D02*
X220742700Y-125212600D01*
X218702700Y-125212600D02*
X218702700Y-127212600D01*
X217395500Y-114268800D02*
X216395500Y-114268800D01*
X216395500Y-112908800D02*
X217395500Y-112908800D01*
X217399500Y-116213000D02*
X217399500Y-117213000D01*
X219099500Y-117213000D02*
X219099500Y-116213000D01*
X220985900Y-127219200D02*
X220985900Y-125219200D01*
X223945900Y-125219200D02*
X223945900Y-127219200D01*
X222885900Y-116225700D02*
X222885900Y-117225700D01*
X224585900Y-117225700D02*
X224585900Y-116225700D01*
X219508900Y-115845700D02*
X219508900Y-117605700D01*
X222578900Y-117605700D02*
X222578900Y-115175700D01*
D10*
X219773500Y-122166000D02*
X220373500Y-122166000D01*
X219773500Y-122266000D02*
X219773500Y-122166000D01*
X220373500Y-122266000D02*
X219773500Y-122266000D01*
X219773500Y-121066000D02*
X220373500Y-121066000D01*
X219773500Y-121166000D02*
X219773500Y-121066000D01*
X220373500Y-121166000D02*
X219773500Y-121166000D01*
X220373500Y-120966000D02*
X220373500Y-121266000D01*
X219773500Y-120966000D02*
X220373500Y-120966000D01*
X219773500Y-122366000D02*
X219773500Y-120966000D01*
X220373500Y-122366000D02*
X219773500Y-122366000D01*
X220373500Y-122066000D02*
X220373500Y-122366000D01*
X220373500Y-121266000D02*
X219173500Y-121266000D01*
X219173500Y-122066000D02*
X219173500Y-121266000D01*
X220373500Y-122066000D02*
X220373500Y-121266000D01*
X219173500Y-122066000D02*
X220373500Y-122066000D01*
D12*
X250509660Y-127920380D02*
X249509660Y-127920380D01*
X249509660Y-129620380D02*
X250509660Y-129620380D01*
X245429660Y-127920380D02*
X244429660Y-127920380D01*
X244429660Y-129620380D02*
X245429660Y-129620380D01*
X240536360Y-126781940D02*
X240536360Y-127781940D01*
X242236360Y-127781940D02*
X242236360Y-126781940D01*
X250499500Y-102134300D02*
X249499500Y-102134300D01*
X249499500Y-103834300D02*
X250499500Y-103834300D01*
X229341300Y-121717700D02*
X228341300Y-121717700D01*
X228341300Y-123417700D02*
X229341300Y-123417700D01*
X250499500Y-100203900D02*
X249499500Y-100203900D01*
X249499500Y-101903900D02*
X250499500Y-101903900D01*
X229366700Y-123648100D02*
X228366700Y-123648100D01*
X228366700Y-125348100D02*
X229366700Y-125348100D01*
X243276500Y-99084500D02*
X244276500Y-99084500D01*
X244276500Y-97384500D02*
X243276500Y-97384500D01*
X236847000Y-97384500D02*
X235847000Y-97384500D01*
X235847000Y-99084500D02*
X236847000Y-99084500D01*
X249008000Y-120261000D02*
X249008000Y-119261000D01*
X247308000Y-119261000D02*
X247308000Y-120261000D01*
X257602100Y-112317900D02*
X258602100Y-112317900D01*
X258602100Y-110617900D02*
X257602100Y-110617900D01*
X223292300Y-95778700D02*
X223292300Y-96778700D01*
X224992300Y-96778700D02*
X224992300Y-95778700D01*
X221149100Y-106765600D02*
X221149100Y-104765600D01*
X219109100Y-104765600D02*
X219109100Y-106765600D01*
X249029660Y-130183380D02*
X249029660Y-132183380D01*
X249029660Y-132183380D02*
X252929660Y-132183380D01*
X249029660Y-130183380D02*
X252929660Y-130183380D01*
X244076660Y-130183380D02*
X244076660Y-132183380D01*
X244076660Y-132183380D02*
X247976660Y-132183380D01*
X244076660Y-130183380D02*
X247976660Y-130183380D01*
X239123660Y-130183380D02*
X239123660Y-132183380D01*
X239123660Y-132183380D02*
X243023660Y-132183380D01*
X239123660Y-130183380D02*
X243023660Y-130183380D01*
D10*
X224428400Y-133859400D02*
X229878400Y-133859400D01*
X224428400Y-137909400D02*
X229878400Y-137909400D01*
X224428400Y-133859400D02*
X224428400Y-137909400D01*
X229878400Y-133859400D02*
X229878400Y-137909400D01*
X220179900Y-101719000D02*
X220779900Y-101719000D01*
X220179900Y-101819000D02*
X220179900Y-101719000D01*
X220779900Y-101819000D02*
X220179900Y-101819000D01*
X220179900Y-100619000D02*
X220779900Y-100619000D01*
X220179900Y-100719000D02*
X220179900Y-100619000D01*
X220779900Y-100719000D02*
X220179900Y-100719000D01*
X220779900Y-100519000D02*
X220779900Y-100819000D01*
X220179900Y-100519000D02*
X220779900Y-100519000D01*
X220179900Y-101919000D02*
X220179900Y-100519000D01*
X220779900Y-101919000D02*
X220179900Y-101919000D01*
X220779900Y-101619000D02*
X220779900Y-101919000D01*
X220779900Y-100819000D02*
X219579900Y-100819000D01*
X219579900Y-101619000D02*
X219579900Y-100819000D01*
X220779900Y-101619000D02*
X220779900Y-100819000D01*
X219579900Y-101619000D02*
X220779900Y-101619000D01*
D13*
X253313500Y-107622500D02*
X253088500Y-107622500D01*
X253313500Y-114872500D02*
X252988500Y-114872500D01*
X246063500Y-114872500D02*
X246388500Y-114872500D01*
X246063500Y-107622500D02*
X246388500Y-107622500D01*
X253313500Y-107622500D02*
X253313500Y-107947500D01*
X246063500Y-107622500D02*
X246063500Y-107947500D01*
X246063500Y-114872500D02*
X246063500Y-114547500D01*
X253313500Y-114872500D02*
X253313500Y-114547500D01*
X253088500Y-107622500D02*
X253088500Y-106197500D01*
D12*
X242751100Y-116884000D02*
X244751100Y-116884000D01*
X244751100Y-119844000D02*
X242751100Y-119844000D01*
X221392300Y-106772200D02*
X221392300Y-104772200D01*
X224352300Y-104772200D02*
X224352300Y-106772200D01*
X264572900Y-104499100D02*
X264572900Y-107099100D01*
X264572900Y-107099100D02*
X267192900Y-107099100D01*
X267192900Y-107099100D02*
X267192900Y-104499100D01*
X267192900Y-104499100D02*
X264572900Y-104499100D01*
X267192900Y-105449100D02*
X267192900Y-106209100D01*
X267192900Y-106209100D02*
X273192900Y-106209100D01*
X273192900Y-106209100D02*
X273192900Y-105449100D01*
X273192900Y-105449100D02*
X267192900Y-105449100D01*
X264142900Y-105449100D02*
X264572900Y-105449100D01*
X264142900Y-106209100D02*
X264572900Y-106209100D01*
X267192900Y-105569100D02*
X273192900Y-105569100D01*
X267192900Y-105689100D02*
X273192900Y-105689100D01*
X267192900Y-105809100D02*
X273192900Y-105809100D01*
X267192900Y-105929100D02*
X273192900Y-105929100D01*
X267192900Y-106049100D02*
X273192900Y-106049100D01*
X267192900Y-106169100D02*
X273192900Y-106169100D01*
X264572900Y-107099100D02*
X264572900Y-109639100D01*
X264572900Y-109639100D02*
X267192900Y-109639100D01*
X267192900Y-109639100D02*
X267192900Y-107099100D01*
X267192900Y-107099100D02*
X264572900Y-107099100D01*
X267192900Y-107989100D02*
X267192900Y-108749100D01*
X267192900Y-108749100D02*
X273192900Y-108749100D01*
X273192900Y-108749100D02*
X273192900Y-107989100D01*
X273192900Y-107989100D02*
X267192900Y-107989100D01*
X264142900Y-107989100D02*
X264572900Y-107989100D01*
X264142900Y-108749100D02*
X264572900Y-108749100D01*
X264572900Y-109639100D02*
X264572900Y-112179100D01*
X264572900Y-112179100D02*
X267192900Y-112179100D01*
X267192900Y-112179100D02*
X267192900Y-109639100D01*
X267192900Y-109639100D02*
X264572900Y-109639100D01*
X267192900Y-110529100D02*
X267192900Y-111289100D01*
X267192900Y-111289100D02*
X273192900Y-111289100D01*
X273192900Y-111289100D02*
X273192900Y-110529100D01*
X273192900Y-110529100D02*
X267192900Y-110529100D01*
X264142900Y-110529100D02*
X264572900Y-110529100D01*
X264142900Y-111289100D02*
X264572900Y-111289100D01*
X264572900Y-112179100D02*
X264572900Y-114719100D01*
X264572900Y-114719100D02*
X267192900Y-114719100D01*
X267192900Y-114719100D02*
X267192900Y-112179100D01*
X267192900Y-112179100D02*
X264572900Y-112179100D01*
X267192900Y-113069100D02*
X267192900Y-113829100D01*
X267192900Y-113829100D02*
X273192900Y-113829100D01*
X273192900Y-113829100D02*
X273192900Y-113069100D01*
X273192900Y-113069100D02*
X267192900Y-113069100D01*
X264142900Y-113069100D02*
X264572900Y-113069100D01*
X264142900Y-113829100D02*
X264572900Y-113829100D01*
X264572900Y-114719100D02*
X264572900Y-117259100D01*
X264572900Y-117259100D02*
X267192900Y-117259100D01*
X267192900Y-117259100D02*
X267192900Y-114719100D01*
X267192900Y-114719100D02*
X264572900Y-114719100D01*
X267192900Y-115609100D02*
X267192900Y-116369100D01*
X267192900Y-116369100D02*
X273192900Y-116369100D01*
X273192900Y-116369100D02*
X273192900Y-115609100D01*
X273192900Y-115609100D02*
X267192900Y-115609100D01*
X264142900Y-115609100D02*
X264572900Y-115609100D01*
X264142900Y-116369100D02*
X264572900Y-116369100D01*
X264572900Y-117259100D02*
X264572900Y-119859100D01*
X264572900Y-119859100D02*
X267192900Y-119859100D01*
X267192900Y-119859100D02*
X267192900Y-117259100D01*
X267192900Y-117259100D02*
X264572900Y-117259100D01*
X267192900Y-118149100D02*
X267192900Y-118909100D01*
X267192900Y-118909100D02*
X273192900Y-118909100D01*
X273192900Y-118909100D02*
X273192900Y-118149100D01*
X273192900Y-118149100D02*
X267192900Y-118149100D01*
X264142900Y-118149100D02*
X264572900Y-118149100D01*
X264142900Y-118909100D02*
X264572900Y-118909100D01*
X261962900Y-105829100D02*
X261962900Y-104559100D01*
X261962900Y-104559100D02*
X263232900Y-104559100D01*
X231415900Y-118376700D02*
X231415900Y-110696700D01*
X231415900Y-110696700D02*
X226215900Y-110696700D01*
X226215900Y-110696700D02*
X226215900Y-120976700D01*
X226215900Y-120976700D02*
X228815900Y-120976700D01*
X228815900Y-120976700D02*
X228815900Y-118376700D01*
X228815900Y-118376700D02*
X231415900Y-118376700D01*
X231415900Y-119646700D02*
X231415900Y-120976700D01*
X231415900Y-120976700D02*
X230085900Y-120976700D01*
X264611000Y-95571000D02*
X264611000Y-98171000D01*
X264611000Y-98171000D02*
X267231000Y-98171000D01*
X267231000Y-98171000D02*
X267231000Y-95571000D01*
X267231000Y-95571000D02*
X264611000Y-95571000D01*
X267231000Y-96521000D02*
X267231000Y-97281000D01*
X267231000Y-97281000D02*
X273231000Y-97281000D01*
X273231000Y-97281000D02*
X273231000Y-96521000D01*
X273231000Y-96521000D02*
X267231000Y-96521000D01*
X264181000Y-96521000D02*
X264611000Y-96521000D01*
X264181000Y-97281000D02*
X264611000Y-97281000D01*
X267231000Y-96641000D02*
X273231000Y-96641000D01*
X267231000Y-96761000D02*
X273231000Y-96761000D01*
X267231000Y-96881000D02*
X273231000Y-96881000D01*
X267231000Y-97001000D02*
X273231000Y-97001000D01*
X267231000Y-97121000D02*
X273231000Y-97121000D01*
X267231000Y-97241000D02*
X273231000Y-97241000D01*
X264611000Y-98171000D02*
X264611000Y-100711000D01*
X264611000Y-100711000D02*
X267231000Y-100711000D01*
X267231000Y-100711000D02*
X267231000Y-98171000D01*
X267231000Y-98171000D02*
X264611000Y-98171000D01*
X267231000Y-99061000D02*
X267231000Y-99821000D01*
X267231000Y-99821000D02*
X273231000Y-99821000D01*
X273231000Y-99821000D02*
X273231000Y-99061000D01*
X273231000Y-99061000D02*
X267231000Y-99061000D01*
X264181000Y-99061000D02*
X264611000Y-99061000D01*
X264181000Y-99821000D02*
X264611000Y-99821000D01*
X264611000Y-100711000D02*
X264611000Y-103311000D01*
X264611000Y-103311000D02*
X267231000Y-103311000D01*
X267231000Y-103311000D02*
X267231000Y-100711000D01*
X267231000Y-100711000D02*
X264611000Y-100711000D01*
X267231000Y-101601000D02*
X267231000Y-102361000D01*
X267231000Y-102361000D02*
X273231000Y-102361000D01*
X273231000Y-102361000D02*
X273231000Y-101601000D01*
X273231000Y-101601000D02*
X267231000Y-101601000D01*
X264181000Y-101601000D02*
X264611000Y-101601000D01*
X264181000Y-102361000D02*
X264611000Y-102361000D01*
X262001000Y-96901000D02*
X262001000Y-95631000D01*
X262001000Y-95631000D02*
X263271000Y-95631000D01*
D13*
X238088100Y-138685800D02*
X245838100Y-138685800D01*
X245838100Y-138685800D02*
X245838100Y-133195800D01*
X238088100Y-133195800D02*
X245838100Y-133195800D01*
X238088100Y-138685800D02*
X238088100Y-133195800D01*
D12*
X249578240Y-126251420D02*
X250578240Y-126251420D01*
X250578240Y-127611420D02*
X249578240Y-127611420D01*
X244632680Y-126302220D02*
X245632680Y-126302220D01*
X245632680Y-127662220D02*
X244632680Y-127662220D01*
X257564000Y-112604000D02*
X258564000Y-112604000D01*
X258564000Y-113964000D02*
X257564000Y-113964000D01*
X252404500Y-119298000D02*
X251404500Y-119298000D01*
X251404500Y-117938000D02*
X252404500Y-117938000D01*
X251404500Y-119462000D02*
X252404500Y-119462000D01*
X252404500Y-120822000D02*
X251404500Y-120822000D01*
X252404500Y-123870000D02*
X251404500Y-123870000D01*
X251404500Y-122510000D02*
X252404500Y-122510000D01*
X251404500Y-120986000D02*
X252404500Y-120986000D01*
X252404500Y-122346000D02*
X251404500Y-122346000D01*
X248701000Y-134030000D02*
X247701000Y-134030000D01*
X247701000Y-132670000D02*
X248701000Y-132670000D01*
X217801900Y-93821800D02*
X216801900Y-93821800D01*
X216801900Y-92461800D02*
X217801900Y-92461800D01*
X216801900Y-90582200D02*
X217801900Y-90582200D01*
X217801900Y-91942200D02*
X216801900Y-91942200D01*
X237242120Y-129107420D02*
X239142120Y-129107420D01*
X238642120Y-126787420D02*
X237242120Y-126787420D01*
X219915300Y-95398700D02*
X219915300Y-97158700D01*
X222985300Y-97158700D02*
X222985300Y-94728700D01*
X217805900Y-95766000D02*
X217805900Y-96766000D01*
X219505900Y-96766000D02*
X219505900Y-95766000D01*
X251939300Y-97849500D02*
X249939300Y-97849500D01*
X249939300Y-99889500D02*
X251939300Y-99889500D01*
X230857300Y-125510100D02*
X228857300Y-125510100D01*
X228857300Y-127550100D02*
X230857300Y-127550100D01*
D13*
X240315809Y-105888190D02*
X240315809Y-106364381D01*
X239982476Y-105364381D02*
X240315809Y-105888190D01*
X240649143Y-105364381D01*
X241506286Y-106364381D02*
X240934857Y-106364381D01*
X241220571Y-106364381D02*
X241220571Y-105364381D01*
X241125333Y-105507238D01*
X241030095Y-105602476D01*
X240934857Y-105650095D01*
X257427505Y-137307581D02*
X257427505Y-136307581D01*
X257665600Y-136307581D01*
X257808458Y-136355200D01*
X257903696Y-136450438D01*
X257951315Y-136545676D01*
X257998934Y-136736152D01*
X257998934Y-136879010D01*
X257951315Y-137069486D01*
X257903696Y-137164724D01*
X257808458Y-137259962D01*
X257665600Y-137307581D01*
X257427505Y-137307581D01*
X258332267Y-136307581D02*
X258998934Y-136307581D01*
X258570362Y-137307581D01*
X234084905Y-117419381D02*
X234084905Y-116419381D01*
X234465858Y-116419381D01*
X234561096Y-116467000D01*
X234608715Y-116514619D01*
X234656334Y-116609857D01*
X234656334Y-116752714D01*
X234608715Y-116847952D01*
X234561096Y-116895571D01*
X234465858Y-116943190D01*
X234084905Y-116943190D01*
X235608715Y-117419381D02*
X235037286Y-117419381D01*
X235323000Y-117419381D02*
X235323000Y-116419381D01*
X235227762Y-116562238D01*
X235132524Y-116657476D01*
X235037286Y-116705095D01*
X212463143Y-112212381D02*
X212129809Y-111736190D01*
X211891714Y-112212381D02*
X211891714Y-111212381D01*
X212272667Y-111212381D01*
X212367905Y-111260000D01*
X212415524Y-111307619D01*
X212463143Y-111402857D01*
X212463143Y-111545714D01*
X212415524Y-111640952D01*
X212367905Y-111688571D01*
X212272667Y-111736190D01*
X211891714Y-111736190D01*
X213415524Y-112212381D02*
X212844095Y-112212381D01*
X213129809Y-112212381D02*
X213129809Y-111212381D01*
X213034571Y-111355238D01*
X212939333Y-111450476D01*
X212844095Y-111498095D01*
X213796476Y-111307619D02*
X213844095Y-111260000D01*
X213939333Y-111212381D01*
X214177429Y-111212381D01*
X214272667Y-111260000D01*
X214320286Y-111307619D01*
X214367905Y-111402857D01*
X214367905Y-111498095D01*
X214320286Y-111640952D01*
X213748857Y-112212381D01*
X214367905Y-112212381D01*
X216273143Y-126569743D02*
X216225524Y-126617362D01*
X216082667Y-126664981D01*
X215987429Y-126664981D01*
X215844571Y-126617362D01*
X215749333Y-126522124D01*
X215701714Y-126426886D01*
X215654095Y-126236410D01*
X215654095Y-126093552D01*
X215701714Y-125903076D01*
X215749333Y-125807838D01*
X215844571Y-125712600D01*
X215987429Y-125664981D01*
X216082667Y-125664981D01*
X216225524Y-125712600D01*
X216273143Y-125760219D01*
X217225524Y-126664981D02*
X216654095Y-126664981D01*
X216939809Y-126664981D02*
X216939809Y-125664981D01*
X216844571Y-125807838D01*
X216749333Y-125903076D01*
X216654095Y-125950695D01*
X218130286Y-125664981D02*
X217654095Y-125664981D01*
X217606476Y-126141171D01*
X217654095Y-126093552D01*
X217749333Y-126045933D01*
X217987429Y-126045933D01*
X218082667Y-126093552D01*
X218130286Y-126141171D01*
X218177905Y-126236410D01*
X218177905Y-126474505D01*
X218130286Y-126569743D01*
X218082667Y-126617362D01*
X217987429Y-126664981D01*
X217749333Y-126664981D01*
X217654095Y-126617362D01*
X217606476Y-126569743D01*
X212717143Y-114117381D02*
X212383809Y-113641190D01*
X212145714Y-114117381D02*
X212145714Y-113117381D01*
X212526667Y-113117381D01*
X212621905Y-113165000D01*
X212669524Y-113212619D01*
X212717143Y-113307857D01*
X212717143Y-113450714D01*
X212669524Y-113545952D01*
X212621905Y-113593571D01*
X212526667Y-113641190D01*
X212145714Y-113641190D01*
X213669524Y-114117381D02*
X213098095Y-114117381D01*
X213383809Y-114117381D02*
X213383809Y-113117381D01*
X213288571Y-113260238D01*
X213193333Y-113355476D01*
X213098095Y-113403095D01*
X214621905Y-114117381D02*
X214050476Y-114117381D01*
X214336190Y-114117381D02*
X214336190Y-113117381D01*
X214240952Y-113260238D01*
X214145714Y-113355476D01*
X214050476Y-113403095D01*
X215130143Y-117070143D02*
X215082524Y-117117762D01*
X214939667Y-117165381D01*
X214844429Y-117165381D01*
X214701571Y-117117762D01*
X214606333Y-117022524D01*
X214558714Y-116927286D01*
X214511095Y-116736810D01*
X214511095Y-116593952D01*
X214558714Y-116403476D01*
X214606333Y-116308238D01*
X214701571Y-116213000D01*
X214844429Y-116165381D01*
X214939667Y-116165381D01*
X215082524Y-116213000D01*
X215130143Y-116260619D01*
X216082524Y-117165381D02*
X215511095Y-117165381D01*
X215796809Y-117165381D02*
X215796809Y-116165381D01*
X215701571Y-116308238D01*
X215606333Y-116403476D01*
X215511095Y-116451095D01*
X216415857Y-116165381D02*
X217082524Y-116165381D01*
X216653952Y-117165381D01*
X224623334Y-126671581D02*
X224147143Y-126671581D01*
X224147143Y-125671581D01*
X224909048Y-125766819D02*
X224956667Y-125719200D01*
X225051905Y-125671581D01*
X225290001Y-125671581D01*
X225385239Y-125719200D01*
X225432858Y-125766819D01*
X225480477Y-125862057D01*
X225480477Y-125957295D01*
X225432858Y-126100152D01*
X224861429Y-126671581D01*
X225480477Y-126671581D01*
X223639143Y-114149143D02*
X223591524Y-114196762D01*
X223448667Y-114244381D01*
X223353429Y-114244381D01*
X223210571Y-114196762D01*
X223115333Y-114101524D01*
X223067714Y-114006286D01*
X223020095Y-113815810D01*
X223020095Y-113672952D01*
X223067714Y-113482476D01*
X223115333Y-113387238D01*
X223210571Y-113292000D01*
X223353429Y-113244381D01*
X223448667Y-113244381D01*
X223591524Y-113292000D01*
X223639143Y-113339619D01*
X224591524Y-114244381D02*
X224020095Y-114244381D01*
X224305809Y-114244381D02*
X224305809Y-113244381D01*
X224210571Y-113387238D01*
X224115333Y-113482476D01*
X224020095Y-113530095D01*
X224924857Y-113244381D02*
X225543905Y-113244381D01*
X225210571Y-113625333D01*
X225353429Y-113625333D01*
X225448667Y-113672952D01*
X225496286Y-113720571D01*
X225543905Y-113815810D01*
X225543905Y-114053905D01*
X225496286Y-114149143D01*
X225448667Y-114196762D01*
X225353429Y-114244381D01*
X225067714Y-114244381D01*
X224972476Y-114196762D01*
X224924857Y-114149143D01*
X220345095Y-112355381D02*
X220345095Y-113164905D01*
X220392714Y-113260143D01*
X220440333Y-113307762D01*
X220535571Y-113355381D01*
X220726048Y-113355381D01*
X220821286Y-113307762D01*
X220868905Y-113260143D01*
X220916524Y-113164905D01*
X220916524Y-112355381D01*
X221297476Y-112355381D02*
X221916524Y-112355381D01*
X221583190Y-112736333D01*
X221726048Y-112736333D01*
X221821286Y-112783952D01*
X221868905Y-112831571D01*
X221916524Y-112926810D01*
X221916524Y-113164905D01*
X221868905Y-113260143D01*
X221821286Y-113307762D01*
X221726048Y-113355381D01*
X221440333Y-113355381D01*
X221345095Y-113307762D01*
X221297476Y-113260143D01*
X221257905Y-122118381D02*
X221257905Y-121118381D01*
X221496000Y-121118381D01*
X221638858Y-121166000D01*
X221734096Y-121261238D01*
X221781715Y-121356476D01*
X221829334Y-121546952D01*
X221829334Y-121689810D01*
X221781715Y-121880286D01*
X221734096Y-121975524D01*
X221638858Y-122070762D01*
X221496000Y-122118381D01*
X221257905Y-122118381D01*
X222686477Y-121118381D02*
X222496000Y-121118381D01*
X222400762Y-121166000D01*
X222353143Y-121213619D01*
X222257905Y-121356476D01*
X222210286Y-121546952D01*
X222210286Y-121927905D01*
X222257905Y-122023143D01*
X222305524Y-122070762D01*
X222400762Y-122118381D01*
X222591239Y-122118381D01*
X222686477Y-122070762D01*
X222734096Y-122023143D01*
X222781715Y-121927905D01*
X222781715Y-121689810D01*
X222734096Y-121594571D01*
X222686477Y-121546952D01*
X222591239Y-121499333D01*
X222400762Y-121499333D01*
X222305524Y-121546952D01*
X222257905Y-121594571D01*
X222210286Y-121689810D01*
X253071334Y-128881143D02*
X253023715Y-128928762D01*
X252880858Y-128976381D01*
X252785620Y-128976381D01*
X252642762Y-128928762D01*
X252547524Y-128833524D01*
X252499905Y-128738286D01*
X252452286Y-128547810D01*
X252452286Y-128404952D01*
X252499905Y-128214476D01*
X252547524Y-128119238D01*
X252642762Y-128024000D01*
X252785620Y-127976381D01*
X252880858Y-127976381D01*
X253023715Y-128024000D01*
X253071334Y-128071619D01*
X254023715Y-128976381D02*
X253452286Y-128976381D01*
X253738000Y-128976381D02*
X253738000Y-127976381D01*
X253642762Y-128119238D01*
X253547524Y-128214476D01*
X253452286Y-128262095D01*
X245070334Y-125833143D02*
X245022715Y-125880762D01*
X244879858Y-125928381D01*
X244784620Y-125928381D01*
X244641762Y-125880762D01*
X244546524Y-125785524D01*
X244498905Y-125690286D01*
X244451286Y-125499810D01*
X244451286Y-125356952D01*
X244498905Y-125166476D01*
X244546524Y-125071238D01*
X244641762Y-124976000D01*
X244784620Y-124928381D01*
X244879858Y-124928381D01*
X245022715Y-124976000D01*
X245070334Y-125023619D01*
X245451286Y-125023619D02*
X245498905Y-124976000D01*
X245594143Y-124928381D01*
X245832239Y-124928381D01*
X245927477Y-124976000D01*
X245975096Y-125023619D01*
X246022715Y-125118857D01*
X246022715Y-125214095D01*
X245975096Y-125356952D01*
X245403667Y-125928381D01*
X246022715Y-125928381D01*
X241133334Y-124817143D02*
X241085715Y-124864762D01*
X240942858Y-124912381D01*
X240847620Y-124912381D01*
X240704762Y-124864762D01*
X240609524Y-124769524D01*
X240561905Y-124674286D01*
X240514286Y-124483810D01*
X240514286Y-124340952D01*
X240561905Y-124150476D01*
X240609524Y-124055238D01*
X240704762Y-123960000D01*
X240847620Y-123912381D01*
X240942858Y-123912381D01*
X241085715Y-123960000D01*
X241133334Y-124007619D01*
X241466667Y-123912381D02*
X242085715Y-123912381D01*
X241752381Y-124293333D01*
X241895239Y-124293333D01*
X241990477Y-124340952D01*
X242038096Y-124388571D01*
X242085715Y-124483810D01*
X242085715Y-124721905D01*
X242038096Y-124817143D01*
X241990477Y-124864762D01*
X241895239Y-124912381D01*
X241609524Y-124912381D01*
X241514286Y-124864762D01*
X241466667Y-124817143D01*
X253198334Y-103354143D02*
X253150715Y-103401762D01*
X253007858Y-103449381D01*
X252912620Y-103449381D01*
X252769762Y-103401762D01*
X252674524Y-103306524D01*
X252626905Y-103211286D01*
X252579286Y-103020810D01*
X252579286Y-102877952D01*
X252626905Y-102687476D01*
X252674524Y-102592238D01*
X252769762Y-102497000D01*
X252912620Y-102449381D01*
X253007858Y-102449381D01*
X253150715Y-102497000D01*
X253198334Y-102544619D01*
X254055477Y-102782714D02*
X254055477Y-103449381D01*
X253817381Y-102401762D02*
X253579286Y-103116048D01*
X254198334Y-103116048D01*
X232116334Y-122912143D02*
X232068715Y-122959762D01*
X231925858Y-123007381D01*
X231830620Y-123007381D01*
X231687762Y-122959762D01*
X231592524Y-122864524D01*
X231544905Y-122769286D01*
X231497286Y-122578810D01*
X231497286Y-122435952D01*
X231544905Y-122245476D01*
X231592524Y-122150238D01*
X231687762Y-122055000D01*
X231830620Y-122007381D01*
X231925858Y-122007381D01*
X232068715Y-122055000D01*
X232116334Y-122102619D01*
X233021096Y-122007381D02*
X232544905Y-122007381D01*
X232497286Y-122483571D01*
X232544905Y-122435952D01*
X232640143Y-122388333D01*
X232878239Y-122388333D01*
X232973477Y-122435952D01*
X233021096Y-122483571D01*
X233068715Y-122578810D01*
X233068715Y-122816905D01*
X233021096Y-122912143D01*
X232973477Y-122959762D01*
X232878239Y-123007381D01*
X232640143Y-123007381D01*
X232544905Y-122959762D01*
X232497286Y-122912143D01*
X253198334Y-101449143D02*
X253150715Y-101496762D01*
X253007858Y-101544381D01*
X252912620Y-101544381D01*
X252769762Y-101496762D01*
X252674524Y-101401524D01*
X252626905Y-101306286D01*
X252579286Y-101115810D01*
X252579286Y-100972952D01*
X252626905Y-100782476D01*
X252674524Y-100687238D01*
X252769762Y-100592000D01*
X252912620Y-100544381D01*
X253007858Y-100544381D01*
X253150715Y-100592000D01*
X253198334Y-100639619D01*
X254055477Y-100544381D02*
X253865000Y-100544381D01*
X253769762Y-100592000D01*
X253722143Y-100639619D01*
X253626905Y-100782476D01*
X253579286Y-100972952D01*
X253579286Y-101353905D01*
X253626905Y-101449143D01*
X253674524Y-101496762D01*
X253769762Y-101544381D01*
X253960239Y-101544381D01*
X254055477Y-101496762D01*
X254103096Y-101449143D01*
X254150715Y-101353905D01*
X254150715Y-101115810D01*
X254103096Y-101020571D01*
X254055477Y-100972952D01*
X253960239Y-100925333D01*
X253769762Y-100925333D01*
X253674524Y-100972952D01*
X253626905Y-101020571D01*
X253579286Y-101115810D01*
X232116334Y-124944143D02*
X232068715Y-124991762D01*
X231925858Y-125039381D01*
X231830620Y-125039381D01*
X231687762Y-124991762D01*
X231592524Y-124896524D01*
X231544905Y-124801286D01*
X231497286Y-124610810D01*
X231497286Y-124467952D01*
X231544905Y-124277476D01*
X231592524Y-124182238D01*
X231687762Y-124087000D01*
X231830620Y-124039381D01*
X231925858Y-124039381D01*
X232068715Y-124087000D01*
X232116334Y-124134619D01*
X232449667Y-124039381D02*
X233116334Y-124039381D01*
X232687762Y-125039381D01*
X243609834Y-96877143D02*
X243562215Y-96924762D01*
X243419358Y-96972381D01*
X243324120Y-96972381D01*
X243181262Y-96924762D01*
X243086024Y-96829524D01*
X243038405Y-96734286D01*
X242990786Y-96543810D01*
X242990786Y-96400952D01*
X243038405Y-96210476D01*
X243086024Y-96115238D01*
X243181262Y-96020000D01*
X243324120Y-95972381D01*
X243419358Y-95972381D01*
X243562215Y-96020000D01*
X243609834Y-96067619D01*
X244181262Y-96400952D02*
X244086024Y-96353333D01*
X244038405Y-96305714D01*
X243990786Y-96210476D01*
X243990786Y-96162857D01*
X244038405Y-96067619D01*
X244086024Y-96020000D01*
X244181262Y-95972381D01*
X244371739Y-95972381D01*
X244466977Y-96020000D01*
X244514596Y-96067619D01*
X244562215Y-96162857D01*
X244562215Y-96210476D01*
X244514596Y-96305714D01*
X244466977Y-96353333D01*
X244371739Y-96400952D01*
X244181262Y-96400952D01*
X244086024Y-96448571D01*
X244038405Y-96496190D01*
X243990786Y-96591429D01*
X243990786Y-96781905D01*
X244038405Y-96877143D01*
X244086024Y-96924762D01*
X244181262Y-96972381D01*
X244371739Y-96972381D01*
X244466977Y-96924762D01*
X244514596Y-96877143D01*
X244562215Y-96781905D01*
X244562215Y-96591429D01*
X244514596Y-96496190D01*
X244466977Y-96448571D01*
X244371739Y-96400952D01*
X236180334Y-96841643D02*
X236132715Y-96889262D01*
X235989858Y-96936881D01*
X235894620Y-96936881D01*
X235751762Y-96889262D01*
X235656524Y-96794024D01*
X235608905Y-96698786D01*
X235561286Y-96508310D01*
X235561286Y-96365452D01*
X235608905Y-96174976D01*
X235656524Y-96079738D01*
X235751762Y-95984500D01*
X235894620Y-95936881D01*
X235989858Y-95936881D01*
X236132715Y-95984500D01*
X236180334Y-96032119D01*
X236656524Y-96936881D02*
X236847000Y-96936881D01*
X236942239Y-96889262D01*
X236989858Y-96841643D01*
X237085096Y-96698786D01*
X237132715Y-96508310D01*
X237132715Y-96127357D01*
X237085096Y-96032119D01*
X237037477Y-95984500D01*
X236942239Y-95936881D01*
X236751762Y-95936881D01*
X236656524Y-95984500D01*
X236608905Y-96032119D01*
X236561286Y-96127357D01*
X236561286Y-96365452D01*
X236608905Y-96460690D01*
X236656524Y-96508310D01*
X236751762Y-96555929D01*
X236942239Y-96555929D01*
X237037477Y-96508310D01*
X237085096Y-96460690D01*
X237132715Y-96365452D01*
X247515143Y-123166143D02*
X247467524Y-123213762D01*
X247324667Y-123261381D01*
X247229429Y-123261381D01*
X247086571Y-123213762D01*
X246991333Y-123118524D01*
X246943714Y-123023286D01*
X246896095Y-122832810D01*
X246896095Y-122689952D01*
X246943714Y-122499476D01*
X246991333Y-122404238D01*
X247086571Y-122309000D01*
X247229429Y-122261381D01*
X247324667Y-122261381D01*
X247467524Y-122309000D01*
X247515143Y-122356619D01*
X248467524Y-123261381D02*
X247896095Y-123261381D01*
X248181809Y-123261381D02*
X248181809Y-122261381D01*
X248086571Y-122404238D01*
X247991333Y-122499476D01*
X247896095Y-122547095D01*
X249086571Y-122261381D02*
X249181810Y-122261381D01*
X249277048Y-122309000D01*
X249324667Y-122356619D01*
X249372286Y-122451857D01*
X249419905Y-122642333D01*
X249419905Y-122880429D01*
X249372286Y-123070905D01*
X249324667Y-123166143D01*
X249277048Y-123213762D01*
X249181810Y-123261381D01*
X249086571Y-123261381D01*
X248991333Y-123213762D01*
X248943714Y-123166143D01*
X248896095Y-123070905D01*
X248848476Y-122880429D01*
X248848476Y-122642333D01*
X248896095Y-122451857D01*
X248943714Y-122356619D01*
X248991333Y-122309000D01*
X249086571Y-122261381D01*
X257459243Y-110085143D02*
X257411624Y-110132762D01*
X257268767Y-110180381D01*
X257173529Y-110180381D01*
X257030671Y-110132762D01*
X256935433Y-110037524D01*
X256887814Y-109942286D01*
X256840195Y-109751810D01*
X256840195Y-109608952D01*
X256887814Y-109418476D01*
X256935433Y-109323238D01*
X257030671Y-109228000D01*
X257173529Y-109180381D01*
X257268767Y-109180381D01*
X257411624Y-109228000D01*
X257459243Y-109275619D01*
X258411624Y-110180381D02*
X257840195Y-110180381D01*
X258125909Y-110180381D02*
X258125909Y-109180381D01*
X258030671Y-109323238D01*
X257935433Y-109418476D01*
X257840195Y-109466095D01*
X259364005Y-110180381D02*
X258792576Y-110180381D01*
X259078290Y-110180381D02*
X259078290Y-109180381D01*
X258983052Y-109323238D01*
X258887814Y-109418476D01*
X258792576Y-109466095D01*
X226052143Y-96623143D02*
X226004524Y-96670762D01*
X225861667Y-96718381D01*
X225766429Y-96718381D01*
X225623571Y-96670762D01*
X225528333Y-96575524D01*
X225480714Y-96480286D01*
X225433095Y-96289810D01*
X225433095Y-96146952D01*
X225480714Y-95956476D01*
X225528333Y-95861238D01*
X225623571Y-95766000D01*
X225766429Y-95718381D01*
X225861667Y-95718381D01*
X226004524Y-95766000D01*
X226052143Y-95813619D01*
X227004524Y-96718381D02*
X226433095Y-96718381D01*
X226718809Y-96718381D02*
X226718809Y-95718381D01*
X226623571Y-95861238D01*
X226528333Y-95956476D01*
X226433095Y-96004095D01*
X227385476Y-95813619D02*
X227433095Y-95766000D01*
X227528333Y-95718381D01*
X227766429Y-95718381D01*
X227861667Y-95766000D01*
X227909286Y-95813619D01*
X227956905Y-95908857D01*
X227956905Y-96004095D01*
X227909286Y-96146952D01*
X227337857Y-96718381D01*
X227956905Y-96718381D01*
X218416143Y-106433857D02*
X218463762Y-106481476D01*
X218511381Y-106624333D01*
X218511381Y-106719571D01*
X218463762Y-106862429D01*
X218368524Y-106957667D01*
X218273286Y-107005286D01*
X218082810Y-107052905D01*
X217939952Y-107052905D01*
X217749476Y-107005286D01*
X217654238Y-106957667D01*
X217559000Y-106862429D01*
X217511381Y-106719571D01*
X217511381Y-106624333D01*
X217559000Y-106481476D01*
X217606619Y-106433857D01*
X218511381Y-105481476D02*
X218511381Y-106052905D01*
X218511381Y-105767191D02*
X217511381Y-105767191D01*
X217654238Y-105862429D01*
X217749476Y-105957667D01*
X217797095Y-106052905D01*
X217844714Y-104624333D02*
X218511381Y-104624333D01*
X217463762Y-104862429D02*
X218178048Y-105100524D01*
X218178048Y-104481476D01*
X257551181Y-131903695D02*
X256551181Y-131903695D01*
X256551181Y-131665600D01*
X256598800Y-131522742D01*
X256694038Y-131427504D01*
X256789276Y-131379885D01*
X256979752Y-131332266D01*
X257122610Y-131332266D01*
X257313086Y-131379885D01*
X257408324Y-131427504D01*
X257503562Y-131522742D01*
X257551181Y-131665600D01*
X257551181Y-131903695D01*
X257551181Y-130379885D02*
X257551181Y-130951314D01*
X257551181Y-130665600D02*
X256551181Y-130665600D01*
X256694038Y-130760838D01*
X256789276Y-130856076D01*
X256836895Y-130951314D01*
X256179581Y-131903695D02*
X255179581Y-131903695D01*
X255179581Y-131665600D01*
X255227200Y-131522742D01*
X255322438Y-131427504D01*
X255417676Y-131379885D01*
X255608152Y-131332266D01*
X255751010Y-131332266D01*
X255941486Y-131379885D01*
X256036724Y-131427504D01*
X256131962Y-131522742D01*
X256179581Y-131665600D01*
X256179581Y-131903695D01*
X255274819Y-130951314D02*
X255227200Y-130903695D01*
X255179581Y-130808457D01*
X255179581Y-130570361D01*
X255227200Y-130475123D01*
X255274819Y-130427504D01*
X255370057Y-130379885D01*
X255465295Y-130379885D01*
X255608152Y-130427504D01*
X256179581Y-130998933D01*
X256179581Y-130379885D01*
X254807981Y-131903695D02*
X253807981Y-131903695D01*
X253807981Y-131665600D01*
X253855600Y-131522742D01*
X253950838Y-131427504D01*
X254046076Y-131379885D01*
X254236552Y-131332266D01*
X254379410Y-131332266D01*
X254569886Y-131379885D01*
X254665124Y-131427504D01*
X254760362Y-131522742D01*
X254807981Y-131665600D01*
X254807981Y-131903695D01*
X253807981Y-130998933D02*
X253807981Y-130379885D01*
X254188933Y-130713219D01*
X254188933Y-130570361D01*
X254236552Y-130475123D01*
X254284171Y-130427504D01*
X254379410Y-130379885D01*
X254617505Y-130379885D01*
X254712743Y-130427504D01*
X254760362Y-130475123D01*
X254807981Y-130570361D01*
X254807981Y-130856076D01*
X254760362Y-130951314D01*
X254712743Y-130998933D01*
X226415305Y-139136781D02*
X226415305Y-138136781D01*
X226653400Y-138136781D01*
X226796258Y-138184400D01*
X226891496Y-138279638D01*
X226939115Y-138374876D01*
X226986734Y-138565352D01*
X226986734Y-138708210D01*
X226939115Y-138898686D01*
X226891496Y-138993924D01*
X226796258Y-139089162D01*
X226653400Y-139136781D01*
X226415305Y-139136781D01*
X227843877Y-138470114D02*
X227843877Y-139136781D01*
X227605781Y-138089162D02*
X227367686Y-138803448D01*
X227986734Y-138803448D01*
X221511905Y-101671381D02*
X221511905Y-100671381D01*
X221750000Y-100671381D01*
X221892858Y-100719000D01*
X221988096Y-100814238D01*
X222035715Y-100909476D01*
X222083334Y-101099952D01*
X222083334Y-101242810D01*
X222035715Y-101433286D01*
X221988096Y-101528524D01*
X221892858Y-101623762D01*
X221750000Y-101671381D01*
X221511905Y-101671381D01*
X222988096Y-100671381D02*
X222511905Y-100671381D01*
X222464286Y-101147571D01*
X222511905Y-101099952D01*
X222607143Y-101052333D01*
X222845239Y-101052333D01*
X222940477Y-101099952D01*
X222988096Y-101147571D01*
X223035715Y-101242810D01*
X223035715Y-101480905D01*
X222988096Y-101576143D01*
X222940477Y-101623762D01*
X222845239Y-101671381D01*
X222607143Y-101671381D01*
X222511905Y-101623762D01*
X222464286Y-101576143D01*
X253238095Y-104735381D02*
X253238095Y-105544905D01*
X253285714Y-105640143D01*
X253333333Y-105687762D01*
X253428571Y-105735381D01*
X253619048Y-105735381D01*
X253714286Y-105687762D01*
X253761905Y-105640143D01*
X253809524Y-105544905D01*
X253809524Y-104735381D01*
X254714286Y-105068714D02*
X254714286Y-105735381D01*
X254476190Y-104687762D02*
X254238095Y-105402048D01*
X254857143Y-105402048D01*
X243584434Y-121116381D02*
X243108243Y-121116381D01*
X243108243Y-120116381D01*
X244441577Y-121116381D02*
X243870148Y-121116381D01*
X244155862Y-121116381D02*
X244155862Y-120116381D01*
X244060624Y-120259238D01*
X243965386Y-120354476D01*
X243870148Y-120402095D01*
X225005634Y-106224581D02*
X224529443Y-106224581D01*
X224529443Y-105224581D01*
X225243729Y-105224581D02*
X225862777Y-105224581D01*
X225529443Y-105605533D01*
X225672301Y-105605533D01*
X225767539Y-105653152D01*
X225815158Y-105700771D01*
X225862777Y-105796010D01*
X225862777Y-106034105D01*
X225815158Y-106129343D01*
X225767539Y-106176962D01*
X225672301Y-106224581D01*
X225386586Y-106224581D01*
X225291348Y-106176962D01*
X225243729Y-106129343D01*
X262532905Y-121737381D02*
X262532905Y-120737381D01*
X262913858Y-120737381D01*
X263009096Y-120785000D01*
X263056715Y-120832619D01*
X263104334Y-120927857D01*
X263104334Y-121070714D01*
X263056715Y-121165952D01*
X263009096Y-121213571D01*
X262913858Y-121261190D01*
X262532905Y-121261190D01*
X263485286Y-120832619D02*
X263532905Y-120785000D01*
X263628143Y-120737381D01*
X263866239Y-120737381D01*
X263961477Y-120785000D01*
X264009096Y-120832619D01*
X264056715Y-120927857D01*
X264056715Y-121023095D01*
X264009096Y-121165952D01*
X263437667Y-121737381D01*
X264056715Y-121737381D01*
X232306905Y-120086381D02*
X232306905Y-119086381D01*
X232687858Y-119086381D01*
X232783096Y-119134000D01*
X232830715Y-119181619D01*
X232878334Y-119276857D01*
X232878334Y-119419714D01*
X232830715Y-119514952D01*
X232783096Y-119562571D01*
X232687858Y-119610190D01*
X232306905Y-119610190D01*
X233211667Y-119086381D02*
X233830715Y-119086381D01*
X233497381Y-119467333D01*
X233640239Y-119467333D01*
X233735477Y-119514952D01*
X233783096Y-119562571D01*
X233830715Y-119657810D01*
X233830715Y-119895905D01*
X233783096Y-119991143D01*
X233735477Y-120038762D01*
X233640239Y-120086381D01*
X233354524Y-120086381D01*
X233259286Y-120038762D01*
X233211667Y-119991143D01*
X262532905Y-94813381D02*
X262532905Y-93813381D01*
X262913858Y-93813381D01*
X263009096Y-93861000D01*
X263056715Y-93908619D01*
X263104334Y-94003857D01*
X263104334Y-94146714D01*
X263056715Y-94241952D01*
X263009096Y-94289571D01*
X262913858Y-94337190D01*
X262532905Y-94337190D01*
X263961477Y-94146714D02*
X263961477Y-94813381D01*
X263723381Y-93765762D02*
X263485286Y-94480048D01*
X264104334Y-94480048D01*
X241204762Y-140120619D02*
X241109524Y-140073000D01*
X241014286Y-139977762D01*
X240871429Y-139834905D01*
X240776190Y-139787286D01*
X240680952Y-139787286D01*
X240728571Y-140025381D02*
X240633333Y-139977762D01*
X240538095Y-139882524D01*
X240490476Y-139692048D01*
X240490476Y-139358714D01*
X240538095Y-139168238D01*
X240633333Y-139073000D01*
X240728571Y-139025381D01*
X240919048Y-139025381D01*
X241014286Y-139073000D01*
X241109524Y-139168238D01*
X241157143Y-139358714D01*
X241157143Y-139692048D01*
X241109524Y-139882524D01*
X241014286Y-139977762D01*
X240919048Y-140025381D01*
X240728571Y-140025381D01*
X242109524Y-140025381D02*
X241538095Y-140025381D01*
X241823809Y-140025381D02*
X241823809Y-139025381D01*
X241728571Y-139168238D01*
X241633333Y-139263476D01*
X241538095Y-139311095D01*
X252944334Y-127452381D02*
X252611000Y-126976190D01*
X252372905Y-127452381D02*
X252372905Y-126452381D01*
X252753858Y-126452381D01*
X252849096Y-126500000D01*
X252896715Y-126547619D01*
X252944334Y-126642857D01*
X252944334Y-126785714D01*
X252896715Y-126880952D01*
X252849096Y-126928571D01*
X252753858Y-126976190D01*
X252372905Y-126976190D01*
X253896715Y-127452381D02*
X253325286Y-127452381D01*
X253611000Y-127452381D02*
X253611000Y-126452381D01*
X253515762Y-126595238D01*
X253420524Y-126690476D01*
X253325286Y-126738095D01*
X245070334Y-124658381D02*
X244737000Y-124182190D01*
X244498905Y-124658381D02*
X244498905Y-123658381D01*
X244879858Y-123658381D01*
X244975096Y-123706000D01*
X245022715Y-123753619D01*
X245070334Y-123848857D01*
X245070334Y-123991714D01*
X245022715Y-124086952D01*
X244975096Y-124134571D01*
X244879858Y-124182190D01*
X244498905Y-124182190D01*
X245451286Y-123753619D02*
X245498905Y-123706000D01*
X245594143Y-123658381D01*
X245832239Y-123658381D01*
X245927477Y-123706000D01*
X245975096Y-123753619D01*
X246022715Y-123848857D01*
X246022715Y-123944095D01*
X245975096Y-124086952D01*
X245403667Y-124658381D01*
X246022715Y-124658381D01*
X257897334Y-115186381D02*
X257564000Y-114710190D01*
X257325905Y-115186381D02*
X257325905Y-114186381D01*
X257706858Y-114186381D01*
X257802096Y-114234000D01*
X257849715Y-114281619D01*
X257897334Y-114376857D01*
X257897334Y-114519714D01*
X257849715Y-114614952D01*
X257802096Y-114662571D01*
X257706858Y-114710190D01*
X257325905Y-114710190D01*
X258230667Y-114186381D02*
X258849715Y-114186381D01*
X258516381Y-114567333D01*
X258659239Y-114567333D01*
X258754477Y-114614952D01*
X258802096Y-114662571D01*
X258849715Y-114757810D01*
X258849715Y-114995905D01*
X258802096Y-115091143D01*
X258754477Y-115138762D01*
X258659239Y-115186381D01*
X258373524Y-115186381D01*
X258278286Y-115138762D01*
X258230667Y-115091143D01*
X254722334Y-119070381D02*
X254389000Y-118594190D01*
X254150905Y-119070381D02*
X254150905Y-118070381D01*
X254531858Y-118070381D01*
X254627096Y-118118000D01*
X254674715Y-118165619D01*
X254722334Y-118260857D01*
X254722334Y-118403714D01*
X254674715Y-118498952D01*
X254627096Y-118546571D01*
X254531858Y-118594190D01*
X254150905Y-118594190D01*
X255579477Y-118403714D02*
X255579477Y-119070381D01*
X255341381Y-118022762D02*
X255103286Y-118737048D01*
X255722334Y-118737048D01*
X254722334Y-120594381D02*
X254389000Y-120118190D01*
X254150905Y-120594381D02*
X254150905Y-119594381D01*
X254531858Y-119594381D01*
X254627096Y-119642000D01*
X254674715Y-119689619D01*
X254722334Y-119784857D01*
X254722334Y-119927714D01*
X254674715Y-120022952D01*
X254627096Y-120070571D01*
X254531858Y-120118190D01*
X254150905Y-120118190D01*
X255627096Y-119594381D02*
X255150905Y-119594381D01*
X255103286Y-120070571D01*
X255150905Y-120022952D01*
X255246143Y-119975333D01*
X255484239Y-119975333D01*
X255579477Y-120022952D01*
X255627096Y-120070571D01*
X255674715Y-120165810D01*
X255674715Y-120403905D01*
X255627096Y-120499143D01*
X255579477Y-120546762D01*
X255484239Y-120594381D01*
X255246143Y-120594381D01*
X255150905Y-120546762D01*
X255103286Y-120499143D01*
X254722334Y-123769381D02*
X254389000Y-123293190D01*
X254150905Y-123769381D02*
X254150905Y-122769381D01*
X254531858Y-122769381D01*
X254627096Y-122817000D01*
X254674715Y-122864619D01*
X254722334Y-122959857D01*
X254722334Y-123102714D01*
X254674715Y-123197952D01*
X254627096Y-123245571D01*
X254531858Y-123293190D01*
X254150905Y-123293190D01*
X255579477Y-122769381D02*
X255389000Y-122769381D01*
X255293762Y-122817000D01*
X255246143Y-122864619D01*
X255150905Y-123007476D01*
X255103286Y-123197952D01*
X255103286Y-123578905D01*
X255150905Y-123674143D01*
X255198524Y-123721762D01*
X255293762Y-123769381D01*
X255484239Y-123769381D01*
X255579477Y-123721762D01*
X255627096Y-123674143D01*
X255674715Y-123578905D01*
X255674715Y-123340810D01*
X255627096Y-123245571D01*
X255579477Y-123197952D01*
X255484239Y-123150333D01*
X255293762Y-123150333D01*
X255198524Y-123197952D01*
X255150905Y-123245571D01*
X255103286Y-123340810D01*
X254722334Y-122118381D02*
X254389000Y-121642190D01*
X254150905Y-122118381D02*
X254150905Y-121118381D01*
X254531858Y-121118381D01*
X254627096Y-121166000D01*
X254674715Y-121213619D01*
X254722334Y-121308857D01*
X254722334Y-121451714D01*
X254674715Y-121546952D01*
X254627096Y-121594571D01*
X254531858Y-121642190D01*
X254150905Y-121642190D01*
X255055667Y-121118381D02*
X255722334Y-121118381D01*
X255293762Y-122118381D01*
X248034334Y-135326381D02*
X247701000Y-134850190D01*
X247462905Y-135326381D02*
X247462905Y-134326381D01*
X247843858Y-134326381D01*
X247939096Y-134374000D01*
X247986715Y-134421619D01*
X248034334Y-134516857D01*
X248034334Y-134659714D01*
X247986715Y-134754952D01*
X247939096Y-134802571D01*
X247843858Y-134850190D01*
X247462905Y-134850190D01*
X248605762Y-134754952D02*
X248510524Y-134707333D01*
X248462905Y-134659714D01*
X248415286Y-134564476D01*
X248415286Y-134516857D01*
X248462905Y-134421619D01*
X248510524Y-134374000D01*
X248605762Y-134326381D01*
X248796239Y-134326381D01*
X248891477Y-134374000D01*
X248939096Y-134421619D01*
X248986715Y-134516857D01*
X248986715Y-134564476D01*
X248939096Y-134659714D01*
X248891477Y-134707333D01*
X248796239Y-134754952D01*
X248605762Y-134754952D01*
X248510524Y-134802571D01*
X248462905Y-134850190D01*
X248415286Y-134945429D01*
X248415286Y-135135905D01*
X248462905Y-135231143D01*
X248510524Y-135278762D01*
X248605762Y-135326381D01*
X248796239Y-135326381D01*
X248891477Y-135278762D01*
X248939096Y-135231143D01*
X248986715Y-135135905D01*
X248986715Y-134945429D01*
X248939096Y-134850190D01*
X248891477Y-134802571D01*
X248796239Y-134754952D01*
X213828334Y-93797381D02*
X213495000Y-93321190D01*
X213256905Y-93797381D02*
X213256905Y-92797381D01*
X213637858Y-92797381D01*
X213733096Y-92845000D01*
X213780715Y-92892619D01*
X213828334Y-92987857D01*
X213828334Y-93130714D01*
X213780715Y-93225952D01*
X213733096Y-93273571D01*
X213637858Y-93321190D01*
X213256905Y-93321190D01*
X214304524Y-93797381D02*
X214495000Y-93797381D01*
X214590239Y-93749762D01*
X214637858Y-93702143D01*
X214733096Y-93559286D01*
X214780715Y-93368810D01*
X214780715Y-92987857D01*
X214733096Y-92892619D01*
X214685477Y-92845000D01*
X214590239Y-92797381D01*
X214399762Y-92797381D01*
X214304524Y-92845000D01*
X214256905Y-92892619D01*
X214209286Y-92987857D01*
X214209286Y-93225952D01*
X214256905Y-93321190D01*
X214304524Y-93368810D01*
X214399762Y-93416429D01*
X214590239Y-93416429D01*
X214685477Y-93368810D01*
X214733096Y-93321190D01*
X214780715Y-93225952D01*
X212717143Y-91892381D02*
X212383809Y-91416190D01*
X212145714Y-91892381D02*
X212145714Y-90892381D01*
X212526667Y-90892381D01*
X212621905Y-90940000D01*
X212669524Y-90987619D01*
X212717143Y-91082857D01*
X212717143Y-91225714D01*
X212669524Y-91320952D01*
X212621905Y-91368571D01*
X212526667Y-91416190D01*
X212145714Y-91416190D01*
X213669524Y-91892381D02*
X213098095Y-91892381D01*
X213383809Y-91892381D02*
X213383809Y-90892381D01*
X213288571Y-91035238D01*
X213193333Y-91130476D01*
X213098095Y-91178095D01*
X214288571Y-90892381D02*
X214383810Y-90892381D01*
X214479048Y-90940000D01*
X214526667Y-90987619D01*
X214574286Y-91082857D01*
X214621905Y-91273333D01*
X214621905Y-91511429D01*
X214574286Y-91701905D01*
X214526667Y-91797143D01*
X214479048Y-91844762D01*
X214383810Y-91892381D01*
X214288571Y-91892381D01*
X214193333Y-91844762D01*
X214145714Y-91797143D01*
X214098095Y-91701905D01*
X214050476Y-91511429D01*
X214050476Y-91273333D01*
X214098095Y-91082857D01*
X214145714Y-90987619D01*
X214193333Y-90940000D01*
X214288571Y-90892381D01*
X237180215Y-129399801D02*
X237180215Y-130209325D01*
X237227834Y-130304563D01*
X237275453Y-130352182D01*
X237370691Y-130399801D01*
X237561168Y-130399801D01*
X237656406Y-130352182D01*
X237704025Y-130304563D01*
X237751644Y-130209325D01*
X237751644Y-129399801D01*
X238751644Y-130399801D02*
X238180215Y-130399801D01*
X238465929Y-130399801D02*
X238465929Y-129399801D01*
X238370691Y-129542658D01*
X238275453Y-129637896D01*
X238180215Y-129685515D01*
X220726095Y-92035381D02*
X220726095Y-92844905D01*
X220773714Y-92940143D01*
X220821333Y-92987762D01*
X220916571Y-93035381D01*
X221107048Y-93035381D01*
X221202286Y-92987762D01*
X221249905Y-92940143D01*
X221297524Y-92844905D01*
X221297524Y-92035381D01*
X221726095Y-92130619D02*
X221773714Y-92083000D01*
X221868952Y-92035381D01*
X222107048Y-92035381D01*
X222202286Y-92083000D01*
X222249905Y-92130619D01*
X222297524Y-92225857D01*
X222297524Y-92321095D01*
X222249905Y-92463952D01*
X221678476Y-93035381D01*
X222297524Y-93035381D01*
X215257143Y-96623143D02*
X215209524Y-96670762D01*
X215066667Y-96718381D01*
X214971429Y-96718381D01*
X214828571Y-96670762D01*
X214733333Y-96575524D01*
X214685714Y-96480286D01*
X214638095Y-96289810D01*
X214638095Y-96146952D01*
X214685714Y-95956476D01*
X214733333Y-95861238D01*
X214828571Y-95766000D01*
X214971429Y-95718381D01*
X215066667Y-95718381D01*
X215209524Y-95766000D01*
X215257143Y-95813619D01*
X216209524Y-96718381D02*
X215638095Y-96718381D01*
X215923809Y-96718381D02*
X215923809Y-95718381D01*
X215828571Y-95861238D01*
X215733333Y-95956476D01*
X215638095Y-96004095D01*
X217066667Y-95718381D02*
X216876190Y-95718381D01*
X216780952Y-95766000D01*
X216733333Y-95813619D01*
X216638095Y-95956476D01*
X216590476Y-96146952D01*
X216590476Y-96527905D01*
X216638095Y-96623143D01*
X216685714Y-96670762D01*
X216780952Y-96718381D01*
X216971429Y-96718381D01*
X217066667Y-96670762D01*
X217114286Y-96623143D01*
X217161905Y-96527905D01*
X217161905Y-96289810D01*
X217114286Y-96194571D01*
X217066667Y-96146952D01*
X216971429Y-96099333D01*
X216780952Y-96099333D01*
X216685714Y-96146952D01*
X216638095Y-96194571D01*
X216590476Y-96289810D01*
X250309143Y-97476643D02*
X250261524Y-97524262D01*
X250118667Y-97571881D01*
X250023429Y-97571881D01*
X249880571Y-97524262D01*
X249785333Y-97429024D01*
X249737714Y-97333786D01*
X249690095Y-97143310D01*
X249690095Y-97000452D01*
X249737714Y-96809976D01*
X249785333Y-96714738D01*
X249880571Y-96619500D01*
X250023429Y-96571881D01*
X250118667Y-96571881D01*
X250261524Y-96619500D01*
X250309143Y-96667119D01*
X251261524Y-97571881D02*
X250690095Y-97571881D01*
X250975809Y-97571881D02*
X250975809Y-96571881D01*
X250880571Y-96714738D01*
X250785333Y-96809976D01*
X250690095Y-96857595D01*
X251832952Y-97000452D02*
X251737714Y-96952833D01*
X251690095Y-96905214D01*
X251642476Y-96809976D01*
X251642476Y-96762357D01*
X251690095Y-96667119D01*
X251737714Y-96619500D01*
X251832952Y-96571881D01*
X252023429Y-96571881D01*
X252118667Y-96619500D01*
X252166286Y-96667119D01*
X252213905Y-96762357D01*
X252213905Y-96809976D01*
X252166286Y-96905214D01*
X252118667Y-96952833D01*
X252023429Y-97000452D01*
X251832952Y-97000452D01*
X251737714Y-97048071D01*
X251690095Y-97095690D01*
X251642476Y-97190929D01*
X251642476Y-97381405D01*
X251690095Y-97476643D01*
X251737714Y-97524262D01*
X251832952Y-97571881D01*
X252023429Y-97571881D01*
X252118667Y-97524262D01*
X252166286Y-97476643D01*
X252213905Y-97381405D01*
X252213905Y-97190929D01*
X252166286Y-97095690D01*
X252118667Y-97048071D01*
X252023429Y-97000452D01*
X229227143Y-128881143D02*
X229179524Y-128928762D01*
X229036667Y-128976381D01*
X228941429Y-128976381D01*
X228798571Y-128928762D01*
X228703333Y-128833524D01*
X228655714Y-128738286D01*
X228608095Y-128547810D01*
X228608095Y-128404952D01*
X228655714Y-128214476D01*
X228703333Y-128119238D01*
X228798571Y-128024000D01*
X228941429Y-127976381D01*
X229036667Y-127976381D01*
X229179524Y-128024000D01*
X229227143Y-128071619D01*
X230179524Y-128976381D02*
X229608095Y-128976381D01*
X229893809Y-128976381D02*
X229893809Y-127976381D01*
X229798571Y-128119238D01*
X229703333Y-128214476D01*
X229608095Y-128262095D01*
X230655714Y-128976381D02*
X230846190Y-128976381D01*
X230941429Y-128928762D01*
X230989048Y-128881143D01*
X231084286Y-128738286D01*
X231131905Y-128547810D01*
X231131905Y-128166857D01*
X231084286Y-128071619D01*
X231036667Y-128024000D01*
X230941429Y-127976381D01*
X230750952Y-127976381D01*
X230655714Y-128024000D01*
X230608095Y-128071619D01*
X230560476Y-128166857D01*
X230560476Y-128404952D01*
X230608095Y-128500190D01*
X230655714Y-128547810D01*
X230750952Y-128595429D01*
X230941429Y-128595429D01*
X231036667Y-128547810D01*
X231084286Y-128500190D01*
X231131905Y-128404952D01*
M02*
