G04 #@! TF.FileFunction,Copper,L1,Top,Signal*
%FSLAX46Y46*%
G04 Gerber Fmt 4.6, Leading zero omitted, Abs format (unit mm)*
G04 Created by KiCad (PCBNEW 4.0.1-stable) date 29-05-2017 19:13:36*
%MOMM*%
G01*
G04 APERTURE LIST*
%ADD10C,0.100000*%
%ADD11R,4.500000X2.000000*%
%ADD12C,6.400000*%
%ADD13C,0.600000*%
%ADD14R,4.860000X3.360000*%
%ADD15R,1.390000X1.400000*%
%ADD16R,1.700000X1.700000*%
%ADD17O,1.700000X1.700000*%
%ADD18R,1.200000X0.900000*%
%ADD19R,1.600000X2.000000*%
%ADD20R,1.250000X1.500000*%
%ADD21R,2.500000X2.000000*%
%ADD22R,0.650000X2.000000*%
%ADD23R,0.350000X0.600000*%
%ADD24R,1.500000X1.250000*%
%ADD25R,0.900000X1.200000*%
%ADD26R,0.550000X1.600000*%
%ADD27R,1.600000X0.550000*%
%ADD28R,2.000000X2.500000*%
%ADD29R,4.500000X4.700000*%
%ADD30R,0.500000X0.700000*%
%ADD31R,1.200000X0.650000*%
%ADD32R,1.500000X0.400000*%
%ADD33R,2.000000X1.600000*%
%ADD34C,0.736600*%
%ADD35C,0.406400*%
%ADD36C,0.203200*%
%ADD37C,0.812800*%
%ADD38C,1.219200*%
%ADD39C,0.609600*%
%ADD40C,0.254000*%
%ADD41C,1.422400*%
G04 APERTURE END LIST*
D10*
D11*
X245042000Y-102362000D03*
X236542000Y-102362000D03*
D12*
X262778836Y-136144000D03*
D13*
X260378836Y-136144000D03*
X261081780Y-134446944D03*
X262778836Y-133744000D03*
X264475892Y-134446944D03*
X265178836Y-136144000D03*
X264475892Y-137841056D03*
X262778836Y-138544000D03*
X261081780Y-137841056D03*
D14*
X254489036Y-136646798D03*
D15*
X250691036Y-135726798D03*
X250691036Y-137566798D03*
D16*
X234759500Y-114566700D03*
D17*
X234759500Y-112026700D03*
X237299500Y-114566700D03*
X237299500Y-112026700D03*
X239839500Y-114566700D03*
X239839500Y-112026700D03*
D18*
X217995500Y-111709200D03*
X215795500Y-111709200D03*
D19*
X219722700Y-124212600D03*
X219722700Y-128212600D03*
D18*
X215795500Y-113588800D03*
X217995500Y-113588800D03*
D20*
X218249500Y-117963000D03*
X218249500Y-115463000D03*
D21*
X222465900Y-124219200D03*
X222465900Y-128219200D03*
D20*
X223735900Y-117975700D03*
X223735900Y-115475700D03*
D22*
X222018900Y-115015700D03*
X221068900Y-115015700D03*
X220118900Y-115015700D03*
X220118900Y-118435700D03*
X221068900Y-118435700D03*
X222018900Y-118435700D03*
D23*
X220098500Y-121666000D03*
X219448500Y-121666000D03*
D24*
X248759660Y-128770380D03*
X251259660Y-128770380D03*
X243679660Y-128770380D03*
X246179660Y-128770380D03*
D20*
X241386360Y-128531940D03*
X241386360Y-126031940D03*
D24*
X248749500Y-102984300D03*
X251249500Y-102984300D03*
X227591300Y-122567700D03*
X230091300Y-122567700D03*
X248749500Y-101053900D03*
X251249500Y-101053900D03*
X227616700Y-124498100D03*
X230116700Y-124498100D03*
X245026500Y-98234500D03*
X242526500Y-98234500D03*
X235097000Y-98234500D03*
X237597000Y-98234500D03*
D20*
X248158000Y-118511000D03*
X248158000Y-121011000D03*
D24*
X259352100Y-111467900D03*
X256852100Y-111467900D03*
D20*
X224142300Y-97528700D03*
X224142300Y-95028700D03*
D19*
X220129100Y-103765600D03*
X220129100Y-107765600D03*
D25*
X249629660Y-131183380D03*
X252929660Y-131183380D03*
X244676660Y-131183380D03*
X247976660Y-131183380D03*
X239723660Y-131183380D03*
X243023660Y-131183380D03*
D14*
X227804400Y-135884400D03*
D15*
X224006400Y-134964400D03*
X224006400Y-136804400D03*
D23*
X220504900Y-101219000D03*
X219854900Y-101219000D03*
D26*
X252488500Y-106997500D03*
X251688500Y-106997500D03*
X250888500Y-106997500D03*
X250088500Y-106997500D03*
X249288500Y-106997500D03*
X248488500Y-106997500D03*
X247688500Y-106997500D03*
X246888500Y-106997500D03*
D27*
X245438500Y-108447500D03*
X245438500Y-109247500D03*
X245438500Y-110047500D03*
X245438500Y-110847500D03*
X245438500Y-111647500D03*
X245438500Y-112447500D03*
X245438500Y-113247500D03*
X245438500Y-114047500D03*
D26*
X246888500Y-115497500D03*
X247688500Y-115497500D03*
X248488500Y-115497500D03*
X249288500Y-115497500D03*
X250088500Y-115497500D03*
X250888500Y-115497500D03*
X251688500Y-115497500D03*
X252488500Y-115497500D03*
D27*
X253938500Y-114047500D03*
X253938500Y-113247500D03*
X253938500Y-112447500D03*
X253938500Y-111647500D03*
X253938500Y-110847500D03*
X253938500Y-110047500D03*
X253938500Y-109247500D03*
X253938500Y-108447500D03*
D28*
X245751100Y-118364000D03*
X241751100Y-118364000D03*
D21*
X222872300Y-103772200D03*
X222872300Y-107772200D03*
D16*
X263232900Y-105829100D03*
D17*
X263232900Y-108369100D03*
X263232900Y-110909100D03*
X263232900Y-113449100D03*
X263232900Y-115989100D03*
X263232900Y-118529100D03*
D16*
X230085900Y-119646700D03*
D17*
X227545900Y-119646700D03*
X230085900Y-117106700D03*
X227545900Y-117106700D03*
X230085900Y-114566700D03*
X227545900Y-114566700D03*
X230085900Y-112026700D03*
X227545900Y-112026700D03*
D16*
X263271000Y-96901000D03*
D17*
X263271000Y-99441000D03*
X263271000Y-101981000D03*
D12*
X214964000Y-136144000D03*
D13*
X217364000Y-136144000D03*
X216661056Y-137841056D03*
X214964000Y-138544000D03*
X213266944Y-137841056D03*
X212564000Y-136144000D03*
X213266944Y-134446944D03*
X214964000Y-133744000D03*
X216661056Y-134446944D03*
D12*
X214964000Y-151144000D03*
D13*
X217364000Y-151144000D03*
X216661056Y-152841056D03*
X214964000Y-153544000D03*
X213266944Y-152841056D03*
X212564000Y-151144000D03*
X213266944Y-149446944D03*
X214964000Y-148744000D03*
X216661056Y-149446944D03*
D29*
X241338100Y-135940800D03*
D30*
X238838100Y-137940800D03*
X238838100Y-136605800D03*
X238838100Y-135275800D03*
X238838100Y-133940800D03*
D31*
X244838100Y-134035800D03*
X244838100Y-135305800D03*
X244838100Y-136575800D03*
X244838100Y-137845800D03*
D18*
X251178240Y-126931420D03*
X248978240Y-126931420D03*
X246232680Y-126982220D03*
X244032680Y-126982220D03*
X259164000Y-113284000D03*
X256964000Y-113284000D03*
X250804500Y-118618000D03*
X253004500Y-118618000D03*
X253004500Y-120142000D03*
X250804500Y-120142000D03*
X250804500Y-123190000D03*
X253004500Y-123190000D03*
X253004500Y-121666000D03*
X250804500Y-121666000D03*
X247101000Y-133350000D03*
X249301000Y-133350000D03*
X216201900Y-93141800D03*
X218401900Y-93141800D03*
X218401900Y-91262200D03*
X216201900Y-91262200D03*
D32*
X239272120Y-128597420D03*
X239272120Y-127947420D03*
X239272120Y-127297420D03*
X236612120Y-127297420D03*
X236612120Y-127947420D03*
X236612120Y-128597420D03*
D22*
X222425300Y-94568700D03*
X221475300Y-94568700D03*
X220525300Y-94568700D03*
X220525300Y-97988700D03*
X221475300Y-97988700D03*
X222425300Y-97988700D03*
D20*
X218655900Y-97516000D03*
X218655900Y-95016000D03*
D33*
X248939300Y-98869500D03*
X252939300Y-98869500D03*
X227857300Y-126530100D03*
X231857300Y-126530100D03*
D12*
X262778836Y-151144000D03*
D13*
X265178836Y-151144000D03*
X264475892Y-152841056D03*
X262778836Y-153544000D03*
X261081780Y-152841056D03*
X260378836Y-151144000D03*
X261081780Y-149446944D03*
X262778836Y-148744000D03*
X264475892Y-149446944D03*
D34*
X223774000Y-120269000D03*
X224917000Y-122428000D03*
X250444000Y-124333000D03*
X232029000Y-133350000D03*
X232029000Y-134239000D03*
X232029000Y-139573000D03*
X232029000Y-138684000D03*
X232029000Y-137795000D03*
X231140000Y-139573000D03*
X229362000Y-139573000D03*
X230251000Y-139573000D03*
X228473000Y-139573000D03*
X227584000Y-139573000D03*
X226695000Y-139573000D03*
X225806000Y-139573000D03*
X240030000Y-137795000D03*
X240919000Y-137795000D03*
X241808000Y-137795000D03*
X242697000Y-137795000D03*
X242697000Y-134239000D03*
X242697000Y-135128000D03*
X242697000Y-136017000D03*
X242697000Y-136906000D03*
X241808000Y-136906000D03*
X240919000Y-136906000D03*
X240030000Y-136906000D03*
X240030000Y-134239000D03*
X240919000Y-134239000D03*
X240919000Y-135128000D03*
X240030000Y-135128000D03*
X240030000Y-136017000D03*
X240919000Y-136017000D03*
X241808000Y-136017000D03*
X241808000Y-135128000D03*
X241808000Y-134239000D03*
X237363000Y-134239000D03*
X237363000Y-133350000D03*
X236474000Y-133350000D03*
X236474000Y-134239000D03*
X237363000Y-138684000D03*
X237363000Y-137795000D03*
X236474000Y-137795000D03*
X236474000Y-138684000D03*
X225806000Y-138684000D03*
X226695000Y-138684000D03*
X227584000Y-138684000D03*
X228473000Y-138684000D03*
X229362000Y-138684000D03*
X230251000Y-138684000D03*
X231140000Y-138684000D03*
X231140000Y-137795000D03*
X231140000Y-134239000D03*
X231140000Y-133350000D03*
X230251000Y-133350000D03*
X229362000Y-133350000D03*
X228473000Y-133350000D03*
X227584000Y-133350000D03*
X226695000Y-133350000D03*
X225806000Y-133350000D03*
X219653100Y-99669600D03*
X219246700Y-120116600D03*
X222250000Y-134239000D03*
X222250000Y-133350000D03*
X223139000Y-133350000D03*
X224028000Y-133350000D03*
X222250000Y-137795000D03*
X222250000Y-138684000D03*
X223139000Y-138684000D03*
X224028000Y-138684000D03*
X249555000Y-120645400D03*
X217792300Y-120243600D03*
X218198700Y-99796600D03*
X243268500Y-116332000D03*
X236046619Y-109537500D03*
X248666000Y-105346500D03*
X242481100Y-114058700D03*
X251726700Y-111213900D03*
X248920000Y-138684000D03*
X248031000Y-138684000D03*
X247142000Y-138684000D03*
X245364000Y-139573000D03*
X246253000Y-139573000D03*
X247142000Y-139573000D03*
X248031000Y-139573000D03*
X248920000Y-139573000D03*
X249809000Y-139573000D03*
X250698000Y-139573000D03*
X252920500Y-129476500D03*
X251587000Y-117538500D03*
X243954300Y-109283500D03*
X243954300Y-108318300D03*
X252476000Y-133350000D03*
X253365000Y-133350000D03*
X255143000Y-133350000D03*
X254254000Y-133350000D03*
X256032000Y-133350000D03*
X256921000Y-133350000D03*
X257810000Y-133350000D03*
X258699000Y-133350000D03*
X258699000Y-134239000D03*
X258699000Y-135128000D03*
X256032000Y-140462000D03*
X252476000Y-140462000D03*
X253365000Y-140462000D03*
X254254000Y-140462000D03*
X255143000Y-140462000D03*
X256921000Y-140462000D03*
X257810000Y-140462000D03*
X258699000Y-140462000D03*
X258699000Y-139573000D03*
X258699000Y-138684000D03*
X257810000Y-138684000D03*
X257810000Y-139573000D03*
X256921000Y-139573000D03*
X256032000Y-139573000D03*
X255143000Y-139573000D03*
X254254000Y-139573000D03*
X253446034Y-139573000D03*
X252476000Y-139573000D03*
X257810000Y-134239000D03*
X257810000Y-135128000D03*
X256921000Y-134239000D03*
X256032000Y-134239000D03*
X255143000Y-134239000D03*
X254254000Y-134239000D03*
X253365000Y-134239000D03*
X252476000Y-134239000D03*
X242303299Y-123456701D03*
X252349000Y-113919000D03*
X256755900Y-116967000D03*
X249110500Y-111577600D03*
X255816100Y-116967000D03*
X249110500Y-112517400D03*
D35*
X224548701Y-120789701D02*
X224028000Y-120269000D01*
X224028000Y-120269000D02*
X223774000Y-120269000D01*
X224917000Y-122428000D02*
X224548701Y-122059701D01*
X224548701Y-122059701D02*
X224548701Y-120789701D01*
D36*
X250444000Y-124333000D02*
X250444000Y-123550500D01*
X250444000Y-123550500D02*
X250804500Y-123190000D01*
X231140000Y-134239000D02*
X232029000Y-134239000D01*
X232029000Y-137795000D02*
X232029000Y-138684000D01*
X230251000Y-139573000D02*
X231140000Y-139573000D01*
X228473000Y-139573000D02*
X230251000Y-139573000D01*
X226695000Y-139573000D02*
X227584000Y-139573000D01*
X225806000Y-138684000D02*
X225806000Y-139573000D01*
X241338100Y-135940800D02*
X241338100Y-135597900D01*
X241338100Y-135597900D02*
X241808000Y-135128000D01*
X240919000Y-137795000D02*
X240030000Y-137795000D01*
X242697000Y-137795000D02*
X241808000Y-137795000D01*
X242697000Y-135128000D02*
X242697000Y-134239000D01*
X242697000Y-136906000D02*
X242697000Y-136017000D01*
X240919000Y-136906000D02*
X241808000Y-136906000D01*
X240030000Y-136017000D02*
X240030000Y-136906000D01*
X240919000Y-135128000D02*
X240919000Y-134239000D01*
X240030000Y-136017000D02*
X240030000Y-135128000D01*
X241808000Y-136017000D02*
X240919000Y-136017000D01*
X241808000Y-134239000D02*
X241808000Y-135128000D01*
X237363000Y-137795000D02*
X239483900Y-137795000D01*
X239483900Y-137795000D02*
X241338100Y-135940800D01*
X236474000Y-133350000D02*
X237363000Y-133350000D01*
X231140000Y-134239000D02*
X236474000Y-134239000D01*
X236474000Y-137795000D02*
X237363000Y-137795000D01*
X225806000Y-138684000D02*
X225806000Y-137882800D01*
X225806000Y-137882800D02*
X227804400Y-135884400D01*
X226695000Y-138684000D02*
X225806000Y-138684000D01*
X228473000Y-138684000D02*
X227584000Y-138684000D01*
X230251000Y-138684000D02*
X229362000Y-138684000D01*
X231140000Y-137795000D02*
X231140000Y-138684000D01*
X230251000Y-133350000D02*
X231140000Y-133350000D01*
X228473000Y-133350000D02*
X229362000Y-133350000D01*
X226695000Y-133350000D02*
X227584000Y-133350000D01*
X227804400Y-135884400D02*
X227804400Y-134001200D01*
X227804400Y-134001200D02*
X227153200Y-133350000D01*
X227153200Y-133350000D02*
X225806000Y-133350000D01*
D35*
X218655900Y-98672400D02*
X219246700Y-99263200D01*
X219246700Y-99263200D02*
X219653100Y-99669600D01*
X218249500Y-117963000D02*
X218249500Y-119119400D01*
X218249500Y-119119400D02*
X219246700Y-120116600D01*
X221068900Y-119842100D02*
X221068900Y-118435700D01*
X220794400Y-120116600D02*
X221068900Y-119842100D01*
X219246700Y-120116600D02*
X220794400Y-120116600D01*
X218655900Y-97516000D02*
X218655900Y-98672400D01*
X219653100Y-99669600D02*
X221200800Y-99669600D01*
X221200800Y-99669600D02*
X221475300Y-99395100D01*
X221475300Y-99395100D02*
X221475300Y-97988700D01*
D36*
X223139000Y-133350000D02*
X222250000Y-133350000D01*
X224006400Y-134964400D02*
X224006400Y-133371600D01*
X224006400Y-133371600D02*
X224028000Y-133350000D01*
X223139000Y-138684000D02*
X222250000Y-138684000D01*
X224006400Y-136804400D02*
X224006400Y-138662400D01*
X224006400Y-138662400D02*
X224028000Y-138684000D01*
D35*
X224006400Y-136804400D02*
X222905000Y-136804400D01*
X215670401Y-136850401D02*
X214964000Y-136144000D01*
X222905000Y-136804400D02*
X222858999Y-136850401D01*
X222858999Y-136850401D02*
X215670401Y-136850401D01*
X214964000Y-136144000D02*
X215670401Y-135437599D01*
X215670401Y-135437599D02*
X222431801Y-135437599D01*
X222431801Y-135437599D02*
X222905000Y-134964400D01*
X222905000Y-134964400D02*
X224006400Y-134964400D01*
D36*
X220504900Y-101219000D02*
X220891100Y-101219000D01*
D37*
X222399900Y-101219000D02*
X220891100Y-101219000D01*
D38*
X222425300Y-100088700D02*
X222425300Y-101244400D01*
X222425300Y-101244400D02*
X222425300Y-101993700D01*
D36*
X222399900Y-101219000D02*
X222425300Y-101244400D01*
D35*
X222425300Y-97988700D02*
X223682300Y-97988700D01*
X223682300Y-97988700D02*
X224142300Y-97528700D01*
D38*
X222872300Y-102440700D02*
X222872300Y-103772200D01*
X222425300Y-101993700D02*
X222872300Y-102440700D01*
D39*
X222425300Y-97988700D02*
X222425300Y-100088700D01*
D35*
X214964000Y-151144000D02*
X214257599Y-150437599D01*
X214257599Y-150437599D02*
X211524599Y-150437599D01*
X234188000Y-128016000D02*
X234188000Y-127127000D01*
X211524599Y-150437599D02*
X209677000Y-148590000D01*
X209677000Y-148590000D02*
X209677000Y-132334000D01*
X209677000Y-132334000D02*
X211201000Y-130810000D01*
X211201000Y-130810000D02*
X231394000Y-130810000D01*
X240304000Y-121011000D02*
X248158000Y-121011000D01*
X231394000Y-130810000D02*
X234188000Y-128016000D01*
X234188000Y-127127000D02*
X240304000Y-121011000D01*
X252939300Y-98869500D02*
X260159500Y-98869500D01*
X260159500Y-98869500D02*
X263271000Y-101981000D01*
X248158000Y-121011000D02*
X248158000Y-122167400D01*
X248158000Y-122167400D02*
X247643400Y-122682000D01*
X247643400Y-122682000D02*
X244611300Y-122682000D01*
X241386360Y-126031940D02*
X241386360Y-125906940D01*
X241386360Y-125906940D02*
X244611300Y-122682000D01*
D40*
X241386360Y-126156940D02*
X240245880Y-127297420D01*
X240245880Y-127297420D02*
X239272120Y-127297420D01*
X241386360Y-126031940D02*
X241386360Y-126156940D01*
D35*
X230116700Y-124498100D02*
X230116700Y-124789500D01*
X230116700Y-124789500D02*
X231857300Y-126530100D01*
X230116700Y-124498100D02*
X230116700Y-122593100D01*
X230116700Y-122593100D02*
X230091300Y-122567700D01*
X230091300Y-122567700D02*
X230091300Y-119652100D01*
X230091300Y-119652100D02*
X230085900Y-119646700D01*
X251249500Y-101053900D02*
X251249500Y-97300100D01*
X250596400Y-96647000D02*
X242824000Y-96647000D01*
X251249500Y-97300100D02*
X250596400Y-96647000D01*
X242824000Y-96647000D02*
X242526500Y-96944500D01*
X242526500Y-96944500D02*
X242526500Y-98234500D01*
X251249500Y-101053900D02*
X251249500Y-100559300D01*
X251249500Y-100559300D02*
X252939300Y-98869500D01*
X250888500Y-104648000D02*
X250888500Y-104940100D01*
X250888500Y-104940100D02*
X250888500Y-106997500D01*
X251249500Y-102984300D02*
X251249500Y-104015700D01*
X251249500Y-104015700D02*
X250888500Y-104376700D01*
X250888500Y-104376700D02*
X250888500Y-104940100D01*
X251249500Y-101053900D02*
X251249500Y-102984300D01*
X249555000Y-117237400D02*
X249555000Y-119799100D01*
X249555000Y-119799100D02*
X249555000Y-120645400D01*
X249798100Y-120142000D02*
X249555000Y-119898900D01*
X250804500Y-120142000D02*
X249798100Y-120142000D01*
X249555000Y-119898900D02*
X249555000Y-119799100D01*
X250088500Y-115497500D02*
X250088500Y-116703900D01*
X250088500Y-116703900D02*
X249555000Y-117237400D01*
X249189400Y-121011000D02*
X248158000Y-121011000D01*
X249555000Y-120645400D02*
X249189400Y-121011000D01*
X242526500Y-98234500D02*
X237597000Y-98234500D01*
X250088500Y-108804022D02*
X249888622Y-108804022D01*
X249888622Y-108804022D02*
X249288500Y-108203900D01*
X249288500Y-108203900D02*
X249288500Y-106997500D01*
X250088500Y-115497500D02*
X250088500Y-108804022D01*
X250088500Y-108804022D02*
X250888500Y-108004022D01*
X250888500Y-108004022D02*
X250888500Y-106997500D01*
X250804500Y-120142000D02*
X250804500Y-121666000D01*
X215795500Y-111709200D02*
X215795500Y-110852800D01*
X216183700Y-110464600D02*
X219595700Y-110464600D01*
X215795500Y-110852800D02*
X216183700Y-110464600D01*
X219595700Y-110464600D02*
X221068900Y-111937800D01*
X221068900Y-111937800D02*
X221068900Y-115015700D01*
D37*
X217264300Y-115463000D02*
X218249500Y-115463000D01*
X216319100Y-118770400D02*
X216319100Y-116408200D01*
X216319100Y-116408200D02*
X217264300Y-115463000D01*
D35*
X218249500Y-115463000D02*
X218320300Y-115463000D01*
X218320300Y-115463000D02*
X219476700Y-116619400D01*
X221068900Y-116422100D02*
X221068900Y-115015700D01*
D37*
X217792300Y-120243600D02*
X216319100Y-118770400D01*
X218986100Y-121437400D02*
X217792300Y-120243600D01*
D36*
X218986100Y-121581800D02*
X218986100Y-121437400D01*
X219070300Y-121666000D02*
X218986100Y-121581800D01*
D37*
X218986100Y-123476000D02*
X218986100Y-121437400D01*
X219722700Y-124212600D02*
X218986100Y-123476000D01*
D40*
X219448500Y-123938400D02*
X219722700Y-124212600D01*
D36*
X219448500Y-121666000D02*
X219070300Y-121666000D01*
D35*
X219476700Y-116619400D02*
X220871600Y-116619400D01*
X220871600Y-116619400D02*
X221068900Y-116422100D01*
D37*
X218198700Y-99796600D02*
X216725500Y-98323400D01*
X219392500Y-100990400D02*
X218198700Y-99796600D01*
D35*
X216201900Y-91262200D02*
X216201900Y-90405800D01*
X216201900Y-90405800D02*
X216590100Y-90017600D01*
X216590100Y-90017600D02*
X220002100Y-90017600D01*
X220002100Y-90017600D02*
X221475300Y-91490800D01*
X221475300Y-91490800D02*
X221475300Y-94568700D01*
D36*
X219854900Y-101219000D02*
X219476700Y-101219000D01*
X219476700Y-101219000D02*
X219392500Y-101134800D01*
X219392500Y-101134800D02*
X219392500Y-100990400D01*
D37*
X217670700Y-95016000D02*
X218655900Y-95016000D01*
X216725500Y-95961200D02*
X217670700Y-95016000D01*
X216725500Y-98323400D02*
X216725500Y-95961200D01*
X219392500Y-103029000D02*
X219392500Y-100990400D01*
X220129100Y-103765600D02*
X219392500Y-103029000D01*
D40*
X219854900Y-103491400D02*
X220129100Y-103765600D01*
D35*
X218655900Y-95016000D02*
X218726700Y-95016000D01*
X218726700Y-95016000D02*
X219883100Y-96172400D01*
X219883100Y-96172400D02*
X221278000Y-96172400D01*
X221475300Y-95975100D02*
X221475300Y-94568700D01*
X221278000Y-96172400D02*
X221475300Y-95975100D01*
D37*
X221993500Y-121666000D02*
X220484700Y-121666000D01*
D38*
X222018900Y-120535700D02*
X222018900Y-121691400D01*
D36*
X221993500Y-121666000D02*
X222018900Y-121691400D01*
D38*
X222018900Y-121691400D02*
X222018900Y-122440700D01*
D35*
X223275900Y-118435700D02*
X223735900Y-117975700D01*
X222018900Y-118435700D02*
X223275900Y-118435700D01*
D36*
X220098500Y-121666000D02*
X220484700Y-121666000D01*
D38*
X222465900Y-122887700D02*
X222465900Y-124219200D01*
X222018900Y-122440700D02*
X222465900Y-122887700D01*
D39*
X222018900Y-118435700D02*
X222018900Y-120535700D01*
D40*
X263232900Y-113449100D02*
X259329100Y-113449100D01*
X259329100Y-113449100D02*
X259164000Y-113284000D01*
D35*
X241751100Y-118364000D02*
X241751100Y-117849400D01*
X241751100Y-117849400D02*
X243268500Y-116332000D01*
X222872300Y-107772200D02*
X234281319Y-107772200D01*
X234281319Y-107772200D02*
X236046619Y-109537500D01*
X248749500Y-102984300D02*
X248749500Y-105263000D01*
X248749500Y-105263000D02*
X248666000Y-105346500D01*
X248749500Y-101053900D02*
X248749500Y-102984300D01*
X248939300Y-98869500D02*
X248939300Y-100864100D01*
X248939300Y-100864100D02*
X248749500Y-101053900D01*
X241751100Y-118364000D02*
X241751100Y-117658900D01*
X248488500Y-105524000D02*
X248666000Y-105346500D01*
X248488500Y-105524000D02*
X248488500Y-106997500D01*
X249643900Y-105346500D02*
X248666000Y-105346500D01*
X250088500Y-106997500D02*
X250088500Y-105791100D01*
X250088500Y-105791100D02*
X249643900Y-105346500D01*
X220129100Y-107765600D02*
X218922700Y-107765600D01*
X218922700Y-107765600D02*
X215480900Y-104323800D01*
X215480900Y-104323800D02*
X215480900Y-94719200D01*
X215480900Y-94719200D02*
X216201900Y-93998200D01*
X216201900Y-93998200D02*
X216201900Y-93141800D01*
D41*
X220129100Y-107765600D02*
X222865700Y-107765600D01*
X222865700Y-107765600D02*
X222872300Y-107772200D01*
D36*
X245026500Y-98234500D02*
X245026500Y-102346500D01*
X245026500Y-102346500D02*
X245042000Y-102362000D01*
X245997800Y-104521000D02*
X246215200Y-104521000D01*
X246215200Y-104521000D02*
X247688500Y-105994300D01*
X247688500Y-105994300D02*
X247688500Y-106997500D01*
X245042000Y-102362000D02*
X245042000Y-103565200D01*
X245042000Y-103565200D02*
X245997800Y-104521000D01*
X235097000Y-98234500D02*
X235097000Y-100917000D01*
X235097000Y-100917000D02*
X236542000Y-102362000D01*
X244378300Y-104965500D02*
X241598700Y-104965500D01*
X241598700Y-104965500D02*
X238995200Y-102362000D01*
X238995200Y-102362000D02*
X236542000Y-102362000D01*
X246888500Y-106997500D02*
X246410300Y-106997500D01*
X246410300Y-106997500D02*
X244378300Y-104965500D01*
X244435300Y-113247500D02*
X245438500Y-113247500D01*
X242702590Y-113233198D02*
X242716892Y-113247500D01*
X237299500Y-112026700D02*
X238505998Y-113233198D01*
X238505998Y-113233198D02*
X242702590Y-113233198D01*
X242716892Y-113247500D02*
X244435300Y-113247500D01*
X229476300Y-110553500D02*
X235826300Y-110553500D01*
X235826300Y-110553500D02*
X237299500Y-112026700D01*
X228815900Y-111213900D02*
X229476300Y-110553500D01*
X228815900Y-113296700D02*
X228815900Y-111213900D01*
X227545900Y-114566700D02*
X228815900Y-113296700D01*
X244435300Y-114047500D02*
X245438500Y-114047500D01*
X243509689Y-114973111D02*
X244435300Y-114047500D01*
X241922289Y-114973111D02*
X243509689Y-114973111D01*
X241007900Y-115887500D02*
X241922289Y-114973111D01*
X238569500Y-113957100D02*
X238569500Y-115430300D01*
X237909100Y-113296700D02*
X238569500Y-113957100D01*
X234976300Y-113296700D02*
X237909100Y-113296700D01*
X239026700Y-115887500D02*
X241007900Y-115887500D01*
X234759500Y-113513500D02*
X234976300Y-113296700D01*
X234759500Y-114566700D02*
X234759500Y-113513500D01*
X238569500Y-115430300D02*
X239026700Y-115887500D01*
X230085900Y-112026700D02*
X232625900Y-114566700D01*
X232625900Y-114566700D02*
X234759500Y-114566700D01*
X230085900Y-114566700D02*
X231813111Y-116293911D01*
X231813111Y-116293911D02*
X237824630Y-116293911D01*
X246410300Y-115497500D02*
X246888500Y-115497500D01*
X241972651Y-115497500D02*
X246410300Y-115497500D01*
X241176240Y-116293911D02*
X241972651Y-115497500D01*
X237824630Y-116293911D02*
X241176240Y-116293911D01*
X237299500Y-115768781D02*
X237824630Y-116293911D01*
X237299500Y-114566700D02*
X237299500Y-115768781D01*
D35*
X247688500Y-116703900D02*
X248158000Y-117173400D01*
X248158000Y-117173400D02*
X248158000Y-118511000D01*
X245751100Y-118364000D02*
X248011000Y-118364000D01*
X248011000Y-118364000D02*
X248158000Y-118511000D01*
X247688500Y-116703900D02*
X247688500Y-115497500D01*
D36*
X256852100Y-111467900D02*
X256852100Y-113172100D01*
X256852100Y-113172100D02*
X256964000Y-113284000D01*
X256852100Y-111467900D02*
X255898900Y-111467900D01*
X255898900Y-111467900D02*
X255278500Y-110847500D01*
X255278500Y-110847500D02*
X254941700Y-110847500D01*
X254941700Y-110847500D02*
X253938500Y-110847500D01*
X241109500Y-114566700D02*
X241973100Y-114566700D01*
X241973100Y-114566700D02*
X242481100Y-114058700D01*
X253938500Y-110847500D02*
X252093100Y-110847500D01*
X252093100Y-110847500D02*
X251726700Y-111213900D01*
X239839500Y-114566700D02*
X241109500Y-114566700D01*
D40*
X263232900Y-110909100D02*
X262030819Y-110909100D01*
X262030819Y-110909100D02*
X261169219Y-110047500D01*
X261169219Y-110047500D02*
X254992500Y-110047500D01*
X254992500Y-110047500D02*
X253938500Y-110047500D01*
X263232900Y-108369100D02*
X262030819Y-108369100D01*
X262030819Y-108369100D02*
X261152419Y-109247500D01*
X261152419Y-109247500D02*
X254992500Y-109247500D01*
X254992500Y-109247500D02*
X253938500Y-109247500D01*
D35*
X248866660Y-131183380D02*
X247976660Y-131183380D01*
X249629660Y-131183380D02*
X248866660Y-131183380D01*
X248866660Y-131183380D02*
X248759660Y-131076380D01*
X248759660Y-131076380D02*
X248759660Y-128770380D01*
D40*
X251178240Y-126931420D02*
X251178240Y-128688960D01*
X251178240Y-128688960D02*
X251259660Y-128770380D01*
D35*
X243913660Y-131183380D02*
X243679660Y-130949380D01*
X243679660Y-130949380D02*
X243679660Y-128770380D01*
X243913660Y-131183380D02*
X243023660Y-131183380D01*
X244676660Y-131183380D02*
X243913660Y-131183380D01*
D40*
X246179660Y-128770380D02*
X246179660Y-127035240D01*
X246179660Y-127035240D02*
X246232680Y-126982220D01*
X239272120Y-128597420D02*
X241320880Y-128597420D01*
X239723660Y-131183380D02*
X239723660Y-130329380D01*
X239723660Y-130329380D02*
X240099020Y-129954020D01*
X240099020Y-129954020D02*
X240968280Y-129954020D01*
X240968280Y-129954020D02*
X241386360Y-129535940D01*
X241386360Y-129535940D02*
X241386360Y-128531940D01*
D35*
X227857300Y-126530100D02*
X226450900Y-126530100D01*
X226450900Y-126530100D02*
X224761800Y-128219200D01*
X224761800Y-128219200D02*
X224122300Y-128219200D01*
X222465900Y-128219200D02*
X224122300Y-128219200D01*
X227545900Y-119646700D02*
X227545900Y-122522300D01*
X227545900Y-122522300D02*
X227591300Y-122567700D01*
X227616700Y-124498100D02*
X227616700Y-122593100D01*
X227616700Y-122593100D02*
X227591300Y-122567700D01*
X227857300Y-126530100D02*
X227857300Y-124738700D01*
X227857300Y-124738700D02*
X227616700Y-124498100D01*
X215074500Y-115166200D02*
X215795500Y-114445200D01*
X215795500Y-114445200D02*
X215795500Y-113588800D01*
X215074500Y-124770800D02*
X215074500Y-115166200D01*
X219722700Y-128212600D02*
X218516300Y-128212600D01*
X218516300Y-128212600D02*
X215074500Y-124770800D01*
D41*
X219722700Y-128212600D02*
X222459300Y-128212600D01*
X222459300Y-128212600D02*
X222465900Y-128219200D01*
D40*
X265087100Y-106579300D02*
X265087100Y-111290100D01*
X261067300Y-112179100D02*
X264198100Y-112179100D01*
X264198100Y-112179100D02*
X265087100Y-111290100D01*
X259352100Y-111467900D02*
X260356100Y-111467900D01*
X260356100Y-111467900D02*
X261067300Y-112179100D01*
X263232900Y-105829100D02*
X264336900Y-105829100D01*
X264336900Y-105829100D02*
X265087100Y-106579300D01*
D35*
X222425300Y-94568700D02*
X223682300Y-94568700D01*
X223682300Y-94568700D02*
X224142300Y-95028700D01*
X223275900Y-115015700D02*
X223735900Y-115475700D01*
X222018900Y-115015700D02*
X223275900Y-115015700D01*
D36*
X247142000Y-138684000D02*
X248031000Y-138684000D01*
X246253000Y-139573000D02*
X245364000Y-139573000D01*
X248031000Y-139573000D02*
X247142000Y-139573000D01*
X250691036Y-137566798D02*
X250691036Y-139566036D01*
X250691036Y-139566036D02*
X250698000Y-139573000D01*
X249301000Y-133350000D02*
X250109840Y-133350000D01*
X250109840Y-133350000D02*
X250691036Y-132768804D01*
X252920500Y-129476500D02*
X252920500Y-131174220D01*
X252920500Y-131174220D02*
X252929660Y-131183380D01*
X250804500Y-118618000D02*
X250804500Y-118321000D01*
X250804500Y-118321000D02*
X251587000Y-117538500D01*
X252929660Y-131183380D02*
X252276460Y-131183380D01*
X252276460Y-131183380D02*
X250691036Y-132768804D01*
X250691036Y-132768804D02*
X250691036Y-134823598D01*
X250691036Y-134823598D02*
X250691036Y-135726798D01*
D40*
X250691036Y-137566798D02*
X250691036Y-137561798D01*
X250691036Y-137561798D02*
X249705038Y-136575800D01*
X249705038Y-136575800D02*
X245692100Y-136575800D01*
X245692100Y-136575800D02*
X244838100Y-136575800D01*
X244838100Y-136575800D02*
X249842034Y-136575800D01*
X249842034Y-136575800D02*
X250691036Y-135726798D01*
X244838100Y-136575800D02*
X244838100Y-137845800D01*
X244838100Y-135305800D02*
X244838100Y-136575800D01*
X252929660Y-131183380D02*
X252929660Y-131333380D01*
D36*
X250804500Y-118618000D02*
X250804500Y-118384500D01*
X245438500Y-109247500D02*
X243990300Y-109247500D01*
X243990300Y-109247500D02*
X243954300Y-109283500D01*
X245438500Y-108447500D02*
X244083500Y-108447500D01*
X244083500Y-108447500D02*
X243954300Y-108318300D01*
D35*
X234970940Y-129811380D02*
X234970940Y-127934600D01*
X237938060Y-132778500D02*
X234970940Y-129811380D01*
X244312200Y-132778500D02*
X237938060Y-132778500D01*
X247101000Y-133350000D02*
X246094600Y-133350000D01*
X245523100Y-132778500D02*
X244312200Y-132778500D01*
X246094600Y-133350000D02*
X245523100Y-132778500D01*
D40*
X234970940Y-127960240D02*
X235608120Y-128597420D01*
X236612120Y-128597420D02*
X235608120Y-128597420D01*
X234970940Y-127934600D02*
X234970940Y-127960240D01*
X234970940Y-127934600D02*
X235608120Y-127297420D01*
X235608120Y-127297420D02*
X236612120Y-127297420D01*
D35*
X244838100Y-134035800D02*
X244838100Y-133304400D01*
X244838100Y-133304400D02*
X244312200Y-132778500D01*
X218401900Y-93141800D02*
X218401900Y-92197100D01*
X218401900Y-91262200D02*
X218401900Y-92197100D01*
X218401900Y-92197100D02*
X218397000Y-92202000D01*
X218397000Y-92202000D02*
X219773500Y-92202000D01*
X219773500Y-92202000D02*
X220525300Y-92953800D01*
X220525300Y-92953800D02*
X220525300Y-94568700D01*
X217995500Y-111709200D02*
X217995500Y-112644100D01*
X217995500Y-112644100D02*
X217990600Y-112649000D01*
X217995500Y-113588800D02*
X217995500Y-112644100D01*
X219367100Y-112649000D02*
X220118900Y-113400800D01*
X217990600Y-112649000D02*
X219367100Y-112649000D01*
X220118900Y-113400800D02*
X220118900Y-115015700D01*
D36*
X255143000Y-133350000D02*
X253365000Y-133350000D01*
X256032000Y-133350000D02*
X254254000Y-133350000D01*
X257810000Y-133350000D02*
X256921000Y-133350000D01*
X258699000Y-134239000D02*
X258699000Y-133350000D01*
X257810000Y-135128000D02*
X258699000Y-135128000D01*
X253365000Y-140462000D02*
X252476000Y-140462000D01*
X255143000Y-140462000D02*
X254254000Y-140462000D01*
X257810000Y-140462000D02*
X256921000Y-140462000D01*
X258699000Y-139573000D02*
X258699000Y-140462000D01*
X257810000Y-138684000D02*
X258699000Y-138684000D01*
X256921000Y-139573000D02*
X257810000Y-139573000D01*
X255143000Y-139573000D02*
X256032000Y-139573000D01*
X253446034Y-139573000D02*
X254254000Y-139573000D01*
X254489036Y-136646798D02*
X254489036Y-138529998D01*
X254489036Y-138529998D02*
X253446034Y-139573000D01*
X257810000Y-135128000D02*
X257810000Y-134239000D01*
X256921000Y-134239000D02*
X257810000Y-135128000D01*
X255143000Y-134239000D02*
X256032000Y-134239000D01*
X253365000Y-134239000D02*
X254254000Y-134239000D01*
X254489036Y-136646798D02*
X254489036Y-134763598D01*
X254489036Y-134763598D02*
X253964438Y-134239000D01*
X253964438Y-134239000D02*
X252476000Y-134239000D01*
D35*
X262778836Y-136144000D02*
X262072435Y-136850401D01*
X262072435Y-136850401D02*
X257529039Y-136850401D01*
X257529039Y-136850401D02*
X257325436Y-136646798D01*
X257325436Y-136646798D02*
X254489036Y-136646798D01*
X262072435Y-137429399D02*
X262778836Y-136722998D01*
D36*
X237998000Y-125857000D02*
X240398299Y-123456701D01*
X240398299Y-123456701D02*
X242303299Y-123456701D01*
X237998000Y-126619000D02*
X237998000Y-126492000D01*
X250952000Y-109537200D02*
X250952000Y-112522000D01*
X250952000Y-112522000D02*
X252349000Y-113919000D01*
X252488500Y-106997500D02*
X252488500Y-108000700D01*
X252488500Y-108000700D02*
X250952000Y-109537200D01*
X237998000Y-126619000D02*
X237998000Y-125857000D01*
X237998000Y-127698500D02*
X237998000Y-126619000D01*
X238246920Y-127947420D02*
X237998000Y-127698500D01*
X239272120Y-127947420D02*
X238246920Y-127947420D01*
X249872500Y-125679200D02*
X249577260Y-125679200D01*
X253957168Y-125679200D02*
X249872500Y-125679200D01*
X249577260Y-125679200D02*
X248978240Y-126278220D01*
X248978240Y-126278220D02*
X248978240Y-126931420D01*
X256489199Y-123147169D02*
X253957168Y-125679200D01*
X256755900Y-116967000D02*
X256489199Y-117233701D01*
X256489199Y-117233701D02*
X256489199Y-123147169D01*
X246638500Y-111647500D02*
X246835301Y-111844301D01*
X245438500Y-111647500D02*
X246638500Y-111647500D01*
X246835301Y-111844301D02*
X248843799Y-111844301D01*
X248843799Y-111844301D02*
X249110500Y-111577600D01*
X244032680Y-126982220D02*
X244032680Y-126329020D01*
X244032680Y-126329020D02*
X245088900Y-125272800D01*
X245088900Y-125272800D02*
X253788832Y-125272800D01*
X256082801Y-117233701D02*
X255816100Y-116967000D01*
X253788832Y-125272800D02*
X256082801Y-122978831D01*
X256082801Y-122978831D02*
X256082801Y-117233701D01*
X245438500Y-112447500D02*
X246638500Y-112447500D01*
X248843799Y-112250699D02*
X249110500Y-112517400D01*
X246638500Y-112447500D02*
X246835301Y-112250699D01*
X246835301Y-112250699D02*
X248843799Y-112250699D01*
X233045000Y-95631000D02*
X233045000Y-104521000D01*
X239141000Y-106172000D02*
X234696000Y-106172000D01*
X234696000Y-106172000D02*
X233045000Y-104521000D01*
X243078000Y-110109000D02*
X239141000Y-106172000D01*
X244373800Y-110109000D02*
X243078000Y-110109000D01*
X245438500Y-110047500D02*
X244435300Y-110047500D01*
X244435300Y-110047500D02*
X244373800Y-110109000D01*
X234315000Y-94361000D02*
X233045000Y-95631000D01*
X264414000Y-94361000D02*
X234315000Y-94361000D01*
X265049000Y-94996000D02*
X264414000Y-94361000D01*
X265049000Y-98865081D02*
X265049000Y-94996000D01*
X263271000Y-99441000D02*
X264473081Y-99441000D01*
X264473081Y-99441000D02*
X265049000Y-98865081D01*
X251688500Y-115497500D02*
X251688500Y-116500700D01*
X253004500Y-118618000D02*
X253004500Y-117856000D01*
X253004500Y-117816700D02*
X253004500Y-117856000D01*
X251688500Y-116500700D02*
X253004500Y-117816700D01*
D35*
X253004500Y-120142000D02*
X253004500Y-118618000D01*
D36*
X253399300Y-117411500D02*
X253936500Y-117411500D01*
X252488500Y-115497500D02*
X252488500Y-116500700D01*
X252488500Y-116500700D02*
X253399300Y-117411500D01*
X253936500Y-117411500D02*
X254254000Y-117729000D01*
X253004500Y-121666000D02*
X254063500Y-121666000D01*
X254063500Y-121666000D02*
X254254000Y-121475500D01*
X254254000Y-121475500D02*
X254254000Y-117729000D01*
D35*
X253004500Y-123190000D02*
X253004500Y-121666000D01*
D40*
G36*
X224663000Y-145796000D02*
X210693000Y-145796000D01*
X210693000Y-136329167D01*
X211628838Y-136329167D01*
X211770883Y-136672943D01*
X212033673Y-136936192D01*
X212377201Y-137078838D01*
X212706760Y-137079125D01*
X212474752Y-137310729D01*
X212332106Y-137654257D01*
X212331782Y-138026223D01*
X212473827Y-138369999D01*
X212736617Y-138633248D01*
X213080145Y-138775894D01*
X213452111Y-138776218D01*
X213795887Y-138634173D01*
X214029124Y-138401343D01*
X214028838Y-138729167D01*
X214170883Y-139072943D01*
X214433673Y-139336192D01*
X214777201Y-139478838D01*
X215149167Y-139479162D01*
X215492943Y-139337117D01*
X215756192Y-139074327D01*
X215898838Y-138730799D01*
X215899125Y-138401240D01*
X216130729Y-138633248D01*
X216474257Y-138775894D01*
X216846223Y-138776218D01*
X217189999Y-138634173D01*
X217453248Y-138371383D01*
X217595894Y-138027855D01*
X217596218Y-137655889D01*
X217454173Y-137312113D01*
X217221343Y-137078876D01*
X217549167Y-137079162D01*
X217892943Y-136937117D01*
X218156192Y-136674327D01*
X218298838Y-136330799D01*
X218299162Y-135958833D01*
X218157117Y-135615057D01*
X217894327Y-135351808D01*
X217550799Y-135209162D01*
X217221240Y-135208875D01*
X217453248Y-134977271D01*
X217595894Y-134633743D01*
X217596218Y-134261777D01*
X217454173Y-133918001D01*
X217191383Y-133654752D01*
X216847855Y-133512106D01*
X216475889Y-133511782D01*
X216132113Y-133653827D01*
X215898876Y-133886657D01*
X215899162Y-133558833D01*
X215757117Y-133215057D01*
X215494327Y-132951808D01*
X215150799Y-132809162D01*
X214778833Y-132808838D01*
X214435057Y-132950883D01*
X214171808Y-133213673D01*
X214029162Y-133557201D01*
X214028875Y-133886760D01*
X213797271Y-133654752D01*
X213453743Y-133512106D01*
X213081777Y-133511782D01*
X212738001Y-133653827D01*
X212474752Y-133916617D01*
X212332106Y-134260145D01*
X212331782Y-134632111D01*
X212473827Y-134975887D01*
X212706657Y-135209124D01*
X212378833Y-135208838D01*
X212035057Y-135350883D01*
X211771808Y-135613673D01*
X211629162Y-135957201D01*
X211628838Y-136329167D01*
X210693000Y-136329167D01*
X210693000Y-132588000D01*
X224663000Y-132588000D01*
X224663000Y-145796000D01*
X224663000Y-145796000D01*
G37*
X224663000Y-145796000D02*
X210693000Y-145796000D01*
X210693000Y-136329167D01*
X211628838Y-136329167D01*
X211770883Y-136672943D01*
X212033673Y-136936192D01*
X212377201Y-137078838D01*
X212706760Y-137079125D01*
X212474752Y-137310729D01*
X212332106Y-137654257D01*
X212331782Y-138026223D01*
X212473827Y-138369999D01*
X212736617Y-138633248D01*
X213080145Y-138775894D01*
X213452111Y-138776218D01*
X213795887Y-138634173D01*
X214029124Y-138401343D01*
X214028838Y-138729167D01*
X214170883Y-139072943D01*
X214433673Y-139336192D01*
X214777201Y-139478838D01*
X215149167Y-139479162D01*
X215492943Y-139337117D01*
X215756192Y-139074327D01*
X215898838Y-138730799D01*
X215899125Y-138401240D01*
X216130729Y-138633248D01*
X216474257Y-138775894D01*
X216846223Y-138776218D01*
X217189999Y-138634173D01*
X217453248Y-138371383D01*
X217595894Y-138027855D01*
X217596218Y-137655889D01*
X217454173Y-137312113D01*
X217221343Y-137078876D01*
X217549167Y-137079162D01*
X217892943Y-136937117D01*
X218156192Y-136674327D01*
X218298838Y-136330799D01*
X218299162Y-135958833D01*
X218157117Y-135615057D01*
X217894327Y-135351808D01*
X217550799Y-135209162D01*
X217221240Y-135208875D01*
X217453248Y-134977271D01*
X217595894Y-134633743D01*
X217596218Y-134261777D01*
X217454173Y-133918001D01*
X217191383Y-133654752D01*
X216847855Y-133512106D01*
X216475889Y-133511782D01*
X216132113Y-133653827D01*
X215898876Y-133886657D01*
X215899162Y-133558833D01*
X215757117Y-133215057D01*
X215494327Y-132951808D01*
X215150799Y-132809162D01*
X214778833Y-132808838D01*
X214435057Y-132950883D01*
X214171808Y-133213673D01*
X214029162Y-133557201D01*
X214028875Y-133886760D01*
X213797271Y-133654752D01*
X213453743Y-133512106D01*
X213081777Y-133511782D01*
X212738001Y-133653827D01*
X212474752Y-133916617D01*
X212332106Y-134260145D01*
X212331782Y-134632111D01*
X212473827Y-134975887D01*
X212706657Y-135209124D01*
X212378833Y-135208838D01*
X212035057Y-135350883D01*
X211771808Y-135613673D01*
X211629162Y-135957201D01*
X211628838Y-136329167D01*
X210693000Y-136329167D01*
X210693000Y-132588000D01*
X224663000Y-132588000D01*
X224663000Y-145796000D01*
G36*
X214433673Y-134536192D02*
X214777201Y-134678838D01*
X215149167Y-134679162D01*
X215492943Y-134537117D01*
X215726180Y-134304287D01*
X215725894Y-134632111D01*
X215867939Y-134975887D01*
X216130729Y-135239136D01*
X216474257Y-135381782D01*
X216803816Y-135382069D01*
X216571808Y-135613673D01*
X216429162Y-135957201D01*
X216428838Y-136329167D01*
X216570883Y-136672943D01*
X216803713Y-136906180D01*
X216475889Y-136905894D01*
X216132113Y-137047939D01*
X215868864Y-137310729D01*
X215726218Y-137654257D01*
X215725931Y-137983816D01*
X215494327Y-137751808D01*
X215150799Y-137609162D01*
X214778833Y-137608838D01*
X214435057Y-137750883D01*
X214201820Y-137983713D01*
X214202106Y-137655889D01*
X214060061Y-137312113D01*
X213797271Y-137048864D01*
X213453743Y-136906218D01*
X213124184Y-136905931D01*
X213356192Y-136674327D01*
X213498838Y-136330799D01*
X213499162Y-135958833D01*
X213357117Y-135615057D01*
X213124287Y-135381820D01*
X213452111Y-135382106D01*
X213795887Y-135240061D01*
X214059136Y-134977271D01*
X214201782Y-134633743D01*
X214202069Y-134304184D01*
X214433673Y-134536192D01*
X214433673Y-134536192D01*
G37*
X214433673Y-134536192D02*
X214777201Y-134678838D01*
X215149167Y-134679162D01*
X215492943Y-134537117D01*
X215726180Y-134304287D01*
X215725894Y-134632111D01*
X215867939Y-134975887D01*
X216130729Y-135239136D01*
X216474257Y-135381782D01*
X216803816Y-135382069D01*
X216571808Y-135613673D01*
X216429162Y-135957201D01*
X216428838Y-136329167D01*
X216570883Y-136672943D01*
X216803713Y-136906180D01*
X216475889Y-136905894D01*
X216132113Y-137047939D01*
X215868864Y-137310729D01*
X215726218Y-137654257D01*
X215725931Y-137983816D01*
X215494327Y-137751808D01*
X215150799Y-137609162D01*
X214778833Y-137608838D01*
X214435057Y-137750883D01*
X214201820Y-137983713D01*
X214202106Y-137655889D01*
X214060061Y-137312113D01*
X213797271Y-137048864D01*
X213453743Y-136906218D01*
X213124184Y-136905931D01*
X213356192Y-136674327D01*
X213498838Y-136330799D01*
X213499162Y-135958833D01*
X213357117Y-135615057D01*
X213124287Y-135381820D01*
X213452111Y-135382106D01*
X213795887Y-135240061D01*
X214059136Y-134977271D01*
X214201782Y-134633743D01*
X214202069Y-134304184D01*
X214433673Y-134536192D01*
G36*
X237345363Y-133371197D02*
X237617294Y-133552896D01*
X237938060Y-133616700D01*
X243459000Y-133616700D01*
X243459000Y-145796000D01*
X225425000Y-145796000D01*
X225425000Y-132588000D01*
X236562166Y-132588000D01*
X237345363Y-133371197D01*
X237345363Y-133371197D01*
G37*
X237345363Y-133371197D02*
X237617294Y-133552896D01*
X237938060Y-133616700D01*
X243459000Y-133616700D01*
X243459000Y-145796000D01*
X225425000Y-145796000D01*
X225425000Y-132588000D01*
X236562166Y-132588000D01*
X237345363Y-133371197D01*
G36*
X266446000Y-154813000D02*
X210693000Y-154813000D01*
X210693000Y-153678865D01*
X214282882Y-153678865D01*
X214386339Y-153929252D01*
X214577741Y-154120987D01*
X214827946Y-154224882D01*
X215098865Y-154225118D01*
X215349252Y-154121661D01*
X215540987Y-153930259D01*
X215644882Y-153680054D01*
X215644883Y-153678865D01*
X262097718Y-153678865D01*
X262201175Y-153929252D01*
X262392577Y-154120987D01*
X262642782Y-154224882D01*
X262913701Y-154225118D01*
X263164088Y-154121661D01*
X263355823Y-153930259D01*
X263459718Y-153680054D01*
X263459954Y-153409135D01*
X263356497Y-153158748D01*
X263173988Y-152975921D01*
X263794774Y-152975921D01*
X263898231Y-153226308D01*
X264089633Y-153418043D01*
X264339838Y-153521938D01*
X264610757Y-153522174D01*
X264861144Y-153418717D01*
X265052879Y-153227315D01*
X265156774Y-152977110D01*
X265157010Y-152706191D01*
X265053553Y-152455804D01*
X264862151Y-152264069D01*
X264611946Y-152160174D01*
X264341027Y-152159938D01*
X264090640Y-152263395D01*
X263898905Y-152454797D01*
X263795010Y-152705002D01*
X263794774Y-152975921D01*
X263173988Y-152975921D01*
X263165095Y-152967013D01*
X262914890Y-152863118D01*
X262643971Y-152862882D01*
X262393584Y-152966339D01*
X262201849Y-153157741D01*
X262097954Y-153407946D01*
X262097718Y-153678865D01*
X215644883Y-153678865D01*
X215645118Y-153409135D01*
X215541661Y-153158748D01*
X215359152Y-152975921D01*
X215979938Y-152975921D01*
X216083395Y-153226308D01*
X216274797Y-153418043D01*
X216525002Y-153521938D01*
X216795921Y-153522174D01*
X217046308Y-153418717D01*
X217238043Y-153227315D01*
X217341938Y-152977110D01*
X217341939Y-152975921D01*
X260400662Y-152975921D01*
X260504119Y-153226308D01*
X260695521Y-153418043D01*
X260945726Y-153521938D01*
X261216645Y-153522174D01*
X261467032Y-153418717D01*
X261658767Y-153227315D01*
X261762662Y-152977110D01*
X261762898Y-152706191D01*
X261659441Y-152455804D01*
X261468039Y-152264069D01*
X261217834Y-152160174D01*
X260946915Y-152159938D01*
X260696528Y-152263395D01*
X260504793Y-152454797D01*
X260400898Y-152705002D01*
X260400662Y-152975921D01*
X217341939Y-152975921D01*
X217342174Y-152706191D01*
X217238717Y-152455804D01*
X217047315Y-152264069D01*
X216797110Y-152160174D01*
X216526191Y-152159938D01*
X216275804Y-152263395D01*
X216084069Y-152454797D01*
X215980174Y-152705002D01*
X215979938Y-152975921D01*
X215359152Y-152975921D01*
X215350259Y-152967013D01*
X215100054Y-152863118D01*
X214829135Y-152862882D01*
X214578748Y-152966339D01*
X214387013Y-153157741D01*
X214283118Y-153407946D01*
X214282882Y-153678865D01*
X210693000Y-153678865D01*
X210693000Y-152975921D01*
X212585826Y-152975921D01*
X212689283Y-153226308D01*
X212880685Y-153418043D01*
X213130890Y-153521938D01*
X213401809Y-153522174D01*
X213652196Y-153418717D01*
X213843931Y-153227315D01*
X213947826Y-152977110D01*
X213948062Y-152706191D01*
X213844605Y-152455804D01*
X213653203Y-152264069D01*
X213402998Y-152160174D01*
X213132079Y-152159938D01*
X212881692Y-152263395D01*
X212689957Y-152454797D01*
X212586062Y-152705002D01*
X212585826Y-152975921D01*
X210693000Y-152975921D01*
X210693000Y-151278865D01*
X211882882Y-151278865D01*
X211986339Y-151529252D01*
X212177741Y-151720987D01*
X212427946Y-151824882D01*
X212698865Y-151825118D01*
X212949252Y-151721661D01*
X213140987Y-151530259D01*
X213244882Y-151280054D01*
X213244883Y-151278865D01*
X216682882Y-151278865D01*
X216786339Y-151529252D01*
X216977741Y-151720987D01*
X217227946Y-151824882D01*
X217498865Y-151825118D01*
X217749252Y-151721661D01*
X217940987Y-151530259D01*
X218044882Y-151280054D01*
X218044883Y-151278865D01*
X259697718Y-151278865D01*
X259801175Y-151529252D01*
X259992577Y-151720987D01*
X260242782Y-151824882D01*
X260513701Y-151825118D01*
X260764088Y-151721661D01*
X260955823Y-151530259D01*
X261059718Y-151280054D01*
X261059719Y-151278865D01*
X264497718Y-151278865D01*
X264601175Y-151529252D01*
X264792577Y-151720987D01*
X265042782Y-151824882D01*
X265313701Y-151825118D01*
X265564088Y-151721661D01*
X265755823Y-151530259D01*
X265859718Y-151280054D01*
X265859954Y-151009135D01*
X265756497Y-150758748D01*
X265565095Y-150567013D01*
X265314890Y-150463118D01*
X265043971Y-150462882D01*
X264793584Y-150566339D01*
X264601849Y-150757741D01*
X264497954Y-151007946D01*
X264497718Y-151278865D01*
X261059719Y-151278865D01*
X261059954Y-151009135D01*
X260956497Y-150758748D01*
X260765095Y-150567013D01*
X260514890Y-150463118D01*
X260243971Y-150462882D01*
X259993584Y-150566339D01*
X259801849Y-150757741D01*
X259697954Y-151007946D01*
X259697718Y-151278865D01*
X218044883Y-151278865D01*
X218045118Y-151009135D01*
X217941661Y-150758748D01*
X217750259Y-150567013D01*
X217500054Y-150463118D01*
X217229135Y-150462882D01*
X216978748Y-150566339D01*
X216787013Y-150757741D01*
X216683118Y-151007946D01*
X216682882Y-151278865D01*
X213244883Y-151278865D01*
X213245118Y-151009135D01*
X213141661Y-150758748D01*
X212950259Y-150567013D01*
X212700054Y-150463118D01*
X212429135Y-150462882D01*
X212178748Y-150566339D01*
X211987013Y-150757741D01*
X211883118Y-151007946D01*
X211882882Y-151278865D01*
X210693000Y-151278865D01*
X210693000Y-149581809D01*
X212585826Y-149581809D01*
X212689283Y-149832196D01*
X212880685Y-150023931D01*
X213130890Y-150127826D01*
X213401809Y-150128062D01*
X213652196Y-150024605D01*
X213843931Y-149833203D01*
X213947826Y-149582998D01*
X213947827Y-149581809D01*
X215979938Y-149581809D01*
X216083395Y-149832196D01*
X216274797Y-150023931D01*
X216525002Y-150127826D01*
X216795921Y-150128062D01*
X217046308Y-150024605D01*
X217238043Y-149833203D01*
X217341938Y-149582998D01*
X217341939Y-149581809D01*
X260400662Y-149581809D01*
X260504119Y-149832196D01*
X260695521Y-150023931D01*
X260945726Y-150127826D01*
X261216645Y-150128062D01*
X261467032Y-150024605D01*
X261658767Y-149833203D01*
X261762662Y-149582998D01*
X261762663Y-149581809D01*
X263794774Y-149581809D01*
X263898231Y-149832196D01*
X264089633Y-150023931D01*
X264339838Y-150127826D01*
X264610757Y-150128062D01*
X264861144Y-150024605D01*
X265052879Y-149833203D01*
X265156774Y-149582998D01*
X265157010Y-149312079D01*
X265053553Y-149061692D01*
X264862151Y-148869957D01*
X264611946Y-148766062D01*
X264341027Y-148765826D01*
X264090640Y-148869283D01*
X263898905Y-149060685D01*
X263795010Y-149310890D01*
X263794774Y-149581809D01*
X261762663Y-149581809D01*
X261762898Y-149312079D01*
X261659441Y-149061692D01*
X261476932Y-148878865D01*
X262097718Y-148878865D01*
X262201175Y-149129252D01*
X262392577Y-149320987D01*
X262642782Y-149424882D01*
X262913701Y-149425118D01*
X263164088Y-149321661D01*
X263355823Y-149130259D01*
X263459718Y-148880054D01*
X263459954Y-148609135D01*
X263356497Y-148358748D01*
X263165095Y-148167013D01*
X262914890Y-148063118D01*
X262643971Y-148062882D01*
X262393584Y-148166339D01*
X262201849Y-148357741D01*
X262097954Y-148607946D01*
X262097718Y-148878865D01*
X261476932Y-148878865D01*
X261468039Y-148869957D01*
X261217834Y-148766062D01*
X260946915Y-148765826D01*
X260696528Y-148869283D01*
X260504793Y-149060685D01*
X260400898Y-149310890D01*
X260400662Y-149581809D01*
X217341939Y-149581809D01*
X217342174Y-149312079D01*
X217238717Y-149061692D01*
X217047315Y-148869957D01*
X216797110Y-148766062D01*
X216526191Y-148765826D01*
X216275804Y-148869283D01*
X216084069Y-149060685D01*
X215980174Y-149310890D01*
X215979938Y-149581809D01*
X213947827Y-149581809D01*
X213948062Y-149312079D01*
X213844605Y-149061692D01*
X213662096Y-148878865D01*
X214282882Y-148878865D01*
X214386339Y-149129252D01*
X214577741Y-149320987D01*
X214827946Y-149424882D01*
X215098865Y-149425118D01*
X215349252Y-149321661D01*
X215540987Y-149130259D01*
X215644882Y-148880054D01*
X215645118Y-148609135D01*
X215541661Y-148358748D01*
X215350259Y-148167013D01*
X215100054Y-148063118D01*
X214829135Y-148062882D01*
X214578748Y-148166339D01*
X214387013Y-148357741D01*
X214283118Y-148607946D01*
X214282882Y-148878865D01*
X213662096Y-148878865D01*
X213653203Y-148869957D01*
X213402998Y-148766062D01*
X213132079Y-148765826D01*
X212881692Y-148869283D01*
X212689957Y-149060685D01*
X212586062Y-149310890D01*
X212585826Y-149581809D01*
X210693000Y-149581809D01*
X210693000Y-146494500D01*
X266446000Y-146494500D01*
X266446000Y-154813000D01*
X266446000Y-154813000D01*
G37*
X266446000Y-154813000D02*
X210693000Y-154813000D01*
X210693000Y-153678865D01*
X214282882Y-153678865D01*
X214386339Y-153929252D01*
X214577741Y-154120987D01*
X214827946Y-154224882D01*
X215098865Y-154225118D01*
X215349252Y-154121661D01*
X215540987Y-153930259D01*
X215644882Y-153680054D01*
X215644883Y-153678865D01*
X262097718Y-153678865D01*
X262201175Y-153929252D01*
X262392577Y-154120987D01*
X262642782Y-154224882D01*
X262913701Y-154225118D01*
X263164088Y-154121661D01*
X263355823Y-153930259D01*
X263459718Y-153680054D01*
X263459954Y-153409135D01*
X263356497Y-153158748D01*
X263173988Y-152975921D01*
X263794774Y-152975921D01*
X263898231Y-153226308D01*
X264089633Y-153418043D01*
X264339838Y-153521938D01*
X264610757Y-153522174D01*
X264861144Y-153418717D01*
X265052879Y-153227315D01*
X265156774Y-152977110D01*
X265157010Y-152706191D01*
X265053553Y-152455804D01*
X264862151Y-152264069D01*
X264611946Y-152160174D01*
X264341027Y-152159938D01*
X264090640Y-152263395D01*
X263898905Y-152454797D01*
X263795010Y-152705002D01*
X263794774Y-152975921D01*
X263173988Y-152975921D01*
X263165095Y-152967013D01*
X262914890Y-152863118D01*
X262643971Y-152862882D01*
X262393584Y-152966339D01*
X262201849Y-153157741D01*
X262097954Y-153407946D01*
X262097718Y-153678865D01*
X215644883Y-153678865D01*
X215645118Y-153409135D01*
X215541661Y-153158748D01*
X215359152Y-152975921D01*
X215979938Y-152975921D01*
X216083395Y-153226308D01*
X216274797Y-153418043D01*
X216525002Y-153521938D01*
X216795921Y-153522174D01*
X217046308Y-153418717D01*
X217238043Y-153227315D01*
X217341938Y-152977110D01*
X217341939Y-152975921D01*
X260400662Y-152975921D01*
X260504119Y-153226308D01*
X260695521Y-153418043D01*
X260945726Y-153521938D01*
X261216645Y-153522174D01*
X261467032Y-153418717D01*
X261658767Y-153227315D01*
X261762662Y-152977110D01*
X261762898Y-152706191D01*
X261659441Y-152455804D01*
X261468039Y-152264069D01*
X261217834Y-152160174D01*
X260946915Y-152159938D01*
X260696528Y-152263395D01*
X260504793Y-152454797D01*
X260400898Y-152705002D01*
X260400662Y-152975921D01*
X217341939Y-152975921D01*
X217342174Y-152706191D01*
X217238717Y-152455804D01*
X217047315Y-152264069D01*
X216797110Y-152160174D01*
X216526191Y-152159938D01*
X216275804Y-152263395D01*
X216084069Y-152454797D01*
X215980174Y-152705002D01*
X215979938Y-152975921D01*
X215359152Y-152975921D01*
X215350259Y-152967013D01*
X215100054Y-152863118D01*
X214829135Y-152862882D01*
X214578748Y-152966339D01*
X214387013Y-153157741D01*
X214283118Y-153407946D01*
X214282882Y-153678865D01*
X210693000Y-153678865D01*
X210693000Y-152975921D01*
X212585826Y-152975921D01*
X212689283Y-153226308D01*
X212880685Y-153418043D01*
X213130890Y-153521938D01*
X213401809Y-153522174D01*
X213652196Y-153418717D01*
X213843931Y-153227315D01*
X213947826Y-152977110D01*
X213948062Y-152706191D01*
X213844605Y-152455804D01*
X213653203Y-152264069D01*
X213402998Y-152160174D01*
X213132079Y-152159938D01*
X212881692Y-152263395D01*
X212689957Y-152454797D01*
X212586062Y-152705002D01*
X212585826Y-152975921D01*
X210693000Y-152975921D01*
X210693000Y-151278865D01*
X211882882Y-151278865D01*
X211986339Y-151529252D01*
X212177741Y-151720987D01*
X212427946Y-151824882D01*
X212698865Y-151825118D01*
X212949252Y-151721661D01*
X213140987Y-151530259D01*
X213244882Y-151280054D01*
X213244883Y-151278865D01*
X216682882Y-151278865D01*
X216786339Y-151529252D01*
X216977741Y-151720987D01*
X217227946Y-151824882D01*
X217498865Y-151825118D01*
X217749252Y-151721661D01*
X217940987Y-151530259D01*
X218044882Y-151280054D01*
X218044883Y-151278865D01*
X259697718Y-151278865D01*
X259801175Y-151529252D01*
X259992577Y-151720987D01*
X260242782Y-151824882D01*
X260513701Y-151825118D01*
X260764088Y-151721661D01*
X260955823Y-151530259D01*
X261059718Y-151280054D01*
X261059719Y-151278865D01*
X264497718Y-151278865D01*
X264601175Y-151529252D01*
X264792577Y-151720987D01*
X265042782Y-151824882D01*
X265313701Y-151825118D01*
X265564088Y-151721661D01*
X265755823Y-151530259D01*
X265859718Y-151280054D01*
X265859954Y-151009135D01*
X265756497Y-150758748D01*
X265565095Y-150567013D01*
X265314890Y-150463118D01*
X265043971Y-150462882D01*
X264793584Y-150566339D01*
X264601849Y-150757741D01*
X264497954Y-151007946D01*
X264497718Y-151278865D01*
X261059719Y-151278865D01*
X261059954Y-151009135D01*
X260956497Y-150758748D01*
X260765095Y-150567013D01*
X260514890Y-150463118D01*
X260243971Y-150462882D01*
X259993584Y-150566339D01*
X259801849Y-150757741D01*
X259697954Y-151007946D01*
X259697718Y-151278865D01*
X218044883Y-151278865D01*
X218045118Y-151009135D01*
X217941661Y-150758748D01*
X217750259Y-150567013D01*
X217500054Y-150463118D01*
X217229135Y-150462882D01*
X216978748Y-150566339D01*
X216787013Y-150757741D01*
X216683118Y-151007946D01*
X216682882Y-151278865D01*
X213244883Y-151278865D01*
X213245118Y-151009135D01*
X213141661Y-150758748D01*
X212950259Y-150567013D01*
X212700054Y-150463118D01*
X212429135Y-150462882D01*
X212178748Y-150566339D01*
X211987013Y-150757741D01*
X211883118Y-151007946D01*
X211882882Y-151278865D01*
X210693000Y-151278865D01*
X210693000Y-149581809D01*
X212585826Y-149581809D01*
X212689283Y-149832196D01*
X212880685Y-150023931D01*
X213130890Y-150127826D01*
X213401809Y-150128062D01*
X213652196Y-150024605D01*
X213843931Y-149833203D01*
X213947826Y-149582998D01*
X213947827Y-149581809D01*
X215979938Y-149581809D01*
X216083395Y-149832196D01*
X216274797Y-150023931D01*
X216525002Y-150127826D01*
X216795921Y-150128062D01*
X217046308Y-150024605D01*
X217238043Y-149833203D01*
X217341938Y-149582998D01*
X217341939Y-149581809D01*
X260400662Y-149581809D01*
X260504119Y-149832196D01*
X260695521Y-150023931D01*
X260945726Y-150127826D01*
X261216645Y-150128062D01*
X261467032Y-150024605D01*
X261658767Y-149833203D01*
X261762662Y-149582998D01*
X261762663Y-149581809D01*
X263794774Y-149581809D01*
X263898231Y-149832196D01*
X264089633Y-150023931D01*
X264339838Y-150127826D01*
X264610757Y-150128062D01*
X264861144Y-150024605D01*
X265052879Y-149833203D01*
X265156774Y-149582998D01*
X265157010Y-149312079D01*
X265053553Y-149061692D01*
X264862151Y-148869957D01*
X264611946Y-148766062D01*
X264341027Y-148765826D01*
X264090640Y-148869283D01*
X263898905Y-149060685D01*
X263795010Y-149310890D01*
X263794774Y-149581809D01*
X261762663Y-149581809D01*
X261762898Y-149312079D01*
X261659441Y-149061692D01*
X261476932Y-148878865D01*
X262097718Y-148878865D01*
X262201175Y-149129252D01*
X262392577Y-149320987D01*
X262642782Y-149424882D01*
X262913701Y-149425118D01*
X263164088Y-149321661D01*
X263355823Y-149130259D01*
X263459718Y-148880054D01*
X263459954Y-148609135D01*
X263356497Y-148358748D01*
X263165095Y-148167013D01*
X262914890Y-148063118D01*
X262643971Y-148062882D01*
X262393584Y-148166339D01*
X262201849Y-148357741D01*
X262097954Y-148607946D01*
X262097718Y-148878865D01*
X261476932Y-148878865D01*
X261468039Y-148869957D01*
X261217834Y-148766062D01*
X260946915Y-148765826D01*
X260696528Y-148869283D01*
X260504793Y-149060685D01*
X260400898Y-149310890D01*
X260400662Y-149581809D01*
X217341939Y-149581809D01*
X217342174Y-149312079D01*
X217238717Y-149061692D01*
X217047315Y-148869957D01*
X216797110Y-148766062D01*
X216526191Y-148765826D01*
X216275804Y-148869283D01*
X216084069Y-149060685D01*
X215980174Y-149310890D01*
X215979938Y-149581809D01*
X213947827Y-149581809D01*
X213948062Y-149312079D01*
X213844605Y-149061692D01*
X213662096Y-148878865D01*
X214282882Y-148878865D01*
X214386339Y-149129252D01*
X214577741Y-149320987D01*
X214827946Y-149424882D01*
X215098865Y-149425118D01*
X215349252Y-149321661D01*
X215540987Y-149130259D01*
X215644882Y-148880054D01*
X215645118Y-148609135D01*
X215541661Y-148358748D01*
X215350259Y-148167013D01*
X215100054Y-148063118D01*
X214829135Y-148062882D01*
X214578748Y-148166339D01*
X214387013Y-148357741D01*
X214283118Y-148607946D01*
X214282882Y-148878865D01*
X213662096Y-148878865D01*
X213653203Y-148869957D01*
X213402998Y-148766062D01*
X213132079Y-148765826D01*
X212881692Y-148869283D01*
X212689957Y-149060685D01*
X212586062Y-149310890D01*
X212585826Y-149581809D01*
X210693000Y-149581809D01*
X210693000Y-146494500D01*
X266446000Y-146494500D01*
X266446000Y-154813000D01*
G36*
X266446000Y-145796000D02*
X252095000Y-145796000D01*
X252095000Y-136329167D01*
X259443674Y-136329167D01*
X259585719Y-136672943D01*
X259848509Y-136936192D01*
X260192037Y-137078838D01*
X260521596Y-137079125D01*
X260289588Y-137310729D01*
X260146942Y-137654257D01*
X260146618Y-138026223D01*
X260288663Y-138369999D01*
X260551453Y-138633248D01*
X260894981Y-138775894D01*
X261266947Y-138776218D01*
X261610723Y-138634173D01*
X261843960Y-138401343D01*
X261843674Y-138729167D01*
X261985719Y-139072943D01*
X262248509Y-139336192D01*
X262592037Y-139478838D01*
X262964003Y-139479162D01*
X263307779Y-139337117D01*
X263571028Y-139074327D01*
X263713674Y-138730799D01*
X263713961Y-138401240D01*
X263945565Y-138633248D01*
X264289093Y-138775894D01*
X264661059Y-138776218D01*
X265004835Y-138634173D01*
X265268084Y-138371383D01*
X265410730Y-138027855D01*
X265411054Y-137655889D01*
X265269009Y-137312113D01*
X265036179Y-137078876D01*
X265364003Y-137079162D01*
X265707779Y-136937117D01*
X265971028Y-136674327D01*
X266113674Y-136330799D01*
X266113998Y-135958833D01*
X265971953Y-135615057D01*
X265709163Y-135351808D01*
X265365635Y-135209162D01*
X265036076Y-135208875D01*
X265268084Y-134977271D01*
X265410730Y-134633743D01*
X265411054Y-134261777D01*
X265269009Y-133918001D01*
X265006219Y-133654752D01*
X264662691Y-133512106D01*
X264290725Y-133511782D01*
X263946949Y-133653827D01*
X263713712Y-133886657D01*
X263713998Y-133558833D01*
X263571953Y-133215057D01*
X263309163Y-132951808D01*
X262965635Y-132809162D01*
X262593669Y-132808838D01*
X262249893Y-132950883D01*
X261986644Y-133213673D01*
X261843998Y-133557201D01*
X261843711Y-133886760D01*
X261612107Y-133654752D01*
X261268579Y-133512106D01*
X260896613Y-133511782D01*
X260552837Y-133653827D01*
X260289588Y-133916617D01*
X260146942Y-134260145D01*
X260146618Y-134632111D01*
X260288663Y-134975887D01*
X260521493Y-135209124D01*
X260193669Y-135208838D01*
X259849893Y-135350883D01*
X259586644Y-135613673D01*
X259443998Y-135957201D01*
X259443674Y-136329167D01*
X252095000Y-136329167D01*
X252095000Y-132588000D01*
X266446000Y-132588000D01*
X266446000Y-145796000D01*
X266446000Y-145796000D01*
G37*
X266446000Y-145796000D02*
X252095000Y-145796000D01*
X252095000Y-136329167D01*
X259443674Y-136329167D01*
X259585719Y-136672943D01*
X259848509Y-136936192D01*
X260192037Y-137078838D01*
X260521596Y-137079125D01*
X260289588Y-137310729D01*
X260146942Y-137654257D01*
X260146618Y-138026223D01*
X260288663Y-138369999D01*
X260551453Y-138633248D01*
X260894981Y-138775894D01*
X261266947Y-138776218D01*
X261610723Y-138634173D01*
X261843960Y-138401343D01*
X261843674Y-138729167D01*
X261985719Y-139072943D01*
X262248509Y-139336192D01*
X262592037Y-139478838D01*
X262964003Y-139479162D01*
X263307779Y-139337117D01*
X263571028Y-139074327D01*
X263713674Y-138730799D01*
X263713961Y-138401240D01*
X263945565Y-138633248D01*
X264289093Y-138775894D01*
X264661059Y-138776218D01*
X265004835Y-138634173D01*
X265268084Y-138371383D01*
X265410730Y-138027855D01*
X265411054Y-137655889D01*
X265269009Y-137312113D01*
X265036179Y-137078876D01*
X265364003Y-137079162D01*
X265707779Y-136937117D01*
X265971028Y-136674327D01*
X266113674Y-136330799D01*
X266113998Y-135958833D01*
X265971953Y-135615057D01*
X265709163Y-135351808D01*
X265365635Y-135209162D01*
X265036076Y-135208875D01*
X265268084Y-134977271D01*
X265410730Y-134633743D01*
X265411054Y-134261777D01*
X265269009Y-133918001D01*
X265006219Y-133654752D01*
X264662691Y-133512106D01*
X264290725Y-133511782D01*
X263946949Y-133653827D01*
X263713712Y-133886657D01*
X263713998Y-133558833D01*
X263571953Y-133215057D01*
X263309163Y-132951808D01*
X262965635Y-132809162D01*
X262593669Y-132808838D01*
X262249893Y-132950883D01*
X261986644Y-133213673D01*
X261843998Y-133557201D01*
X261843711Y-133886760D01*
X261612107Y-133654752D01*
X261268579Y-133512106D01*
X260896613Y-133511782D01*
X260552837Y-133653827D01*
X260289588Y-133916617D01*
X260146942Y-134260145D01*
X260146618Y-134632111D01*
X260288663Y-134975887D01*
X260521493Y-135209124D01*
X260193669Y-135208838D01*
X259849893Y-135350883D01*
X259586644Y-135613673D01*
X259443998Y-135957201D01*
X259443674Y-136329167D01*
X252095000Y-136329167D01*
X252095000Y-132588000D01*
X266446000Y-132588000D01*
X266446000Y-145796000D01*
G36*
X262248509Y-134536192D02*
X262592037Y-134678838D01*
X262964003Y-134679162D01*
X263307779Y-134537117D01*
X263541016Y-134304287D01*
X263540730Y-134632111D01*
X263682775Y-134975887D01*
X263945565Y-135239136D01*
X264289093Y-135381782D01*
X264618652Y-135382069D01*
X264386644Y-135613673D01*
X264243998Y-135957201D01*
X264243674Y-136329167D01*
X264385719Y-136672943D01*
X264618549Y-136906180D01*
X264290725Y-136905894D01*
X263946949Y-137047939D01*
X263683700Y-137310729D01*
X263541054Y-137654257D01*
X263540767Y-137983816D01*
X263309163Y-137751808D01*
X262965635Y-137609162D01*
X262593669Y-137608838D01*
X262249893Y-137750883D01*
X262016656Y-137983713D01*
X262016942Y-137655889D01*
X261874897Y-137312113D01*
X261612107Y-137048864D01*
X261268579Y-136906218D01*
X260939020Y-136905931D01*
X261171028Y-136674327D01*
X261313674Y-136330799D01*
X261313998Y-135958833D01*
X261171953Y-135615057D01*
X260939123Y-135381820D01*
X261266947Y-135382106D01*
X261610723Y-135240061D01*
X261873972Y-134977271D01*
X262016618Y-134633743D01*
X262016905Y-134304184D01*
X262248509Y-134536192D01*
X262248509Y-134536192D01*
G37*
X262248509Y-134536192D02*
X262592037Y-134678838D01*
X262964003Y-134679162D01*
X263307779Y-134537117D01*
X263541016Y-134304287D01*
X263540730Y-134632111D01*
X263682775Y-134975887D01*
X263945565Y-135239136D01*
X264289093Y-135381782D01*
X264618652Y-135382069D01*
X264386644Y-135613673D01*
X264243998Y-135957201D01*
X264243674Y-136329167D01*
X264385719Y-136672943D01*
X264618549Y-136906180D01*
X264290725Y-136905894D01*
X263946949Y-137047939D01*
X263683700Y-137310729D01*
X263541054Y-137654257D01*
X263540767Y-137983816D01*
X263309163Y-137751808D01*
X262965635Y-137609162D01*
X262593669Y-137608838D01*
X262249893Y-137750883D01*
X262016656Y-137983713D01*
X262016942Y-137655889D01*
X261874897Y-137312113D01*
X261612107Y-137048864D01*
X261268579Y-136906218D01*
X260939020Y-136905931D01*
X261171028Y-136674327D01*
X261313674Y-136330799D01*
X261313998Y-135958833D01*
X261171953Y-135615057D01*
X260939123Y-135381820D01*
X261266947Y-135382106D01*
X261610723Y-135240061D01*
X261873972Y-134977271D01*
X262016618Y-134633743D01*
X262016905Y-134304184D01*
X262248509Y-134536192D01*
G36*
X251460000Y-134727772D02*
X251411596Y-134966798D01*
X251411596Y-138326798D01*
X251455874Y-138562115D01*
X251460000Y-138568527D01*
X251460000Y-145796000D01*
X244221000Y-145796000D01*
X244221000Y-138362601D01*
X244235540Y-138290800D01*
X244235540Y-135007722D01*
X244238100Y-135008240D01*
X245438100Y-135008240D01*
X245673417Y-134963962D01*
X245889541Y-134824890D01*
X246034531Y-134612690D01*
X246085540Y-134360800D01*
X246085540Y-134284668D01*
X246249110Y-134396431D01*
X246501000Y-134447440D01*
X247701000Y-134447440D01*
X247936317Y-134403162D01*
X248152441Y-134264090D01*
X248297431Y-134051890D01*
X248348440Y-133800000D01*
X248348440Y-132900000D01*
X248304162Y-132664683D01*
X248254818Y-132588000D01*
X251460000Y-132588000D01*
X251460000Y-134727772D01*
X251460000Y-134727772D01*
G37*
X251460000Y-134727772D02*
X251411596Y-134966798D01*
X251411596Y-138326798D01*
X251455874Y-138562115D01*
X251460000Y-138568527D01*
X251460000Y-145796000D01*
X244221000Y-145796000D01*
X244221000Y-138362601D01*
X244235540Y-138290800D01*
X244235540Y-135007722D01*
X244238100Y-135008240D01*
X245438100Y-135008240D01*
X245673417Y-134963962D01*
X245889541Y-134824890D01*
X246034531Y-134612690D01*
X246085540Y-134360800D01*
X246085540Y-134284668D01*
X246249110Y-134396431D01*
X246501000Y-134447440D01*
X247701000Y-134447440D01*
X247936317Y-134403162D01*
X248152441Y-134264090D01*
X248297431Y-134051890D01*
X248348440Y-133800000D01*
X248348440Y-132900000D01*
X248304162Y-132664683D01*
X248254818Y-132588000D01*
X251460000Y-132588000D01*
X251460000Y-134727772D01*
G36*
X266879000Y-131916307D02*
X266820051Y-131876029D01*
X266573000Y-131826000D01*
X253759493Y-131826000D01*
X253768124Y-131783380D01*
X253768124Y-130583380D01*
X253741557Y-130442190D01*
X253658114Y-130312515D01*
X253530794Y-130225521D01*
X253403100Y-130199663D01*
X253403100Y-130053489D01*
X253555356Y-129901499D01*
X253669670Y-129626199D01*
X253669930Y-129328109D01*
X253556096Y-129052610D01*
X253345499Y-128841644D01*
X253070199Y-128727330D01*
X252772109Y-128727070D01*
X252496610Y-128840904D01*
X252398124Y-128939218D01*
X252398124Y-128145380D01*
X252371557Y-128004190D01*
X252288114Y-127874515D01*
X252160794Y-127787521D01*
X252009660Y-127756916D01*
X251847158Y-127756916D01*
X251919430Y-127743317D01*
X252049105Y-127659874D01*
X252136099Y-127532554D01*
X252166704Y-127381420D01*
X252166704Y-126481420D01*
X252140137Y-126340230D01*
X252056694Y-126210555D01*
X251985339Y-126161800D01*
X253957168Y-126161800D01*
X254141851Y-126125064D01*
X254298418Y-126020450D01*
X256830446Y-123488421D01*
X256830449Y-123488419D01*
X256935063Y-123331852D01*
X256937404Y-123320081D01*
X256971800Y-123147169D01*
X256971799Y-123147164D01*
X256971799Y-118885990D01*
X261791424Y-118885990D01*
X261961255Y-119296024D01*
X262351542Y-119724283D01*
X262876008Y-119970586D01*
X263105900Y-119849919D01*
X263105900Y-118656100D01*
X263359900Y-118656100D01*
X263359900Y-119849919D01*
X263589792Y-119970586D01*
X264114258Y-119724283D01*
X264504545Y-119296024D01*
X264674376Y-118885990D01*
X264553055Y-118656100D01*
X263359900Y-118656100D01*
X263105900Y-118656100D01*
X261912745Y-118656100D01*
X261791424Y-118885990D01*
X256971799Y-118885990D01*
X256971799Y-118172210D01*
X261791424Y-118172210D01*
X261912745Y-118402100D01*
X263105900Y-118402100D01*
X263105900Y-118382100D01*
X263359900Y-118382100D01*
X263359900Y-118402100D01*
X264553055Y-118402100D01*
X264674376Y-118172210D01*
X264504545Y-117762176D01*
X264114258Y-117333917D01*
X263688953Y-117134183D01*
X263728100Y-117126396D01*
X264127465Y-116859548D01*
X264394313Y-116460183D01*
X264488017Y-115989100D01*
X264394313Y-115518017D01*
X264127465Y-115118652D01*
X263728100Y-114851804D01*
X263257017Y-114758100D01*
X263208783Y-114758100D01*
X262737700Y-114851804D01*
X262338335Y-115118652D01*
X262071487Y-115518017D01*
X261977783Y-115989100D01*
X262071487Y-116460183D01*
X262338335Y-116859548D01*
X262737700Y-117126396D01*
X262776847Y-117134183D01*
X262351542Y-117333917D01*
X261961255Y-117762176D01*
X261791424Y-118172210D01*
X256971799Y-118172210D01*
X256971799Y-117688536D01*
X257179790Y-117602596D01*
X257390756Y-117391999D01*
X257505070Y-117116699D01*
X257505330Y-116818609D01*
X257391496Y-116543110D01*
X257180899Y-116332144D01*
X256905599Y-116217830D01*
X256607509Y-116217570D01*
X256332010Y-116331404D01*
X256286105Y-116377229D01*
X256241099Y-116332144D01*
X255965799Y-116217830D01*
X255667709Y-116217570D01*
X255392210Y-116331404D01*
X255181244Y-116542001D01*
X255066930Y-116817301D01*
X255066670Y-117115391D01*
X255180504Y-117390890D01*
X255391101Y-117601856D01*
X255600201Y-117688681D01*
X255600201Y-122778931D01*
X253588932Y-124790200D01*
X251046599Y-124790200D01*
X251078856Y-124757999D01*
X251193170Y-124482699D01*
X251193430Y-124184609D01*
X251128912Y-124028464D01*
X251404500Y-124028464D01*
X251545690Y-124001897D01*
X251675365Y-123918454D01*
X251762359Y-123791134D01*
X251792964Y-123640000D01*
X251792964Y-122740000D01*
X251774841Y-122643684D01*
X251942827Y-122475699D01*
X252039500Y-122242310D01*
X252039500Y-122240699D01*
X252042603Y-122257190D01*
X252126046Y-122386865D01*
X252186015Y-122427840D01*
X252133635Y-122461546D01*
X252046641Y-122588866D01*
X252016036Y-122740000D01*
X252016036Y-123640000D01*
X252042603Y-123781190D01*
X252126046Y-123910865D01*
X252253366Y-123997859D01*
X252404500Y-124028464D01*
X253604500Y-124028464D01*
X253745690Y-124001897D01*
X253875365Y-123918454D01*
X253962359Y-123791134D01*
X253992964Y-123640000D01*
X253992964Y-122740000D01*
X253966397Y-122598810D01*
X253882954Y-122469135D01*
X253822985Y-122428160D01*
X253875365Y-122394454D01*
X253962359Y-122267134D01*
X253986362Y-122148600D01*
X254063500Y-122148600D01*
X254248183Y-122111864D01*
X254404750Y-122007250D01*
X254595250Y-121816750D01*
X254699864Y-121660183D01*
X254736601Y-121475500D01*
X254736600Y-121475495D01*
X254736600Y-117729005D01*
X254736601Y-117729000D01*
X254699864Y-117544317D01*
X254595250Y-117387750D01*
X254277750Y-117070250D01*
X254121183Y-116965636D01*
X253936500Y-116928900D01*
X253599200Y-116928900D01*
X253120375Y-116450075D01*
X253121359Y-116448634D01*
X253151964Y-116297500D01*
X253151964Y-114710964D01*
X254738500Y-114710964D01*
X254879690Y-114684397D01*
X255009365Y-114600954D01*
X255096359Y-114473634D01*
X255126964Y-114322500D01*
X255126964Y-113772500D01*
X255102580Y-113642912D01*
X255126964Y-113522500D01*
X255126964Y-112972500D01*
X255102580Y-112842912D01*
X255126964Y-112722500D01*
X255126964Y-112172500D01*
X255102580Y-112042912D01*
X255126964Y-111922500D01*
X255126964Y-111378464D01*
X255557650Y-111809150D01*
X255713636Y-111913376D01*
X255713636Y-112092900D01*
X255740203Y-112234090D01*
X255823646Y-112363765D01*
X255950966Y-112450759D01*
X256102100Y-112481364D01*
X256208418Y-112481364D01*
X256093135Y-112555546D01*
X256006141Y-112682866D01*
X255975536Y-112834000D01*
X255975536Y-113734000D01*
X256002103Y-113875190D01*
X256085546Y-114004865D01*
X256212866Y-114091859D01*
X256364000Y-114122464D01*
X257564000Y-114122464D01*
X257705190Y-114095897D01*
X257834865Y-114012454D01*
X257921859Y-113885134D01*
X257952464Y-113734000D01*
X257952464Y-112834000D01*
X257925897Y-112692810D01*
X257842454Y-112563135D01*
X257715134Y-112476141D01*
X257674061Y-112467824D01*
X257743290Y-112454797D01*
X257872965Y-112371354D01*
X257959959Y-112244034D01*
X257990564Y-112092900D01*
X257990564Y-110842900D01*
X257963997Y-110701710D01*
X257880554Y-110572035D01*
X257856354Y-110555500D01*
X258345138Y-110555500D01*
X258331235Y-110564446D01*
X258244241Y-110691766D01*
X258213636Y-110842900D01*
X258213636Y-112092900D01*
X258240203Y-112234090D01*
X258323646Y-112363765D01*
X258450966Y-112450759D01*
X258492039Y-112459076D01*
X258422810Y-112472103D01*
X258293135Y-112555546D01*
X258206141Y-112682866D01*
X258175536Y-112834000D01*
X258175536Y-113734000D01*
X258202103Y-113875190D01*
X258285546Y-114004865D01*
X258412866Y-114091859D01*
X258564000Y-114122464D01*
X259764000Y-114122464D01*
X259905190Y-114095897D01*
X260034865Y-114012454D01*
X260072687Y-113957100D01*
X262096154Y-113957100D01*
X262338335Y-114319548D01*
X262737700Y-114586396D01*
X263208783Y-114680100D01*
X263257017Y-114680100D01*
X263728100Y-114586396D01*
X264127465Y-114319548D01*
X264394313Y-113920183D01*
X264488017Y-113449100D01*
X264394313Y-112978017D01*
X264199713Y-112686779D01*
X264392503Y-112648431D01*
X264557310Y-112538310D01*
X265446310Y-111649310D01*
X265556431Y-111484503D01*
X265595100Y-111290100D01*
X265595100Y-106579300D01*
X265556431Y-106384897D01*
X265446310Y-106220090D01*
X264696110Y-105469890D01*
X264531303Y-105359769D01*
X264471364Y-105347846D01*
X264471364Y-104979100D01*
X264444797Y-104837910D01*
X264361354Y-104708235D01*
X264234034Y-104621241D01*
X264082900Y-104590636D01*
X262382900Y-104590636D01*
X262241710Y-104617203D01*
X262112035Y-104700646D01*
X262025041Y-104827966D01*
X261994436Y-104979100D01*
X261994436Y-106679100D01*
X262021003Y-106820290D01*
X262104446Y-106949965D01*
X262231766Y-107036959D01*
X262382900Y-107067564D01*
X264082900Y-107067564D01*
X264224090Y-107040997D01*
X264353765Y-106957554D01*
X264440759Y-106830234D01*
X264470878Y-106681498D01*
X264579100Y-106789720D01*
X264579100Y-111079680D01*
X264423046Y-111235734D01*
X264488017Y-110909100D01*
X264394313Y-110438017D01*
X264127465Y-110038652D01*
X263728100Y-109771804D01*
X263257017Y-109678100D01*
X263208783Y-109678100D01*
X262737700Y-109771804D01*
X262338335Y-110038652D01*
X262154267Y-110314128D01*
X261528429Y-109688290D01*
X261458983Y-109641887D01*
X261511629Y-109606710D01*
X262154267Y-108964072D01*
X262338335Y-109239548D01*
X262737700Y-109506396D01*
X263208783Y-109600100D01*
X263257017Y-109600100D01*
X263728100Y-109506396D01*
X264127465Y-109239548D01*
X264394313Y-108840183D01*
X264488017Y-108369100D01*
X264394313Y-107898017D01*
X264127465Y-107498652D01*
X263728100Y-107231804D01*
X263257017Y-107138100D01*
X263208783Y-107138100D01*
X262737700Y-107231804D01*
X262338335Y-107498652D01*
X262096154Y-107861100D01*
X262030819Y-107861100D01*
X261836415Y-107899769D01*
X261671609Y-108009890D01*
X260941999Y-108739500D01*
X255123521Y-108739500D01*
X255126964Y-108722500D01*
X255126964Y-108172500D01*
X255100397Y-108031310D01*
X255016954Y-107901635D01*
X254889634Y-107814641D01*
X254738500Y-107784036D01*
X253151964Y-107784036D01*
X253151964Y-106197500D01*
X253125397Y-106056310D01*
X253041954Y-105926635D01*
X252914634Y-105839641D01*
X252763500Y-105809036D01*
X252213500Y-105809036D01*
X252083912Y-105833420D01*
X251963500Y-105809036D01*
X251673061Y-105809036D01*
X251523199Y-105659173D01*
X251289810Y-105562500D01*
X251174250Y-105562500D01*
X251015500Y-105721250D01*
X251015500Y-106870500D01*
X251025036Y-106870500D01*
X251025036Y-107124500D01*
X251015500Y-107124500D01*
X251015500Y-108273750D01*
X251174250Y-108432500D01*
X251289810Y-108432500D01*
X251433873Y-108372827D01*
X250610750Y-109195950D01*
X250506136Y-109352517D01*
X250469400Y-109537200D01*
X250469400Y-112522000D01*
X250506136Y-112706683D01*
X250610750Y-112863250D01*
X251599758Y-113852257D01*
X251599570Y-114067391D01*
X251699416Y-114309036D01*
X251413500Y-114309036D01*
X251283912Y-114333420D01*
X251163500Y-114309036D01*
X250873061Y-114309036D01*
X250723199Y-114159173D01*
X250489810Y-114062500D01*
X250374250Y-114062500D01*
X250215500Y-114221250D01*
X250215500Y-115370500D01*
X250225036Y-115370500D01*
X250225036Y-115624500D01*
X250215500Y-115624500D01*
X250215500Y-116773750D01*
X250374250Y-116932500D01*
X250489810Y-116932500D01*
X250723199Y-116835827D01*
X250873061Y-116685964D01*
X251163500Y-116685964D01*
X251239892Y-116671590D01*
X251242636Y-116685383D01*
X251339327Y-116830092D01*
X251163110Y-116902904D01*
X250952144Y-117113501D01*
X250837830Y-117388801D01*
X250837641Y-117605359D01*
X250663464Y-117779536D01*
X250204500Y-117779536D01*
X250063310Y-117806103D01*
X249933635Y-117889546D01*
X249846641Y-118016866D01*
X249816036Y-118168000D01*
X249816036Y-119068000D01*
X249834159Y-119164316D01*
X249666173Y-119332301D01*
X249569500Y-119565690D01*
X249569500Y-119856250D01*
X249728250Y-120015000D01*
X250677500Y-120015000D01*
X250677500Y-119995000D01*
X250931500Y-119995000D01*
X250931500Y-120015000D01*
X250951500Y-120015000D01*
X250951500Y-120269000D01*
X250931500Y-120269000D01*
X250931500Y-121539000D01*
X250951500Y-121539000D01*
X250951500Y-121793000D01*
X250931500Y-121793000D01*
X250931500Y-121813000D01*
X250677500Y-121813000D01*
X250677500Y-121793000D01*
X249728250Y-121793000D01*
X249569500Y-121951750D01*
X249569500Y-122242310D01*
X249666173Y-122475699D01*
X249835308Y-122644833D01*
X249816036Y-122740000D01*
X249816036Y-123640000D01*
X249842603Y-123781190D01*
X249879201Y-123838066D01*
X249809144Y-123908001D01*
X249694830Y-124183301D01*
X249694570Y-124481391D01*
X249808404Y-124756890D01*
X249841656Y-124790200D01*
X245088905Y-124790200D01*
X245088900Y-124790199D01*
X244904217Y-124826936D01*
X244747650Y-124931550D01*
X244747648Y-124931553D01*
X243691430Y-125987770D01*
X243587204Y-126143756D01*
X243432680Y-126143756D01*
X243291490Y-126170323D01*
X243161815Y-126253766D01*
X243074821Y-126381086D01*
X243044216Y-126532220D01*
X243044216Y-127432220D01*
X243070783Y-127573410D01*
X243154226Y-127703085D01*
X243233010Y-127756916D01*
X242929660Y-127756916D01*
X242788470Y-127783483D01*
X242658795Y-127866926D01*
X242571801Y-127994246D01*
X242541196Y-128145380D01*
X242541196Y-129395380D01*
X242567763Y-129536570D01*
X242651206Y-129666245D01*
X242778526Y-129753239D01*
X242929660Y-129783844D01*
X243095460Y-129783844D01*
X243095460Y-130194916D01*
X242573660Y-130194916D01*
X242432470Y-130221483D01*
X242302795Y-130304926D01*
X242215801Y-130432246D01*
X242185196Y-130583380D01*
X242185196Y-131783380D01*
X242193216Y-131826000D01*
X240553493Y-131826000D01*
X240562124Y-131783380D01*
X240562124Y-130583380D01*
X240539288Y-130462020D01*
X240968280Y-130462020D01*
X241162683Y-130423351D01*
X241327490Y-130313230D01*
X241745570Y-129895151D01*
X241855691Y-129730344D01*
X241866931Y-129673834D01*
X241867614Y-129670404D01*
X242011360Y-129670404D01*
X242152550Y-129643837D01*
X242282225Y-129560394D01*
X242369219Y-129433074D01*
X242399824Y-129281940D01*
X242399824Y-127781940D01*
X242373257Y-127640750D01*
X242289814Y-127511075D01*
X242162494Y-127424081D01*
X242127230Y-127416940D01*
X242137670Y-127416940D01*
X242371059Y-127320267D01*
X242549687Y-127141638D01*
X242646360Y-126908249D01*
X242646360Y-126317690D01*
X242487610Y-126158940D01*
X241513360Y-126158940D01*
X241513360Y-126178940D01*
X241259360Y-126178940D01*
X241259360Y-126158940D01*
X240285110Y-126158940D01*
X240126360Y-126317690D01*
X240126360Y-126462420D01*
X239557870Y-126462420D01*
X239399120Y-126621170D01*
X239399120Y-127197420D01*
X239419120Y-127197420D01*
X239419120Y-127358956D01*
X239125120Y-127358956D01*
X239125120Y-127197420D01*
X239145120Y-127197420D01*
X239145120Y-126621170D01*
X238986370Y-126462420D01*
X238480600Y-126462420D01*
X238480600Y-126056900D01*
X239381868Y-125155631D01*
X240126360Y-125155631D01*
X240126360Y-125746190D01*
X240285110Y-125904940D01*
X241259360Y-125904940D01*
X241259360Y-124805690D01*
X241513360Y-124805690D01*
X241513360Y-125904940D01*
X242487610Y-125904940D01*
X242646360Y-125746190D01*
X242646360Y-125155631D01*
X242549687Y-124922242D01*
X242371059Y-124743613D01*
X242137670Y-124646940D01*
X241672110Y-124646940D01*
X241513360Y-124805690D01*
X241259360Y-124805690D01*
X241100610Y-124646940D01*
X240635050Y-124646940D01*
X240401661Y-124743613D01*
X240223033Y-124922242D01*
X240126360Y-125155631D01*
X239381868Y-125155631D01*
X240598198Y-123939301D01*
X241726310Y-123939301D01*
X241878300Y-124091557D01*
X242153600Y-124205871D01*
X242451690Y-124206131D01*
X242727189Y-124092297D01*
X242938155Y-123881700D01*
X243052469Y-123606400D01*
X243052729Y-123308310D01*
X242938895Y-123032811D01*
X242728298Y-122821845D01*
X242452998Y-122707531D01*
X242154908Y-122707271D01*
X241879409Y-122821105D01*
X241726145Y-122974101D01*
X240398299Y-122974101D01*
X240213616Y-123010837D01*
X240057049Y-123115451D01*
X240057047Y-123115454D01*
X237656750Y-125515750D01*
X237552136Y-125672317D01*
X237515400Y-125857000D01*
X237515400Y-126741027D01*
X237513254Y-126739561D01*
X237362120Y-126708956D01*
X235862120Y-126708956D01*
X235720930Y-126735523D01*
X235637171Y-126789420D01*
X235608120Y-126789420D01*
X235413717Y-126828089D01*
X235248910Y-126938209D01*
X234803392Y-127383728D01*
X234747376Y-127394870D01*
X234557848Y-127521508D01*
X234431210Y-127711036D01*
X234386740Y-127934600D01*
X234386740Y-129811380D01*
X234431210Y-130034944D01*
X234555851Y-130221483D01*
X234557848Y-130224472D01*
X236159376Y-131826000D01*
X225298000Y-131826000D01*
X225067205Y-131869427D01*
X225046700Y-131882622D01*
X225037051Y-131876029D01*
X224790000Y-131826000D01*
X210566000Y-131826000D01*
X210335205Y-131869427D01*
X210123233Y-132005827D01*
X209981029Y-132213949D01*
X209931000Y-132461000D01*
X209931000Y-145923000D01*
X209974427Y-146153795D01*
X210110827Y-146365767D01*
X210318949Y-146507971D01*
X210439000Y-146532282D01*
X210439000Y-154940000D01*
X210447685Y-154986159D01*
X210474965Y-155028553D01*
X210516590Y-155056994D01*
X210566000Y-155067000D01*
X266573000Y-155067000D01*
X266619159Y-155058315D01*
X266661553Y-155031035D01*
X266689994Y-154989410D01*
X266700000Y-154940000D01*
X266700000Y-146534103D01*
X266803795Y-146514573D01*
X266879000Y-146466180D01*
X266879000Y-155119000D01*
X209371000Y-155119000D01*
X209371000Y-115166200D01*
X214490300Y-115166200D01*
X214490300Y-124770800D01*
X214534770Y-124994364D01*
X214620788Y-125123100D01*
X214661408Y-125183892D01*
X218103208Y-128625692D01*
X218292736Y-128752330D01*
X218516300Y-128796800D01*
X218534236Y-128796800D01*
X218534236Y-129212600D01*
X218560803Y-129353790D01*
X218644246Y-129483465D01*
X218771566Y-129570459D01*
X218922700Y-129601064D01*
X220522700Y-129601064D01*
X220663890Y-129574497D01*
X220793565Y-129491054D01*
X220867991Y-129382128D01*
X220937446Y-129490065D01*
X221064766Y-129577059D01*
X221215900Y-129607664D01*
X223715900Y-129607664D01*
X223857090Y-129581097D01*
X223986765Y-129497654D01*
X224073759Y-129370334D01*
X224104364Y-129219200D01*
X224104364Y-128803400D01*
X224761800Y-128803400D01*
X224985364Y-128758930D01*
X225174892Y-128632292D01*
X226470142Y-127337042D01*
X226495403Y-127471290D01*
X226578846Y-127600965D01*
X226706166Y-127687959D01*
X226857300Y-127718564D01*
X228857300Y-127718564D01*
X228998490Y-127691997D01*
X229128165Y-127608554D01*
X229215159Y-127481234D01*
X229245764Y-127330100D01*
X229245764Y-126815850D01*
X230222300Y-126815850D01*
X230222300Y-127456410D01*
X230318973Y-127689799D01*
X230497602Y-127868427D01*
X230730991Y-127965100D01*
X231571550Y-127965100D01*
X231730300Y-127806350D01*
X231730300Y-126657100D01*
X231984300Y-126657100D01*
X231984300Y-127806350D01*
X232143050Y-127965100D01*
X232983609Y-127965100D01*
X233216998Y-127868427D01*
X233395627Y-127689799D01*
X233492300Y-127456410D01*
X233492300Y-126815850D01*
X233333550Y-126657100D01*
X231984300Y-126657100D01*
X231730300Y-126657100D01*
X230381050Y-126657100D01*
X230222300Y-126815850D01*
X229245764Y-126815850D01*
X229245764Y-125758100D01*
X229830950Y-125758100D01*
X229985260Y-125603790D01*
X230222300Y-125603790D01*
X230222300Y-126244350D01*
X230381050Y-126403100D01*
X231730300Y-126403100D01*
X231730300Y-125253850D01*
X231984300Y-125253850D01*
X231984300Y-126403100D01*
X233333550Y-126403100D01*
X233492300Y-126244350D01*
X233492300Y-125603790D01*
X233395627Y-125370401D01*
X233216998Y-125191773D01*
X232983609Y-125095100D01*
X232143050Y-125095100D01*
X231984300Y-125253850D01*
X231730300Y-125253850D01*
X231571550Y-125095100D01*
X231501700Y-125095100D01*
X231501700Y-124783850D01*
X231342950Y-124625100D01*
X230243700Y-124625100D01*
X230243700Y-125552126D01*
X230222300Y-125603790D01*
X229985260Y-125603790D01*
X229989700Y-125599350D01*
X229989700Y-124625100D01*
X229969700Y-124625100D01*
X229969700Y-124371100D01*
X229989700Y-124371100D01*
X229989700Y-123396850D01*
X229964300Y-123371450D01*
X229964300Y-122694700D01*
X230218300Y-122694700D01*
X230218300Y-123668950D01*
X230243700Y-123694350D01*
X230243700Y-124371100D01*
X231342950Y-124371100D01*
X231501700Y-124212350D01*
X231501700Y-123746790D01*
X231405027Y-123513401D01*
X231398489Y-123506863D01*
X231476300Y-123319010D01*
X231476300Y-122853450D01*
X231317550Y-122694700D01*
X230218300Y-122694700D01*
X229964300Y-122694700D01*
X229944300Y-122694700D01*
X229944300Y-122440700D01*
X229964300Y-122440700D01*
X229964300Y-121466450D01*
X230218300Y-121466450D01*
X230218300Y-122440700D01*
X231317550Y-122440700D01*
X231476300Y-122281950D01*
X231476300Y-121816390D01*
X231379627Y-121583001D01*
X231200998Y-121404373D01*
X230967609Y-121307700D01*
X230377050Y-121307700D01*
X230218300Y-121466450D01*
X229964300Y-121466450D01*
X229805550Y-121307700D01*
X229214991Y-121307700D01*
X228981602Y-121404373D01*
X228802973Y-121583001D01*
X228706300Y-121816390D01*
X228706300Y-121818001D01*
X228703197Y-121801510D01*
X228619754Y-121671835D01*
X228492434Y-121584841D01*
X228341300Y-121554236D01*
X228130100Y-121554236D01*
X228130100Y-121296750D01*
X246898000Y-121296750D01*
X246898000Y-121887309D01*
X246994673Y-122120698D01*
X247173301Y-122299327D01*
X247406690Y-122396000D01*
X247872250Y-122396000D01*
X248031000Y-122237250D01*
X248031000Y-121138000D01*
X248285000Y-121138000D01*
X248285000Y-122237250D01*
X248443750Y-122396000D01*
X248909310Y-122396000D01*
X249142699Y-122299327D01*
X249321327Y-122120698D01*
X249418000Y-121887309D01*
X249418000Y-121296750D01*
X249259250Y-121138000D01*
X248285000Y-121138000D01*
X248031000Y-121138000D01*
X247056750Y-121138000D01*
X246898000Y-121296750D01*
X228130100Y-121296750D01*
X228130100Y-120724528D01*
X228440465Y-120517148D01*
X228600900Y-120277041D01*
X228600900Y-120623010D01*
X228697573Y-120856399D01*
X228876202Y-121035027D01*
X229109591Y-121131700D01*
X229800150Y-121131700D01*
X229958900Y-120972950D01*
X229958900Y-119773700D01*
X230212900Y-119773700D01*
X230212900Y-120972950D01*
X230371650Y-121131700D01*
X231062209Y-121131700D01*
X231295598Y-121035027D01*
X231474227Y-120856399D01*
X231570900Y-120623010D01*
X231570900Y-119932450D01*
X231412150Y-119773700D01*
X230212900Y-119773700D01*
X229958900Y-119773700D01*
X229938900Y-119773700D01*
X229938900Y-119519700D01*
X229958900Y-119519700D01*
X229958900Y-119499700D01*
X230212900Y-119499700D01*
X230212900Y-119519700D01*
X231412150Y-119519700D01*
X231570900Y-119360950D01*
X231570900Y-118670390D01*
X231474227Y-118437001D01*
X231295598Y-118258373D01*
X231062209Y-118161700D01*
X230704264Y-118161700D01*
X230980465Y-117977148D01*
X231247313Y-117577783D01*
X231341017Y-117106700D01*
X231247313Y-116635617D01*
X230980465Y-116236252D01*
X230581100Y-115969404D01*
X230110017Y-115875700D01*
X230061783Y-115875700D01*
X229590700Y-115969404D01*
X229191335Y-116236252D01*
X228924487Y-116635617D01*
X228830783Y-117106700D01*
X228924487Y-117577783D01*
X229191335Y-117977148D01*
X229467536Y-118161700D01*
X229109591Y-118161700D01*
X228876202Y-118258373D01*
X228697573Y-118437001D01*
X228600900Y-118670390D01*
X228600900Y-119016359D01*
X228440465Y-118776252D01*
X228041100Y-118509404D01*
X227570017Y-118415700D01*
X227521783Y-118415700D01*
X227050700Y-118509404D01*
X226651335Y-118776252D01*
X226384487Y-119175617D01*
X226290783Y-119646700D01*
X226384487Y-120117783D01*
X226651335Y-120517148D01*
X226961700Y-120724528D01*
X226961700Y-121554236D01*
X226841300Y-121554236D01*
X226700110Y-121580803D01*
X226570435Y-121664246D01*
X226483441Y-121791566D01*
X226452836Y-121942700D01*
X226452836Y-123192700D01*
X226479403Y-123333890D01*
X226562846Y-123463565D01*
X226677644Y-123542003D01*
X226595835Y-123594646D01*
X226508841Y-123721966D01*
X226478236Y-123873100D01*
X226478236Y-125123100D01*
X226504803Y-125264290D01*
X226588246Y-125393965D01*
X226630843Y-125423070D01*
X226586435Y-125451646D01*
X226499441Y-125578966D01*
X226468836Y-125730100D01*
X226468836Y-125945900D01*
X226450900Y-125945900D01*
X226227336Y-125990370D01*
X226143876Y-126046136D01*
X226037808Y-126117008D01*
X224519816Y-127635000D01*
X224104364Y-127635000D01*
X224104364Y-127219200D01*
X224077797Y-127078010D01*
X223994354Y-126948335D01*
X223867034Y-126861341D01*
X223715900Y-126830736D01*
X221215900Y-126830736D01*
X221074710Y-126857303D01*
X220945035Y-126940746D01*
X220870609Y-127049672D01*
X220801154Y-126941735D01*
X220673834Y-126854741D01*
X220522700Y-126824136D01*
X218922700Y-126824136D01*
X218781510Y-126850703D01*
X218651835Y-126934146D01*
X218564841Y-127061466D01*
X218534236Y-127212600D01*
X218534236Y-127404352D01*
X215658700Y-124528816D01*
X215658700Y-124498350D01*
X218287700Y-124498350D01*
X218287700Y-125338909D01*
X218384373Y-125572298D01*
X218563001Y-125750927D01*
X218796390Y-125847600D01*
X219436950Y-125847600D01*
X219595700Y-125688850D01*
X219595700Y-124339600D01*
X218446450Y-124339600D01*
X218287700Y-124498350D01*
X215658700Y-124498350D01*
X215658700Y-115408184D01*
X216208592Y-114858292D01*
X216294347Y-114729950D01*
X216335230Y-114668764D01*
X216379700Y-114445200D01*
X216379700Y-114427264D01*
X216395500Y-114427264D01*
X216536690Y-114400697D01*
X216666365Y-114317254D01*
X216753359Y-114189934D01*
X216783964Y-114038800D01*
X216783964Y-113138800D01*
X216757397Y-112997610D01*
X216673954Y-112867935D01*
X216549346Y-112782794D01*
X216755198Y-112697527D01*
X216933827Y-112518899D01*
X217030500Y-112285510D01*
X217030500Y-112283899D01*
X217033603Y-112300390D01*
X217117046Y-112430065D01*
X217244366Y-112517059D01*
X217395500Y-112547664D01*
X217411300Y-112547664D01*
X217411300Y-112624366D01*
X217406400Y-112649000D01*
X217411300Y-112673634D01*
X217411300Y-112750336D01*
X217395500Y-112750336D01*
X217254310Y-112776903D01*
X217124635Y-112860346D01*
X217037641Y-112987666D01*
X217007036Y-113138800D01*
X217007036Y-114038800D01*
X217033603Y-114179990D01*
X217117046Y-114309665D01*
X217124629Y-114314846D01*
X217086173Y-114353302D01*
X216989500Y-114586691D01*
X216989500Y-115177250D01*
X217148250Y-115336000D01*
X218122500Y-115336000D01*
X218122500Y-115316000D01*
X218376500Y-115316000D01*
X218376500Y-115336000D01*
X218396500Y-115336000D01*
X218396500Y-115590000D01*
X218376500Y-115590000D01*
X218376500Y-115610000D01*
X218122500Y-115610000D01*
X218122500Y-115590000D01*
X217148250Y-115590000D01*
X216989500Y-115748750D01*
X216989500Y-116339309D01*
X217086173Y-116572698D01*
X217264801Y-116751327D01*
X217498190Y-116848000D01*
X217499801Y-116848000D01*
X217483310Y-116851103D01*
X217353635Y-116934546D01*
X217266641Y-117061866D01*
X217236036Y-117213000D01*
X217236036Y-118713000D01*
X217262603Y-118854190D01*
X217346046Y-118983865D01*
X217473366Y-119070859D01*
X217624500Y-119101464D01*
X217665300Y-119101464D01*
X217665300Y-119119400D01*
X217709770Y-119342964D01*
X217827774Y-119519570D01*
X217836408Y-119532492D01*
X218497332Y-120193416D01*
X218497270Y-120264991D01*
X218611104Y-120540490D01*
X218821701Y-120751456D01*
X218959584Y-120808710D01*
X218913802Y-120827673D01*
X218735173Y-121006301D01*
X218638500Y-121239690D01*
X218638500Y-121380250D01*
X218797250Y-121539000D01*
X219361000Y-121539000D01*
X219361000Y-121519000D01*
X219535036Y-121519000D01*
X219535036Y-121813000D01*
X219361000Y-121813000D01*
X219361000Y-121793000D01*
X218797250Y-121793000D01*
X218638500Y-121951750D01*
X218638500Y-122092310D01*
X218735173Y-122325699D01*
X218913802Y-122504327D01*
X219090698Y-122577600D01*
X218796390Y-122577600D01*
X218563001Y-122674273D01*
X218384373Y-122852902D01*
X218287700Y-123086291D01*
X218287700Y-123926850D01*
X218446450Y-124085600D01*
X219595700Y-124085600D01*
X219595700Y-124065600D01*
X219849700Y-124065600D01*
X219849700Y-124085600D01*
X219869700Y-124085600D01*
X219869700Y-124339600D01*
X219849700Y-124339600D01*
X219849700Y-125688850D01*
X220008450Y-125847600D01*
X220649010Y-125847600D01*
X220882399Y-125750927D01*
X221059716Y-125573609D01*
X221064766Y-125577059D01*
X221215900Y-125607664D01*
X223715900Y-125607664D01*
X223857090Y-125581097D01*
X223986765Y-125497654D01*
X224073759Y-125370334D01*
X224104364Y-125219200D01*
X224104364Y-123219200D01*
X224077797Y-123078010D01*
X223994354Y-122948335D01*
X223867034Y-122861341D01*
X223715900Y-122830736D01*
X223445169Y-122830736D01*
X223437891Y-122794148D01*
X223381095Y-122508613D01*
X223166360Y-122187240D01*
X223009500Y-122030380D01*
X223009500Y-120535700D01*
X222985967Y-120417391D01*
X223024570Y-120417391D01*
X223138404Y-120692890D01*
X223349001Y-120903856D01*
X223624301Y-121018170D01*
X223922391Y-121018430D01*
X223942810Y-121009993D01*
X223964501Y-121031684D01*
X223964501Y-122059701D01*
X224008971Y-122283265D01*
X224114165Y-122440700D01*
X224135609Y-122472793D01*
X224167632Y-122504816D01*
X224167570Y-122576391D01*
X224281404Y-122851890D01*
X224492001Y-123062856D01*
X224767301Y-123177170D01*
X225065391Y-123177430D01*
X225340890Y-123063596D01*
X225551856Y-122852999D01*
X225666170Y-122577699D01*
X225666430Y-122279609D01*
X225552596Y-122004110D01*
X225341999Y-121793144D01*
X225132901Y-121706319D01*
X225132901Y-120789701D01*
X225088431Y-120566137D01*
X224961793Y-120376609D01*
X224961790Y-120376607D01*
X224441092Y-119855908D01*
X224432129Y-119849919D01*
X224378878Y-119814338D01*
X224198999Y-119634144D01*
X223923699Y-119519830D01*
X223625609Y-119519570D01*
X223350110Y-119633404D01*
X223139144Y-119844001D01*
X223024830Y-120119301D01*
X223024570Y-120417391D01*
X222985967Y-120417391D01*
X222934095Y-120156614D01*
X222719360Y-119835240D01*
X222704700Y-119825445D01*
X222704700Y-119572311D01*
X222732364Y-119435700D01*
X222732364Y-119019900D01*
X222866598Y-119019900D01*
X222959766Y-119083559D01*
X223110900Y-119114164D01*
X224360900Y-119114164D01*
X224502090Y-119087597D01*
X224631765Y-119004154D01*
X224718759Y-118876834D01*
X224749364Y-118725700D01*
X224749364Y-117225700D01*
X224726973Y-117106700D01*
X226290783Y-117106700D01*
X226384487Y-117577783D01*
X226651335Y-117977148D01*
X227050700Y-118243996D01*
X227521783Y-118337700D01*
X227570017Y-118337700D01*
X228041100Y-118243996D01*
X228440465Y-117977148D01*
X228707313Y-117577783D01*
X228801017Y-117106700D01*
X228707313Y-116635617D01*
X228440465Y-116236252D01*
X228041100Y-115969404D01*
X227570017Y-115875700D01*
X227521783Y-115875700D01*
X227050700Y-115969404D01*
X226651335Y-116236252D01*
X226384487Y-116635617D01*
X226290783Y-117106700D01*
X224726973Y-117106700D01*
X224722797Y-117084510D01*
X224639354Y-116954835D01*
X224512034Y-116867841D01*
X224360900Y-116837236D01*
X223110900Y-116837236D01*
X222969710Y-116863803D01*
X222840035Y-116947246D01*
X222753041Y-117074566D01*
X222722436Y-117225700D01*
X222722436Y-117382938D01*
X222705797Y-117294510D01*
X222622354Y-117164835D01*
X222495034Y-117077841D01*
X222343900Y-117047236D01*
X221693900Y-117047236D01*
X221552710Y-117073803D01*
X221545713Y-117078305D01*
X221545034Y-117077841D01*
X221393900Y-117047236D01*
X220743900Y-117047236D01*
X220602710Y-117073803D01*
X220595713Y-117078305D01*
X220595034Y-117077841D01*
X220443900Y-117047236D01*
X219793900Y-117047236D01*
X219652710Y-117073803D01*
X219523035Y-117157246D01*
X219436041Y-117284566D01*
X219405436Y-117435700D01*
X219405436Y-119371182D01*
X219396399Y-119367430D01*
X219323651Y-119367367D01*
X219025116Y-119068832D01*
X219145365Y-118991454D01*
X219232359Y-118864134D01*
X219262964Y-118713000D01*
X219262964Y-117213000D01*
X219236397Y-117071810D01*
X219152954Y-116942135D01*
X219025634Y-116855141D01*
X218990370Y-116848000D01*
X219000810Y-116848000D01*
X219234199Y-116751327D01*
X219412827Y-116572698D01*
X219509500Y-116339309D01*
X219509500Y-116277325D01*
X219515446Y-116286565D01*
X219642766Y-116373559D01*
X219793900Y-116404164D01*
X220234339Y-116404164D01*
X220384201Y-116554027D01*
X220617590Y-116650700D01*
X220783150Y-116650700D01*
X220941900Y-116491950D01*
X220941900Y-115142700D01*
X220921900Y-115142700D01*
X220921900Y-114888700D01*
X220941900Y-114888700D01*
X220941900Y-113539450D01*
X221195900Y-113539450D01*
X221195900Y-114888700D01*
X221215900Y-114888700D01*
X221215900Y-115142700D01*
X221195900Y-115142700D01*
X221195900Y-116491950D01*
X221354650Y-116650700D01*
X221520210Y-116650700D01*
X221753599Y-116554027D01*
X221903461Y-116404164D01*
X222343900Y-116404164D01*
X222485090Y-116377597D01*
X222614765Y-116294154D01*
X222701759Y-116166834D01*
X222722436Y-116064727D01*
X222722436Y-116225700D01*
X222749003Y-116366890D01*
X222832446Y-116496565D01*
X222959766Y-116583559D01*
X223110900Y-116614164D01*
X224360900Y-116614164D01*
X224502090Y-116587597D01*
X224631765Y-116504154D01*
X224718759Y-116376834D01*
X224749364Y-116225700D01*
X224749364Y-114725700D01*
X224722797Y-114584510D01*
X224639354Y-114454835D01*
X224512034Y-114367841D01*
X224360900Y-114337236D01*
X223110900Y-114337236D01*
X222969710Y-114363803D01*
X222864505Y-114431500D01*
X222732364Y-114431500D01*
X222732364Y-114015700D01*
X222705797Y-113874510D01*
X222622354Y-113744835D01*
X222495034Y-113657841D01*
X222343900Y-113627236D01*
X221903461Y-113627236D01*
X221753599Y-113477373D01*
X221520210Y-113380700D01*
X221354650Y-113380700D01*
X221195900Y-113539450D01*
X220941900Y-113539450D01*
X220783150Y-113380700D01*
X220699102Y-113380700D01*
X220694754Y-113358841D01*
X220658631Y-113177237D01*
X220531992Y-112987708D01*
X219780192Y-112235908D01*
X219745093Y-112212456D01*
X219590664Y-112109270D01*
X219367100Y-112064800D01*
X218983964Y-112064800D01*
X218983964Y-111259200D01*
X218957397Y-111118010D01*
X218873954Y-110988335D01*
X218746634Y-110901341D01*
X218595500Y-110870736D01*
X217395500Y-110870736D01*
X217254310Y-110897303D01*
X217124635Y-110980746D01*
X217037641Y-111108066D01*
X217030500Y-111143330D01*
X217030500Y-111132890D01*
X216933827Y-110899501D01*
X216755198Y-110720873D01*
X216521809Y-110624200D01*
X216081250Y-110624200D01*
X215922500Y-110782950D01*
X215922500Y-111582200D01*
X215942500Y-111582200D01*
X215942500Y-111836200D01*
X215922500Y-111836200D01*
X215922500Y-111856200D01*
X215668500Y-111856200D01*
X215668500Y-111836200D01*
X214719250Y-111836200D01*
X214560500Y-111994950D01*
X214560500Y-112285510D01*
X214657173Y-112518899D01*
X214835802Y-112697527D01*
X215043784Y-112783676D01*
X214924635Y-112860346D01*
X214837641Y-112987666D01*
X214807036Y-113138800D01*
X214807036Y-114038800D01*
X214833603Y-114179990D01*
X214917046Y-114309665D01*
X215028617Y-114385899D01*
X214661408Y-114753108D01*
X214534770Y-114942636D01*
X214490300Y-115166200D01*
X209371000Y-115166200D01*
X209371000Y-111132890D01*
X214560500Y-111132890D01*
X214560500Y-111423450D01*
X214719250Y-111582200D01*
X215668500Y-111582200D01*
X215668500Y-110782950D01*
X215509750Y-110624200D01*
X215069191Y-110624200D01*
X214835802Y-110720873D01*
X214657173Y-110899501D01*
X214560500Y-111132890D01*
X209371000Y-111132890D01*
X209371000Y-94719200D01*
X214896700Y-94719200D01*
X214896700Y-104323800D01*
X214941170Y-104547364D01*
X215050938Y-104711644D01*
X215067808Y-104736892D01*
X218509608Y-108178692D01*
X218699136Y-108305330D01*
X218922700Y-108349800D01*
X218940636Y-108349800D01*
X218940636Y-108765600D01*
X218967203Y-108906790D01*
X219050646Y-109036465D01*
X219177966Y-109123459D01*
X219329100Y-109154064D01*
X220929100Y-109154064D01*
X221070290Y-109127497D01*
X221199965Y-109044054D01*
X221274391Y-108935128D01*
X221343846Y-109043065D01*
X221471166Y-109130059D01*
X221622300Y-109160664D01*
X224122300Y-109160664D01*
X224263490Y-109134097D01*
X224393165Y-109050654D01*
X224480159Y-108923334D01*
X224510764Y-108772200D01*
X224510764Y-108356400D01*
X234039335Y-108356400D01*
X235297251Y-109614316D01*
X235297189Y-109685891D01*
X235411023Y-109961390D01*
X235520341Y-110070900D01*
X229476305Y-110070900D01*
X229476300Y-110070899D01*
X229291617Y-110107636D01*
X229135050Y-110212250D01*
X229135048Y-110212253D01*
X228474650Y-110872650D01*
X228370036Y-111029217D01*
X228355994Y-111099810D01*
X228041100Y-110889404D01*
X227570017Y-110795700D01*
X227521783Y-110795700D01*
X227050700Y-110889404D01*
X226651335Y-111156252D01*
X226384487Y-111555617D01*
X226290783Y-112026700D01*
X226384487Y-112497783D01*
X226651335Y-112897148D01*
X227050700Y-113163996D01*
X227521783Y-113257700D01*
X227570017Y-113257700D01*
X228041100Y-113163996D01*
X228333300Y-112968754D01*
X228333300Y-113096800D01*
X228007399Y-113422701D01*
X227570017Y-113335700D01*
X227521783Y-113335700D01*
X227050700Y-113429404D01*
X226651335Y-113696252D01*
X226384487Y-114095617D01*
X226290783Y-114566700D01*
X226384487Y-115037783D01*
X226651335Y-115437148D01*
X227050700Y-115703996D01*
X227521783Y-115797700D01*
X227570017Y-115797700D01*
X228041100Y-115703996D01*
X228440465Y-115437148D01*
X228707313Y-115037783D01*
X228801017Y-114566700D01*
X228707313Y-114095617D01*
X228704177Y-114090923D01*
X229157150Y-113637950D01*
X229261764Y-113481383D01*
X229298500Y-113296700D01*
X229298500Y-112968754D01*
X229590700Y-113163996D01*
X230061783Y-113257700D01*
X230110017Y-113257700D01*
X230547400Y-113170699D01*
X232284648Y-114907947D01*
X232284650Y-114907950D01*
X232441217Y-115012564D01*
X232625900Y-115049300D01*
X233521036Y-115049300D01*
X233521036Y-115416700D01*
X233547603Y-115557890D01*
X233631046Y-115687565D01*
X233758366Y-115774559D01*
X233909500Y-115805164D01*
X235609500Y-115805164D01*
X235750690Y-115778597D01*
X235880365Y-115695154D01*
X235967359Y-115567834D01*
X235997964Y-115416700D01*
X235997964Y-113779300D01*
X236357446Y-113779300D01*
X236162204Y-114071500D01*
X236068500Y-114542583D01*
X236068500Y-114590817D01*
X236162204Y-115061900D01*
X236429052Y-115461265D01*
X236816900Y-115720418D01*
X236816900Y-115768781D01*
X236825360Y-115811311D01*
X232013011Y-115811311D01*
X231244177Y-115042477D01*
X231247313Y-115037783D01*
X231341017Y-114566700D01*
X231247313Y-114095617D01*
X230980465Y-113696252D01*
X230581100Y-113429404D01*
X230110017Y-113335700D01*
X230061783Y-113335700D01*
X229590700Y-113429404D01*
X229191335Y-113696252D01*
X228924487Y-114095617D01*
X228830783Y-114566700D01*
X228924487Y-115037783D01*
X229191335Y-115437148D01*
X229590700Y-115703996D01*
X230061783Y-115797700D01*
X230110017Y-115797700D01*
X230547399Y-115710699D01*
X231471861Y-116635161D01*
X231628428Y-116739775D01*
X231813111Y-116776511D01*
X240571979Y-116776511D01*
X240480235Y-116835546D01*
X240393241Y-116962866D01*
X240362636Y-117114000D01*
X240362636Y-119614000D01*
X240389203Y-119755190D01*
X240472646Y-119884865D01*
X240599966Y-119971859D01*
X240751100Y-120002464D01*
X242751100Y-120002464D01*
X242892290Y-119975897D01*
X243021965Y-119892454D01*
X243108959Y-119765134D01*
X243139564Y-119614000D01*
X243139564Y-117287120D01*
X243345316Y-117081368D01*
X243416891Y-117081430D01*
X243692390Y-116967596D01*
X243903356Y-116756999D01*
X244017670Y-116481699D01*
X244017930Y-116183609D01*
X243933842Y-115980100D01*
X246225036Y-115980100D01*
X246225036Y-116297500D01*
X246251603Y-116438690D01*
X246335046Y-116568365D01*
X246462366Y-116655359D01*
X246613500Y-116685964D01*
X247104300Y-116685964D01*
X247104300Y-116703900D01*
X247148770Y-116927464D01*
X247246550Y-117073803D01*
X247275408Y-117116992D01*
X247531276Y-117372860D01*
X247391810Y-117399103D01*
X247262135Y-117482546D01*
X247175141Y-117609866D01*
X247144536Y-117761000D01*
X247144536Y-117779800D01*
X247139564Y-117779800D01*
X247139564Y-117114000D01*
X247112997Y-116972810D01*
X247029554Y-116843135D01*
X246902234Y-116756141D01*
X246751100Y-116725536D01*
X244751100Y-116725536D01*
X244609910Y-116752103D01*
X244480235Y-116835546D01*
X244393241Y-116962866D01*
X244362636Y-117114000D01*
X244362636Y-119614000D01*
X244389203Y-119755190D01*
X244472646Y-119884865D01*
X244599966Y-119971859D01*
X244751100Y-120002464D01*
X246751100Y-120002464D01*
X246892290Y-119975897D01*
X246989752Y-119913182D01*
X246898000Y-120134691D01*
X246898000Y-120725250D01*
X247056750Y-120884000D01*
X248031000Y-120884000D01*
X248031000Y-120864000D01*
X248285000Y-120864000D01*
X248285000Y-120884000D01*
X249259250Y-120884000D01*
X249418000Y-120725250D01*
X249418000Y-120427750D01*
X249569500Y-120427750D01*
X249569500Y-120718310D01*
X249646415Y-120904000D01*
X249569500Y-121089690D01*
X249569500Y-121380250D01*
X249728250Y-121539000D01*
X250677500Y-121539000D01*
X250677500Y-120269000D01*
X249728250Y-120269000D01*
X249569500Y-120427750D01*
X249418000Y-120427750D01*
X249418000Y-120134691D01*
X249321327Y-119901302D01*
X249142699Y-119722673D01*
X248909310Y-119626000D01*
X248907699Y-119626000D01*
X248924190Y-119622897D01*
X249053865Y-119539454D01*
X249140859Y-119412134D01*
X249171464Y-119261000D01*
X249171464Y-117761000D01*
X249144897Y-117619810D01*
X249061454Y-117490135D01*
X248934134Y-117403141D01*
X248783000Y-117372536D01*
X248742200Y-117372536D01*
X248742200Y-117173400D01*
X248697730Y-116949836D01*
X248571092Y-116760308D01*
X248496748Y-116685964D01*
X248763500Y-116685964D01*
X248893088Y-116661580D01*
X249013500Y-116685964D01*
X249303939Y-116685964D01*
X249453801Y-116835827D01*
X249687190Y-116932500D01*
X249802750Y-116932500D01*
X249961500Y-116773750D01*
X249961500Y-115624500D01*
X249951964Y-115624500D01*
X249951964Y-115370500D01*
X249961500Y-115370500D01*
X249961500Y-114221250D01*
X249802750Y-114062500D01*
X249687190Y-114062500D01*
X249453801Y-114159173D01*
X249303939Y-114309036D01*
X249013500Y-114309036D01*
X248883912Y-114333420D01*
X248763500Y-114309036D01*
X248213500Y-114309036D01*
X248083912Y-114333420D01*
X247963500Y-114309036D01*
X247413500Y-114309036D01*
X247283912Y-114333420D01*
X247163500Y-114309036D01*
X246626964Y-114309036D01*
X246626964Y-113772500D01*
X246602580Y-113642912D01*
X246626964Y-113522500D01*
X246626964Y-112972500D01*
X246618986Y-112930100D01*
X246638500Y-112930100D01*
X246823183Y-112893364D01*
X246979750Y-112788750D01*
X247035201Y-112733299D01*
X248388964Y-112733299D01*
X248474904Y-112941290D01*
X248685501Y-113152256D01*
X248960801Y-113266570D01*
X249258891Y-113266830D01*
X249534390Y-113152996D01*
X249745356Y-112942399D01*
X249859670Y-112667099D01*
X249859930Y-112369009D01*
X249746096Y-112093510D01*
X249700271Y-112047605D01*
X249745356Y-112002599D01*
X249859670Y-111727299D01*
X249859930Y-111429209D01*
X249746096Y-111153710D01*
X249535499Y-110942744D01*
X249260199Y-110828430D01*
X248962109Y-110828170D01*
X248686610Y-110942004D01*
X248475644Y-111152601D01*
X248388819Y-111361701D01*
X247035201Y-111361701D01*
X246979750Y-111306250D01*
X246823183Y-111201636D01*
X246638500Y-111164900D01*
X246618378Y-111164900D01*
X246626964Y-111122500D01*
X246626964Y-110572500D01*
X246602580Y-110442912D01*
X246626964Y-110322500D01*
X246626964Y-109772500D01*
X246602580Y-109642912D01*
X246626964Y-109522500D01*
X246626964Y-108972500D01*
X246602580Y-108842912D01*
X246626964Y-108722500D01*
X246626964Y-108185964D01*
X247163500Y-108185964D01*
X247293088Y-108161580D01*
X247413500Y-108185964D01*
X247963500Y-108185964D01*
X248093088Y-108161580D01*
X248213500Y-108185964D01*
X248503939Y-108185964D01*
X248653801Y-108335827D01*
X248887190Y-108432500D01*
X249002750Y-108432500D01*
X249161500Y-108273750D01*
X249161500Y-107124500D01*
X249151964Y-107124500D01*
X249151964Y-106870500D01*
X249161500Y-106870500D01*
X249161500Y-106850500D01*
X249415500Y-106850500D01*
X249415500Y-106870500D01*
X249425036Y-106870500D01*
X249425036Y-107124500D01*
X249415500Y-107124500D01*
X249415500Y-108273750D01*
X249574250Y-108432500D01*
X249689810Y-108432500D01*
X249923199Y-108335827D01*
X250073061Y-108185964D01*
X250103939Y-108185964D01*
X250253801Y-108335827D01*
X250487190Y-108432500D01*
X250602750Y-108432500D01*
X250761500Y-108273750D01*
X250761500Y-107124500D01*
X250751964Y-107124500D01*
X250751964Y-106870500D01*
X250761500Y-106870500D01*
X250761500Y-105721250D01*
X250633306Y-105593056D01*
X250628230Y-105567536D01*
X250501592Y-105378008D01*
X250056992Y-104933408D01*
X250041915Y-104923334D01*
X249867464Y-104806770D01*
X249643900Y-104762300D01*
X249333700Y-104762300D01*
X249333700Y-103997764D01*
X249499500Y-103997764D01*
X249640690Y-103971197D01*
X249770365Y-103887754D01*
X249857359Y-103760434D01*
X249864500Y-103725170D01*
X249864500Y-103735610D01*
X249961173Y-103968999D01*
X250139802Y-104147627D01*
X250373191Y-104244300D01*
X250963750Y-104244300D01*
X251122500Y-104085550D01*
X251122500Y-103111300D01*
X251376500Y-103111300D01*
X251376500Y-104085550D01*
X251535250Y-104244300D01*
X252125809Y-104244300D01*
X252359198Y-104147627D01*
X252537827Y-103968999D01*
X252634500Y-103735610D01*
X252634500Y-103270050D01*
X252475750Y-103111300D01*
X251376500Y-103111300D01*
X251122500Y-103111300D01*
X251102500Y-103111300D01*
X251102500Y-102857300D01*
X251122500Y-102857300D01*
X251122500Y-101180900D01*
X251376500Y-101180900D01*
X251376500Y-102857300D01*
X252475750Y-102857300D01*
X252634500Y-102698550D01*
X252634500Y-102337890D01*
X261829524Y-102337890D01*
X261999355Y-102747924D01*
X262389642Y-103176183D01*
X262914108Y-103422486D01*
X263144000Y-103301819D01*
X263144000Y-102108000D01*
X263398000Y-102108000D01*
X263398000Y-103301819D01*
X263627892Y-103422486D01*
X264152358Y-103176183D01*
X264542645Y-102747924D01*
X264712476Y-102337890D01*
X264591155Y-102108000D01*
X263398000Y-102108000D01*
X263144000Y-102108000D01*
X261950845Y-102108000D01*
X261829524Y-102337890D01*
X252634500Y-102337890D01*
X252634500Y-102232990D01*
X252545904Y-102019100D01*
X252634500Y-101805210D01*
X252634500Y-101339650D01*
X252475750Y-101180900D01*
X251376500Y-101180900D01*
X251122500Y-101180900D01*
X251102500Y-101180900D01*
X251102500Y-100926900D01*
X251122500Y-100926900D01*
X251122500Y-99952650D01*
X250963750Y-99793900D01*
X250373191Y-99793900D01*
X250292623Y-99827272D01*
X250297159Y-99820634D01*
X250327764Y-99669500D01*
X250327764Y-99155250D01*
X251304300Y-99155250D01*
X251304300Y-99795810D01*
X251376500Y-99970116D01*
X251376500Y-100926900D01*
X252475750Y-100926900D01*
X252634500Y-100768150D01*
X252634500Y-100304500D01*
X252653550Y-100304500D01*
X252812300Y-100145750D01*
X252812300Y-98996500D01*
X253066300Y-98996500D01*
X253066300Y-100145750D01*
X253225050Y-100304500D01*
X254065609Y-100304500D01*
X254298998Y-100207827D01*
X254477627Y-100029199D01*
X254574300Y-99795810D01*
X254574300Y-99155250D01*
X254415550Y-98996500D01*
X253066300Y-98996500D01*
X252812300Y-98996500D01*
X251463050Y-98996500D01*
X251304300Y-99155250D01*
X250327764Y-99155250D01*
X250327764Y-98069500D01*
X250303997Y-97943190D01*
X251304300Y-97943190D01*
X251304300Y-98583750D01*
X251463050Y-98742500D01*
X252812300Y-98742500D01*
X252812300Y-97593250D01*
X253066300Y-97593250D01*
X253066300Y-98742500D01*
X254415550Y-98742500D01*
X254574300Y-98583750D01*
X254574300Y-97943190D01*
X254477627Y-97709801D01*
X254298998Y-97531173D01*
X254065609Y-97434500D01*
X253225050Y-97434500D01*
X253066300Y-97593250D01*
X252812300Y-97593250D01*
X252653550Y-97434500D01*
X251812991Y-97434500D01*
X251579602Y-97531173D01*
X251400973Y-97709801D01*
X251304300Y-97943190D01*
X250303997Y-97943190D01*
X250301197Y-97928310D01*
X250217754Y-97798635D01*
X250090434Y-97711641D01*
X249939300Y-97681036D01*
X247939300Y-97681036D01*
X247798110Y-97707603D01*
X247668435Y-97791046D01*
X247581441Y-97918366D01*
X247550836Y-98069500D01*
X247550836Y-99669500D01*
X247577403Y-99810690D01*
X247660846Y-99940365D01*
X247788166Y-100027359D01*
X247923429Y-100054750D01*
X247858310Y-100067003D01*
X247728635Y-100150446D01*
X247641641Y-100277766D01*
X247611036Y-100428900D01*
X247611036Y-101154202D01*
X247570454Y-101091135D01*
X247443134Y-101004141D01*
X247292000Y-100973536D01*
X245509100Y-100973536D01*
X245509100Y-99247964D01*
X245776500Y-99247964D01*
X245917690Y-99221397D01*
X246047365Y-99137954D01*
X246134359Y-99010634D01*
X246164964Y-98859500D01*
X246164964Y-97609500D01*
X246138397Y-97468310D01*
X246054954Y-97338635D01*
X245927634Y-97251641D01*
X245776500Y-97221036D01*
X244276500Y-97221036D01*
X244135310Y-97247603D01*
X244005635Y-97331046D01*
X243918641Y-97458366D01*
X243911500Y-97493630D01*
X243911500Y-97483190D01*
X243814827Y-97249801D01*
X243636198Y-97071173D01*
X243402809Y-96974500D01*
X242812250Y-96974500D01*
X242653500Y-97133250D01*
X242653500Y-98107500D01*
X242673500Y-98107500D01*
X242673500Y-98361500D01*
X242653500Y-98361500D01*
X242653500Y-99335750D01*
X242812250Y-99494500D01*
X243402809Y-99494500D01*
X243636198Y-99397827D01*
X243814827Y-99219199D01*
X243911500Y-98985810D01*
X243911500Y-98984199D01*
X243914603Y-99000690D01*
X243998046Y-99130365D01*
X244125366Y-99217359D01*
X244276500Y-99247964D01*
X244543900Y-99247964D01*
X244543900Y-100973536D01*
X242792000Y-100973536D01*
X242650810Y-101000103D01*
X242521135Y-101083546D01*
X242434141Y-101210866D01*
X242403536Y-101362000D01*
X242403536Y-103362000D01*
X242430103Y-103503190D01*
X242513546Y-103632865D01*
X242640866Y-103719859D01*
X242792000Y-103750464D01*
X244596524Y-103750464D01*
X244700750Y-103906450D01*
X245656550Y-104862250D01*
X245813117Y-104966864D01*
X245997800Y-105003600D01*
X246015300Y-105003600D01*
X246820736Y-105809036D01*
X246613500Y-105809036D01*
X246472310Y-105835603D01*
X246342635Y-105919046D01*
X246255641Y-106046366D01*
X246236448Y-106141148D01*
X244719550Y-104624250D01*
X244562983Y-104519636D01*
X244378300Y-104482900D01*
X241798600Y-104482900D01*
X239336450Y-102020750D01*
X239180464Y-101916524D01*
X239180464Y-101362000D01*
X239153897Y-101220810D01*
X239070454Y-101091135D01*
X238943134Y-101004141D01*
X238792000Y-100973536D01*
X235836036Y-100973536D01*
X235579600Y-100717100D01*
X235579600Y-99247964D01*
X235847000Y-99247964D01*
X235988190Y-99221397D01*
X236117865Y-99137954D01*
X236204859Y-99010634D01*
X236212000Y-98975370D01*
X236212000Y-98985810D01*
X236308673Y-99219199D01*
X236487302Y-99397827D01*
X236720691Y-99494500D01*
X237311250Y-99494500D01*
X237470000Y-99335750D01*
X237470000Y-98361500D01*
X237724000Y-98361500D01*
X237724000Y-99335750D01*
X237882750Y-99494500D01*
X238473309Y-99494500D01*
X238706698Y-99397827D01*
X238885327Y-99219199D01*
X238982000Y-98985810D01*
X238982000Y-98520250D01*
X241141500Y-98520250D01*
X241141500Y-98985810D01*
X241238173Y-99219199D01*
X241416802Y-99397827D01*
X241650191Y-99494500D01*
X242240750Y-99494500D01*
X242399500Y-99335750D01*
X242399500Y-98361500D01*
X241300250Y-98361500D01*
X241141500Y-98520250D01*
X238982000Y-98520250D01*
X238823250Y-98361500D01*
X237724000Y-98361500D01*
X237470000Y-98361500D01*
X237450000Y-98361500D01*
X237450000Y-98107500D01*
X237470000Y-98107500D01*
X237470000Y-97133250D01*
X237724000Y-97133250D01*
X237724000Y-98107500D01*
X238823250Y-98107500D01*
X238982000Y-97948750D01*
X238982000Y-97483190D01*
X241141500Y-97483190D01*
X241141500Y-97948750D01*
X241300250Y-98107500D01*
X242399500Y-98107500D01*
X242399500Y-97133250D01*
X242240750Y-96974500D01*
X241650191Y-96974500D01*
X241416802Y-97071173D01*
X241238173Y-97249801D01*
X241141500Y-97483190D01*
X238982000Y-97483190D01*
X238885327Y-97249801D01*
X238706698Y-97071173D01*
X238473309Y-96974500D01*
X237882750Y-96974500D01*
X237724000Y-97133250D01*
X237470000Y-97133250D01*
X237311250Y-96974500D01*
X236720691Y-96974500D01*
X236487302Y-97071173D01*
X236308673Y-97249801D01*
X236212000Y-97483190D01*
X236212000Y-97484801D01*
X236208897Y-97468310D01*
X236125454Y-97338635D01*
X235998134Y-97251641D01*
X235847000Y-97221036D01*
X234347000Y-97221036D01*
X234205810Y-97247603D01*
X234076135Y-97331046D01*
X233989141Y-97458366D01*
X233958536Y-97609500D01*
X233958536Y-98859500D01*
X233985103Y-99000690D01*
X234068546Y-99130365D01*
X234195866Y-99217359D01*
X234347000Y-99247964D01*
X234614400Y-99247964D01*
X234614400Y-100917000D01*
X234625646Y-100973536D01*
X234292000Y-100973536D01*
X234150810Y-101000103D01*
X234021135Y-101083546D01*
X233934141Y-101210866D01*
X233903536Y-101362000D01*
X233903536Y-103362000D01*
X233930103Y-103503190D01*
X234013546Y-103632865D01*
X234140866Y-103719859D01*
X234292000Y-103750464D01*
X238792000Y-103750464D01*
X238933190Y-103723897D01*
X239062865Y-103640454D01*
X239149859Y-103513134D01*
X239180464Y-103362000D01*
X239180464Y-103229764D01*
X241257450Y-105306750D01*
X241414017Y-105411364D01*
X241598700Y-105448100D01*
X244178400Y-105448100D01*
X246069050Y-107338750D01*
X246225036Y-107442976D01*
X246225036Y-107784036D01*
X244638500Y-107784036D01*
X244504824Y-107809189D01*
X244379299Y-107683444D01*
X244103999Y-107569130D01*
X243805909Y-107568870D01*
X243530410Y-107682704D01*
X243319444Y-107893301D01*
X243205130Y-108168601D01*
X243204870Y-108466691D01*
X243318704Y-108742190D01*
X243377229Y-108800817D01*
X243319444Y-108858501D01*
X243205130Y-109133801D01*
X243204870Y-109431891D01*
X243285240Y-109626400D01*
X243277900Y-109626400D01*
X239482250Y-105830750D01*
X239325683Y-105726136D01*
X239141000Y-105689400D01*
X234895899Y-105689400D01*
X233527600Y-104321100D01*
X233527600Y-96051000D01*
X262032536Y-96051000D01*
X262032536Y-97751000D01*
X262059103Y-97892190D01*
X262142546Y-98021865D01*
X262269866Y-98108859D01*
X262421000Y-98139464D01*
X264121000Y-98139464D01*
X264262190Y-98112897D01*
X264391865Y-98029454D01*
X264478859Y-97902134D01*
X264509464Y-97751000D01*
X264509464Y-96051000D01*
X264482897Y-95909810D01*
X264399454Y-95780135D01*
X264272134Y-95693141D01*
X264121000Y-95662536D01*
X262421000Y-95662536D01*
X262279810Y-95689103D01*
X262150135Y-95772546D01*
X262063141Y-95899866D01*
X262032536Y-96051000D01*
X233527600Y-96051000D01*
X233527600Y-95830900D01*
X234514900Y-94843600D01*
X264214100Y-94843600D01*
X264566400Y-95195899D01*
X264566400Y-98665182D01*
X264364021Y-98867561D01*
X264165565Y-98570552D01*
X263766200Y-98303704D01*
X263295117Y-98210000D01*
X263246883Y-98210000D01*
X262775800Y-98303704D01*
X262376435Y-98570552D01*
X262109587Y-98969917D01*
X262015883Y-99441000D01*
X262109587Y-99912083D01*
X262376435Y-100311448D01*
X262775800Y-100578296D01*
X262814947Y-100586083D01*
X262389642Y-100785817D01*
X261999355Y-101214076D01*
X261829524Y-101624110D01*
X261950845Y-101854000D01*
X263144000Y-101854000D01*
X263144000Y-101834000D01*
X263398000Y-101834000D01*
X263398000Y-101854000D01*
X264591155Y-101854000D01*
X264712476Y-101624110D01*
X264542645Y-101214076D01*
X264152358Y-100785817D01*
X263727053Y-100586083D01*
X263766200Y-100578296D01*
X264165565Y-100311448D01*
X264424718Y-99923600D01*
X264473081Y-99923600D01*
X264657764Y-99886864D01*
X264814331Y-99782250D01*
X265390247Y-99206333D01*
X265390250Y-99206331D01*
X265494864Y-99049764D01*
X265531600Y-98865081D01*
X265531600Y-94996005D01*
X265531601Y-94996000D01*
X265494864Y-94811317D01*
X265440697Y-94730250D01*
X265390250Y-94654750D01*
X265390247Y-94654748D01*
X264755250Y-94019750D01*
X264598683Y-93915136D01*
X264414000Y-93878400D01*
X234315000Y-93878400D01*
X234130317Y-93915136D01*
X233973750Y-94019750D01*
X232703750Y-95289750D01*
X232599136Y-95446317D01*
X232562400Y-95631000D01*
X232562400Y-104521000D01*
X232599136Y-104705683D01*
X232703750Y-104862250D01*
X234354748Y-106513247D01*
X234354750Y-106513250D01*
X234511317Y-106617864D01*
X234696000Y-106654601D01*
X234696005Y-106654600D01*
X238941100Y-106654600D01*
X242736750Y-110450250D01*
X242893317Y-110554864D01*
X243078000Y-110591601D01*
X243078005Y-110591600D01*
X244250036Y-110591600D01*
X244250036Y-111122500D01*
X244274420Y-111252088D01*
X244250036Y-111372500D01*
X244250036Y-111922500D01*
X244274420Y-112052088D01*
X244250036Y-112172500D01*
X244250036Y-112722500D01*
X244258014Y-112764900D01*
X242774490Y-112764900D01*
X242702590Y-112750598D01*
X241108630Y-112750598D01*
X241280986Y-112383592D01*
X241160319Y-112153700D01*
X239966500Y-112153700D01*
X239966500Y-112173700D01*
X239712500Y-112173700D01*
X239712500Y-112153700D01*
X239692500Y-112153700D01*
X239692500Y-111899700D01*
X239712500Y-111899700D01*
X239712500Y-110706545D01*
X239966500Y-110706545D01*
X239966500Y-111899700D01*
X241160319Y-111899700D01*
X241280986Y-111669808D01*
X241034683Y-111145342D01*
X240606424Y-110755055D01*
X240196390Y-110585224D01*
X239966500Y-110706545D01*
X239712500Y-110706545D01*
X239482610Y-110585224D01*
X239072576Y-110755055D01*
X238644317Y-111145342D01*
X238444583Y-111570647D01*
X238436796Y-111531500D01*
X238169948Y-111132135D01*
X237770583Y-110865287D01*
X237299500Y-110771583D01*
X236828417Y-110865287D01*
X236823723Y-110868423D01*
X236228424Y-110273124D01*
X236470509Y-110173096D01*
X236681475Y-109962499D01*
X236795789Y-109687199D01*
X236796049Y-109389109D01*
X236682215Y-109113610D01*
X236471618Y-108902644D01*
X236196318Y-108788330D01*
X236123570Y-108788267D01*
X234694411Y-107359108D01*
X234504883Y-107232470D01*
X234281319Y-107188000D01*
X224510764Y-107188000D01*
X224510764Y-106772200D01*
X224484197Y-106631010D01*
X224400754Y-106501335D01*
X224273434Y-106414341D01*
X224122300Y-106383736D01*
X221622300Y-106383736D01*
X221481110Y-106410303D01*
X221351435Y-106493746D01*
X221277009Y-106602672D01*
X221207554Y-106494735D01*
X221080234Y-106407741D01*
X220929100Y-106377136D01*
X219329100Y-106377136D01*
X219187910Y-106403703D01*
X219058235Y-106487146D01*
X218971241Y-106614466D01*
X218940636Y-106765600D01*
X218940636Y-106957352D01*
X216065100Y-104081816D01*
X216065100Y-104051350D01*
X218694100Y-104051350D01*
X218694100Y-104891909D01*
X218790773Y-105125298D01*
X218969401Y-105303927D01*
X219202790Y-105400600D01*
X219843350Y-105400600D01*
X220002100Y-105241850D01*
X220002100Y-103892600D01*
X218852850Y-103892600D01*
X218694100Y-104051350D01*
X216065100Y-104051350D01*
X216065100Y-94961184D01*
X216614992Y-94411292D01*
X216700747Y-94282950D01*
X216741630Y-94221764D01*
X216786100Y-93998200D01*
X216786100Y-93980264D01*
X216801900Y-93980264D01*
X216943090Y-93953697D01*
X217072765Y-93870254D01*
X217159759Y-93742934D01*
X217190364Y-93591800D01*
X217190364Y-92691800D01*
X217163797Y-92550610D01*
X217080354Y-92420935D01*
X216955746Y-92335794D01*
X217161598Y-92250527D01*
X217340227Y-92071899D01*
X217436900Y-91838510D01*
X217436900Y-91836899D01*
X217440003Y-91853390D01*
X217523446Y-91983065D01*
X217650766Y-92070059D01*
X217801900Y-92100664D01*
X217817700Y-92100664D01*
X217817700Y-92177366D01*
X217812800Y-92202000D01*
X217817700Y-92226634D01*
X217817700Y-92303336D01*
X217801900Y-92303336D01*
X217660710Y-92329903D01*
X217531035Y-92413346D01*
X217444041Y-92540666D01*
X217413436Y-92691800D01*
X217413436Y-93591800D01*
X217440003Y-93732990D01*
X217523446Y-93862665D01*
X217531029Y-93867846D01*
X217492573Y-93906302D01*
X217395900Y-94139691D01*
X217395900Y-94730250D01*
X217554650Y-94889000D01*
X218528900Y-94889000D01*
X218528900Y-94869000D01*
X218782900Y-94869000D01*
X218782900Y-94889000D01*
X218802900Y-94889000D01*
X218802900Y-95143000D01*
X218782900Y-95143000D01*
X218782900Y-95163000D01*
X218528900Y-95163000D01*
X218528900Y-95143000D01*
X217554650Y-95143000D01*
X217395900Y-95301750D01*
X217395900Y-95892309D01*
X217492573Y-96125698D01*
X217671201Y-96304327D01*
X217904590Y-96401000D01*
X217906201Y-96401000D01*
X217889710Y-96404103D01*
X217760035Y-96487546D01*
X217673041Y-96614866D01*
X217642436Y-96766000D01*
X217642436Y-98266000D01*
X217669003Y-98407190D01*
X217752446Y-98536865D01*
X217879766Y-98623859D01*
X218030900Y-98654464D01*
X218071700Y-98654464D01*
X218071700Y-98672400D01*
X218116170Y-98895964D01*
X218242747Y-99085400D01*
X218242808Y-99085492D01*
X218903732Y-99746416D01*
X218903670Y-99817991D01*
X219017504Y-100093490D01*
X219228101Y-100304456D01*
X219365984Y-100361710D01*
X219320202Y-100380673D01*
X219141573Y-100559301D01*
X219044900Y-100792690D01*
X219044900Y-100933250D01*
X219203650Y-101092000D01*
X219767400Y-101092000D01*
X219767400Y-101072000D01*
X219941436Y-101072000D01*
X219941436Y-101366000D01*
X219767400Y-101366000D01*
X219767400Y-101346000D01*
X219203650Y-101346000D01*
X219044900Y-101504750D01*
X219044900Y-101645310D01*
X219141573Y-101878699D01*
X219320202Y-102057327D01*
X219497098Y-102130600D01*
X219202790Y-102130600D01*
X218969401Y-102227273D01*
X218790773Y-102405902D01*
X218694100Y-102639291D01*
X218694100Y-103479850D01*
X218852850Y-103638600D01*
X220002100Y-103638600D01*
X220002100Y-103618600D01*
X220256100Y-103618600D01*
X220256100Y-103638600D01*
X220276100Y-103638600D01*
X220276100Y-103892600D01*
X220256100Y-103892600D01*
X220256100Y-105241850D01*
X220414850Y-105400600D01*
X221055410Y-105400600D01*
X221288799Y-105303927D01*
X221466116Y-105126609D01*
X221471166Y-105130059D01*
X221622300Y-105160664D01*
X224122300Y-105160664D01*
X224263490Y-105134097D01*
X224393165Y-105050654D01*
X224480159Y-104923334D01*
X224510764Y-104772200D01*
X224510764Y-102772200D01*
X224484197Y-102631010D01*
X224400754Y-102501335D01*
X224273434Y-102414341D01*
X224122300Y-102383736D01*
X223851569Y-102383736D01*
X223818624Y-102218110D01*
X223787495Y-102061613D01*
X223572760Y-101740240D01*
X223415900Y-101583380D01*
X223415900Y-100088700D01*
X223340495Y-99709614D01*
X223125760Y-99388240D01*
X223111100Y-99378445D01*
X223111100Y-99125311D01*
X223138764Y-98988700D01*
X223138764Y-98572900D01*
X223272998Y-98572900D01*
X223366166Y-98636559D01*
X223517300Y-98667164D01*
X224767300Y-98667164D01*
X224908490Y-98640597D01*
X225038165Y-98557154D01*
X225125159Y-98429834D01*
X225155764Y-98278700D01*
X225155764Y-96778700D01*
X225129197Y-96637510D01*
X225045754Y-96507835D01*
X224918434Y-96420841D01*
X224767300Y-96390236D01*
X223517300Y-96390236D01*
X223376110Y-96416803D01*
X223246435Y-96500246D01*
X223159441Y-96627566D01*
X223128836Y-96778700D01*
X223128836Y-96935938D01*
X223112197Y-96847510D01*
X223028754Y-96717835D01*
X222901434Y-96630841D01*
X222750300Y-96600236D01*
X222100300Y-96600236D01*
X221959110Y-96626803D01*
X221952113Y-96631305D01*
X221951434Y-96630841D01*
X221800300Y-96600236D01*
X221150300Y-96600236D01*
X221009110Y-96626803D01*
X221002113Y-96631305D01*
X221001434Y-96630841D01*
X220850300Y-96600236D01*
X220200300Y-96600236D01*
X220059110Y-96626803D01*
X219929435Y-96710246D01*
X219842441Y-96837566D01*
X219811836Y-96988700D01*
X219811836Y-98924182D01*
X219802799Y-98920430D01*
X219730051Y-98920367D01*
X219431516Y-98621832D01*
X219551765Y-98544454D01*
X219638759Y-98417134D01*
X219669364Y-98266000D01*
X219669364Y-96766000D01*
X219642797Y-96624810D01*
X219559354Y-96495135D01*
X219432034Y-96408141D01*
X219396770Y-96401000D01*
X219407210Y-96401000D01*
X219640599Y-96304327D01*
X219819227Y-96125698D01*
X219915900Y-95892309D01*
X219915900Y-95830325D01*
X219921846Y-95839565D01*
X220049166Y-95926559D01*
X220200300Y-95957164D01*
X220640739Y-95957164D01*
X220790601Y-96107027D01*
X221023990Y-96203700D01*
X221189550Y-96203700D01*
X221348300Y-96044950D01*
X221348300Y-94695700D01*
X221328300Y-94695700D01*
X221328300Y-94441700D01*
X221348300Y-94441700D01*
X221348300Y-93092450D01*
X221602300Y-93092450D01*
X221602300Y-94441700D01*
X221622300Y-94441700D01*
X221622300Y-94695700D01*
X221602300Y-94695700D01*
X221602300Y-96044950D01*
X221761050Y-96203700D01*
X221926610Y-96203700D01*
X222159999Y-96107027D01*
X222309861Y-95957164D01*
X222750300Y-95957164D01*
X222891490Y-95930597D01*
X223021165Y-95847154D01*
X223108159Y-95719834D01*
X223128836Y-95617727D01*
X223128836Y-95778700D01*
X223155403Y-95919890D01*
X223238846Y-96049565D01*
X223366166Y-96136559D01*
X223517300Y-96167164D01*
X224767300Y-96167164D01*
X224908490Y-96140597D01*
X225038165Y-96057154D01*
X225125159Y-95929834D01*
X225155764Y-95778700D01*
X225155764Y-94278700D01*
X225129197Y-94137510D01*
X225045754Y-94007835D01*
X224918434Y-93920841D01*
X224767300Y-93890236D01*
X223517300Y-93890236D01*
X223376110Y-93916803D01*
X223270905Y-93984500D01*
X223138764Y-93984500D01*
X223138764Y-93568700D01*
X223112197Y-93427510D01*
X223028754Y-93297835D01*
X222901434Y-93210841D01*
X222750300Y-93180236D01*
X222309861Y-93180236D01*
X222159999Y-93030373D01*
X221926610Y-92933700D01*
X221761050Y-92933700D01*
X221602300Y-93092450D01*
X221348300Y-93092450D01*
X221189550Y-92933700D01*
X221105502Y-92933700D01*
X221102426Y-92918236D01*
X221065031Y-92730237D01*
X220938392Y-92540708D01*
X220186592Y-91788908D01*
X220179259Y-91784008D01*
X219997064Y-91662270D01*
X219773500Y-91617800D01*
X219390364Y-91617800D01*
X219390364Y-90812200D01*
X219363797Y-90671010D01*
X219280354Y-90541335D01*
X219153034Y-90454341D01*
X219001900Y-90423736D01*
X217801900Y-90423736D01*
X217660710Y-90450303D01*
X217531035Y-90533746D01*
X217444041Y-90661066D01*
X217436900Y-90696330D01*
X217436900Y-90685890D01*
X217340227Y-90452501D01*
X217161598Y-90273873D01*
X216928209Y-90177200D01*
X216487650Y-90177200D01*
X216328900Y-90335950D01*
X216328900Y-91135200D01*
X216348900Y-91135200D01*
X216348900Y-91389200D01*
X216328900Y-91389200D01*
X216328900Y-91409200D01*
X216074900Y-91409200D01*
X216074900Y-91389200D01*
X215125650Y-91389200D01*
X214966900Y-91547950D01*
X214966900Y-91838510D01*
X215063573Y-92071899D01*
X215242202Y-92250527D01*
X215450184Y-92336676D01*
X215331035Y-92413346D01*
X215244041Y-92540666D01*
X215213436Y-92691800D01*
X215213436Y-93591800D01*
X215240003Y-93732990D01*
X215323446Y-93862665D01*
X215435017Y-93938899D01*
X215067808Y-94306108D01*
X214941170Y-94495636D01*
X214896700Y-94719200D01*
X209371000Y-94719200D01*
X209371000Y-90685890D01*
X214966900Y-90685890D01*
X214966900Y-90976450D01*
X215125650Y-91135200D01*
X216074900Y-91135200D01*
X216074900Y-90335950D01*
X215916150Y-90177200D01*
X215475591Y-90177200D01*
X215242202Y-90273873D01*
X215063573Y-90452501D01*
X214966900Y-90685890D01*
X209371000Y-90685890D01*
X209371000Y-89356000D01*
X266879000Y-89356000D01*
X266879000Y-131916307D01*
X266879000Y-131916307D01*
G37*
X266879000Y-131916307D02*
X266820051Y-131876029D01*
X266573000Y-131826000D01*
X253759493Y-131826000D01*
X253768124Y-131783380D01*
X253768124Y-130583380D01*
X253741557Y-130442190D01*
X253658114Y-130312515D01*
X253530794Y-130225521D01*
X253403100Y-130199663D01*
X253403100Y-130053489D01*
X253555356Y-129901499D01*
X253669670Y-129626199D01*
X253669930Y-129328109D01*
X253556096Y-129052610D01*
X253345499Y-128841644D01*
X253070199Y-128727330D01*
X252772109Y-128727070D01*
X252496610Y-128840904D01*
X252398124Y-128939218D01*
X252398124Y-128145380D01*
X252371557Y-128004190D01*
X252288114Y-127874515D01*
X252160794Y-127787521D01*
X252009660Y-127756916D01*
X251847158Y-127756916D01*
X251919430Y-127743317D01*
X252049105Y-127659874D01*
X252136099Y-127532554D01*
X252166704Y-127381420D01*
X252166704Y-126481420D01*
X252140137Y-126340230D01*
X252056694Y-126210555D01*
X251985339Y-126161800D01*
X253957168Y-126161800D01*
X254141851Y-126125064D01*
X254298418Y-126020450D01*
X256830446Y-123488421D01*
X256830449Y-123488419D01*
X256935063Y-123331852D01*
X256937404Y-123320081D01*
X256971800Y-123147169D01*
X256971799Y-123147164D01*
X256971799Y-118885990D01*
X261791424Y-118885990D01*
X261961255Y-119296024D01*
X262351542Y-119724283D01*
X262876008Y-119970586D01*
X263105900Y-119849919D01*
X263105900Y-118656100D01*
X263359900Y-118656100D01*
X263359900Y-119849919D01*
X263589792Y-119970586D01*
X264114258Y-119724283D01*
X264504545Y-119296024D01*
X264674376Y-118885990D01*
X264553055Y-118656100D01*
X263359900Y-118656100D01*
X263105900Y-118656100D01*
X261912745Y-118656100D01*
X261791424Y-118885990D01*
X256971799Y-118885990D01*
X256971799Y-118172210D01*
X261791424Y-118172210D01*
X261912745Y-118402100D01*
X263105900Y-118402100D01*
X263105900Y-118382100D01*
X263359900Y-118382100D01*
X263359900Y-118402100D01*
X264553055Y-118402100D01*
X264674376Y-118172210D01*
X264504545Y-117762176D01*
X264114258Y-117333917D01*
X263688953Y-117134183D01*
X263728100Y-117126396D01*
X264127465Y-116859548D01*
X264394313Y-116460183D01*
X264488017Y-115989100D01*
X264394313Y-115518017D01*
X264127465Y-115118652D01*
X263728100Y-114851804D01*
X263257017Y-114758100D01*
X263208783Y-114758100D01*
X262737700Y-114851804D01*
X262338335Y-115118652D01*
X262071487Y-115518017D01*
X261977783Y-115989100D01*
X262071487Y-116460183D01*
X262338335Y-116859548D01*
X262737700Y-117126396D01*
X262776847Y-117134183D01*
X262351542Y-117333917D01*
X261961255Y-117762176D01*
X261791424Y-118172210D01*
X256971799Y-118172210D01*
X256971799Y-117688536D01*
X257179790Y-117602596D01*
X257390756Y-117391999D01*
X257505070Y-117116699D01*
X257505330Y-116818609D01*
X257391496Y-116543110D01*
X257180899Y-116332144D01*
X256905599Y-116217830D01*
X256607509Y-116217570D01*
X256332010Y-116331404D01*
X256286105Y-116377229D01*
X256241099Y-116332144D01*
X255965799Y-116217830D01*
X255667709Y-116217570D01*
X255392210Y-116331404D01*
X255181244Y-116542001D01*
X255066930Y-116817301D01*
X255066670Y-117115391D01*
X255180504Y-117390890D01*
X255391101Y-117601856D01*
X255600201Y-117688681D01*
X255600201Y-122778931D01*
X253588932Y-124790200D01*
X251046599Y-124790200D01*
X251078856Y-124757999D01*
X251193170Y-124482699D01*
X251193430Y-124184609D01*
X251128912Y-124028464D01*
X251404500Y-124028464D01*
X251545690Y-124001897D01*
X251675365Y-123918454D01*
X251762359Y-123791134D01*
X251792964Y-123640000D01*
X251792964Y-122740000D01*
X251774841Y-122643684D01*
X251942827Y-122475699D01*
X252039500Y-122242310D01*
X252039500Y-122240699D01*
X252042603Y-122257190D01*
X252126046Y-122386865D01*
X252186015Y-122427840D01*
X252133635Y-122461546D01*
X252046641Y-122588866D01*
X252016036Y-122740000D01*
X252016036Y-123640000D01*
X252042603Y-123781190D01*
X252126046Y-123910865D01*
X252253366Y-123997859D01*
X252404500Y-124028464D01*
X253604500Y-124028464D01*
X253745690Y-124001897D01*
X253875365Y-123918454D01*
X253962359Y-123791134D01*
X253992964Y-123640000D01*
X253992964Y-122740000D01*
X253966397Y-122598810D01*
X253882954Y-122469135D01*
X253822985Y-122428160D01*
X253875365Y-122394454D01*
X253962359Y-122267134D01*
X253986362Y-122148600D01*
X254063500Y-122148600D01*
X254248183Y-122111864D01*
X254404750Y-122007250D01*
X254595250Y-121816750D01*
X254699864Y-121660183D01*
X254736601Y-121475500D01*
X254736600Y-121475495D01*
X254736600Y-117729005D01*
X254736601Y-117729000D01*
X254699864Y-117544317D01*
X254595250Y-117387750D01*
X254277750Y-117070250D01*
X254121183Y-116965636D01*
X253936500Y-116928900D01*
X253599200Y-116928900D01*
X253120375Y-116450075D01*
X253121359Y-116448634D01*
X253151964Y-116297500D01*
X253151964Y-114710964D01*
X254738500Y-114710964D01*
X254879690Y-114684397D01*
X255009365Y-114600954D01*
X255096359Y-114473634D01*
X255126964Y-114322500D01*
X255126964Y-113772500D01*
X255102580Y-113642912D01*
X255126964Y-113522500D01*
X255126964Y-112972500D01*
X255102580Y-112842912D01*
X255126964Y-112722500D01*
X255126964Y-112172500D01*
X255102580Y-112042912D01*
X255126964Y-111922500D01*
X255126964Y-111378464D01*
X255557650Y-111809150D01*
X255713636Y-111913376D01*
X255713636Y-112092900D01*
X255740203Y-112234090D01*
X255823646Y-112363765D01*
X255950966Y-112450759D01*
X256102100Y-112481364D01*
X256208418Y-112481364D01*
X256093135Y-112555546D01*
X256006141Y-112682866D01*
X255975536Y-112834000D01*
X255975536Y-113734000D01*
X256002103Y-113875190D01*
X256085546Y-114004865D01*
X256212866Y-114091859D01*
X256364000Y-114122464D01*
X257564000Y-114122464D01*
X257705190Y-114095897D01*
X257834865Y-114012454D01*
X257921859Y-113885134D01*
X257952464Y-113734000D01*
X257952464Y-112834000D01*
X257925897Y-112692810D01*
X257842454Y-112563135D01*
X257715134Y-112476141D01*
X257674061Y-112467824D01*
X257743290Y-112454797D01*
X257872965Y-112371354D01*
X257959959Y-112244034D01*
X257990564Y-112092900D01*
X257990564Y-110842900D01*
X257963997Y-110701710D01*
X257880554Y-110572035D01*
X257856354Y-110555500D01*
X258345138Y-110555500D01*
X258331235Y-110564446D01*
X258244241Y-110691766D01*
X258213636Y-110842900D01*
X258213636Y-112092900D01*
X258240203Y-112234090D01*
X258323646Y-112363765D01*
X258450966Y-112450759D01*
X258492039Y-112459076D01*
X258422810Y-112472103D01*
X258293135Y-112555546D01*
X258206141Y-112682866D01*
X258175536Y-112834000D01*
X258175536Y-113734000D01*
X258202103Y-113875190D01*
X258285546Y-114004865D01*
X258412866Y-114091859D01*
X258564000Y-114122464D01*
X259764000Y-114122464D01*
X259905190Y-114095897D01*
X260034865Y-114012454D01*
X260072687Y-113957100D01*
X262096154Y-113957100D01*
X262338335Y-114319548D01*
X262737700Y-114586396D01*
X263208783Y-114680100D01*
X263257017Y-114680100D01*
X263728100Y-114586396D01*
X264127465Y-114319548D01*
X264394313Y-113920183D01*
X264488017Y-113449100D01*
X264394313Y-112978017D01*
X264199713Y-112686779D01*
X264392503Y-112648431D01*
X264557310Y-112538310D01*
X265446310Y-111649310D01*
X265556431Y-111484503D01*
X265595100Y-111290100D01*
X265595100Y-106579300D01*
X265556431Y-106384897D01*
X265446310Y-106220090D01*
X264696110Y-105469890D01*
X264531303Y-105359769D01*
X264471364Y-105347846D01*
X264471364Y-104979100D01*
X264444797Y-104837910D01*
X264361354Y-104708235D01*
X264234034Y-104621241D01*
X264082900Y-104590636D01*
X262382900Y-104590636D01*
X262241710Y-104617203D01*
X262112035Y-104700646D01*
X262025041Y-104827966D01*
X261994436Y-104979100D01*
X261994436Y-106679100D01*
X262021003Y-106820290D01*
X262104446Y-106949965D01*
X262231766Y-107036959D01*
X262382900Y-107067564D01*
X264082900Y-107067564D01*
X264224090Y-107040997D01*
X264353765Y-106957554D01*
X264440759Y-106830234D01*
X264470878Y-106681498D01*
X264579100Y-106789720D01*
X264579100Y-111079680D01*
X264423046Y-111235734D01*
X264488017Y-110909100D01*
X264394313Y-110438017D01*
X264127465Y-110038652D01*
X263728100Y-109771804D01*
X263257017Y-109678100D01*
X263208783Y-109678100D01*
X262737700Y-109771804D01*
X262338335Y-110038652D01*
X262154267Y-110314128D01*
X261528429Y-109688290D01*
X261458983Y-109641887D01*
X261511629Y-109606710D01*
X262154267Y-108964072D01*
X262338335Y-109239548D01*
X262737700Y-109506396D01*
X263208783Y-109600100D01*
X263257017Y-109600100D01*
X263728100Y-109506396D01*
X264127465Y-109239548D01*
X264394313Y-108840183D01*
X264488017Y-108369100D01*
X264394313Y-107898017D01*
X264127465Y-107498652D01*
X263728100Y-107231804D01*
X263257017Y-107138100D01*
X263208783Y-107138100D01*
X262737700Y-107231804D01*
X262338335Y-107498652D01*
X262096154Y-107861100D01*
X262030819Y-107861100D01*
X261836415Y-107899769D01*
X261671609Y-108009890D01*
X260941999Y-108739500D01*
X255123521Y-108739500D01*
X255126964Y-108722500D01*
X255126964Y-108172500D01*
X255100397Y-108031310D01*
X255016954Y-107901635D01*
X254889634Y-107814641D01*
X254738500Y-107784036D01*
X253151964Y-107784036D01*
X253151964Y-106197500D01*
X253125397Y-106056310D01*
X253041954Y-105926635D01*
X252914634Y-105839641D01*
X252763500Y-105809036D01*
X252213500Y-105809036D01*
X252083912Y-105833420D01*
X251963500Y-105809036D01*
X251673061Y-105809036D01*
X251523199Y-105659173D01*
X251289810Y-105562500D01*
X251174250Y-105562500D01*
X251015500Y-105721250D01*
X251015500Y-106870500D01*
X251025036Y-106870500D01*
X251025036Y-107124500D01*
X251015500Y-107124500D01*
X251015500Y-108273750D01*
X251174250Y-108432500D01*
X251289810Y-108432500D01*
X251433873Y-108372827D01*
X250610750Y-109195950D01*
X250506136Y-109352517D01*
X250469400Y-109537200D01*
X250469400Y-112522000D01*
X250506136Y-112706683D01*
X250610750Y-112863250D01*
X251599758Y-113852257D01*
X251599570Y-114067391D01*
X251699416Y-114309036D01*
X251413500Y-114309036D01*
X251283912Y-114333420D01*
X251163500Y-114309036D01*
X250873061Y-114309036D01*
X250723199Y-114159173D01*
X250489810Y-114062500D01*
X250374250Y-114062500D01*
X250215500Y-114221250D01*
X250215500Y-115370500D01*
X250225036Y-115370500D01*
X250225036Y-115624500D01*
X250215500Y-115624500D01*
X250215500Y-116773750D01*
X250374250Y-116932500D01*
X250489810Y-116932500D01*
X250723199Y-116835827D01*
X250873061Y-116685964D01*
X251163500Y-116685964D01*
X251239892Y-116671590D01*
X251242636Y-116685383D01*
X251339327Y-116830092D01*
X251163110Y-116902904D01*
X250952144Y-117113501D01*
X250837830Y-117388801D01*
X250837641Y-117605359D01*
X250663464Y-117779536D01*
X250204500Y-117779536D01*
X250063310Y-117806103D01*
X249933635Y-117889546D01*
X249846641Y-118016866D01*
X249816036Y-118168000D01*
X249816036Y-119068000D01*
X249834159Y-119164316D01*
X249666173Y-119332301D01*
X249569500Y-119565690D01*
X249569500Y-119856250D01*
X249728250Y-120015000D01*
X250677500Y-120015000D01*
X250677500Y-119995000D01*
X250931500Y-119995000D01*
X250931500Y-120015000D01*
X250951500Y-120015000D01*
X250951500Y-120269000D01*
X250931500Y-120269000D01*
X250931500Y-121539000D01*
X250951500Y-121539000D01*
X250951500Y-121793000D01*
X250931500Y-121793000D01*
X250931500Y-121813000D01*
X250677500Y-121813000D01*
X250677500Y-121793000D01*
X249728250Y-121793000D01*
X249569500Y-121951750D01*
X249569500Y-122242310D01*
X249666173Y-122475699D01*
X249835308Y-122644833D01*
X249816036Y-122740000D01*
X249816036Y-123640000D01*
X249842603Y-123781190D01*
X249879201Y-123838066D01*
X249809144Y-123908001D01*
X249694830Y-124183301D01*
X249694570Y-124481391D01*
X249808404Y-124756890D01*
X249841656Y-124790200D01*
X245088905Y-124790200D01*
X245088900Y-124790199D01*
X244904217Y-124826936D01*
X244747650Y-124931550D01*
X244747648Y-124931553D01*
X243691430Y-125987770D01*
X243587204Y-126143756D01*
X243432680Y-126143756D01*
X243291490Y-126170323D01*
X243161815Y-126253766D01*
X243074821Y-126381086D01*
X243044216Y-126532220D01*
X243044216Y-127432220D01*
X243070783Y-127573410D01*
X243154226Y-127703085D01*
X243233010Y-127756916D01*
X242929660Y-127756916D01*
X242788470Y-127783483D01*
X242658795Y-127866926D01*
X242571801Y-127994246D01*
X242541196Y-128145380D01*
X242541196Y-129395380D01*
X242567763Y-129536570D01*
X242651206Y-129666245D01*
X242778526Y-129753239D01*
X242929660Y-129783844D01*
X243095460Y-129783844D01*
X243095460Y-130194916D01*
X242573660Y-130194916D01*
X242432470Y-130221483D01*
X242302795Y-130304926D01*
X242215801Y-130432246D01*
X242185196Y-130583380D01*
X242185196Y-131783380D01*
X242193216Y-131826000D01*
X240553493Y-131826000D01*
X240562124Y-131783380D01*
X240562124Y-130583380D01*
X240539288Y-130462020D01*
X240968280Y-130462020D01*
X241162683Y-130423351D01*
X241327490Y-130313230D01*
X241745570Y-129895151D01*
X241855691Y-129730344D01*
X241866931Y-129673834D01*
X241867614Y-129670404D01*
X242011360Y-129670404D01*
X242152550Y-129643837D01*
X242282225Y-129560394D01*
X242369219Y-129433074D01*
X242399824Y-129281940D01*
X242399824Y-127781940D01*
X242373257Y-127640750D01*
X242289814Y-127511075D01*
X242162494Y-127424081D01*
X242127230Y-127416940D01*
X242137670Y-127416940D01*
X242371059Y-127320267D01*
X242549687Y-127141638D01*
X242646360Y-126908249D01*
X242646360Y-126317690D01*
X242487610Y-126158940D01*
X241513360Y-126158940D01*
X241513360Y-126178940D01*
X241259360Y-126178940D01*
X241259360Y-126158940D01*
X240285110Y-126158940D01*
X240126360Y-126317690D01*
X240126360Y-126462420D01*
X239557870Y-126462420D01*
X239399120Y-126621170D01*
X239399120Y-127197420D01*
X239419120Y-127197420D01*
X239419120Y-127358956D01*
X239125120Y-127358956D01*
X239125120Y-127197420D01*
X239145120Y-127197420D01*
X239145120Y-126621170D01*
X238986370Y-126462420D01*
X238480600Y-126462420D01*
X238480600Y-126056900D01*
X239381868Y-125155631D01*
X240126360Y-125155631D01*
X240126360Y-125746190D01*
X240285110Y-125904940D01*
X241259360Y-125904940D01*
X241259360Y-124805690D01*
X241513360Y-124805690D01*
X241513360Y-125904940D01*
X242487610Y-125904940D01*
X242646360Y-125746190D01*
X242646360Y-125155631D01*
X242549687Y-124922242D01*
X242371059Y-124743613D01*
X242137670Y-124646940D01*
X241672110Y-124646940D01*
X241513360Y-124805690D01*
X241259360Y-124805690D01*
X241100610Y-124646940D01*
X240635050Y-124646940D01*
X240401661Y-124743613D01*
X240223033Y-124922242D01*
X240126360Y-125155631D01*
X239381868Y-125155631D01*
X240598198Y-123939301D01*
X241726310Y-123939301D01*
X241878300Y-124091557D01*
X242153600Y-124205871D01*
X242451690Y-124206131D01*
X242727189Y-124092297D01*
X242938155Y-123881700D01*
X243052469Y-123606400D01*
X243052729Y-123308310D01*
X242938895Y-123032811D01*
X242728298Y-122821845D01*
X242452998Y-122707531D01*
X242154908Y-122707271D01*
X241879409Y-122821105D01*
X241726145Y-122974101D01*
X240398299Y-122974101D01*
X240213616Y-123010837D01*
X240057049Y-123115451D01*
X240057047Y-123115454D01*
X237656750Y-125515750D01*
X237552136Y-125672317D01*
X237515400Y-125857000D01*
X237515400Y-126741027D01*
X237513254Y-126739561D01*
X237362120Y-126708956D01*
X235862120Y-126708956D01*
X235720930Y-126735523D01*
X235637171Y-126789420D01*
X235608120Y-126789420D01*
X235413717Y-126828089D01*
X235248910Y-126938209D01*
X234803392Y-127383728D01*
X234747376Y-127394870D01*
X234557848Y-127521508D01*
X234431210Y-127711036D01*
X234386740Y-127934600D01*
X234386740Y-129811380D01*
X234431210Y-130034944D01*
X234555851Y-130221483D01*
X234557848Y-130224472D01*
X236159376Y-131826000D01*
X225298000Y-131826000D01*
X225067205Y-131869427D01*
X225046700Y-131882622D01*
X225037051Y-131876029D01*
X224790000Y-131826000D01*
X210566000Y-131826000D01*
X210335205Y-131869427D01*
X210123233Y-132005827D01*
X209981029Y-132213949D01*
X209931000Y-132461000D01*
X209931000Y-145923000D01*
X209974427Y-146153795D01*
X210110827Y-146365767D01*
X210318949Y-146507971D01*
X210439000Y-146532282D01*
X210439000Y-154940000D01*
X210447685Y-154986159D01*
X210474965Y-155028553D01*
X210516590Y-155056994D01*
X210566000Y-155067000D01*
X266573000Y-155067000D01*
X266619159Y-155058315D01*
X266661553Y-155031035D01*
X266689994Y-154989410D01*
X266700000Y-154940000D01*
X266700000Y-146534103D01*
X266803795Y-146514573D01*
X266879000Y-146466180D01*
X266879000Y-155119000D01*
X209371000Y-155119000D01*
X209371000Y-115166200D01*
X214490300Y-115166200D01*
X214490300Y-124770800D01*
X214534770Y-124994364D01*
X214620788Y-125123100D01*
X214661408Y-125183892D01*
X218103208Y-128625692D01*
X218292736Y-128752330D01*
X218516300Y-128796800D01*
X218534236Y-128796800D01*
X218534236Y-129212600D01*
X218560803Y-129353790D01*
X218644246Y-129483465D01*
X218771566Y-129570459D01*
X218922700Y-129601064D01*
X220522700Y-129601064D01*
X220663890Y-129574497D01*
X220793565Y-129491054D01*
X220867991Y-129382128D01*
X220937446Y-129490065D01*
X221064766Y-129577059D01*
X221215900Y-129607664D01*
X223715900Y-129607664D01*
X223857090Y-129581097D01*
X223986765Y-129497654D01*
X224073759Y-129370334D01*
X224104364Y-129219200D01*
X224104364Y-128803400D01*
X224761800Y-128803400D01*
X224985364Y-128758930D01*
X225174892Y-128632292D01*
X226470142Y-127337042D01*
X226495403Y-127471290D01*
X226578846Y-127600965D01*
X226706166Y-127687959D01*
X226857300Y-127718564D01*
X228857300Y-127718564D01*
X228998490Y-127691997D01*
X229128165Y-127608554D01*
X229215159Y-127481234D01*
X229245764Y-127330100D01*
X229245764Y-126815850D01*
X230222300Y-126815850D01*
X230222300Y-127456410D01*
X230318973Y-127689799D01*
X230497602Y-127868427D01*
X230730991Y-127965100D01*
X231571550Y-127965100D01*
X231730300Y-127806350D01*
X231730300Y-126657100D01*
X231984300Y-126657100D01*
X231984300Y-127806350D01*
X232143050Y-127965100D01*
X232983609Y-127965100D01*
X233216998Y-127868427D01*
X233395627Y-127689799D01*
X233492300Y-127456410D01*
X233492300Y-126815850D01*
X233333550Y-126657100D01*
X231984300Y-126657100D01*
X231730300Y-126657100D01*
X230381050Y-126657100D01*
X230222300Y-126815850D01*
X229245764Y-126815850D01*
X229245764Y-125758100D01*
X229830950Y-125758100D01*
X229985260Y-125603790D01*
X230222300Y-125603790D01*
X230222300Y-126244350D01*
X230381050Y-126403100D01*
X231730300Y-126403100D01*
X231730300Y-125253850D01*
X231984300Y-125253850D01*
X231984300Y-126403100D01*
X233333550Y-126403100D01*
X233492300Y-126244350D01*
X233492300Y-125603790D01*
X233395627Y-125370401D01*
X233216998Y-125191773D01*
X232983609Y-125095100D01*
X232143050Y-125095100D01*
X231984300Y-125253850D01*
X231730300Y-125253850D01*
X231571550Y-125095100D01*
X231501700Y-125095100D01*
X231501700Y-124783850D01*
X231342950Y-124625100D01*
X230243700Y-124625100D01*
X230243700Y-125552126D01*
X230222300Y-125603790D01*
X229985260Y-125603790D01*
X229989700Y-125599350D01*
X229989700Y-124625100D01*
X229969700Y-124625100D01*
X229969700Y-124371100D01*
X229989700Y-124371100D01*
X229989700Y-123396850D01*
X229964300Y-123371450D01*
X229964300Y-122694700D01*
X230218300Y-122694700D01*
X230218300Y-123668950D01*
X230243700Y-123694350D01*
X230243700Y-124371100D01*
X231342950Y-124371100D01*
X231501700Y-124212350D01*
X231501700Y-123746790D01*
X231405027Y-123513401D01*
X231398489Y-123506863D01*
X231476300Y-123319010D01*
X231476300Y-122853450D01*
X231317550Y-122694700D01*
X230218300Y-122694700D01*
X229964300Y-122694700D01*
X229944300Y-122694700D01*
X229944300Y-122440700D01*
X229964300Y-122440700D01*
X229964300Y-121466450D01*
X230218300Y-121466450D01*
X230218300Y-122440700D01*
X231317550Y-122440700D01*
X231476300Y-122281950D01*
X231476300Y-121816390D01*
X231379627Y-121583001D01*
X231200998Y-121404373D01*
X230967609Y-121307700D01*
X230377050Y-121307700D01*
X230218300Y-121466450D01*
X229964300Y-121466450D01*
X229805550Y-121307700D01*
X229214991Y-121307700D01*
X228981602Y-121404373D01*
X228802973Y-121583001D01*
X228706300Y-121816390D01*
X228706300Y-121818001D01*
X228703197Y-121801510D01*
X228619754Y-121671835D01*
X228492434Y-121584841D01*
X228341300Y-121554236D01*
X228130100Y-121554236D01*
X228130100Y-121296750D01*
X246898000Y-121296750D01*
X246898000Y-121887309D01*
X246994673Y-122120698D01*
X247173301Y-122299327D01*
X247406690Y-122396000D01*
X247872250Y-122396000D01*
X248031000Y-122237250D01*
X248031000Y-121138000D01*
X248285000Y-121138000D01*
X248285000Y-122237250D01*
X248443750Y-122396000D01*
X248909310Y-122396000D01*
X249142699Y-122299327D01*
X249321327Y-122120698D01*
X249418000Y-121887309D01*
X249418000Y-121296750D01*
X249259250Y-121138000D01*
X248285000Y-121138000D01*
X248031000Y-121138000D01*
X247056750Y-121138000D01*
X246898000Y-121296750D01*
X228130100Y-121296750D01*
X228130100Y-120724528D01*
X228440465Y-120517148D01*
X228600900Y-120277041D01*
X228600900Y-120623010D01*
X228697573Y-120856399D01*
X228876202Y-121035027D01*
X229109591Y-121131700D01*
X229800150Y-121131700D01*
X229958900Y-120972950D01*
X229958900Y-119773700D01*
X230212900Y-119773700D01*
X230212900Y-120972950D01*
X230371650Y-121131700D01*
X231062209Y-121131700D01*
X231295598Y-121035027D01*
X231474227Y-120856399D01*
X231570900Y-120623010D01*
X231570900Y-119932450D01*
X231412150Y-119773700D01*
X230212900Y-119773700D01*
X229958900Y-119773700D01*
X229938900Y-119773700D01*
X229938900Y-119519700D01*
X229958900Y-119519700D01*
X229958900Y-119499700D01*
X230212900Y-119499700D01*
X230212900Y-119519700D01*
X231412150Y-119519700D01*
X231570900Y-119360950D01*
X231570900Y-118670390D01*
X231474227Y-118437001D01*
X231295598Y-118258373D01*
X231062209Y-118161700D01*
X230704264Y-118161700D01*
X230980465Y-117977148D01*
X231247313Y-117577783D01*
X231341017Y-117106700D01*
X231247313Y-116635617D01*
X230980465Y-116236252D01*
X230581100Y-115969404D01*
X230110017Y-115875700D01*
X230061783Y-115875700D01*
X229590700Y-115969404D01*
X229191335Y-116236252D01*
X228924487Y-116635617D01*
X228830783Y-117106700D01*
X228924487Y-117577783D01*
X229191335Y-117977148D01*
X229467536Y-118161700D01*
X229109591Y-118161700D01*
X228876202Y-118258373D01*
X228697573Y-118437001D01*
X228600900Y-118670390D01*
X228600900Y-119016359D01*
X228440465Y-118776252D01*
X228041100Y-118509404D01*
X227570017Y-118415700D01*
X227521783Y-118415700D01*
X227050700Y-118509404D01*
X226651335Y-118776252D01*
X226384487Y-119175617D01*
X226290783Y-119646700D01*
X226384487Y-120117783D01*
X226651335Y-120517148D01*
X226961700Y-120724528D01*
X226961700Y-121554236D01*
X226841300Y-121554236D01*
X226700110Y-121580803D01*
X226570435Y-121664246D01*
X226483441Y-121791566D01*
X226452836Y-121942700D01*
X226452836Y-123192700D01*
X226479403Y-123333890D01*
X226562846Y-123463565D01*
X226677644Y-123542003D01*
X226595835Y-123594646D01*
X226508841Y-123721966D01*
X226478236Y-123873100D01*
X226478236Y-125123100D01*
X226504803Y-125264290D01*
X226588246Y-125393965D01*
X226630843Y-125423070D01*
X226586435Y-125451646D01*
X226499441Y-125578966D01*
X226468836Y-125730100D01*
X226468836Y-125945900D01*
X226450900Y-125945900D01*
X226227336Y-125990370D01*
X226143876Y-126046136D01*
X226037808Y-126117008D01*
X224519816Y-127635000D01*
X224104364Y-127635000D01*
X224104364Y-127219200D01*
X224077797Y-127078010D01*
X223994354Y-126948335D01*
X223867034Y-126861341D01*
X223715900Y-126830736D01*
X221215900Y-126830736D01*
X221074710Y-126857303D01*
X220945035Y-126940746D01*
X220870609Y-127049672D01*
X220801154Y-126941735D01*
X220673834Y-126854741D01*
X220522700Y-126824136D01*
X218922700Y-126824136D01*
X218781510Y-126850703D01*
X218651835Y-126934146D01*
X218564841Y-127061466D01*
X218534236Y-127212600D01*
X218534236Y-127404352D01*
X215658700Y-124528816D01*
X215658700Y-124498350D01*
X218287700Y-124498350D01*
X218287700Y-125338909D01*
X218384373Y-125572298D01*
X218563001Y-125750927D01*
X218796390Y-125847600D01*
X219436950Y-125847600D01*
X219595700Y-125688850D01*
X219595700Y-124339600D01*
X218446450Y-124339600D01*
X218287700Y-124498350D01*
X215658700Y-124498350D01*
X215658700Y-115408184D01*
X216208592Y-114858292D01*
X216294347Y-114729950D01*
X216335230Y-114668764D01*
X216379700Y-114445200D01*
X216379700Y-114427264D01*
X216395500Y-114427264D01*
X216536690Y-114400697D01*
X216666365Y-114317254D01*
X216753359Y-114189934D01*
X216783964Y-114038800D01*
X216783964Y-113138800D01*
X216757397Y-112997610D01*
X216673954Y-112867935D01*
X216549346Y-112782794D01*
X216755198Y-112697527D01*
X216933827Y-112518899D01*
X217030500Y-112285510D01*
X217030500Y-112283899D01*
X217033603Y-112300390D01*
X217117046Y-112430065D01*
X217244366Y-112517059D01*
X217395500Y-112547664D01*
X217411300Y-112547664D01*
X217411300Y-112624366D01*
X217406400Y-112649000D01*
X217411300Y-112673634D01*
X217411300Y-112750336D01*
X217395500Y-112750336D01*
X217254310Y-112776903D01*
X217124635Y-112860346D01*
X217037641Y-112987666D01*
X217007036Y-113138800D01*
X217007036Y-114038800D01*
X217033603Y-114179990D01*
X217117046Y-114309665D01*
X217124629Y-114314846D01*
X217086173Y-114353302D01*
X216989500Y-114586691D01*
X216989500Y-115177250D01*
X217148250Y-115336000D01*
X218122500Y-115336000D01*
X218122500Y-115316000D01*
X218376500Y-115316000D01*
X218376500Y-115336000D01*
X218396500Y-115336000D01*
X218396500Y-115590000D01*
X218376500Y-115590000D01*
X218376500Y-115610000D01*
X218122500Y-115610000D01*
X218122500Y-115590000D01*
X217148250Y-115590000D01*
X216989500Y-115748750D01*
X216989500Y-116339309D01*
X217086173Y-116572698D01*
X217264801Y-116751327D01*
X217498190Y-116848000D01*
X217499801Y-116848000D01*
X217483310Y-116851103D01*
X217353635Y-116934546D01*
X217266641Y-117061866D01*
X217236036Y-117213000D01*
X217236036Y-118713000D01*
X217262603Y-118854190D01*
X217346046Y-118983865D01*
X217473366Y-119070859D01*
X217624500Y-119101464D01*
X217665300Y-119101464D01*
X217665300Y-119119400D01*
X217709770Y-119342964D01*
X217827774Y-119519570D01*
X217836408Y-119532492D01*
X218497332Y-120193416D01*
X218497270Y-120264991D01*
X218611104Y-120540490D01*
X218821701Y-120751456D01*
X218959584Y-120808710D01*
X218913802Y-120827673D01*
X218735173Y-121006301D01*
X218638500Y-121239690D01*
X218638500Y-121380250D01*
X218797250Y-121539000D01*
X219361000Y-121539000D01*
X219361000Y-121519000D01*
X219535036Y-121519000D01*
X219535036Y-121813000D01*
X219361000Y-121813000D01*
X219361000Y-121793000D01*
X218797250Y-121793000D01*
X218638500Y-121951750D01*
X218638500Y-122092310D01*
X218735173Y-122325699D01*
X218913802Y-122504327D01*
X219090698Y-122577600D01*
X218796390Y-122577600D01*
X218563001Y-122674273D01*
X218384373Y-122852902D01*
X218287700Y-123086291D01*
X218287700Y-123926850D01*
X218446450Y-124085600D01*
X219595700Y-124085600D01*
X219595700Y-124065600D01*
X219849700Y-124065600D01*
X219849700Y-124085600D01*
X219869700Y-124085600D01*
X219869700Y-124339600D01*
X219849700Y-124339600D01*
X219849700Y-125688850D01*
X220008450Y-125847600D01*
X220649010Y-125847600D01*
X220882399Y-125750927D01*
X221059716Y-125573609D01*
X221064766Y-125577059D01*
X221215900Y-125607664D01*
X223715900Y-125607664D01*
X223857090Y-125581097D01*
X223986765Y-125497654D01*
X224073759Y-125370334D01*
X224104364Y-125219200D01*
X224104364Y-123219200D01*
X224077797Y-123078010D01*
X223994354Y-122948335D01*
X223867034Y-122861341D01*
X223715900Y-122830736D01*
X223445169Y-122830736D01*
X223437891Y-122794148D01*
X223381095Y-122508613D01*
X223166360Y-122187240D01*
X223009500Y-122030380D01*
X223009500Y-120535700D01*
X222985967Y-120417391D01*
X223024570Y-120417391D01*
X223138404Y-120692890D01*
X223349001Y-120903856D01*
X223624301Y-121018170D01*
X223922391Y-121018430D01*
X223942810Y-121009993D01*
X223964501Y-121031684D01*
X223964501Y-122059701D01*
X224008971Y-122283265D01*
X224114165Y-122440700D01*
X224135609Y-122472793D01*
X224167632Y-122504816D01*
X224167570Y-122576391D01*
X224281404Y-122851890D01*
X224492001Y-123062856D01*
X224767301Y-123177170D01*
X225065391Y-123177430D01*
X225340890Y-123063596D01*
X225551856Y-122852999D01*
X225666170Y-122577699D01*
X225666430Y-122279609D01*
X225552596Y-122004110D01*
X225341999Y-121793144D01*
X225132901Y-121706319D01*
X225132901Y-120789701D01*
X225088431Y-120566137D01*
X224961793Y-120376609D01*
X224961790Y-120376607D01*
X224441092Y-119855908D01*
X224432129Y-119849919D01*
X224378878Y-119814338D01*
X224198999Y-119634144D01*
X223923699Y-119519830D01*
X223625609Y-119519570D01*
X223350110Y-119633404D01*
X223139144Y-119844001D01*
X223024830Y-120119301D01*
X223024570Y-120417391D01*
X222985967Y-120417391D01*
X222934095Y-120156614D01*
X222719360Y-119835240D01*
X222704700Y-119825445D01*
X222704700Y-119572311D01*
X222732364Y-119435700D01*
X222732364Y-119019900D01*
X222866598Y-119019900D01*
X222959766Y-119083559D01*
X223110900Y-119114164D01*
X224360900Y-119114164D01*
X224502090Y-119087597D01*
X224631765Y-119004154D01*
X224718759Y-118876834D01*
X224749364Y-118725700D01*
X224749364Y-117225700D01*
X224726973Y-117106700D01*
X226290783Y-117106700D01*
X226384487Y-117577783D01*
X226651335Y-117977148D01*
X227050700Y-118243996D01*
X227521783Y-118337700D01*
X227570017Y-118337700D01*
X228041100Y-118243996D01*
X228440465Y-117977148D01*
X228707313Y-117577783D01*
X228801017Y-117106700D01*
X228707313Y-116635617D01*
X228440465Y-116236252D01*
X228041100Y-115969404D01*
X227570017Y-115875700D01*
X227521783Y-115875700D01*
X227050700Y-115969404D01*
X226651335Y-116236252D01*
X226384487Y-116635617D01*
X226290783Y-117106700D01*
X224726973Y-117106700D01*
X224722797Y-117084510D01*
X224639354Y-116954835D01*
X224512034Y-116867841D01*
X224360900Y-116837236D01*
X223110900Y-116837236D01*
X222969710Y-116863803D01*
X222840035Y-116947246D01*
X222753041Y-117074566D01*
X222722436Y-117225700D01*
X222722436Y-117382938D01*
X222705797Y-117294510D01*
X222622354Y-117164835D01*
X222495034Y-117077841D01*
X222343900Y-117047236D01*
X221693900Y-117047236D01*
X221552710Y-117073803D01*
X221545713Y-117078305D01*
X221545034Y-117077841D01*
X221393900Y-117047236D01*
X220743900Y-117047236D01*
X220602710Y-117073803D01*
X220595713Y-117078305D01*
X220595034Y-117077841D01*
X220443900Y-117047236D01*
X219793900Y-117047236D01*
X219652710Y-117073803D01*
X219523035Y-117157246D01*
X219436041Y-117284566D01*
X219405436Y-117435700D01*
X219405436Y-119371182D01*
X219396399Y-119367430D01*
X219323651Y-119367367D01*
X219025116Y-119068832D01*
X219145365Y-118991454D01*
X219232359Y-118864134D01*
X219262964Y-118713000D01*
X219262964Y-117213000D01*
X219236397Y-117071810D01*
X219152954Y-116942135D01*
X219025634Y-116855141D01*
X218990370Y-116848000D01*
X219000810Y-116848000D01*
X219234199Y-116751327D01*
X219412827Y-116572698D01*
X219509500Y-116339309D01*
X219509500Y-116277325D01*
X219515446Y-116286565D01*
X219642766Y-116373559D01*
X219793900Y-116404164D01*
X220234339Y-116404164D01*
X220384201Y-116554027D01*
X220617590Y-116650700D01*
X220783150Y-116650700D01*
X220941900Y-116491950D01*
X220941900Y-115142700D01*
X220921900Y-115142700D01*
X220921900Y-114888700D01*
X220941900Y-114888700D01*
X220941900Y-113539450D01*
X221195900Y-113539450D01*
X221195900Y-114888700D01*
X221215900Y-114888700D01*
X221215900Y-115142700D01*
X221195900Y-115142700D01*
X221195900Y-116491950D01*
X221354650Y-116650700D01*
X221520210Y-116650700D01*
X221753599Y-116554027D01*
X221903461Y-116404164D01*
X222343900Y-116404164D01*
X222485090Y-116377597D01*
X222614765Y-116294154D01*
X222701759Y-116166834D01*
X222722436Y-116064727D01*
X222722436Y-116225700D01*
X222749003Y-116366890D01*
X222832446Y-116496565D01*
X222959766Y-116583559D01*
X223110900Y-116614164D01*
X224360900Y-116614164D01*
X224502090Y-116587597D01*
X224631765Y-116504154D01*
X224718759Y-116376834D01*
X224749364Y-116225700D01*
X224749364Y-114725700D01*
X224722797Y-114584510D01*
X224639354Y-114454835D01*
X224512034Y-114367841D01*
X224360900Y-114337236D01*
X223110900Y-114337236D01*
X222969710Y-114363803D01*
X222864505Y-114431500D01*
X222732364Y-114431500D01*
X222732364Y-114015700D01*
X222705797Y-113874510D01*
X222622354Y-113744835D01*
X222495034Y-113657841D01*
X222343900Y-113627236D01*
X221903461Y-113627236D01*
X221753599Y-113477373D01*
X221520210Y-113380700D01*
X221354650Y-113380700D01*
X221195900Y-113539450D01*
X220941900Y-113539450D01*
X220783150Y-113380700D01*
X220699102Y-113380700D01*
X220694754Y-113358841D01*
X220658631Y-113177237D01*
X220531992Y-112987708D01*
X219780192Y-112235908D01*
X219745093Y-112212456D01*
X219590664Y-112109270D01*
X219367100Y-112064800D01*
X218983964Y-112064800D01*
X218983964Y-111259200D01*
X218957397Y-111118010D01*
X218873954Y-110988335D01*
X218746634Y-110901341D01*
X218595500Y-110870736D01*
X217395500Y-110870736D01*
X217254310Y-110897303D01*
X217124635Y-110980746D01*
X217037641Y-111108066D01*
X217030500Y-111143330D01*
X217030500Y-111132890D01*
X216933827Y-110899501D01*
X216755198Y-110720873D01*
X216521809Y-110624200D01*
X216081250Y-110624200D01*
X215922500Y-110782950D01*
X215922500Y-111582200D01*
X215942500Y-111582200D01*
X215942500Y-111836200D01*
X215922500Y-111836200D01*
X215922500Y-111856200D01*
X215668500Y-111856200D01*
X215668500Y-111836200D01*
X214719250Y-111836200D01*
X214560500Y-111994950D01*
X214560500Y-112285510D01*
X214657173Y-112518899D01*
X214835802Y-112697527D01*
X215043784Y-112783676D01*
X214924635Y-112860346D01*
X214837641Y-112987666D01*
X214807036Y-113138800D01*
X214807036Y-114038800D01*
X214833603Y-114179990D01*
X214917046Y-114309665D01*
X215028617Y-114385899D01*
X214661408Y-114753108D01*
X214534770Y-114942636D01*
X214490300Y-115166200D01*
X209371000Y-115166200D01*
X209371000Y-111132890D01*
X214560500Y-111132890D01*
X214560500Y-111423450D01*
X214719250Y-111582200D01*
X215668500Y-111582200D01*
X215668500Y-110782950D01*
X215509750Y-110624200D01*
X215069191Y-110624200D01*
X214835802Y-110720873D01*
X214657173Y-110899501D01*
X214560500Y-111132890D01*
X209371000Y-111132890D01*
X209371000Y-94719200D01*
X214896700Y-94719200D01*
X214896700Y-104323800D01*
X214941170Y-104547364D01*
X215050938Y-104711644D01*
X215067808Y-104736892D01*
X218509608Y-108178692D01*
X218699136Y-108305330D01*
X218922700Y-108349800D01*
X218940636Y-108349800D01*
X218940636Y-108765600D01*
X218967203Y-108906790D01*
X219050646Y-109036465D01*
X219177966Y-109123459D01*
X219329100Y-109154064D01*
X220929100Y-109154064D01*
X221070290Y-109127497D01*
X221199965Y-109044054D01*
X221274391Y-108935128D01*
X221343846Y-109043065D01*
X221471166Y-109130059D01*
X221622300Y-109160664D01*
X224122300Y-109160664D01*
X224263490Y-109134097D01*
X224393165Y-109050654D01*
X224480159Y-108923334D01*
X224510764Y-108772200D01*
X224510764Y-108356400D01*
X234039335Y-108356400D01*
X235297251Y-109614316D01*
X235297189Y-109685891D01*
X235411023Y-109961390D01*
X235520341Y-110070900D01*
X229476305Y-110070900D01*
X229476300Y-110070899D01*
X229291617Y-110107636D01*
X229135050Y-110212250D01*
X229135048Y-110212253D01*
X228474650Y-110872650D01*
X228370036Y-111029217D01*
X228355994Y-111099810D01*
X228041100Y-110889404D01*
X227570017Y-110795700D01*
X227521783Y-110795700D01*
X227050700Y-110889404D01*
X226651335Y-111156252D01*
X226384487Y-111555617D01*
X226290783Y-112026700D01*
X226384487Y-112497783D01*
X226651335Y-112897148D01*
X227050700Y-113163996D01*
X227521783Y-113257700D01*
X227570017Y-113257700D01*
X228041100Y-113163996D01*
X228333300Y-112968754D01*
X228333300Y-113096800D01*
X228007399Y-113422701D01*
X227570017Y-113335700D01*
X227521783Y-113335700D01*
X227050700Y-113429404D01*
X226651335Y-113696252D01*
X226384487Y-114095617D01*
X226290783Y-114566700D01*
X226384487Y-115037783D01*
X226651335Y-115437148D01*
X227050700Y-115703996D01*
X227521783Y-115797700D01*
X227570017Y-115797700D01*
X228041100Y-115703996D01*
X228440465Y-115437148D01*
X228707313Y-115037783D01*
X228801017Y-114566700D01*
X228707313Y-114095617D01*
X228704177Y-114090923D01*
X229157150Y-113637950D01*
X229261764Y-113481383D01*
X229298500Y-113296700D01*
X229298500Y-112968754D01*
X229590700Y-113163996D01*
X230061783Y-113257700D01*
X230110017Y-113257700D01*
X230547400Y-113170699D01*
X232284648Y-114907947D01*
X232284650Y-114907950D01*
X232441217Y-115012564D01*
X232625900Y-115049300D01*
X233521036Y-115049300D01*
X233521036Y-115416700D01*
X233547603Y-115557890D01*
X233631046Y-115687565D01*
X233758366Y-115774559D01*
X233909500Y-115805164D01*
X235609500Y-115805164D01*
X235750690Y-115778597D01*
X235880365Y-115695154D01*
X235967359Y-115567834D01*
X235997964Y-115416700D01*
X235997964Y-113779300D01*
X236357446Y-113779300D01*
X236162204Y-114071500D01*
X236068500Y-114542583D01*
X236068500Y-114590817D01*
X236162204Y-115061900D01*
X236429052Y-115461265D01*
X236816900Y-115720418D01*
X236816900Y-115768781D01*
X236825360Y-115811311D01*
X232013011Y-115811311D01*
X231244177Y-115042477D01*
X231247313Y-115037783D01*
X231341017Y-114566700D01*
X231247313Y-114095617D01*
X230980465Y-113696252D01*
X230581100Y-113429404D01*
X230110017Y-113335700D01*
X230061783Y-113335700D01*
X229590700Y-113429404D01*
X229191335Y-113696252D01*
X228924487Y-114095617D01*
X228830783Y-114566700D01*
X228924487Y-115037783D01*
X229191335Y-115437148D01*
X229590700Y-115703996D01*
X230061783Y-115797700D01*
X230110017Y-115797700D01*
X230547399Y-115710699D01*
X231471861Y-116635161D01*
X231628428Y-116739775D01*
X231813111Y-116776511D01*
X240571979Y-116776511D01*
X240480235Y-116835546D01*
X240393241Y-116962866D01*
X240362636Y-117114000D01*
X240362636Y-119614000D01*
X240389203Y-119755190D01*
X240472646Y-119884865D01*
X240599966Y-119971859D01*
X240751100Y-120002464D01*
X242751100Y-120002464D01*
X242892290Y-119975897D01*
X243021965Y-119892454D01*
X243108959Y-119765134D01*
X243139564Y-119614000D01*
X243139564Y-117287120D01*
X243345316Y-117081368D01*
X243416891Y-117081430D01*
X243692390Y-116967596D01*
X243903356Y-116756999D01*
X244017670Y-116481699D01*
X244017930Y-116183609D01*
X243933842Y-115980100D01*
X246225036Y-115980100D01*
X246225036Y-116297500D01*
X246251603Y-116438690D01*
X246335046Y-116568365D01*
X246462366Y-116655359D01*
X246613500Y-116685964D01*
X247104300Y-116685964D01*
X247104300Y-116703900D01*
X247148770Y-116927464D01*
X247246550Y-117073803D01*
X247275408Y-117116992D01*
X247531276Y-117372860D01*
X247391810Y-117399103D01*
X247262135Y-117482546D01*
X247175141Y-117609866D01*
X247144536Y-117761000D01*
X247144536Y-117779800D01*
X247139564Y-117779800D01*
X247139564Y-117114000D01*
X247112997Y-116972810D01*
X247029554Y-116843135D01*
X246902234Y-116756141D01*
X246751100Y-116725536D01*
X244751100Y-116725536D01*
X244609910Y-116752103D01*
X244480235Y-116835546D01*
X244393241Y-116962866D01*
X244362636Y-117114000D01*
X244362636Y-119614000D01*
X244389203Y-119755190D01*
X244472646Y-119884865D01*
X244599966Y-119971859D01*
X244751100Y-120002464D01*
X246751100Y-120002464D01*
X246892290Y-119975897D01*
X246989752Y-119913182D01*
X246898000Y-120134691D01*
X246898000Y-120725250D01*
X247056750Y-120884000D01*
X248031000Y-120884000D01*
X248031000Y-120864000D01*
X248285000Y-120864000D01*
X248285000Y-120884000D01*
X249259250Y-120884000D01*
X249418000Y-120725250D01*
X249418000Y-120427750D01*
X249569500Y-120427750D01*
X249569500Y-120718310D01*
X249646415Y-120904000D01*
X249569500Y-121089690D01*
X249569500Y-121380250D01*
X249728250Y-121539000D01*
X250677500Y-121539000D01*
X250677500Y-120269000D01*
X249728250Y-120269000D01*
X249569500Y-120427750D01*
X249418000Y-120427750D01*
X249418000Y-120134691D01*
X249321327Y-119901302D01*
X249142699Y-119722673D01*
X248909310Y-119626000D01*
X248907699Y-119626000D01*
X248924190Y-119622897D01*
X249053865Y-119539454D01*
X249140859Y-119412134D01*
X249171464Y-119261000D01*
X249171464Y-117761000D01*
X249144897Y-117619810D01*
X249061454Y-117490135D01*
X248934134Y-117403141D01*
X248783000Y-117372536D01*
X248742200Y-117372536D01*
X248742200Y-117173400D01*
X248697730Y-116949836D01*
X248571092Y-116760308D01*
X248496748Y-116685964D01*
X248763500Y-116685964D01*
X248893088Y-116661580D01*
X249013500Y-116685964D01*
X249303939Y-116685964D01*
X249453801Y-116835827D01*
X249687190Y-116932500D01*
X249802750Y-116932500D01*
X249961500Y-116773750D01*
X249961500Y-115624500D01*
X249951964Y-115624500D01*
X249951964Y-115370500D01*
X249961500Y-115370500D01*
X249961500Y-114221250D01*
X249802750Y-114062500D01*
X249687190Y-114062500D01*
X249453801Y-114159173D01*
X249303939Y-114309036D01*
X249013500Y-114309036D01*
X248883912Y-114333420D01*
X248763500Y-114309036D01*
X248213500Y-114309036D01*
X248083912Y-114333420D01*
X247963500Y-114309036D01*
X247413500Y-114309036D01*
X247283912Y-114333420D01*
X247163500Y-114309036D01*
X246626964Y-114309036D01*
X246626964Y-113772500D01*
X246602580Y-113642912D01*
X246626964Y-113522500D01*
X246626964Y-112972500D01*
X246618986Y-112930100D01*
X246638500Y-112930100D01*
X246823183Y-112893364D01*
X246979750Y-112788750D01*
X247035201Y-112733299D01*
X248388964Y-112733299D01*
X248474904Y-112941290D01*
X248685501Y-113152256D01*
X248960801Y-113266570D01*
X249258891Y-113266830D01*
X249534390Y-113152996D01*
X249745356Y-112942399D01*
X249859670Y-112667099D01*
X249859930Y-112369009D01*
X249746096Y-112093510D01*
X249700271Y-112047605D01*
X249745356Y-112002599D01*
X249859670Y-111727299D01*
X249859930Y-111429209D01*
X249746096Y-111153710D01*
X249535499Y-110942744D01*
X249260199Y-110828430D01*
X248962109Y-110828170D01*
X248686610Y-110942004D01*
X248475644Y-111152601D01*
X248388819Y-111361701D01*
X247035201Y-111361701D01*
X246979750Y-111306250D01*
X246823183Y-111201636D01*
X246638500Y-111164900D01*
X246618378Y-111164900D01*
X246626964Y-111122500D01*
X246626964Y-110572500D01*
X246602580Y-110442912D01*
X246626964Y-110322500D01*
X246626964Y-109772500D01*
X246602580Y-109642912D01*
X246626964Y-109522500D01*
X246626964Y-108972500D01*
X246602580Y-108842912D01*
X246626964Y-108722500D01*
X246626964Y-108185964D01*
X247163500Y-108185964D01*
X247293088Y-108161580D01*
X247413500Y-108185964D01*
X247963500Y-108185964D01*
X248093088Y-108161580D01*
X248213500Y-108185964D01*
X248503939Y-108185964D01*
X248653801Y-108335827D01*
X248887190Y-108432500D01*
X249002750Y-108432500D01*
X249161500Y-108273750D01*
X249161500Y-107124500D01*
X249151964Y-107124500D01*
X249151964Y-106870500D01*
X249161500Y-106870500D01*
X249161500Y-106850500D01*
X249415500Y-106850500D01*
X249415500Y-106870500D01*
X249425036Y-106870500D01*
X249425036Y-107124500D01*
X249415500Y-107124500D01*
X249415500Y-108273750D01*
X249574250Y-108432500D01*
X249689810Y-108432500D01*
X249923199Y-108335827D01*
X250073061Y-108185964D01*
X250103939Y-108185964D01*
X250253801Y-108335827D01*
X250487190Y-108432500D01*
X250602750Y-108432500D01*
X250761500Y-108273750D01*
X250761500Y-107124500D01*
X250751964Y-107124500D01*
X250751964Y-106870500D01*
X250761500Y-106870500D01*
X250761500Y-105721250D01*
X250633306Y-105593056D01*
X250628230Y-105567536D01*
X250501592Y-105378008D01*
X250056992Y-104933408D01*
X250041915Y-104923334D01*
X249867464Y-104806770D01*
X249643900Y-104762300D01*
X249333700Y-104762300D01*
X249333700Y-103997764D01*
X249499500Y-103997764D01*
X249640690Y-103971197D01*
X249770365Y-103887754D01*
X249857359Y-103760434D01*
X249864500Y-103725170D01*
X249864500Y-103735610D01*
X249961173Y-103968999D01*
X250139802Y-104147627D01*
X250373191Y-104244300D01*
X250963750Y-104244300D01*
X251122500Y-104085550D01*
X251122500Y-103111300D01*
X251376500Y-103111300D01*
X251376500Y-104085550D01*
X251535250Y-104244300D01*
X252125809Y-104244300D01*
X252359198Y-104147627D01*
X252537827Y-103968999D01*
X252634500Y-103735610D01*
X252634500Y-103270050D01*
X252475750Y-103111300D01*
X251376500Y-103111300D01*
X251122500Y-103111300D01*
X251102500Y-103111300D01*
X251102500Y-102857300D01*
X251122500Y-102857300D01*
X251122500Y-101180900D01*
X251376500Y-101180900D01*
X251376500Y-102857300D01*
X252475750Y-102857300D01*
X252634500Y-102698550D01*
X252634500Y-102337890D01*
X261829524Y-102337890D01*
X261999355Y-102747924D01*
X262389642Y-103176183D01*
X262914108Y-103422486D01*
X263144000Y-103301819D01*
X263144000Y-102108000D01*
X263398000Y-102108000D01*
X263398000Y-103301819D01*
X263627892Y-103422486D01*
X264152358Y-103176183D01*
X264542645Y-102747924D01*
X264712476Y-102337890D01*
X264591155Y-102108000D01*
X263398000Y-102108000D01*
X263144000Y-102108000D01*
X261950845Y-102108000D01*
X261829524Y-102337890D01*
X252634500Y-102337890D01*
X252634500Y-102232990D01*
X252545904Y-102019100D01*
X252634500Y-101805210D01*
X252634500Y-101339650D01*
X252475750Y-101180900D01*
X251376500Y-101180900D01*
X251122500Y-101180900D01*
X251102500Y-101180900D01*
X251102500Y-100926900D01*
X251122500Y-100926900D01*
X251122500Y-99952650D01*
X250963750Y-99793900D01*
X250373191Y-99793900D01*
X250292623Y-99827272D01*
X250297159Y-99820634D01*
X250327764Y-99669500D01*
X250327764Y-99155250D01*
X251304300Y-99155250D01*
X251304300Y-99795810D01*
X251376500Y-99970116D01*
X251376500Y-100926900D01*
X252475750Y-100926900D01*
X252634500Y-100768150D01*
X252634500Y-100304500D01*
X252653550Y-100304500D01*
X252812300Y-100145750D01*
X252812300Y-98996500D01*
X253066300Y-98996500D01*
X253066300Y-100145750D01*
X253225050Y-100304500D01*
X254065609Y-100304500D01*
X254298998Y-100207827D01*
X254477627Y-100029199D01*
X254574300Y-99795810D01*
X254574300Y-99155250D01*
X254415550Y-98996500D01*
X253066300Y-98996500D01*
X252812300Y-98996500D01*
X251463050Y-98996500D01*
X251304300Y-99155250D01*
X250327764Y-99155250D01*
X250327764Y-98069500D01*
X250303997Y-97943190D01*
X251304300Y-97943190D01*
X251304300Y-98583750D01*
X251463050Y-98742500D01*
X252812300Y-98742500D01*
X252812300Y-97593250D01*
X253066300Y-97593250D01*
X253066300Y-98742500D01*
X254415550Y-98742500D01*
X254574300Y-98583750D01*
X254574300Y-97943190D01*
X254477627Y-97709801D01*
X254298998Y-97531173D01*
X254065609Y-97434500D01*
X253225050Y-97434500D01*
X253066300Y-97593250D01*
X252812300Y-97593250D01*
X252653550Y-97434500D01*
X251812991Y-97434500D01*
X251579602Y-97531173D01*
X251400973Y-97709801D01*
X251304300Y-97943190D01*
X250303997Y-97943190D01*
X250301197Y-97928310D01*
X250217754Y-97798635D01*
X250090434Y-97711641D01*
X249939300Y-97681036D01*
X247939300Y-97681036D01*
X247798110Y-97707603D01*
X247668435Y-97791046D01*
X247581441Y-97918366D01*
X247550836Y-98069500D01*
X247550836Y-99669500D01*
X247577403Y-99810690D01*
X247660846Y-99940365D01*
X247788166Y-100027359D01*
X247923429Y-100054750D01*
X247858310Y-100067003D01*
X247728635Y-100150446D01*
X247641641Y-100277766D01*
X247611036Y-100428900D01*
X247611036Y-101154202D01*
X247570454Y-101091135D01*
X247443134Y-101004141D01*
X247292000Y-100973536D01*
X245509100Y-100973536D01*
X245509100Y-99247964D01*
X245776500Y-99247964D01*
X245917690Y-99221397D01*
X246047365Y-99137954D01*
X246134359Y-99010634D01*
X246164964Y-98859500D01*
X246164964Y-97609500D01*
X246138397Y-97468310D01*
X246054954Y-97338635D01*
X245927634Y-97251641D01*
X245776500Y-97221036D01*
X244276500Y-97221036D01*
X244135310Y-97247603D01*
X244005635Y-97331046D01*
X243918641Y-97458366D01*
X243911500Y-97493630D01*
X243911500Y-97483190D01*
X243814827Y-97249801D01*
X243636198Y-97071173D01*
X243402809Y-96974500D01*
X242812250Y-96974500D01*
X242653500Y-97133250D01*
X242653500Y-98107500D01*
X242673500Y-98107500D01*
X242673500Y-98361500D01*
X242653500Y-98361500D01*
X242653500Y-99335750D01*
X242812250Y-99494500D01*
X243402809Y-99494500D01*
X243636198Y-99397827D01*
X243814827Y-99219199D01*
X243911500Y-98985810D01*
X243911500Y-98984199D01*
X243914603Y-99000690D01*
X243998046Y-99130365D01*
X244125366Y-99217359D01*
X244276500Y-99247964D01*
X244543900Y-99247964D01*
X244543900Y-100973536D01*
X242792000Y-100973536D01*
X242650810Y-101000103D01*
X242521135Y-101083546D01*
X242434141Y-101210866D01*
X242403536Y-101362000D01*
X242403536Y-103362000D01*
X242430103Y-103503190D01*
X242513546Y-103632865D01*
X242640866Y-103719859D01*
X242792000Y-103750464D01*
X244596524Y-103750464D01*
X244700750Y-103906450D01*
X245656550Y-104862250D01*
X245813117Y-104966864D01*
X245997800Y-105003600D01*
X246015300Y-105003600D01*
X246820736Y-105809036D01*
X246613500Y-105809036D01*
X246472310Y-105835603D01*
X246342635Y-105919046D01*
X246255641Y-106046366D01*
X246236448Y-106141148D01*
X244719550Y-104624250D01*
X244562983Y-104519636D01*
X244378300Y-104482900D01*
X241798600Y-104482900D01*
X239336450Y-102020750D01*
X239180464Y-101916524D01*
X239180464Y-101362000D01*
X239153897Y-101220810D01*
X239070454Y-101091135D01*
X238943134Y-101004141D01*
X238792000Y-100973536D01*
X235836036Y-100973536D01*
X235579600Y-100717100D01*
X235579600Y-99247964D01*
X235847000Y-99247964D01*
X235988190Y-99221397D01*
X236117865Y-99137954D01*
X236204859Y-99010634D01*
X236212000Y-98975370D01*
X236212000Y-98985810D01*
X236308673Y-99219199D01*
X236487302Y-99397827D01*
X236720691Y-99494500D01*
X237311250Y-99494500D01*
X237470000Y-99335750D01*
X237470000Y-98361500D01*
X237724000Y-98361500D01*
X237724000Y-99335750D01*
X237882750Y-99494500D01*
X238473309Y-99494500D01*
X238706698Y-99397827D01*
X238885327Y-99219199D01*
X238982000Y-98985810D01*
X238982000Y-98520250D01*
X241141500Y-98520250D01*
X241141500Y-98985810D01*
X241238173Y-99219199D01*
X241416802Y-99397827D01*
X241650191Y-99494500D01*
X242240750Y-99494500D01*
X242399500Y-99335750D01*
X242399500Y-98361500D01*
X241300250Y-98361500D01*
X241141500Y-98520250D01*
X238982000Y-98520250D01*
X238823250Y-98361500D01*
X237724000Y-98361500D01*
X237470000Y-98361500D01*
X237450000Y-98361500D01*
X237450000Y-98107500D01*
X237470000Y-98107500D01*
X237470000Y-97133250D01*
X237724000Y-97133250D01*
X237724000Y-98107500D01*
X238823250Y-98107500D01*
X238982000Y-97948750D01*
X238982000Y-97483190D01*
X241141500Y-97483190D01*
X241141500Y-97948750D01*
X241300250Y-98107500D01*
X242399500Y-98107500D01*
X242399500Y-97133250D01*
X242240750Y-96974500D01*
X241650191Y-96974500D01*
X241416802Y-97071173D01*
X241238173Y-97249801D01*
X241141500Y-97483190D01*
X238982000Y-97483190D01*
X238885327Y-97249801D01*
X238706698Y-97071173D01*
X238473309Y-96974500D01*
X237882750Y-96974500D01*
X237724000Y-97133250D01*
X237470000Y-97133250D01*
X237311250Y-96974500D01*
X236720691Y-96974500D01*
X236487302Y-97071173D01*
X236308673Y-97249801D01*
X236212000Y-97483190D01*
X236212000Y-97484801D01*
X236208897Y-97468310D01*
X236125454Y-97338635D01*
X235998134Y-97251641D01*
X235847000Y-97221036D01*
X234347000Y-97221036D01*
X234205810Y-97247603D01*
X234076135Y-97331046D01*
X233989141Y-97458366D01*
X233958536Y-97609500D01*
X233958536Y-98859500D01*
X233985103Y-99000690D01*
X234068546Y-99130365D01*
X234195866Y-99217359D01*
X234347000Y-99247964D01*
X234614400Y-99247964D01*
X234614400Y-100917000D01*
X234625646Y-100973536D01*
X234292000Y-100973536D01*
X234150810Y-101000103D01*
X234021135Y-101083546D01*
X233934141Y-101210866D01*
X233903536Y-101362000D01*
X233903536Y-103362000D01*
X233930103Y-103503190D01*
X234013546Y-103632865D01*
X234140866Y-103719859D01*
X234292000Y-103750464D01*
X238792000Y-103750464D01*
X238933190Y-103723897D01*
X239062865Y-103640454D01*
X239149859Y-103513134D01*
X239180464Y-103362000D01*
X239180464Y-103229764D01*
X241257450Y-105306750D01*
X241414017Y-105411364D01*
X241598700Y-105448100D01*
X244178400Y-105448100D01*
X246069050Y-107338750D01*
X246225036Y-107442976D01*
X246225036Y-107784036D01*
X244638500Y-107784036D01*
X244504824Y-107809189D01*
X244379299Y-107683444D01*
X244103999Y-107569130D01*
X243805909Y-107568870D01*
X243530410Y-107682704D01*
X243319444Y-107893301D01*
X243205130Y-108168601D01*
X243204870Y-108466691D01*
X243318704Y-108742190D01*
X243377229Y-108800817D01*
X243319444Y-108858501D01*
X243205130Y-109133801D01*
X243204870Y-109431891D01*
X243285240Y-109626400D01*
X243277900Y-109626400D01*
X239482250Y-105830750D01*
X239325683Y-105726136D01*
X239141000Y-105689400D01*
X234895899Y-105689400D01*
X233527600Y-104321100D01*
X233527600Y-96051000D01*
X262032536Y-96051000D01*
X262032536Y-97751000D01*
X262059103Y-97892190D01*
X262142546Y-98021865D01*
X262269866Y-98108859D01*
X262421000Y-98139464D01*
X264121000Y-98139464D01*
X264262190Y-98112897D01*
X264391865Y-98029454D01*
X264478859Y-97902134D01*
X264509464Y-97751000D01*
X264509464Y-96051000D01*
X264482897Y-95909810D01*
X264399454Y-95780135D01*
X264272134Y-95693141D01*
X264121000Y-95662536D01*
X262421000Y-95662536D01*
X262279810Y-95689103D01*
X262150135Y-95772546D01*
X262063141Y-95899866D01*
X262032536Y-96051000D01*
X233527600Y-96051000D01*
X233527600Y-95830900D01*
X234514900Y-94843600D01*
X264214100Y-94843600D01*
X264566400Y-95195899D01*
X264566400Y-98665182D01*
X264364021Y-98867561D01*
X264165565Y-98570552D01*
X263766200Y-98303704D01*
X263295117Y-98210000D01*
X263246883Y-98210000D01*
X262775800Y-98303704D01*
X262376435Y-98570552D01*
X262109587Y-98969917D01*
X262015883Y-99441000D01*
X262109587Y-99912083D01*
X262376435Y-100311448D01*
X262775800Y-100578296D01*
X262814947Y-100586083D01*
X262389642Y-100785817D01*
X261999355Y-101214076D01*
X261829524Y-101624110D01*
X261950845Y-101854000D01*
X263144000Y-101854000D01*
X263144000Y-101834000D01*
X263398000Y-101834000D01*
X263398000Y-101854000D01*
X264591155Y-101854000D01*
X264712476Y-101624110D01*
X264542645Y-101214076D01*
X264152358Y-100785817D01*
X263727053Y-100586083D01*
X263766200Y-100578296D01*
X264165565Y-100311448D01*
X264424718Y-99923600D01*
X264473081Y-99923600D01*
X264657764Y-99886864D01*
X264814331Y-99782250D01*
X265390247Y-99206333D01*
X265390250Y-99206331D01*
X265494864Y-99049764D01*
X265531600Y-98865081D01*
X265531600Y-94996005D01*
X265531601Y-94996000D01*
X265494864Y-94811317D01*
X265440697Y-94730250D01*
X265390250Y-94654750D01*
X265390247Y-94654748D01*
X264755250Y-94019750D01*
X264598683Y-93915136D01*
X264414000Y-93878400D01*
X234315000Y-93878400D01*
X234130317Y-93915136D01*
X233973750Y-94019750D01*
X232703750Y-95289750D01*
X232599136Y-95446317D01*
X232562400Y-95631000D01*
X232562400Y-104521000D01*
X232599136Y-104705683D01*
X232703750Y-104862250D01*
X234354748Y-106513247D01*
X234354750Y-106513250D01*
X234511317Y-106617864D01*
X234696000Y-106654601D01*
X234696005Y-106654600D01*
X238941100Y-106654600D01*
X242736750Y-110450250D01*
X242893317Y-110554864D01*
X243078000Y-110591601D01*
X243078005Y-110591600D01*
X244250036Y-110591600D01*
X244250036Y-111122500D01*
X244274420Y-111252088D01*
X244250036Y-111372500D01*
X244250036Y-111922500D01*
X244274420Y-112052088D01*
X244250036Y-112172500D01*
X244250036Y-112722500D01*
X244258014Y-112764900D01*
X242774490Y-112764900D01*
X242702590Y-112750598D01*
X241108630Y-112750598D01*
X241280986Y-112383592D01*
X241160319Y-112153700D01*
X239966500Y-112153700D01*
X239966500Y-112173700D01*
X239712500Y-112173700D01*
X239712500Y-112153700D01*
X239692500Y-112153700D01*
X239692500Y-111899700D01*
X239712500Y-111899700D01*
X239712500Y-110706545D01*
X239966500Y-110706545D01*
X239966500Y-111899700D01*
X241160319Y-111899700D01*
X241280986Y-111669808D01*
X241034683Y-111145342D01*
X240606424Y-110755055D01*
X240196390Y-110585224D01*
X239966500Y-110706545D01*
X239712500Y-110706545D01*
X239482610Y-110585224D01*
X239072576Y-110755055D01*
X238644317Y-111145342D01*
X238444583Y-111570647D01*
X238436796Y-111531500D01*
X238169948Y-111132135D01*
X237770583Y-110865287D01*
X237299500Y-110771583D01*
X236828417Y-110865287D01*
X236823723Y-110868423D01*
X236228424Y-110273124D01*
X236470509Y-110173096D01*
X236681475Y-109962499D01*
X236795789Y-109687199D01*
X236796049Y-109389109D01*
X236682215Y-109113610D01*
X236471618Y-108902644D01*
X236196318Y-108788330D01*
X236123570Y-108788267D01*
X234694411Y-107359108D01*
X234504883Y-107232470D01*
X234281319Y-107188000D01*
X224510764Y-107188000D01*
X224510764Y-106772200D01*
X224484197Y-106631010D01*
X224400754Y-106501335D01*
X224273434Y-106414341D01*
X224122300Y-106383736D01*
X221622300Y-106383736D01*
X221481110Y-106410303D01*
X221351435Y-106493746D01*
X221277009Y-106602672D01*
X221207554Y-106494735D01*
X221080234Y-106407741D01*
X220929100Y-106377136D01*
X219329100Y-106377136D01*
X219187910Y-106403703D01*
X219058235Y-106487146D01*
X218971241Y-106614466D01*
X218940636Y-106765600D01*
X218940636Y-106957352D01*
X216065100Y-104081816D01*
X216065100Y-104051350D01*
X218694100Y-104051350D01*
X218694100Y-104891909D01*
X218790773Y-105125298D01*
X218969401Y-105303927D01*
X219202790Y-105400600D01*
X219843350Y-105400600D01*
X220002100Y-105241850D01*
X220002100Y-103892600D01*
X218852850Y-103892600D01*
X218694100Y-104051350D01*
X216065100Y-104051350D01*
X216065100Y-94961184D01*
X216614992Y-94411292D01*
X216700747Y-94282950D01*
X216741630Y-94221764D01*
X216786100Y-93998200D01*
X216786100Y-93980264D01*
X216801900Y-93980264D01*
X216943090Y-93953697D01*
X217072765Y-93870254D01*
X217159759Y-93742934D01*
X217190364Y-93591800D01*
X217190364Y-92691800D01*
X217163797Y-92550610D01*
X217080354Y-92420935D01*
X216955746Y-92335794D01*
X217161598Y-92250527D01*
X217340227Y-92071899D01*
X217436900Y-91838510D01*
X217436900Y-91836899D01*
X217440003Y-91853390D01*
X217523446Y-91983065D01*
X217650766Y-92070059D01*
X217801900Y-92100664D01*
X217817700Y-92100664D01*
X217817700Y-92177366D01*
X217812800Y-92202000D01*
X217817700Y-92226634D01*
X217817700Y-92303336D01*
X217801900Y-92303336D01*
X217660710Y-92329903D01*
X217531035Y-92413346D01*
X217444041Y-92540666D01*
X217413436Y-92691800D01*
X217413436Y-93591800D01*
X217440003Y-93732990D01*
X217523446Y-93862665D01*
X217531029Y-93867846D01*
X217492573Y-93906302D01*
X217395900Y-94139691D01*
X217395900Y-94730250D01*
X217554650Y-94889000D01*
X218528900Y-94889000D01*
X218528900Y-94869000D01*
X218782900Y-94869000D01*
X218782900Y-94889000D01*
X218802900Y-94889000D01*
X218802900Y-95143000D01*
X218782900Y-95143000D01*
X218782900Y-95163000D01*
X218528900Y-95163000D01*
X218528900Y-95143000D01*
X217554650Y-95143000D01*
X217395900Y-95301750D01*
X217395900Y-95892309D01*
X217492573Y-96125698D01*
X217671201Y-96304327D01*
X217904590Y-96401000D01*
X217906201Y-96401000D01*
X217889710Y-96404103D01*
X217760035Y-96487546D01*
X217673041Y-96614866D01*
X217642436Y-96766000D01*
X217642436Y-98266000D01*
X217669003Y-98407190D01*
X217752446Y-98536865D01*
X217879766Y-98623859D01*
X218030900Y-98654464D01*
X218071700Y-98654464D01*
X218071700Y-98672400D01*
X218116170Y-98895964D01*
X218242747Y-99085400D01*
X218242808Y-99085492D01*
X218903732Y-99746416D01*
X218903670Y-99817991D01*
X219017504Y-100093490D01*
X219228101Y-100304456D01*
X219365984Y-100361710D01*
X219320202Y-100380673D01*
X219141573Y-100559301D01*
X219044900Y-100792690D01*
X219044900Y-100933250D01*
X219203650Y-101092000D01*
X219767400Y-101092000D01*
X219767400Y-101072000D01*
X219941436Y-101072000D01*
X219941436Y-101366000D01*
X219767400Y-101366000D01*
X219767400Y-101346000D01*
X219203650Y-101346000D01*
X219044900Y-101504750D01*
X219044900Y-101645310D01*
X219141573Y-101878699D01*
X219320202Y-102057327D01*
X219497098Y-102130600D01*
X219202790Y-102130600D01*
X218969401Y-102227273D01*
X218790773Y-102405902D01*
X218694100Y-102639291D01*
X218694100Y-103479850D01*
X218852850Y-103638600D01*
X220002100Y-103638600D01*
X220002100Y-103618600D01*
X220256100Y-103618600D01*
X220256100Y-103638600D01*
X220276100Y-103638600D01*
X220276100Y-103892600D01*
X220256100Y-103892600D01*
X220256100Y-105241850D01*
X220414850Y-105400600D01*
X221055410Y-105400600D01*
X221288799Y-105303927D01*
X221466116Y-105126609D01*
X221471166Y-105130059D01*
X221622300Y-105160664D01*
X224122300Y-105160664D01*
X224263490Y-105134097D01*
X224393165Y-105050654D01*
X224480159Y-104923334D01*
X224510764Y-104772200D01*
X224510764Y-102772200D01*
X224484197Y-102631010D01*
X224400754Y-102501335D01*
X224273434Y-102414341D01*
X224122300Y-102383736D01*
X223851569Y-102383736D01*
X223818624Y-102218110D01*
X223787495Y-102061613D01*
X223572760Y-101740240D01*
X223415900Y-101583380D01*
X223415900Y-100088700D01*
X223340495Y-99709614D01*
X223125760Y-99388240D01*
X223111100Y-99378445D01*
X223111100Y-99125311D01*
X223138764Y-98988700D01*
X223138764Y-98572900D01*
X223272998Y-98572900D01*
X223366166Y-98636559D01*
X223517300Y-98667164D01*
X224767300Y-98667164D01*
X224908490Y-98640597D01*
X225038165Y-98557154D01*
X225125159Y-98429834D01*
X225155764Y-98278700D01*
X225155764Y-96778700D01*
X225129197Y-96637510D01*
X225045754Y-96507835D01*
X224918434Y-96420841D01*
X224767300Y-96390236D01*
X223517300Y-96390236D01*
X223376110Y-96416803D01*
X223246435Y-96500246D01*
X223159441Y-96627566D01*
X223128836Y-96778700D01*
X223128836Y-96935938D01*
X223112197Y-96847510D01*
X223028754Y-96717835D01*
X222901434Y-96630841D01*
X222750300Y-96600236D01*
X222100300Y-96600236D01*
X221959110Y-96626803D01*
X221952113Y-96631305D01*
X221951434Y-96630841D01*
X221800300Y-96600236D01*
X221150300Y-96600236D01*
X221009110Y-96626803D01*
X221002113Y-96631305D01*
X221001434Y-96630841D01*
X220850300Y-96600236D01*
X220200300Y-96600236D01*
X220059110Y-96626803D01*
X219929435Y-96710246D01*
X219842441Y-96837566D01*
X219811836Y-96988700D01*
X219811836Y-98924182D01*
X219802799Y-98920430D01*
X219730051Y-98920367D01*
X219431516Y-98621832D01*
X219551765Y-98544454D01*
X219638759Y-98417134D01*
X219669364Y-98266000D01*
X219669364Y-96766000D01*
X219642797Y-96624810D01*
X219559354Y-96495135D01*
X219432034Y-96408141D01*
X219396770Y-96401000D01*
X219407210Y-96401000D01*
X219640599Y-96304327D01*
X219819227Y-96125698D01*
X219915900Y-95892309D01*
X219915900Y-95830325D01*
X219921846Y-95839565D01*
X220049166Y-95926559D01*
X220200300Y-95957164D01*
X220640739Y-95957164D01*
X220790601Y-96107027D01*
X221023990Y-96203700D01*
X221189550Y-96203700D01*
X221348300Y-96044950D01*
X221348300Y-94695700D01*
X221328300Y-94695700D01*
X221328300Y-94441700D01*
X221348300Y-94441700D01*
X221348300Y-93092450D01*
X221602300Y-93092450D01*
X221602300Y-94441700D01*
X221622300Y-94441700D01*
X221622300Y-94695700D01*
X221602300Y-94695700D01*
X221602300Y-96044950D01*
X221761050Y-96203700D01*
X221926610Y-96203700D01*
X222159999Y-96107027D01*
X222309861Y-95957164D01*
X222750300Y-95957164D01*
X222891490Y-95930597D01*
X223021165Y-95847154D01*
X223108159Y-95719834D01*
X223128836Y-95617727D01*
X223128836Y-95778700D01*
X223155403Y-95919890D01*
X223238846Y-96049565D01*
X223366166Y-96136559D01*
X223517300Y-96167164D01*
X224767300Y-96167164D01*
X224908490Y-96140597D01*
X225038165Y-96057154D01*
X225125159Y-95929834D01*
X225155764Y-95778700D01*
X225155764Y-94278700D01*
X225129197Y-94137510D01*
X225045754Y-94007835D01*
X224918434Y-93920841D01*
X224767300Y-93890236D01*
X223517300Y-93890236D01*
X223376110Y-93916803D01*
X223270905Y-93984500D01*
X223138764Y-93984500D01*
X223138764Y-93568700D01*
X223112197Y-93427510D01*
X223028754Y-93297835D01*
X222901434Y-93210841D01*
X222750300Y-93180236D01*
X222309861Y-93180236D01*
X222159999Y-93030373D01*
X221926610Y-92933700D01*
X221761050Y-92933700D01*
X221602300Y-93092450D01*
X221348300Y-93092450D01*
X221189550Y-92933700D01*
X221105502Y-92933700D01*
X221102426Y-92918236D01*
X221065031Y-92730237D01*
X220938392Y-92540708D01*
X220186592Y-91788908D01*
X220179259Y-91784008D01*
X219997064Y-91662270D01*
X219773500Y-91617800D01*
X219390364Y-91617800D01*
X219390364Y-90812200D01*
X219363797Y-90671010D01*
X219280354Y-90541335D01*
X219153034Y-90454341D01*
X219001900Y-90423736D01*
X217801900Y-90423736D01*
X217660710Y-90450303D01*
X217531035Y-90533746D01*
X217444041Y-90661066D01*
X217436900Y-90696330D01*
X217436900Y-90685890D01*
X217340227Y-90452501D01*
X217161598Y-90273873D01*
X216928209Y-90177200D01*
X216487650Y-90177200D01*
X216328900Y-90335950D01*
X216328900Y-91135200D01*
X216348900Y-91135200D01*
X216348900Y-91389200D01*
X216328900Y-91389200D01*
X216328900Y-91409200D01*
X216074900Y-91409200D01*
X216074900Y-91389200D01*
X215125650Y-91389200D01*
X214966900Y-91547950D01*
X214966900Y-91838510D01*
X215063573Y-92071899D01*
X215242202Y-92250527D01*
X215450184Y-92336676D01*
X215331035Y-92413346D01*
X215244041Y-92540666D01*
X215213436Y-92691800D01*
X215213436Y-93591800D01*
X215240003Y-93732990D01*
X215323446Y-93862665D01*
X215435017Y-93938899D01*
X215067808Y-94306108D01*
X214941170Y-94495636D01*
X214896700Y-94719200D01*
X209371000Y-94719200D01*
X209371000Y-90685890D01*
X214966900Y-90685890D01*
X214966900Y-90976450D01*
X215125650Y-91135200D01*
X216074900Y-91135200D01*
X216074900Y-90335950D01*
X215916150Y-90177200D01*
X215475591Y-90177200D01*
X215242202Y-90273873D01*
X215063573Y-90452501D01*
X214966900Y-90685890D01*
X209371000Y-90685890D01*
X209371000Y-89356000D01*
X266879000Y-89356000D01*
X266879000Y-131916307D01*
M02*
