G04 #@! TF.FileFunction,Soldermask,Bot*
%FSLAX46Y46*%
G04 Gerber Fmt 4.6, Leading zero omitted, Abs format (unit mm)*
G04 Created by KiCad (PCBNEW 4.0.1-stable) date 29-05-2017 19:13:36*
%MOMM*%
G01*
G04 APERTURE LIST*
%ADD10C,0.100000*%
%ADD11C,6.800000*%
%ADD12C,1.000000*%
%ADD13R,2.100000X2.100000*%
%ADD14O,2.100000X2.100000*%
G04 APERTURE END LIST*
D10*
D11*
X262778836Y-136144000D03*
D12*
X260378836Y-136144000D03*
X261081780Y-134446944D03*
X262778836Y-133744000D03*
X264475892Y-134446944D03*
X265178836Y-136144000D03*
X264475892Y-137841056D03*
X262778836Y-138544000D03*
X261081780Y-137841056D03*
D13*
X234759500Y-114566700D03*
D14*
X234759500Y-112026700D03*
X237299500Y-114566700D03*
X237299500Y-112026700D03*
X239839500Y-114566700D03*
X239839500Y-112026700D03*
D13*
X263232900Y-105829100D03*
D14*
X263232900Y-108369100D03*
X263232900Y-110909100D03*
X263232900Y-113449100D03*
X263232900Y-115989100D03*
X263232900Y-118529100D03*
D13*
X230085900Y-119646700D03*
D14*
X227545900Y-119646700D03*
X230085900Y-117106700D03*
X227545900Y-117106700D03*
X230085900Y-114566700D03*
X227545900Y-114566700D03*
X230085900Y-112026700D03*
X227545900Y-112026700D03*
D13*
X263271000Y-96901000D03*
D14*
X263271000Y-99441000D03*
X263271000Y-101981000D03*
D11*
X214964000Y-136144000D03*
D12*
X217364000Y-136144000D03*
X216661056Y-137841056D03*
X214964000Y-138544000D03*
X213266944Y-137841056D03*
X212564000Y-136144000D03*
X213266944Y-134446944D03*
X214964000Y-133744000D03*
X216661056Y-134446944D03*
D11*
X214964000Y-151144000D03*
D12*
X217364000Y-151144000D03*
X216661056Y-152841056D03*
X214964000Y-153544000D03*
X213266944Y-152841056D03*
X212564000Y-151144000D03*
X213266944Y-149446944D03*
X214964000Y-148744000D03*
X216661056Y-149446944D03*
D11*
X262778836Y-151144000D03*
D12*
X265178836Y-151144000D03*
X264475892Y-152841056D03*
X262778836Y-153544000D03*
X261081780Y-152841056D03*
X260378836Y-151144000D03*
X261081780Y-149446944D03*
X262778836Y-148744000D03*
X264475892Y-149446944D03*
M02*
