M48
;DRILL file {KiCad 4.0.1-stable} date 29-05-2017 19:12:43
;FORMAT={2:4/ absolute / inch / suppress leading zeros}
FMAT,2
INCH,TZ
T1C0.013
T2C0.020
T3C0.039
T4C0.126
%
G90
G05
M72
T1
X85745Y-47340
X85905Y-39290
X86318Y-47290
X86478Y-39240
X87500Y-52500
X87500Y-52850
X87500Y-54250
X87500Y-54600
X87850Y-52500
X87850Y-54600
X88100Y-47350
X88200Y-52500
X88200Y-54600
X88550Y-48200
X88900Y-52500
X88900Y-54600
X88900Y-54950
X89250Y-52500
X89250Y-54600
X89250Y-54950
X89600Y-52500
X89600Y-54600
X89600Y-54950
X89950Y-52500
X89950Y-54600
X89950Y-54950
X90300Y-52500
X90300Y-54600
X90300Y-54950
X90650Y-52500
X90650Y-54600
X90650Y-54950
X91000Y-52500
X91000Y-52850
X91000Y-54250
X91000Y-54600
X91000Y-54950
X91350Y-52500
X91350Y-52850
X91350Y-54250
X91350Y-54600
X91350Y-54950
X92932Y-43125
X93100Y-52500
X93100Y-52850
X93100Y-54250
X93100Y-54600
X93450Y-52500
X93450Y-52850
X93450Y-54250
X93450Y-54600
X94500Y-52850
X94500Y-53200
X94500Y-53550
X94500Y-53900
X94500Y-54250
X94850Y-52850
X94850Y-53200
X94850Y-53550
X94850Y-53900
X94850Y-54250
X95200Y-52850
X95200Y-53200
X95200Y-53550
X95200Y-53900
X95200Y-54250
X95395Y-48605
X95465Y-44905
X95550Y-52850
X95550Y-53200
X95550Y-53550
X95550Y-53900
X95550Y-54250
X95775Y-45800
X96045Y-42645
X96045Y-43025
X96600Y-54950
X96950Y-54950
X97300Y-54600
X97300Y-54950
X97650Y-54600
X97650Y-54950
X97900Y-41475
X98000Y-54600
X98000Y-54950
X98075Y-43928
X98075Y-44298
X98250Y-47498
X98350Y-54950
X98600Y-48950
X98700Y-54950
X99050Y-46275
X99105Y-43785
X99350Y-44850
X99400Y-52500
X99400Y-52850
X99400Y-54950
X99400Y-55300
X99575Y-50975
X99750Y-52500
X99750Y-52850
X99750Y-55300
X99782Y-54950
X100100Y-52500
X100100Y-52850
X100100Y-54950
X100100Y-55300
X100450Y-52500
X100450Y-52850
X100450Y-54950
X100450Y-55300
X100715Y-46050
X100800Y-52500
X100800Y-52850
X100800Y-54950
X100800Y-55300
X101085Y-46050
X101150Y-52500
X101150Y-52850
X101150Y-54950
X101150Y-55300
X101500Y-52500
X101500Y-52850
X101500Y-53200
X101500Y-54600
X101500Y-54950
X101500Y-55300
X101850Y-52500
X101850Y-52850
X101850Y-53200
X101850Y-54600
X101850Y-54950
X101850Y-55300
T2
X83687Y-53600
X83687Y-59506
X83963Y-52932
X83963Y-54268
X83963Y-58837
X83963Y-60174
X84631Y-52655
X84631Y-54545
X84631Y-58561
X84631Y-60450
X85300Y-52932
X85300Y-54268
X85300Y-58837
X85300Y-60174
X85576Y-53600
X85576Y-59506
X102511Y-53600
X102511Y-59506
X102788Y-52932
X102788Y-54268
X102788Y-58837
X102788Y-60174
X103456Y-52655
X103456Y-54545
X103456Y-58561
X103456Y-60450
X104124Y-52932
X104124Y-54268
X104124Y-58837
X104124Y-60174
X104401Y-53600
X104401Y-59506
T3
X89585Y-44105
X89585Y-45105
X89585Y-46105
X89585Y-47105
X90585Y-44105
X90585Y-45105
X90585Y-46105
X90585Y-47105
X92425Y-44105
X92425Y-45105
X93425Y-44105
X93425Y-45105
X94425Y-44105
X94425Y-45105
X103635Y-41665
X103635Y-42665
X103635Y-43665
X103635Y-44665
X103635Y-45665
X103635Y-46665
X103650Y-38150
X103650Y-39150
X103650Y-40150
T4
X84631Y-53600
X84631Y-59506
X103456Y-53600
X103456Y-59506
T0
M30
