G04 #@! TF.FileFunction,Copper,L2,Bot,Signal*
%FSLAX46Y46*%
G04 Gerber Fmt 4.6, Leading zero omitted, Abs format (unit mm)*
G04 Created by KiCad (PCBNEW 4.0.1-stable) date 29-05-2017 19:13:36*
%MOMM*%
G01*
G04 APERTURE LIST*
%ADD10C,0.100000*%
%ADD11C,6.400000*%
%ADD12C,0.600000*%
%ADD13R,1.700000X1.700000*%
%ADD14O,1.700000X1.700000*%
%ADD15C,0.736600*%
%ADD16C,0.406400*%
%ADD17C,0.203200*%
%ADD18C,0.254000*%
G04 APERTURE END LIST*
D10*
D11*
X262778836Y-136144000D03*
D12*
X260378836Y-136144000D03*
X261081780Y-134446944D03*
X262778836Y-133744000D03*
X264475892Y-134446944D03*
X265178836Y-136144000D03*
X264475892Y-137841056D03*
X262778836Y-138544000D03*
X261081780Y-137841056D03*
D13*
X234759500Y-114566700D03*
D14*
X234759500Y-112026700D03*
X237299500Y-114566700D03*
X237299500Y-112026700D03*
X239839500Y-114566700D03*
X239839500Y-112026700D03*
D13*
X263232900Y-105829100D03*
D14*
X263232900Y-108369100D03*
X263232900Y-110909100D03*
X263232900Y-113449100D03*
X263232900Y-115989100D03*
X263232900Y-118529100D03*
D13*
X230085900Y-119646700D03*
D14*
X227545900Y-119646700D03*
X230085900Y-117106700D03*
X227545900Y-117106700D03*
X230085900Y-114566700D03*
X227545900Y-114566700D03*
X230085900Y-112026700D03*
X227545900Y-112026700D03*
D13*
X263271000Y-96901000D03*
D14*
X263271000Y-99441000D03*
X263271000Y-101981000D03*
D11*
X214964000Y-136144000D03*
D12*
X217364000Y-136144000D03*
X216661056Y-137841056D03*
X214964000Y-138544000D03*
X213266944Y-137841056D03*
X212564000Y-136144000D03*
X213266944Y-134446944D03*
X214964000Y-133744000D03*
X216661056Y-134446944D03*
D11*
X214964000Y-151144000D03*
D12*
X217364000Y-151144000D03*
X216661056Y-152841056D03*
X214964000Y-153544000D03*
X213266944Y-152841056D03*
X212564000Y-151144000D03*
X213266944Y-149446944D03*
X214964000Y-148744000D03*
X216661056Y-149446944D03*
D11*
X262778836Y-151144000D03*
D12*
X265178836Y-151144000D03*
X264475892Y-152841056D03*
X262778836Y-153544000D03*
X261081780Y-152841056D03*
X260378836Y-151144000D03*
X261081780Y-149446944D03*
X262778836Y-148744000D03*
X264475892Y-149446944D03*
D15*
X223774000Y-120269000D03*
X224917000Y-122428000D03*
X250444000Y-124333000D03*
X232029000Y-133350000D03*
X232029000Y-134239000D03*
X232029000Y-139573000D03*
X232029000Y-138684000D03*
X232029000Y-137795000D03*
X231140000Y-139573000D03*
X229362000Y-139573000D03*
X230251000Y-139573000D03*
X228473000Y-139573000D03*
X227584000Y-139573000D03*
X226695000Y-139573000D03*
X225806000Y-139573000D03*
X240030000Y-137795000D03*
X240919000Y-137795000D03*
X241808000Y-137795000D03*
X242697000Y-137795000D03*
X242697000Y-134239000D03*
X242697000Y-135128000D03*
X242697000Y-136017000D03*
X242697000Y-136906000D03*
X241808000Y-136906000D03*
X240919000Y-136906000D03*
X240030000Y-136906000D03*
X240030000Y-134239000D03*
X240919000Y-134239000D03*
X240919000Y-135128000D03*
X240030000Y-135128000D03*
X240030000Y-136017000D03*
X240919000Y-136017000D03*
X241808000Y-136017000D03*
X241808000Y-135128000D03*
X241808000Y-134239000D03*
X237363000Y-134239000D03*
X237363000Y-133350000D03*
X236474000Y-133350000D03*
X236474000Y-134239000D03*
X237363000Y-138684000D03*
X237363000Y-137795000D03*
X236474000Y-137795000D03*
X236474000Y-138684000D03*
X225806000Y-138684000D03*
X226695000Y-138684000D03*
X227584000Y-138684000D03*
X228473000Y-138684000D03*
X229362000Y-138684000D03*
X230251000Y-138684000D03*
X231140000Y-138684000D03*
X231140000Y-137795000D03*
X231140000Y-134239000D03*
X231140000Y-133350000D03*
X230251000Y-133350000D03*
X229362000Y-133350000D03*
X228473000Y-133350000D03*
X227584000Y-133350000D03*
X226695000Y-133350000D03*
X225806000Y-133350000D03*
X219653100Y-99669600D03*
X219246700Y-120116600D03*
X222250000Y-134239000D03*
X222250000Y-133350000D03*
X223139000Y-133350000D03*
X224028000Y-133350000D03*
X222250000Y-137795000D03*
X222250000Y-138684000D03*
X223139000Y-138684000D03*
X224028000Y-138684000D03*
X249555000Y-120645400D03*
X217792300Y-120243600D03*
X218198700Y-99796600D03*
X243268500Y-116332000D03*
X236046619Y-109537500D03*
X248666000Y-105346500D03*
X242481100Y-114058700D03*
X251726700Y-111213900D03*
X248920000Y-138684000D03*
X248031000Y-138684000D03*
X247142000Y-138684000D03*
X245364000Y-139573000D03*
X246253000Y-139573000D03*
X247142000Y-139573000D03*
X248031000Y-139573000D03*
X248920000Y-139573000D03*
X249809000Y-139573000D03*
X250698000Y-139573000D03*
X252920500Y-129476500D03*
X251587000Y-117538500D03*
X243954300Y-109283500D03*
X243954300Y-108318300D03*
X252476000Y-133350000D03*
X253365000Y-133350000D03*
X255143000Y-133350000D03*
X254254000Y-133350000D03*
X256032000Y-133350000D03*
X256921000Y-133350000D03*
X257810000Y-133350000D03*
X258699000Y-133350000D03*
X258699000Y-134239000D03*
X258699000Y-135128000D03*
X256032000Y-140462000D03*
X252476000Y-140462000D03*
X253365000Y-140462000D03*
X254254000Y-140462000D03*
X255143000Y-140462000D03*
X256921000Y-140462000D03*
X257810000Y-140462000D03*
X258699000Y-140462000D03*
X258699000Y-139573000D03*
X258699000Y-138684000D03*
X257810000Y-138684000D03*
X257810000Y-139573000D03*
X256921000Y-139573000D03*
X256032000Y-139573000D03*
X255143000Y-139573000D03*
X254254000Y-139573000D03*
X253446034Y-139573000D03*
X252476000Y-139573000D03*
X257810000Y-134239000D03*
X257810000Y-135128000D03*
X256921000Y-134239000D03*
X256032000Y-134239000D03*
X255143000Y-134239000D03*
X254254000Y-134239000D03*
X253365000Y-134239000D03*
X252476000Y-134239000D03*
X242303299Y-123456701D03*
X252349000Y-113919000D03*
X256755900Y-116967000D03*
X249110500Y-111577600D03*
X255816100Y-116967000D03*
X249110500Y-112517400D03*
D16*
X223774000Y-120269000D02*
X219399100Y-120269000D01*
X219399100Y-120269000D02*
X219246700Y-120116600D01*
X225806000Y-123444000D02*
X224917000Y-122555000D01*
X224917000Y-122555000D02*
X224917000Y-122428000D01*
X225806000Y-133350000D02*
X225806000Y-123444000D01*
X219246700Y-120116600D02*
X219246700Y-100076000D01*
X219246700Y-100076000D02*
X219653100Y-99669600D01*
D17*
X240030000Y-133350000D02*
X249047000Y-124333000D01*
X249047000Y-124333000D02*
X250444000Y-124333000D01*
X237363000Y-133350000D02*
X240030000Y-133350000D01*
X232029000Y-134239000D02*
X232029000Y-133350000D01*
X232029000Y-138684000D02*
X232029000Y-139573000D01*
X231140000Y-137795000D02*
X232029000Y-137795000D01*
X230251000Y-139573000D02*
X229362000Y-139573000D01*
X227584000Y-139573000D02*
X228473000Y-139573000D01*
X225806000Y-139573000D02*
X226695000Y-139573000D01*
X241808000Y-137795000D02*
X240919000Y-137795000D01*
X242697000Y-136906000D02*
X242697000Y-137795000D01*
X242697000Y-136017000D02*
X242697000Y-135128000D01*
X241808000Y-136906000D02*
X242697000Y-136906000D01*
X240030000Y-136906000D02*
X240919000Y-136906000D01*
X240919000Y-134239000D02*
X240030000Y-134239000D01*
X240030000Y-135128000D02*
X240919000Y-135128000D01*
X240919000Y-136017000D02*
X240030000Y-136017000D01*
X241808000Y-135128000D02*
X241808000Y-136017000D01*
X236474000Y-134239000D02*
X235585000Y-134239000D01*
X237363000Y-133350000D02*
X237363000Y-134239000D01*
X236474000Y-134239000D02*
X236474000Y-133350000D01*
X237363000Y-137795000D02*
X237363000Y-138684000D01*
X236474000Y-138684000D02*
X236474000Y-137795000D01*
X227584000Y-138684000D02*
X226695000Y-138684000D01*
X229362000Y-138684000D02*
X228473000Y-138684000D01*
X231140000Y-138684000D02*
X230251000Y-138684000D01*
X231140000Y-133350000D02*
X231140000Y-134239000D01*
X229362000Y-133350000D02*
X230251000Y-133350000D01*
X227584000Y-133350000D02*
X228473000Y-133350000D01*
X225806000Y-133350000D02*
X226695000Y-133350000D01*
X222250000Y-133350000D02*
X222250000Y-134239000D01*
X224028000Y-133350000D02*
X223139000Y-133350000D01*
X222250000Y-138684000D02*
X222250000Y-137795000D01*
X224028000Y-138684000D02*
X223139000Y-138684000D01*
D16*
X218439846Y-121412000D02*
X229577000Y-121412000D01*
X229577000Y-121412000D02*
X230085900Y-120903100D01*
X230085900Y-120903100D02*
X230085900Y-119646700D01*
X217792300Y-120243600D02*
X217792300Y-120764454D01*
X217792300Y-120764454D02*
X218439846Y-121412000D01*
X218198700Y-99796600D02*
X218198700Y-119837200D01*
X218198700Y-119837200D02*
X217792300Y-120243600D01*
X250444000Y-116586000D02*
X249555000Y-117475000D01*
X249555000Y-117475000D02*
X249555000Y-120645400D01*
X253619000Y-116586000D02*
X250444000Y-116586000D01*
X255562100Y-118529100D02*
X253619000Y-116586000D01*
X263232900Y-118529100D02*
X255562100Y-118529100D01*
X230085900Y-119646700D02*
X239026700Y-119646700D01*
X239026700Y-119646700D02*
X239280700Y-119900700D01*
X240804700Y-121424700D02*
X248775700Y-121424700D01*
X248775700Y-121424700D02*
X249555000Y-120645400D01*
X239280700Y-119900700D02*
X240804700Y-121424700D01*
X239280700Y-117360700D02*
X239280700Y-119900700D01*
X239839500Y-112026700D02*
X241041581Y-112026700D01*
X241041581Y-112026700D02*
X241312700Y-112297819D01*
X241312700Y-112297819D02*
X241312700Y-115328700D01*
X241312700Y-115328700D02*
X239280700Y-117360700D01*
X248666000Y-98044000D02*
X249809000Y-96901000D01*
X249809000Y-96901000D02*
X263271000Y-96901000D01*
X248666000Y-105346500D02*
X248666000Y-98044000D01*
X255409700Y-113449100D02*
X263232900Y-113449100D01*
X243268500Y-116332000D02*
X243636799Y-115963701D01*
X243636799Y-115963701D02*
X243636799Y-113995201D01*
X247662700Y-109969300D02*
X248666000Y-109969300D01*
X243636799Y-113995201D02*
X247662700Y-109969300D01*
X248666000Y-109969300D02*
X252107700Y-109969300D01*
X252107700Y-109969300D02*
X254215900Y-112077500D01*
X254215900Y-112077500D02*
X254215900Y-112255300D01*
X254215900Y-112255300D02*
X255409700Y-113449100D01*
X248666000Y-105346500D02*
X248666000Y-109969300D01*
X240550700Y-109537500D02*
X244741700Y-105346500D01*
X244741700Y-105346500D02*
X248666000Y-105346500D01*
X236046619Y-109537500D02*
X240550700Y-109537500D01*
X234759500Y-110824619D02*
X236046619Y-109537500D01*
X234759500Y-112026700D02*
X234759500Y-110824619D01*
D17*
X243840000Y-117157500D02*
X242277900Y-117157500D01*
X245237000Y-115760500D02*
X243840000Y-117157500D01*
X245237000Y-114173000D02*
X245237000Y-115760500D01*
X248666000Y-110744000D02*
X245237000Y-114173000D01*
X250317000Y-110744000D02*
X248666000Y-110744000D01*
X250786900Y-111213900D02*
X250317000Y-110744000D01*
X251726700Y-111213900D02*
X250786900Y-111213900D01*
X241985799Y-116865399D02*
X241985799Y-114554001D01*
X241985799Y-114554001D02*
X242481100Y-114058700D01*
X242277900Y-117157500D02*
X241985799Y-116865399D01*
X248031000Y-138684000D02*
X248920000Y-138684000D01*
X247142000Y-139573000D02*
X247142000Y-138684000D01*
X247142000Y-139573000D02*
X246253000Y-139573000D01*
X248920000Y-139573000D02*
X248031000Y-139573000D01*
X249809000Y-139573000D02*
X248920000Y-139573000D01*
X250698000Y-139573000D02*
X249809000Y-139573000D01*
X251955299Y-125717299D02*
X252920500Y-126682500D01*
X252920500Y-126682500D02*
X252920500Y-129476500D01*
X251587000Y-117538500D02*
X251955299Y-117906799D01*
X251955299Y-117906799D02*
X251955299Y-125717299D01*
X239179100Y-110655100D02*
X242582700Y-110655100D01*
X242582700Y-110655100D02*
X243586001Y-109651799D01*
X238569500Y-111264700D02*
X239179100Y-110655100D01*
X238569500Y-115938300D02*
X238569500Y-111264700D01*
X230085900Y-117106700D02*
X237401100Y-117106700D01*
X243586001Y-109651799D02*
X243954300Y-109283500D01*
X237401100Y-117106700D02*
X238569500Y-115938300D01*
X235419900Y-113296700D02*
X233780858Y-113296700D01*
X233780858Y-113296700D02*
X231254300Y-115823258D01*
X231254300Y-115823258D02*
X231254300Y-115836700D01*
X236029500Y-112687100D02*
X235419900Y-113296700D01*
X236029500Y-111163100D02*
X236029500Y-112687100D01*
X237045500Y-110147100D02*
X236029500Y-111163100D01*
X241604646Y-110147100D02*
X237045500Y-110147100D01*
X243954300Y-108318300D02*
X243433446Y-108318300D01*
X243433446Y-108318300D02*
X241604646Y-110147100D01*
X228815900Y-115836700D02*
X227545900Y-117106700D01*
X231254300Y-115836700D02*
X228815900Y-115836700D01*
X253365000Y-133350000D02*
X252476000Y-133350000D01*
X254254000Y-133350000D02*
X255143000Y-133350000D01*
X256921000Y-133350000D02*
X256032000Y-133350000D01*
X258699000Y-133350000D02*
X257810000Y-133350000D01*
X258699000Y-135128000D02*
X258699000Y-134239000D01*
X256921000Y-140462000D02*
X256032000Y-140462000D01*
X256032000Y-140462000D02*
X255143000Y-140462000D01*
X252476000Y-140462000D02*
X256032000Y-140462000D01*
X254254000Y-140462000D02*
X253365000Y-140462000D01*
X258699000Y-140462000D02*
X257810000Y-140462000D01*
X258699000Y-138684000D02*
X258699000Y-139573000D01*
X257810000Y-139573000D02*
X257810000Y-138684000D01*
X256032000Y-139573000D02*
X256921000Y-139573000D01*
X254254000Y-139573000D02*
X255143000Y-139573000D01*
X252476000Y-139573000D02*
X253446034Y-139573000D01*
X256032000Y-134239000D02*
X256921000Y-134239000D01*
X254254000Y-134239000D02*
X255143000Y-134239000D01*
X252476000Y-134239000D02*
X253365000Y-134239000D01*
X252603000Y-130429000D02*
X254000000Y-130429000D01*
X254000000Y-130429000D02*
X255651000Y-128778000D01*
X251206000Y-129032000D02*
X252603000Y-130429000D01*
X251206000Y-123952000D02*
X251206000Y-129032000D01*
X250710701Y-123456701D02*
X251206000Y-123952000D01*
X242303299Y-123456701D02*
X250710701Y-123456701D01*
X255651000Y-127820106D02*
X255651000Y-128778000D01*
X264668000Y-117856000D02*
X264668000Y-118803106D01*
X264668000Y-118803106D02*
X255651000Y-127820106D01*
X264033000Y-117221000D02*
X264668000Y-117856000D01*
X262128000Y-117221000D02*
X264033000Y-117221000D01*
X261620000Y-117729000D02*
X262128000Y-117221000D01*
X255524000Y-117729000D02*
X261620000Y-117729000D01*
X254508000Y-116713000D02*
X255524000Y-117729000D01*
X254508000Y-116078000D02*
X254508000Y-116713000D01*
X252349000Y-113919000D02*
X254508000Y-116078000D01*
X253449168Y-112763300D02*
X256489199Y-115803331D01*
X256489199Y-115803331D02*
X256489199Y-116700299D01*
X256489199Y-116700299D02*
X256755900Y-116967000D01*
X251671168Y-112763300D02*
X253449168Y-112763300D01*
X250752169Y-111844301D02*
X251671168Y-112763300D01*
X249110500Y-111577600D02*
X249377201Y-111844301D01*
X249377201Y-111844301D02*
X250752169Y-111844301D01*
X253280832Y-113169700D02*
X256082801Y-115971669D01*
X256082801Y-115971669D02*
X256082801Y-116700299D01*
X256082801Y-116700299D02*
X255816100Y-116967000D01*
X251502832Y-113169700D02*
X253280832Y-113169700D01*
X250583831Y-112250699D02*
X251502832Y-113169700D01*
X249110500Y-112517400D02*
X249377201Y-112250699D01*
X249377201Y-112250699D02*
X250583831Y-112250699D01*
D18*
G36*
X251460000Y-145796000D02*
X244221000Y-145796000D01*
X244221000Y-132588000D01*
X251460000Y-132588000D01*
X251460000Y-145796000D01*
X251460000Y-145796000D01*
G37*
X251460000Y-145796000D02*
X244221000Y-145796000D01*
X244221000Y-132588000D01*
X251460000Y-132588000D01*
X251460000Y-145796000D01*
G36*
X243459000Y-145796000D02*
X225425000Y-145796000D01*
X225425000Y-132588000D01*
X243459000Y-132588000D01*
X243459000Y-145796000D01*
X243459000Y-145796000D01*
G37*
X243459000Y-145796000D02*
X225425000Y-145796000D01*
X225425000Y-132588000D01*
X243459000Y-132588000D01*
X243459000Y-145796000D01*
G36*
X224663000Y-145796000D02*
X210693000Y-145796000D01*
X210693000Y-136329167D01*
X211628838Y-136329167D01*
X211770883Y-136672943D01*
X212033673Y-136936192D01*
X212377201Y-137078838D01*
X212706760Y-137079125D01*
X212474752Y-137310729D01*
X212332106Y-137654257D01*
X212331782Y-138026223D01*
X212473827Y-138369999D01*
X212736617Y-138633248D01*
X213080145Y-138775894D01*
X213452111Y-138776218D01*
X213795887Y-138634173D01*
X214029124Y-138401343D01*
X214028838Y-138729167D01*
X214170883Y-139072943D01*
X214433673Y-139336192D01*
X214777201Y-139478838D01*
X215149167Y-139479162D01*
X215492943Y-139337117D01*
X215756192Y-139074327D01*
X215898838Y-138730799D01*
X215899125Y-138401240D01*
X216130729Y-138633248D01*
X216474257Y-138775894D01*
X216846223Y-138776218D01*
X217189999Y-138634173D01*
X217453248Y-138371383D01*
X217595894Y-138027855D01*
X217596218Y-137655889D01*
X217454173Y-137312113D01*
X217221343Y-137078876D01*
X217549167Y-137079162D01*
X217892943Y-136937117D01*
X218156192Y-136674327D01*
X218298838Y-136330799D01*
X218299162Y-135958833D01*
X218157117Y-135615057D01*
X217894327Y-135351808D01*
X217550799Y-135209162D01*
X217221240Y-135208875D01*
X217453248Y-134977271D01*
X217595894Y-134633743D01*
X217596218Y-134261777D01*
X217454173Y-133918001D01*
X217191383Y-133654752D01*
X216847855Y-133512106D01*
X216475889Y-133511782D01*
X216132113Y-133653827D01*
X215898876Y-133886657D01*
X215899162Y-133558833D01*
X215757117Y-133215057D01*
X215494327Y-132951808D01*
X215150799Y-132809162D01*
X214778833Y-132808838D01*
X214435057Y-132950883D01*
X214171808Y-133213673D01*
X214029162Y-133557201D01*
X214028875Y-133886760D01*
X213797271Y-133654752D01*
X213453743Y-133512106D01*
X213081777Y-133511782D01*
X212738001Y-133653827D01*
X212474752Y-133916617D01*
X212332106Y-134260145D01*
X212331782Y-134632111D01*
X212473827Y-134975887D01*
X212706657Y-135209124D01*
X212378833Y-135208838D01*
X212035057Y-135350883D01*
X211771808Y-135613673D01*
X211629162Y-135957201D01*
X211628838Y-136329167D01*
X210693000Y-136329167D01*
X210693000Y-132588000D01*
X224663000Y-132588000D01*
X224663000Y-145796000D01*
X224663000Y-145796000D01*
G37*
X224663000Y-145796000D02*
X210693000Y-145796000D01*
X210693000Y-136329167D01*
X211628838Y-136329167D01*
X211770883Y-136672943D01*
X212033673Y-136936192D01*
X212377201Y-137078838D01*
X212706760Y-137079125D01*
X212474752Y-137310729D01*
X212332106Y-137654257D01*
X212331782Y-138026223D01*
X212473827Y-138369999D01*
X212736617Y-138633248D01*
X213080145Y-138775894D01*
X213452111Y-138776218D01*
X213795887Y-138634173D01*
X214029124Y-138401343D01*
X214028838Y-138729167D01*
X214170883Y-139072943D01*
X214433673Y-139336192D01*
X214777201Y-139478838D01*
X215149167Y-139479162D01*
X215492943Y-139337117D01*
X215756192Y-139074327D01*
X215898838Y-138730799D01*
X215899125Y-138401240D01*
X216130729Y-138633248D01*
X216474257Y-138775894D01*
X216846223Y-138776218D01*
X217189999Y-138634173D01*
X217453248Y-138371383D01*
X217595894Y-138027855D01*
X217596218Y-137655889D01*
X217454173Y-137312113D01*
X217221343Y-137078876D01*
X217549167Y-137079162D01*
X217892943Y-136937117D01*
X218156192Y-136674327D01*
X218298838Y-136330799D01*
X218299162Y-135958833D01*
X218157117Y-135615057D01*
X217894327Y-135351808D01*
X217550799Y-135209162D01*
X217221240Y-135208875D01*
X217453248Y-134977271D01*
X217595894Y-134633743D01*
X217596218Y-134261777D01*
X217454173Y-133918001D01*
X217191383Y-133654752D01*
X216847855Y-133512106D01*
X216475889Y-133511782D01*
X216132113Y-133653827D01*
X215898876Y-133886657D01*
X215899162Y-133558833D01*
X215757117Y-133215057D01*
X215494327Y-132951808D01*
X215150799Y-132809162D01*
X214778833Y-132808838D01*
X214435057Y-132950883D01*
X214171808Y-133213673D01*
X214029162Y-133557201D01*
X214028875Y-133886760D01*
X213797271Y-133654752D01*
X213453743Y-133512106D01*
X213081777Y-133511782D01*
X212738001Y-133653827D01*
X212474752Y-133916617D01*
X212332106Y-134260145D01*
X212331782Y-134632111D01*
X212473827Y-134975887D01*
X212706657Y-135209124D01*
X212378833Y-135208838D01*
X212035057Y-135350883D01*
X211771808Y-135613673D01*
X211629162Y-135957201D01*
X211628838Y-136329167D01*
X210693000Y-136329167D01*
X210693000Y-132588000D01*
X224663000Y-132588000D01*
X224663000Y-145796000D01*
G36*
X214433673Y-134536192D02*
X214777201Y-134678838D01*
X215149167Y-134679162D01*
X215492943Y-134537117D01*
X215726180Y-134304287D01*
X215725894Y-134632111D01*
X215867939Y-134975887D01*
X216130729Y-135239136D01*
X216474257Y-135381782D01*
X216803816Y-135382069D01*
X216571808Y-135613673D01*
X216429162Y-135957201D01*
X216428838Y-136329167D01*
X216570883Y-136672943D01*
X216803713Y-136906180D01*
X216475889Y-136905894D01*
X216132113Y-137047939D01*
X215868864Y-137310729D01*
X215726218Y-137654257D01*
X215725931Y-137983816D01*
X215494327Y-137751808D01*
X215150799Y-137609162D01*
X214778833Y-137608838D01*
X214435057Y-137750883D01*
X214201820Y-137983713D01*
X214202106Y-137655889D01*
X214060061Y-137312113D01*
X213797271Y-137048864D01*
X213453743Y-136906218D01*
X213124184Y-136905931D01*
X213356192Y-136674327D01*
X213498838Y-136330799D01*
X213499162Y-135958833D01*
X213357117Y-135615057D01*
X213124287Y-135381820D01*
X213452111Y-135382106D01*
X213795887Y-135240061D01*
X214059136Y-134977271D01*
X214201782Y-134633743D01*
X214202069Y-134304184D01*
X214433673Y-134536192D01*
X214433673Y-134536192D01*
G37*
X214433673Y-134536192D02*
X214777201Y-134678838D01*
X215149167Y-134679162D01*
X215492943Y-134537117D01*
X215726180Y-134304287D01*
X215725894Y-134632111D01*
X215867939Y-134975887D01*
X216130729Y-135239136D01*
X216474257Y-135381782D01*
X216803816Y-135382069D01*
X216571808Y-135613673D01*
X216429162Y-135957201D01*
X216428838Y-136329167D01*
X216570883Y-136672943D01*
X216803713Y-136906180D01*
X216475889Y-136905894D01*
X216132113Y-137047939D01*
X215868864Y-137310729D01*
X215726218Y-137654257D01*
X215725931Y-137983816D01*
X215494327Y-137751808D01*
X215150799Y-137609162D01*
X214778833Y-137608838D01*
X214435057Y-137750883D01*
X214201820Y-137983713D01*
X214202106Y-137655889D01*
X214060061Y-137312113D01*
X213797271Y-137048864D01*
X213453743Y-136906218D01*
X213124184Y-136905931D01*
X213356192Y-136674327D01*
X213498838Y-136330799D01*
X213499162Y-135958833D01*
X213357117Y-135615057D01*
X213124287Y-135381820D01*
X213452111Y-135382106D01*
X213795887Y-135240061D01*
X214059136Y-134977271D01*
X214201782Y-134633743D01*
X214202069Y-134304184D01*
X214433673Y-134536192D01*
G36*
X266446000Y-145796000D02*
X252095000Y-145796000D01*
X252095000Y-136329167D01*
X259443674Y-136329167D01*
X259585719Y-136672943D01*
X259848509Y-136936192D01*
X260192037Y-137078838D01*
X260521596Y-137079125D01*
X260289588Y-137310729D01*
X260146942Y-137654257D01*
X260146618Y-138026223D01*
X260288663Y-138369999D01*
X260551453Y-138633248D01*
X260894981Y-138775894D01*
X261266947Y-138776218D01*
X261610723Y-138634173D01*
X261843960Y-138401343D01*
X261843674Y-138729167D01*
X261985719Y-139072943D01*
X262248509Y-139336192D01*
X262592037Y-139478838D01*
X262964003Y-139479162D01*
X263307779Y-139337117D01*
X263571028Y-139074327D01*
X263713674Y-138730799D01*
X263713961Y-138401240D01*
X263945565Y-138633248D01*
X264289093Y-138775894D01*
X264661059Y-138776218D01*
X265004835Y-138634173D01*
X265268084Y-138371383D01*
X265410730Y-138027855D01*
X265411054Y-137655889D01*
X265269009Y-137312113D01*
X265036179Y-137078876D01*
X265364003Y-137079162D01*
X265707779Y-136937117D01*
X265971028Y-136674327D01*
X266113674Y-136330799D01*
X266113998Y-135958833D01*
X265971953Y-135615057D01*
X265709163Y-135351808D01*
X265365635Y-135209162D01*
X265036076Y-135208875D01*
X265268084Y-134977271D01*
X265410730Y-134633743D01*
X265411054Y-134261777D01*
X265269009Y-133918001D01*
X265006219Y-133654752D01*
X264662691Y-133512106D01*
X264290725Y-133511782D01*
X263946949Y-133653827D01*
X263713712Y-133886657D01*
X263713998Y-133558833D01*
X263571953Y-133215057D01*
X263309163Y-132951808D01*
X262965635Y-132809162D01*
X262593669Y-132808838D01*
X262249893Y-132950883D01*
X261986644Y-133213673D01*
X261843998Y-133557201D01*
X261843711Y-133886760D01*
X261612107Y-133654752D01*
X261268579Y-133512106D01*
X260896613Y-133511782D01*
X260552837Y-133653827D01*
X260289588Y-133916617D01*
X260146942Y-134260145D01*
X260146618Y-134632111D01*
X260288663Y-134975887D01*
X260521493Y-135209124D01*
X260193669Y-135208838D01*
X259849893Y-135350883D01*
X259586644Y-135613673D01*
X259443998Y-135957201D01*
X259443674Y-136329167D01*
X252095000Y-136329167D01*
X252095000Y-132588000D01*
X266446000Y-132588000D01*
X266446000Y-145796000D01*
X266446000Y-145796000D01*
G37*
X266446000Y-145796000D02*
X252095000Y-145796000D01*
X252095000Y-136329167D01*
X259443674Y-136329167D01*
X259585719Y-136672943D01*
X259848509Y-136936192D01*
X260192037Y-137078838D01*
X260521596Y-137079125D01*
X260289588Y-137310729D01*
X260146942Y-137654257D01*
X260146618Y-138026223D01*
X260288663Y-138369999D01*
X260551453Y-138633248D01*
X260894981Y-138775894D01*
X261266947Y-138776218D01*
X261610723Y-138634173D01*
X261843960Y-138401343D01*
X261843674Y-138729167D01*
X261985719Y-139072943D01*
X262248509Y-139336192D01*
X262592037Y-139478838D01*
X262964003Y-139479162D01*
X263307779Y-139337117D01*
X263571028Y-139074327D01*
X263713674Y-138730799D01*
X263713961Y-138401240D01*
X263945565Y-138633248D01*
X264289093Y-138775894D01*
X264661059Y-138776218D01*
X265004835Y-138634173D01*
X265268084Y-138371383D01*
X265410730Y-138027855D01*
X265411054Y-137655889D01*
X265269009Y-137312113D01*
X265036179Y-137078876D01*
X265364003Y-137079162D01*
X265707779Y-136937117D01*
X265971028Y-136674327D01*
X266113674Y-136330799D01*
X266113998Y-135958833D01*
X265971953Y-135615057D01*
X265709163Y-135351808D01*
X265365635Y-135209162D01*
X265036076Y-135208875D01*
X265268084Y-134977271D01*
X265410730Y-134633743D01*
X265411054Y-134261777D01*
X265269009Y-133918001D01*
X265006219Y-133654752D01*
X264662691Y-133512106D01*
X264290725Y-133511782D01*
X263946949Y-133653827D01*
X263713712Y-133886657D01*
X263713998Y-133558833D01*
X263571953Y-133215057D01*
X263309163Y-132951808D01*
X262965635Y-132809162D01*
X262593669Y-132808838D01*
X262249893Y-132950883D01*
X261986644Y-133213673D01*
X261843998Y-133557201D01*
X261843711Y-133886760D01*
X261612107Y-133654752D01*
X261268579Y-133512106D01*
X260896613Y-133511782D01*
X260552837Y-133653827D01*
X260289588Y-133916617D01*
X260146942Y-134260145D01*
X260146618Y-134632111D01*
X260288663Y-134975887D01*
X260521493Y-135209124D01*
X260193669Y-135208838D01*
X259849893Y-135350883D01*
X259586644Y-135613673D01*
X259443998Y-135957201D01*
X259443674Y-136329167D01*
X252095000Y-136329167D01*
X252095000Y-132588000D01*
X266446000Y-132588000D01*
X266446000Y-145796000D01*
G36*
X262248509Y-134536192D02*
X262592037Y-134678838D01*
X262964003Y-134679162D01*
X263307779Y-134537117D01*
X263541016Y-134304287D01*
X263540730Y-134632111D01*
X263682775Y-134975887D01*
X263945565Y-135239136D01*
X264289093Y-135381782D01*
X264618652Y-135382069D01*
X264386644Y-135613673D01*
X264243998Y-135957201D01*
X264243674Y-136329167D01*
X264385719Y-136672943D01*
X264618549Y-136906180D01*
X264290725Y-136905894D01*
X263946949Y-137047939D01*
X263683700Y-137310729D01*
X263541054Y-137654257D01*
X263540767Y-137983816D01*
X263309163Y-137751808D01*
X262965635Y-137609162D01*
X262593669Y-137608838D01*
X262249893Y-137750883D01*
X262016656Y-137983713D01*
X262016942Y-137655889D01*
X261874897Y-137312113D01*
X261612107Y-137048864D01*
X261268579Y-136906218D01*
X260939020Y-136905931D01*
X261171028Y-136674327D01*
X261313674Y-136330799D01*
X261313998Y-135958833D01*
X261171953Y-135615057D01*
X260939123Y-135381820D01*
X261266947Y-135382106D01*
X261610723Y-135240061D01*
X261873972Y-134977271D01*
X262016618Y-134633743D01*
X262016905Y-134304184D01*
X262248509Y-134536192D01*
X262248509Y-134536192D01*
G37*
X262248509Y-134536192D02*
X262592037Y-134678838D01*
X262964003Y-134679162D01*
X263307779Y-134537117D01*
X263541016Y-134304287D01*
X263540730Y-134632111D01*
X263682775Y-134975887D01*
X263945565Y-135239136D01*
X264289093Y-135381782D01*
X264618652Y-135382069D01*
X264386644Y-135613673D01*
X264243998Y-135957201D01*
X264243674Y-136329167D01*
X264385719Y-136672943D01*
X264618549Y-136906180D01*
X264290725Y-136905894D01*
X263946949Y-137047939D01*
X263683700Y-137310729D01*
X263541054Y-137654257D01*
X263540767Y-137983816D01*
X263309163Y-137751808D01*
X262965635Y-137609162D01*
X262593669Y-137608838D01*
X262249893Y-137750883D01*
X262016656Y-137983713D01*
X262016942Y-137655889D01*
X261874897Y-137312113D01*
X261612107Y-137048864D01*
X261268579Y-136906218D01*
X260939020Y-136905931D01*
X261171028Y-136674327D01*
X261313674Y-136330799D01*
X261313998Y-135958833D01*
X261171953Y-135615057D01*
X260939123Y-135381820D01*
X261266947Y-135382106D01*
X261610723Y-135240061D01*
X261873972Y-134977271D01*
X262016618Y-134633743D01*
X262016905Y-134304184D01*
X262248509Y-134536192D01*
G36*
X266424969Y-154813000D02*
X210671969Y-154813000D01*
X210671969Y-153678865D01*
X214282882Y-153678865D01*
X214386339Y-153929252D01*
X214577741Y-154120987D01*
X214827946Y-154224882D01*
X215098865Y-154225118D01*
X215349252Y-154121661D01*
X215540987Y-153930259D01*
X215644882Y-153680054D01*
X215644883Y-153678865D01*
X262097718Y-153678865D01*
X262201175Y-153929252D01*
X262392577Y-154120987D01*
X262642782Y-154224882D01*
X262913701Y-154225118D01*
X263164088Y-154121661D01*
X263355823Y-153930259D01*
X263459718Y-153680054D01*
X263459954Y-153409135D01*
X263356497Y-153158748D01*
X263173988Y-152975921D01*
X263794774Y-152975921D01*
X263898231Y-153226308D01*
X264089633Y-153418043D01*
X264339838Y-153521938D01*
X264610757Y-153522174D01*
X264861144Y-153418717D01*
X265052879Y-153227315D01*
X265156774Y-152977110D01*
X265157010Y-152706191D01*
X265053553Y-152455804D01*
X264862151Y-152264069D01*
X264611946Y-152160174D01*
X264341027Y-152159938D01*
X264090640Y-152263395D01*
X263898905Y-152454797D01*
X263795010Y-152705002D01*
X263794774Y-152975921D01*
X263173988Y-152975921D01*
X263165095Y-152967013D01*
X262914890Y-152863118D01*
X262643971Y-152862882D01*
X262393584Y-152966339D01*
X262201849Y-153157741D01*
X262097954Y-153407946D01*
X262097718Y-153678865D01*
X215644883Y-153678865D01*
X215645118Y-153409135D01*
X215541661Y-153158748D01*
X215359152Y-152975921D01*
X215979938Y-152975921D01*
X216083395Y-153226308D01*
X216274797Y-153418043D01*
X216525002Y-153521938D01*
X216795921Y-153522174D01*
X217046308Y-153418717D01*
X217238043Y-153227315D01*
X217341938Y-152977110D01*
X217341939Y-152975921D01*
X260400662Y-152975921D01*
X260504119Y-153226308D01*
X260695521Y-153418043D01*
X260945726Y-153521938D01*
X261216645Y-153522174D01*
X261467032Y-153418717D01*
X261658767Y-153227315D01*
X261762662Y-152977110D01*
X261762898Y-152706191D01*
X261659441Y-152455804D01*
X261468039Y-152264069D01*
X261217834Y-152160174D01*
X260946915Y-152159938D01*
X260696528Y-152263395D01*
X260504793Y-152454797D01*
X260400898Y-152705002D01*
X260400662Y-152975921D01*
X217341939Y-152975921D01*
X217342174Y-152706191D01*
X217238717Y-152455804D01*
X217047315Y-152264069D01*
X216797110Y-152160174D01*
X216526191Y-152159938D01*
X216275804Y-152263395D01*
X216084069Y-152454797D01*
X215980174Y-152705002D01*
X215979938Y-152975921D01*
X215359152Y-152975921D01*
X215350259Y-152967013D01*
X215100054Y-152863118D01*
X214829135Y-152862882D01*
X214578748Y-152966339D01*
X214387013Y-153157741D01*
X214283118Y-153407946D01*
X214282882Y-153678865D01*
X210671969Y-153678865D01*
X210671969Y-152975921D01*
X212585826Y-152975921D01*
X212689283Y-153226308D01*
X212880685Y-153418043D01*
X213130890Y-153521938D01*
X213401809Y-153522174D01*
X213652196Y-153418717D01*
X213843931Y-153227315D01*
X213947826Y-152977110D01*
X213948062Y-152706191D01*
X213844605Y-152455804D01*
X213653203Y-152264069D01*
X213402998Y-152160174D01*
X213132079Y-152159938D01*
X212881692Y-152263395D01*
X212689957Y-152454797D01*
X212586062Y-152705002D01*
X212585826Y-152975921D01*
X210671969Y-152975921D01*
X210671969Y-151278865D01*
X211882882Y-151278865D01*
X211986339Y-151529252D01*
X212177741Y-151720987D01*
X212427946Y-151824882D01*
X212698865Y-151825118D01*
X212949252Y-151721661D01*
X213140987Y-151530259D01*
X213244882Y-151280054D01*
X213244883Y-151278865D01*
X216682882Y-151278865D01*
X216786339Y-151529252D01*
X216977741Y-151720987D01*
X217227946Y-151824882D01*
X217498865Y-151825118D01*
X217749252Y-151721661D01*
X217940987Y-151530259D01*
X218044882Y-151280054D01*
X218044883Y-151278865D01*
X259697718Y-151278865D01*
X259801175Y-151529252D01*
X259992577Y-151720987D01*
X260242782Y-151824882D01*
X260513701Y-151825118D01*
X260764088Y-151721661D01*
X260955823Y-151530259D01*
X261059718Y-151280054D01*
X261059719Y-151278865D01*
X264497718Y-151278865D01*
X264601175Y-151529252D01*
X264792577Y-151720987D01*
X265042782Y-151824882D01*
X265313701Y-151825118D01*
X265564088Y-151721661D01*
X265755823Y-151530259D01*
X265859718Y-151280054D01*
X265859954Y-151009135D01*
X265756497Y-150758748D01*
X265565095Y-150567013D01*
X265314890Y-150463118D01*
X265043971Y-150462882D01*
X264793584Y-150566339D01*
X264601849Y-150757741D01*
X264497954Y-151007946D01*
X264497718Y-151278865D01*
X261059719Y-151278865D01*
X261059954Y-151009135D01*
X260956497Y-150758748D01*
X260765095Y-150567013D01*
X260514890Y-150463118D01*
X260243971Y-150462882D01*
X259993584Y-150566339D01*
X259801849Y-150757741D01*
X259697954Y-151007946D01*
X259697718Y-151278865D01*
X218044883Y-151278865D01*
X218045118Y-151009135D01*
X217941661Y-150758748D01*
X217750259Y-150567013D01*
X217500054Y-150463118D01*
X217229135Y-150462882D01*
X216978748Y-150566339D01*
X216787013Y-150757741D01*
X216683118Y-151007946D01*
X216682882Y-151278865D01*
X213244883Y-151278865D01*
X213245118Y-151009135D01*
X213141661Y-150758748D01*
X212950259Y-150567013D01*
X212700054Y-150463118D01*
X212429135Y-150462882D01*
X212178748Y-150566339D01*
X211987013Y-150757741D01*
X211883118Y-151007946D01*
X211882882Y-151278865D01*
X210671969Y-151278865D01*
X210671969Y-149581809D01*
X212585826Y-149581809D01*
X212689283Y-149832196D01*
X212880685Y-150023931D01*
X213130890Y-150127826D01*
X213401809Y-150128062D01*
X213652196Y-150024605D01*
X213843931Y-149833203D01*
X213947826Y-149582998D01*
X213947827Y-149581809D01*
X215979938Y-149581809D01*
X216083395Y-149832196D01*
X216274797Y-150023931D01*
X216525002Y-150127826D01*
X216795921Y-150128062D01*
X217046308Y-150024605D01*
X217238043Y-149833203D01*
X217341938Y-149582998D01*
X217341939Y-149581809D01*
X260400662Y-149581809D01*
X260504119Y-149832196D01*
X260695521Y-150023931D01*
X260945726Y-150127826D01*
X261216645Y-150128062D01*
X261467032Y-150024605D01*
X261658767Y-149833203D01*
X261762662Y-149582998D01*
X261762663Y-149581809D01*
X263794774Y-149581809D01*
X263898231Y-149832196D01*
X264089633Y-150023931D01*
X264339838Y-150127826D01*
X264610757Y-150128062D01*
X264861144Y-150024605D01*
X265052879Y-149833203D01*
X265156774Y-149582998D01*
X265157010Y-149312079D01*
X265053553Y-149061692D01*
X264862151Y-148869957D01*
X264611946Y-148766062D01*
X264341027Y-148765826D01*
X264090640Y-148869283D01*
X263898905Y-149060685D01*
X263795010Y-149310890D01*
X263794774Y-149581809D01*
X261762663Y-149581809D01*
X261762898Y-149312079D01*
X261659441Y-149061692D01*
X261476932Y-148878865D01*
X262097718Y-148878865D01*
X262201175Y-149129252D01*
X262392577Y-149320987D01*
X262642782Y-149424882D01*
X262913701Y-149425118D01*
X263164088Y-149321661D01*
X263355823Y-149130259D01*
X263459718Y-148880054D01*
X263459954Y-148609135D01*
X263356497Y-148358748D01*
X263165095Y-148167013D01*
X262914890Y-148063118D01*
X262643971Y-148062882D01*
X262393584Y-148166339D01*
X262201849Y-148357741D01*
X262097954Y-148607946D01*
X262097718Y-148878865D01*
X261476932Y-148878865D01*
X261468039Y-148869957D01*
X261217834Y-148766062D01*
X260946915Y-148765826D01*
X260696528Y-148869283D01*
X260504793Y-149060685D01*
X260400898Y-149310890D01*
X260400662Y-149581809D01*
X217341939Y-149581809D01*
X217342174Y-149312079D01*
X217238717Y-149061692D01*
X217047315Y-148869957D01*
X216797110Y-148766062D01*
X216526191Y-148765826D01*
X216275804Y-148869283D01*
X216084069Y-149060685D01*
X215980174Y-149310890D01*
X215979938Y-149581809D01*
X213947827Y-149581809D01*
X213948062Y-149312079D01*
X213844605Y-149061692D01*
X213662096Y-148878865D01*
X214282882Y-148878865D01*
X214386339Y-149129252D01*
X214577741Y-149320987D01*
X214827946Y-149424882D01*
X215098865Y-149425118D01*
X215349252Y-149321661D01*
X215540987Y-149130259D01*
X215644882Y-148880054D01*
X215645118Y-148609135D01*
X215541661Y-148358748D01*
X215350259Y-148167013D01*
X215100054Y-148063118D01*
X214829135Y-148062882D01*
X214578748Y-148166339D01*
X214387013Y-148357741D01*
X214283118Y-148607946D01*
X214282882Y-148878865D01*
X213662096Y-148878865D01*
X213653203Y-148869957D01*
X213402998Y-148766062D01*
X213132079Y-148765826D01*
X212881692Y-148869283D01*
X212689957Y-149060685D01*
X212586062Y-149310890D01*
X212585826Y-149581809D01*
X210671969Y-149581809D01*
X210671969Y-146494500D01*
X266424969Y-146494500D01*
X266424969Y-154813000D01*
X266424969Y-154813000D01*
G37*
X266424969Y-154813000D02*
X210671969Y-154813000D01*
X210671969Y-153678865D01*
X214282882Y-153678865D01*
X214386339Y-153929252D01*
X214577741Y-154120987D01*
X214827946Y-154224882D01*
X215098865Y-154225118D01*
X215349252Y-154121661D01*
X215540987Y-153930259D01*
X215644882Y-153680054D01*
X215644883Y-153678865D01*
X262097718Y-153678865D01*
X262201175Y-153929252D01*
X262392577Y-154120987D01*
X262642782Y-154224882D01*
X262913701Y-154225118D01*
X263164088Y-154121661D01*
X263355823Y-153930259D01*
X263459718Y-153680054D01*
X263459954Y-153409135D01*
X263356497Y-153158748D01*
X263173988Y-152975921D01*
X263794774Y-152975921D01*
X263898231Y-153226308D01*
X264089633Y-153418043D01*
X264339838Y-153521938D01*
X264610757Y-153522174D01*
X264861144Y-153418717D01*
X265052879Y-153227315D01*
X265156774Y-152977110D01*
X265157010Y-152706191D01*
X265053553Y-152455804D01*
X264862151Y-152264069D01*
X264611946Y-152160174D01*
X264341027Y-152159938D01*
X264090640Y-152263395D01*
X263898905Y-152454797D01*
X263795010Y-152705002D01*
X263794774Y-152975921D01*
X263173988Y-152975921D01*
X263165095Y-152967013D01*
X262914890Y-152863118D01*
X262643971Y-152862882D01*
X262393584Y-152966339D01*
X262201849Y-153157741D01*
X262097954Y-153407946D01*
X262097718Y-153678865D01*
X215644883Y-153678865D01*
X215645118Y-153409135D01*
X215541661Y-153158748D01*
X215359152Y-152975921D01*
X215979938Y-152975921D01*
X216083395Y-153226308D01*
X216274797Y-153418043D01*
X216525002Y-153521938D01*
X216795921Y-153522174D01*
X217046308Y-153418717D01*
X217238043Y-153227315D01*
X217341938Y-152977110D01*
X217341939Y-152975921D01*
X260400662Y-152975921D01*
X260504119Y-153226308D01*
X260695521Y-153418043D01*
X260945726Y-153521938D01*
X261216645Y-153522174D01*
X261467032Y-153418717D01*
X261658767Y-153227315D01*
X261762662Y-152977110D01*
X261762898Y-152706191D01*
X261659441Y-152455804D01*
X261468039Y-152264069D01*
X261217834Y-152160174D01*
X260946915Y-152159938D01*
X260696528Y-152263395D01*
X260504793Y-152454797D01*
X260400898Y-152705002D01*
X260400662Y-152975921D01*
X217341939Y-152975921D01*
X217342174Y-152706191D01*
X217238717Y-152455804D01*
X217047315Y-152264069D01*
X216797110Y-152160174D01*
X216526191Y-152159938D01*
X216275804Y-152263395D01*
X216084069Y-152454797D01*
X215980174Y-152705002D01*
X215979938Y-152975921D01*
X215359152Y-152975921D01*
X215350259Y-152967013D01*
X215100054Y-152863118D01*
X214829135Y-152862882D01*
X214578748Y-152966339D01*
X214387013Y-153157741D01*
X214283118Y-153407946D01*
X214282882Y-153678865D01*
X210671969Y-153678865D01*
X210671969Y-152975921D01*
X212585826Y-152975921D01*
X212689283Y-153226308D01*
X212880685Y-153418043D01*
X213130890Y-153521938D01*
X213401809Y-153522174D01*
X213652196Y-153418717D01*
X213843931Y-153227315D01*
X213947826Y-152977110D01*
X213948062Y-152706191D01*
X213844605Y-152455804D01*
X213653203Y-152264069D01*
X213402998Y-152160174D01*
X213132079Y-152159938D01*
X212881692Y-152263395D01*
X212689957Y-152454797D01*
X212586062Y-152705002D01*
X212585826Y-152975921D01*
X210671969Y-152975921D01*
X210671969Y-151278865D01*
X211882882Y-151278865D01*
X211986339Y-151529252D01*
X212177741Y-151720987D01*
X212427946Y-151824882D01*
X212698865Y-151825118D01*
X212949252Y-151721661D01*
X213140987Y-151530259D01*
X213244882Y-151280054D01*
X213244883Y-151278865D01*
X216682882Y-151278865D01*
X216786339Y-151529252D01*
X216977741Y-151720987D01*
X217227946Y-151824882D01*
X217498865Y-151825118D01*
X217749252Y-151721661D01*
X217940987Y-151530259D01*
X218044882Y-151280054D01*
X218044883Y-151278865D01*
X259697718Y-151278865D01*
X259801175Y-151529252D01*
X259992577Y-151720987D01*
X260242782Y-151824882D01*
X260513701Y-151825118D01*
X260764088Y-151721661D01*
X260955823Y-151530259D01*
X261059718Y-151280054D01*
X261059719Y-151278865D01*
X264497718Y-151278865D01*
X264601175Y-151529252D01*
X264792577Y-151720987D01*
X265042782Y-151824882D01*
X265313701Y-151825118D01*
X265564088Y-151721661D01*
X265755823Y-151530259D01*
X265859718Y-151280054D01*
X265859954Y-151009135D01*
X265756497Y-150758748D01*
X265565095Y-150567013D01*
X265314890Y-150463118D01*
X265043971Y-150462882D01*
X264793584Y-150566339D01*
X264601849Y-150757741D01*
X264497954Y-151007946D01*
X264497718Y-151278865D01*
X261059719Y-151278865D01*
X261059954Y-151009135D01*
X260956497Y-150758748D01*
X260765095Y-150567013D01*
X260514890Y-150463118D01*
X260243971Y-150462882D01*
X259993584Y-150566339D01*
X259801849Y-150757741D01*
X259697954Y-151007946D01*
X259697718Y-151278865D01*
X218044883Y-151278865D01*
X218045118Y-151009135D01*
X217941661Y-150758748D01*
X217750259Y-150567013D01*
X217500054Y-150463118D01*
X217229135Y-150462882D01*
X216978748Y-150566339D01*
X216787013Y-150757741D01*
X216683118Y-151007946D01*
X216682882Y-151278865D01*
X213244883Y-151278865D01*
X213245118Y-151009135D01*
X213141661Y-150758748D01*
X212950259Y-150567013D01*
X212700054Y-150463118D01*
X212429135Y-150462882D01*
X212178748Y-150566339D01*
X211987013Y-150757741D01*
X211883118Y-151007946D01*
X211882882Y-151278865D01*
X210671969Y-151278865D01*
X210671969Y-149581809D01*
X212585826Y-149581809D01*
X212689283Y-149832196D01*
X212880685Y-150023931D01*
X213130890Y-150127826D01*
X213401809Y-150128062D01*
X213652196Y-150024605D01*
X213843931Y-149833203D01*
X213947826Y-149582998D01*
X213947827Y-149581809D01*
X215979938Y-149581809D01*
X216083395Y-149832196D01*
X216274797Y-150023931D01*
X216525002Y-150127826D01*
X216795921Y-150128062D01*
X217046308Y-150024605D01*
X217238043Y-149833203D01*
X217341938Y-149582998D01*
X217341939Y-149581809D01*
X260400662Y-149581809D01*
X260504119Y-149832196D01*
X260695521Y-150023931D01*
X260945726Y-150127826D01*
X261216645Y-150128062D01*
X261467032Y-150024605D01*
X261658767Y-149833203D01*
X261762662Y-149582998D01*
X261762663Y-149581809D01*
X263794774Y-149581809D01*
X263898231Y-149832196D01*
X264089633Y-150023931D01*
X264339838Y-150127826D01*
X264610757Y-150128062D01*
X264861144Y-150024605D01*
X265052879Y-149833203D01*
X265156774Y-149582998D01*
X265157010Y-149312079D01*
X265053553Y-149061692D01*
X264862151Y-148869957D01*
X264611946Y-148766062D01*
X264341027Y-148765826D01*
X264090640Y-148869283D01*
X263898905Y-149060685D01*
X263795010Y-149310890D01*
X263794774Y-149581809D01*
X261762663Y-149581809D01*
X261762898Y-149312079D01*
X261659441Y-149061692D01*
X261476932Y-148878865D01*
X262097718Y-148878865D01*
X262201175Y-149129252D01*
X262392577Y-149320987D01*
X262642782Y-149424882D01*
X262913701Y-149425118D01*
X263164088Y-149321661D01*
X263355823Y-149130259D01*
X263459718Y-148880054D01*
X263459954Y-148609135D01*
X263356497Y-148358748D01*
X263165095Y-148167013D01*
X262914890Y-148063118D01*
X262643971Y-148062882D01*
X262393584Y-148166339D01*
X262201849Y-148357741D01*
X262097954Y-148607946D01*
X262097718Y-148878865D01*
X261476932Y-148878865D01*
X261468039Y-148869957D01*
X261217834Y-148766062D01*
X260946915Y-148765826D01*
X260696528Y-148869283D01*
X260504793Y-149060685D01*
X260400898Y-149310890D01*
X260400662Y-149581809D01*
X217341939Y-149581809D01*
X217342174Y-149312079D01*
X217238717Y-149061692D01*
X217047315Y-148869957D01*
X216797110Y-148766062D01*
X216526191Y-148765826D01*
X216275804Y-148869283D01*
X216084069Y-149060685D01*
X215980174Y-149310890D01*
X215979938Y-149581809D01*
X213947827Y-149581809D01*
X213948062Y-149312079D01*
X213844605Y-149061692D01*
X213662096Y-148878865D01*
X214282882Y-148878865D01*
X214386339Y-149129252D01*
X214577741Y-149320987D01*
X214827946Y-149424882D01*
X215098865Y-149425118D01*
X215349252Y-149321661D01*
X215540987Y-149130259D01*
X215644882Y-148880054D01*
X215645118Y-148609135D01*
X215541661Y-148358748D01*
X215350259Y-148167013D01*
X215100054Y-148063118D01*
X214829135Y-148062882D01*
X214578748Y-148166339D01*
X214387013Y-148357741D01*
X214283118Y-148607946D01*
X214282882Y-148878865D01*
X213662096Y-148878865D01*
X213653203Y-148869957D01*
X213402998Y-148766062D01*
X213132079Y-148765826D01*
X212881692Y-148869283D01*
X212689957Y-149060685D01*
X212586062Y-149310890D01*
X212585826Y-149581809D01*
X210671969Y-149581809D01*
X210671969Y-146494500D01*
X266424969Y-146494500D01*
X266424969Y-154813000D01*
G36*
X266879000Y-131916307D02*
X266820051Y-131876029D01*
X266573000Y-131826000D01*
X251968000Y-131826000D01*
X251770506Y-131863161D01*
X251587000Y-131826000D01*
X244094000Y-131826000D01*
X243863205Y-131869427D01*
X243842700Y-131882622D01*
X243833051Y-131876029D01*
X243586000Y-131826000D01*
X242236500Y-131826000D01*
X249246900Y-124815600D01*
X249867011Y-124815600D01*
X250019001Y-124967856D01*
X250294301Y-125082170D01*
X250592391Y-125082430D01*
X250723400Y-125028298D01*
X250723400Y-129032000D01*
X250760136Y-129216683D01*
X250864750Y-129373250D01*
X252261748Y-130770247D01*
X252261750Y-130770250D01*
X252418317Y-130874864D01*
X252603000Y-130911600D01*
X254000000Y-130911600D01*
X254184683Y-130874864D01*
X254341250Y-130770250D01*
X254341251Y-130770249D01*
X255992247Y-129119252D01*
X255992250Y-129119250D01*
X256096864Y-128962683D01*
X256133601Y-128778000D01*
X256133600Y-128777995D01*
X256133600Y-128020006D01*
X265009250Y-119144356D01*
X265113864Y-118987789D01*
X265150601Y-118803106D01*
X265150600Y-118803101D01*
X265150600Y-117856005D01*
X265150601Y-117856000D01*
X265113864Y-117671317D01*
X265110889Y-117666864D01*
X265009250Y-117514750D01*
X265009247Y-117514748D01*
X264374250Y-116879750D01*
X264217683Y-116775136D01*
X264187835Y-116769199D01*
X264394313Y-116460183D01*
X264488017Y-115989100D01*
X264394313Y-115518017D01*
X264127465Y-115118652D01*
X263728100Y-114851804D01*
X263257017Y-114758100D01*
X263208783Y-114758100D01*
X262737700Y-114851804D01*
X262338335Y-115118652D01*
X262071487Y-115518017D01*
X261977783Y-115989100D01*
X262071487Y-116460183D01*
X262257386Y-116738400D01*
X262128000Y-116738400D01*
X261943317Y-116775136D01*
X261786750Y-116879750D01*
X261786748Y-116879753D01*
X261420100Y-117246400D01*
X257451214Y-117246400D01*
X257505070Y-117116699D01*
X257505330Y-116818609D01*
X257391496Y-116543110D01*
X257180899Y-116332144D01*
X256971799Y-116245319D01*
X256971799Y-115803331D01*
X256935063Y-115618648D01*
X256830449Y-115462081D01*
X255399674Y-114031306D01*
X255409700Y-114033300D01*
X262147070Y-114033300D01*
X262338335Y-114319548D01*
X262737700Y-114586396D01*
X263208783Y-114680100D01*
X263257017Y-114680100D01*
X263728100Y-114586396D01*
X264127465Y-114319548D01*
X264394313Y-113920183D01*
X264488017Y-113449100D01*
X264394313Y-112978017D01*
X264127465Y-112578652D01*
X263728100Y-112311804D01*
X263257017Y-112218100D01*
X263208783Y-112218100D01*
X262737700Y-112311804D01*
X262338335Y-112578652D01*
X262147070Y-112864900D01*
X255651684Y-112864900D01*
X254784163Y-111997379D01*
X254755630Y-111853936D01*
X254628992Y-111664408D01*
X253873684Y-110909100D01*
X261977783Y-110909100D01*
X262071487Y-111380183D01*
X262338335Y-111779548D01*
X262737700Y-112046396D01*
X263208783Y-112140100D01*
X263257017Y-112140100D01*
X263728100Y-112046396D01*
X264127465Y-111779548D01*
X264394313Y-111380183D01*
X264488017Y-110909100D01*
X264394313Y-110438017D01*
X264127465Y-110038652D01*
X263728100Y-109771804D01*
X263257017Y-109678100D01*
X263208783Y-109678100D01*
X262737700Y-109771804D01*
X262338335Y-110038652D01*
X262071487Y-110438017D01*
X261977783Y-110909100D01*
X253873684Y-110909100D01*
X252520792Y-109556208D01*
X252492793Y-109537500D01*
X252331264Y-109429570D01*
X252107700Y-109385100D01*
X249250200Y-109385100D01*
X249250200Y-108369100D01*
X261977783Y-108369100D01*
X262071487Y-108840183D01*
X262338335Y-109239548D01*
X262737700Y-109506396D01*
X263208783Y-109600100D01*
X263257017Y-109600100D01*
X263728100Y-109506396D01*
X264127465Y-109239548D01*
X264394313Y-108840183D01*
X264488017Y-108369100D01*
X264394313Y-107898017D01*
X264127465Y-107498652D01*
X263728100Y-107231804D01*
X263257017Y-107138100D01*
X263208783Y-107138100D01*
X262737700Y-107231804D01*
X262338335Y-107498652D01*
X262071487Y-107898017D01*
X261977783Y-108369100D01*
X249250200Y-108369100D01*
X249250200Y-105822066D01*
X249300856Y-105771499D01*
X249415170Y-105496199D01*
X249415430Y-105198109D01*
X249324938Y-104979100D01*
X261994436Y-104979100D01*
X261994436Y-106679100D01*
X262021003Y-106820290D01*
X262104446Y-106949965D01*
X262231766Y-107036959D01*
X262382900Y-107067564D01*
X264082900Y-107067564D01*
X264224090Y-107040997D01*
X264353765Y-106957554D01*
X264440759Y-106830234D01*
X264471364Y-106679100D01*
X264471364Y-104979100D01*
X264444797Y-104837910D01*
X264361354Y-104708235D01*
X264234034Y-104621241D01*
X264082900Y-104590636D01*
X262382900Y-104590636D01*
X262241710Y-104617203D01*
X262112035Y-104700646D01*
X262025041Y-104827966D01*
X261994436Y-104979100D01*
X249324938Y-104979100D01*
X249301596Y-104922610D01*
X249250200Y-104871124D01*
X249250200Y-102337890D01*
X261829524Y-102337890D01*
X261999355Y-102747924D01*
X262389642Y-103176183D01*
X262914108Y-103422486D01*
X263144000Y-103301819D01*
X263144000Y-102108000D01*
X263398000Y-102108000D01*
X263398000Y-103301819D01*
X263627892Y-103422486D01*
X264152358Y-103176183D01*
X264542645Y-102747924D01*
X264712476Y-102337890D01*
X264591155Y-102108000D01*
X263398000Y-102108000D01*
X263144000Y-102108000D01*
X261950845Y-102108000D01*
X261829524Y-102337890D01*
X249250200Y-102337890D01*
X249250200Y-101624110D01*
X261829524Y-101624110D01*
X261950845Y-101854000D01*
X263144000Y-101854000D01*
X263144000Y-101834000D01*
X263398000Y-101834000D01*
X263398000Y-101854000D01*
X264591155Y-101854000D01*
X264712476Y-101624110D01*
X264542645Y-101214076D01*
X264152358Y-100785817D01*
X263727053Y-100586083D01*
X263766200Y-100578296D01*
X264165565Y-100311448D01*
X264432413Y-99912083D01*
X264526117Y-99441000D01*
X264432413Y-98969917D01*
X264165565Y-98570552D01*
X263766200Y-98303704D01*
X263295117Y-98210000D01*
X263246883Y-98210000D01*
X262775800Y-98303704D01*
X262376435Y-98570552D01*
X262109587Y-98969917D01*
X262015883Y-99441000D01*
X262109587Y-99912083D01*
X262376435Y-100311448D01*
X262775800Y-100578296D01*
X262814947Y-100586083D01*
X262389642Y-100785817D01*
X261999355Y-101214076D01*
X261829524Y-101624110D01*
X249250200Y-101624110D01*
X249250200Y-98285984D01*
X250050984Y-97485200D01*
X262032536Y-97485200D01*
X262032536Y-97751000D01*
X262059103Y-97892190D01*
X262142546Y-98021865D01*
X262269866Y-98108859D01*
X262421000Y-98139464D01*
X264121000Y-98139464D01*
X264262190Y-98112897D01*
X264391865Y-98029454D01*
X264478859Y-97902134D01*
X264509464Y-97751000D01*
X264509464Y-96051000D01*
X264482897Y-95909810D01*
X264399454Y-95780135D01*
X264272134Y-95693141D01*
X264121000Y-95662536D01*
X262421000Y-95662536D01*
X262279810Y-95689103D01*
X262150135Y-95772546D01*
X262063141Y-95899866D01*
X262032536Y-96051000D01*
X262032536Y-96316800D01*
X249809000Y-96316800D01*
X249585436Y-96361270D01*
X249395908Y-96487908D01*
X248252908Y-97630908D01*
X248126270Y-97820436D01*
X248081800Y-98044000D01*
X248081800Y-104762300D01*
X244741700Y-104762300D01*
X244518136Y-104806770D01*
X244328608Y-104933408D01*
X240308716Y-108953300D01*
X236522185Y-108953300D01*
X236471618Y-108902644D01*
X236196318Y-108788330D01*
X235898228Y-108788070D01*
X235622729Y-108901904D01*
X235411763Y-109112501D01*
X235297449Y-109387801D01*
X235297386Y-109460549D01*
X234346408Y-110411527D01*
X234219770Y-110601055D01*
X234175300Y-110824619D01*
X234175300Y-110940870D01*
X233889052Y-111132135D01*
X233622204Y-111531500D01*
X233528500Y-112002583D01*
X233528500Y-112050817D01*
X233622204Y-112521900D01*
X233817446Y-112814100D01*
X233780863Y-112814100D01*
X233780858Y-112814099D01*
X233596175Y-112850836D01*
X233439608Y-112955450D01*
X233439606Y-112955453D01*
X231040958Y-115354100D01*
X231035956Y-115354100D01*
X231247313Y-115037783D01*
X231341017Y-114566700D01*
X231247313Y-114095617D01*
X230980465Y-113696252D01*
X230581100Y-113429404D01*
X230110017Y-113335700D01*
X230061783Y-113335700D01*
X229590700Y-113429404D01*
X229191335Y-113696252D01*
X228924487Y-114095617D01*
X228830783Y-114566700D01*
X228924487Y-115037783D01*
X229135844Y-115354100D01*
X228815900Y-115354100D01*
X228631217Y-115390836D01*
X228474650Y-115495450D01*
X228007399Y-115962701D01*
X227570017Y-115875700D01*
X227521783Y-115875700D01*
X227050700Y-115969404D01*
X226651335Y-116236252D01*
X226384487Y-116635617D01*
X226290783Y-117106700D01*
X226384487Y-117577783D01*
X226651335Y-117977148D01*
X227050700Y-118243996D01*
X227521783Y-118337700D01*
X227570017Y-118337700D01*
X228041100Y-118243996D01*
X228440465Y-117977148D01*
X228707313Y-117577783D01*
X228801017Y-117106700D01*
X228707313Y-116635617D01*
X228704177Y-116630923D01*
X229015800Y-116319300D01*
X229135844Y-116319300D01*
X228924487Y-116635617D01*
X228830783Y-117106700D01*
X228924487Y-117577783D01*
X229191335Y-117977148D01*
X229467536Y-118161700D01*
X229109591Y-118161700D01*
X228876202Y-118258373D01*
X228697573Y-118437001D01*
X228600900Y-118670390D01*
X228600900Y-119016359D01*
X228440465Y-118776252D01*
X228041100Y-118509404D01*
X227570017Y-118415700D01*
X227521783Y-118415700D01*
X227050700Y-118509404D01*
X226651335Y-118776252D01*
X226384487Y-119175617D01*
X226290783Y-119646700D01*
X226384487Y-120117783D01*
X226651335Y-120517148D01*
X227050700Y-120783996D01*
X227521783Y-120877700D01*
X227570017Y-120877700D01*
X228041100Y-120783996D01*
X228440465Y-120517148D01*
X228600900Y-120277041D01*
X228600900Y-120623010D01*
X228697573Y-120856399D01*
X228876202Y-121035027D01*
X229109591Y-121131700D01*
X229800150Y-121131700D01*
X229958900Y-120972950D01*
X229958900Y-119773700D01*
X230212900Y-119773700D01*
X230212900Y-120972950D01*
X230371650Y-121131700D01*
X231062209Y-121131700D01*
X231295598Y-121035027D01*
X231474227Y-120856399D01*
X231570900Y-120623010D01*
X231570900Y-119932450D01*
X231412150Y-119773700D01*
X230212900Y-119773700D01*
X229958900Y-119773700D01*
X229938900Y-119773700D01*
X229938900Y-119519700D01*
X229958900Y-119519700D01*
X229958900Y-119499700D01*
X230212900Y-119499700D01*
X230212900Y-119519700D01*
X231412150Y-119519700D01*
X231570900Y-119360950D01*
X231570900Y-118670390D01*
X231474227Y-118437001D01*
X231295598Y-118258373D01*
X231062209Y-118161700D01*
X230704264Y-118161700D01*
X230980465Y-117977148D01*
X231239618Y-117589300D01*
X237401100Y-117589300D01*
X237585783Y-117552564D01*
X237742350Y-117447950D01*
X238910750Y-116279550D01*
X239015364Y-116122983D01*
X239052100Y-115938300D01*
X239052100Y-115516756D01*
X239368417Y-115728113D01*
X239839500Y-115821817D01*
X240310583Y-115728113D01*
X240709948Y-115461265D01*
X240976796Y-115061900D01*
X241070500Y-114590817D01*
X241070500Y-114542583D01*
X240976796Y-114071500D01*
X240709948Y-113672135D01*
X240324988Y-113414912D01*
X240606424Y-113298345D01*
X241034683Y-112908058D01*
X241280986Y-112383592D01*
X241160319Y-112153700D01*
X239966500Y-112153700D01*
X239966500Y-112173700D01*
X239712500Y-112173700D01*
X239712500Y-112153700D01*
X239692500Y-112153700D01*
X239692500Y-111899700D01*
X239712500Y-111899700D01*
X239712500Y-111879700D01*
X239966500Y-111879700D01*
X239966500Y-111899700D01*
X241160319Y-111899700D01*
X241280986Y-111669808D01*
X241034683Y-111145342D01*
X241026297Y-111137700D01*
X242582700Y-111137700D01*
X242767383Y-111100964D01*
X242923950Y-110996350D01*
X243887558Y-110032742D01*
X244102691Y-110032930D01*
X244378190Y-109919096D01*
X244589156Y-109708499D01*
X244703470Y-109433199D01*
X244703730Y-109135109D01*
X244589896Y-108859610D01*
X244531371Y-108800983D01*
X244589156Y-108743299D01*
X244703470Y-108467999D01*
X244703730Y-108169909D01*
X244589896Y-107894410D01*
X244379299Y-107683444D01*
X244103999Y-107569130D01*
X243805909Y-107568870D01*
X243530410Y-107682704D01*
X243363137Y-107849685D01*
X243248763Y-107872436D01*
X243092196Y-107977050D01*
X241404746Y-109664500D01*
X241249884Y-109664500D01*
X244983684Y-105930700D01*
X248081800Y-105930700D01*
X248081800Y-109385100D01*
X247662700Y-109385100D01*
X247439137Y-109429569D01*
X247249608Y-109556208D01*
X243223707Y-113582109D01*
X243144130Y-113701205D01*
X243116696Y-113634810D01*
X242906099Y-113423844D01*
X242630799Y-113309530D01*
X242332709Y-113309270D01*
X242057210Y-113423104D01*
X241846244Y-113633701D01*
X241731930Y-113909001D01*
X241731741Y-114125559D01*
X241644549Y-114212751D01*
X241539935Y-114369318D01*
X241503199Y-114554001D01*
X241503199Y-116865399D01*
X241539935Y-117050082D01*
X241644549Y-117206649D01*
X241936650Y-117498750D01*
X242093217Y-117603364D01*
X242277900Y-117640100D01*
X243840000Y-117640100D01*
X244024683Y-117603364D01*
X244181250Y-117498750D01*
X245578247Y-116101752D01*
X245578250Y-116101750D01*
X245682864Y-115945183D01*
X245719600Y-115760500D01*
X245719600Y-114372900D01*
X248362660Y-111729840D01*
X248474904Y-112001490D01*
X248520729Y-112047395D01*
X248475644Y-112092401D01*
X248361330Y-112367701D01*
X248361070Y-112665791D01*
X248474904Y-112941290D01*
X248685501Y-113152256D01*
X248960801Y-113266570D01*
X249258891Y-113266830D01*
X249534390Y-113152996D01*
X249745356Y-112942399D01*
X249832181Y-112733299D01*
X250383931Y-112733299D01*
X251161582Y-113510950D01*
X251318149Y-113615564D01*
X251502832Y-113652301D01*
X251502837Y-113652300D01*
X251648413Y-113652300D01*
X251599830Y-113769301D01*
X251599570Y-114067391D01*
X251713404Y-114342890D01*
X251924001Y-114553856D01*
X252199301Y-114668170D01*
X252415859Y-114668359D01*
X254025400Y-116277900D01*
X254025400Y-116713000D01*
X254062136Y-116897683D01*
X254166750Y-117054250D01*
X255182750Y-118070250D01*
X255339317Y-118174864D01*
X255524000Y-118211600D01*
X261620000Y-118211600D01*
X261793951Y-118176999D01*
X261912745Y-118402100D01*
X263105900Y-118402100D01*
X263105900Y-118382100D01*
X263359900Y-118382100D01*
X263359900Y-118402100D01*
X263379900Y-118402100D01*
X263379900Y-118656100D01*
X263359900Y-118656100D01*
X263359900Y-118676100D01*
X263105900Y-118676100D01*
X263105900Y-118656100D01*
X261912745Y-118656100D01*
X261791424Y-118885990D01*
X261961255Y-119296024D01*
X262351542Y-119724283D01*
X262836550Y-119952056D01*
X255309750Y-127478856D01*
X255205136Y-127635423D01*
X255168400Y-127820106D01*
X255168400Y-128578101D01*
X253800100Y-129946400D01*
X253510376Y-129946400D01*
X253555356Y-129901499D01*
X253669670Y-129626199D01*
X253669930Y-129328109D01*
X253556096Y-129052610D01*
X253403100Y-128899346D01*
X253403100Y-126682500D01*
X253366364Y-126497817D01*
X253261750Y-126341250D01*
X253261747Y-126341248D01*
X252437899Y-125517399D01*
X252437899Y-117906799D01*
X252401163Y-117722116D01*
X252336225Y-117624929D01*
X252336430Y-117390109D01*
X252222596Y-117114610D01*
X252011999Y-116903644D01*
X251736699Y-116789330D01*
X251438609Y-116789070D01*
X251163110Y-116902904D01*
X250952144Y-117113501D01*
X250837830Y-117388801D01*
X250837570Y-117686891D01*
X250951404Y-117962390D01*
X251162001Y-118173356D01*
X251437301Y-118287670D01*
X251472699Y-118287701D01*
X251472699Y-123536200D01*
X251051951Y-123115451D01*
X250895384Y-123010837D01*
X250710701Y-122974101D01*
X242880288Y-122974101D01*
X242728298Y-122821845D01*
X242452998Y-122707531D01*
X242154908Y-122707271D01*
X241879409Y-122821105D01*
X241668443Y-123031702D01*
X241554129Y-123307002D01*
X241553869Y-123605092D01*
X241667703Y-123880591D01*
X241878300Y-124091557D01*
X242153600Y-124205871D01*
X242451690Y-124206131D01*
X242727189Y-124092297D01*
X242880453Y-123939301D01*
X248784246Y-123939301D01*
X248705750Y-123991750D01*
X240871500Y-131826000D01*
X226390200Y-131826000D01*
X226390200Y-123444000D01*
X226345730Y-123220436D01*
X226219092Y-123030908D01*
X225666257Y-122478073D01*
X225666430Y-122279609D01*
X225552596Y-122004110D01*
X225341999Y-121793144D01*
X225066699Y-121678830D01*
X224768609Y-121678570D01*
X224493110Y-121792404D01*
X224282144Y-122003001D01*
X224167830Y-122278301D01*
X224167570Y-122576391D01*
X224281404Y-122851890D01*
X224492001Y-123062856D01*
X224674418Y-123138602D01*
X225221800Y-123685984D01*
X225221800Y-131840338D01*
X225067205Y-131869427D01*
X225046700Y-131882622D01*
X225037051Y-131876029D01*
X224790000Y-131826000D01*
X210566000Y-131826000D01*
X210335205Y-131869427D01*
X210123233Y-132005827D01*
X209981029Y-132213949D01*
X209931000Y-132461000D01*
X209931000Y-145923000D01*
X209974427Y-146153795D01*
X210110827Y-146365767D01*
X210318949Y-146507971D01*
X210417969Y-146528023D01*
X210417969Y-154940000D01*
X210426654Y-154986159D01*
X210453934Y-155028553D01*
X210495559Y-155056994D01*
X210544969Y-155067000D01*
X266551969Y-155067000D01*
X266598128Y-155058315D01*
X266640522Y-155031035D01*
X266668963Y-154989410D01*
X266678969Y-154940000D01*
X266678969Y-146538061D01*
X266803795Y-146514573D01*
X266879000Y-146466180D01*
X266879000Y-155119000D01*
X209371000Y-155119000D01*
X209371000Y-120264991D01*
X218497270Y-120264991D01*
X218611104Y-120540490D01*
X218821701Y-120751456D01*
X219097001Y-120865770D01*
X219395091Y-120866030D01*
X219426142Y-120853200D01*
X223298434Y-120853200D01*
X223349001Y-120903856D01*
X223624301Y-121018170D01*
X223922391Y-121018430D01*
X224197890Y-120904596D01*
X224408856Y-120693999D01*
X224523170Y-120418699D01*
X224523430Y-120120609D01*
X224409596Y-119845110D01*
X224198999Y-119634144D01*
X223923699Y-119519830D01*
X223625609Y-119519570D01*
X223350110Y-119633404D01*
X223298624Y-119684800D01*
X219874400Y-119684800D01*
X219830900Y-119641224D01*
X219830900Y-114566700D01*
X226290783Y-114566700D01*
X226384487Y-115037783D01*
X226651335Y-115437148D01*
X227050700Y-115703996D01*
X227521783Y-115797700D01*
X227570017Y-115797700D01*
X228041100Y-115703996D01*
X228440465Y-115437148D01*
X228707313Y-115037783D01*
X228801017Y-114566700D01*
X228707313Y-114095617D01*
X228440465Y-113696252D01*
X228041100Y-113429404D01*
X227570017Y-113335700D01*
X227521783Y-113335700D01*
X227050700Y-113429404D01*
X226651335Y-113696252D01*
X226384487Y-114095617D01*
X226290783Y-114566700D01*
X219830900Y-114566700D01*
X219830900Y-112026700D01*
X226290783Y-112026700D01*
X226384487Y-112497783D01*
X226651335Y-112897148D01*
X227050700Y-113163996D01*
X227521783Y-113257700D01*
X227570017Y-113257700D01*
X228041100Y-113163996D01*
X228440465Y-112897148D01*
X228707313Y-112497783D01*
X228801017Y-112026700D01*
X228830783Y-112026700D01*
X228924487Y-112497783D01*
X229191335Y-112897148D01*
X229590700Y-113163996D01*
X230061783Y-113257700D01*
X230110017Y-113257700D01*
X230581100Y-113163996D01*
X230980465Y-112897148D01*
X231247313Y-112497783D01*
X231341017Y-112026700D01*
X231247313Y-111555617D01*
X230980465Y-111156252D01*
X230581100Y-110889404D01*
X230110017Y-110795700D01*
X230061783Y-110795700D01*
X229590700Y-110889404D01*
X229191335Y-111156252D01*
X228924487Y-111555617D01*
X228830783Y-112026700D01*
X228801017Y-112026700D01*
X228707313Y-111555617D01*
X228440465Y-111156252D01*
X228041100Y-110889404D01*
X227570017Y-110795700D01*
X227521783Y-110795700D01*
X227050700Y-110889404D01*
X226651335Y-111156252D01*
X226384487Y-111555617D01*
X226290783Y-112026700D01*
X219830900Y-112026700D01*
X219830900Y-100406878D01*
X220076990Y-100305196D01*
X220287956Y-100094599D01*
X220402270Y-99819299D01*
X220402530Y-99521209D01*
X220288696Y-99245710D01*
X220078099Y-99034744D01*
X219802799Y-98920430D01*
X219504709Y-98920170D01*
X219229210Y-99034004D01*
X219018244Y-99244601D01*
X218903930Y-99519901D01*
X218903867Y-99592649D01*
X218833608Y-99662908D01*
X218706970Y-99852436D01*
X218662500Y-100076000D01*
X218662500Y-119641034D01*
X218611844Y-119691601D01*
X218497530Y-119966901D01*
X218497270Y-120264991D01*
X209371000Y-120264991D01*
X209371000Y-89356000D01*
X266879000Y-89356000D01*
X266879000Y-131916307D01*
X266879000Y-131916307D01*
G37*
X266879000Y-131916307D02*
X266820051Y-131876029D01*
X266573000Y-131826000D01*
X251968000Y-131826000D01*
X251770506Y-131863161D01*
X251587000Y-131826000D01*
X244094000Y-131826000D01*
X243863205Y-131869427D01*
X243842700Y-131882622D01*
X243833051Y-131876029D01*
X243586000Y-131826000D01*
X242236500Y-131826000D01*
X249246900Y-124815600D01*
X249867011Y-124815600D01*
X250019001Y-124967856D01*
X250294301Y-125082170D01*
X250592391Y-125082430D01*
X250723400Y-125028298D01*
X250723400Y-129032000D01*
X250760136Y-129216683D01*
X250864750Y-129373250D01*
X252261748Y-130770247D01*
X252261750Y-130770250D01*
X252418317Y-130874864D01*
X252603000Y-130911600D01*
X254000000Y-130911600D01*
X254184683Y-130874864D01*
X254341250Y-130770250D01*
X254341251Y-130770249D01*
X255992247Y-129119252D01*
X255992250Y-129119250D01*
X256096864Y-128962683D01*
X256133601Y-128778000D01*
X256133600Y-128777995D01*
X256133600Y-128020006D01*
X265009250Y-119144356D01*
X265113864Y-118987789D01*
X265150601Y-118803106D01*
X265150600Y-118803101D01*
X265150600Y-117856005D01*
X265150601Y-117856000D01*
X265113864Y-117671317D01*
X265110889Y-117666864D01*
X265009250Y-117514750D01*
X265009247Y-117514748D01*
X264374250Y-116879750D01*
X264217683Y-116775136D01*
X264187835Y-116769199D01*
X264394313Y-116460183D01*
X264488017Y-115989100D01*
X264394313Y-115518017D01*
X264127465Y-115118652D01*
X263728100Y-114851804D01*
X263257017Y-114758100D01*
X263208783Y-114758100D01*
X262737700Y-114851804D01*
X262338335Y-115118652D01*
X262071487Y-115518017D01*
X261977783Y-115989100D01*
X262071487Y-116460183D01*
X262257386Y-116738400D01*
X262128000Y-116738400D01*
X261943317Y-116775136D01*
X261786750Y-116879750D01*
X261786748Y-116879753D01*
X261420100Y-117246400D01*
X257451214Y-117246400D01*
X257505070Y-117116699D01*
X257505330Y-116818609D01*
X257391496Y-116543110D01*
X257180899Y-116332144D01*
X256971799Y-116245319D01*
X256971799Y-115803331D01*
X256935063Y-115618648D01*
X256830449Y-115462081D01*
X255399674Y-114031306D01*
X255409700Y-114033300D01*
X262147070Y-114033300D01*
X262338335Y-114319548D01*
X262737700Y-114586396D01*
X263208783Y-114680100D01*
X263257017Y-114680100D01*
X263728100Y-114586396D01*
X264127465Y-114319548D01*
X264394313Y-113920183D01*
X264488017Y-113449100D01*
X264394313Y-112978017D01*
X264127465Y-112578652D01*
X263728100Y-112311804D01*
X263257017Y-112218100D01*
X263208783Y-112218100D01*
X262737700Y-112311804D01*
X262338335Y-112578652D01*
X262147070Y-112864900D01*
X255651684Y-112864900D01*
X254784163Y-111997379D01*
X254755630Y-111853936D01*
X254628992Y-111664408D01*
X253873684Y-110909100D01*
X261977783Y-110909100D01*
X262071487Y-111380183D01*
X262338335Y-111779548D01*
X262737700Y-112046396D01*
X263208783Y-112140100D01*
X263257017Y-112140100D01*
X263728100Y-112046396D01*
X264127465Y-111779548D01*
X264394313Y-111380183D01*
X264488017Y-110909100D01*
X264394313Y-110438017D01*
X264127465Y-110038652D01*
X263728100Y-109771804D01*
X263257017Y-109678100D01*
X263208783Y-109678100D01*
X262737700Y-109771804D01*
X262338335Y-110038652D01*
X262071487Y-110438017D01*
X261977783Y-110909100D01*
X253873684Y-110909100D01*
X252520792Y-109556208D01*
X252492793Y-109537500D01*
X252331264Y-109429570D01*
X252107700Y-109385100D01*
X249250200Y-109385100D01*
X249250200Y-108369100D01*
X261977783Y-108369100D01*
X262071487Y-108840183D01*
X262338335Y-109239548D01*
X262737700Y-109506396D01*
X263208783Y-109600100D01*
X263257017Y-109600100D01*
X263728100Y-109506396D01*
X264127465Y-109239548D01*
X264394313Y-108840183D01*
X264488017Y-108369100D01*
X264394313Y-107898017D01*
X264127465Y-107498652D01*
X263728100Y-107231804D01*
X263257017Y-107138100D01*
X263208783Y-107138100D01*
X262737700Y-107231804D01*
X262338335Y-107498652D01*
X262071487Y-107898017D01*
X261977783Y-108369100D01*
X249250200Y-108369100D01*
X249250200Y-105822066D01*
X249300856Y-105771499D01*
X249415170Y-105496199D01*
X249415430Y-105198109D01*
X249324938Y-104979100D01*
X261994436Y-104979100D01*
X261994436Y-106679100D01*
X262021003Y-106820290D01*
X262104446Y-106949965D01*
X262231766Y-107036959D01*
X262382900Y-107067564D01*
X264082900Y-107067564D01*
X264224090Y-107040997D01*
X264353765Y-106957554D01*
X264440759Y-106830234D01*
X264471364Y-106679100D01*
X264471364Y-104979100D01*
X264444797Y-104837910D01*
X264361354Y-104708235D01*
X264234034Y-104621241D01*
X264082900Y-104590636D01*
X262382900Y-104590636D01*
X262241710Y-104617203D01*
X262112035Y-104700646D01*
X262025041Y-104827966D01*
X261994436Y-104979100D01*
X249324938Y-104979100D01*
X249301596Y-104922610D01*
X249250200Y-104871124D01*
X249250200Y-102337890D01*
X261829524Y-102337890D01*
X261999355Y-102747924D01*
X262389642Y-103176183D01*
X262914108Y-103422486D01*
X263144000Y-103301819D01*
X263144000Y-102108000D01*
X263398000Y-102108000D01*
X263398000Y-103301819D01*
X263627892Y-103422486D01*
X264152358Y-103176183D01*
X264542645Y-102747924D01*
X264712476Y-102337890D01*
X264591155Y-102108000D01*
X263398000Y-102108000D01*
X263144000Y-102108000D01*
X261950845Y-102108000D01*
X261829524Y-102337890D01*
X249250200Y-102337890D01*
X249250200Y-101624110D01*
X261829524Y-101624110D01*
X261950845Y-101854000D01*
X263144000Y-101854000D01*
X263144000Y-101834000D01*
X263398000Y-101834000D01*
X263398000Y-101854000D01*
X264591155Y-101854000D01*
X264712476Y-101624110D01*
X264542645Y-101214076D01*
X264152358Y-100785817D01*
X263727053Y-100586083D01*
X263766200Y-100578296D01*
X264165565Y-100311448D01*
X264432413Y-99912083D01*
X264526117Y-99441000D01*
X264432413Y-98969917D01*
X264165565Y-98570552D01*
X263766200Y-98303704D01*
X263295117Y-98210000D01*
X263246883Y-98210000D01*
X262775800Y-98303704D01*
X262376435Y-98570552D01*
X262109587Y-98969917D01*
X262015883Y-99441000D01*
X262109587Y-99912083D01*
X262376435Y-100311448D01*
X262775800Y-100578296D01*
X262814947Y-100586083D01*
X262389642Y-100785817D01*
X261999355Y-101214076D01*
X261829524Y-101624110D01*
X249250200Y-101624110D01*
X249250200Y-98285984D01*
X250050984Y-97485200D01*
X262032536Y-97485200D01*
X262032536Y-97751000D01*
X262059103Y-97892190D01*
X262142546Y-98021865D01*
X262269866Y-98108859D01*
X262421000Y-98139464D01*
X264121000Y-98139464D01*
X264262190Y-98112897D01*
X264391865Y-98029454D01*
X264478859Y-97902134D01*
X264509464Y-97751000D01*
X264509464Y-96051000D01*
X264482897Y-95909810D01*
X264399454Y-95780135D01*
X264272134Y-95693141D01*
X264121000Y-95662536D01*
X262421000Y-95662536D01*
X262279810Y-95689103D01*
X262150135Y-95772546D01*
X262063141Y-95899866D01*
X262032536Y-96051000D01*
X262032536Y-96316800D01*
X249809000Y-96316800D01*
X249585436Y-96361270D01*
X249395908Y-96487908D01*
X248252908Y-97630908D01*
X248126270Y-97820436D01*
X248081800Y-98044000D01*
X248081800Y-104762300D01*
X244741700Y-104762300D01*
X244518136Y-104806770D01*
X244328608Y-104933408D01*
X240308716Y-108953300D01*
X236522185Y-108953300D01*
X236471618Y-108902644D01*
X236196318Y-108788330D01*
X235898228Y-108788070D01*
X235622729Y-108901904D01*
X235411763Y-109112501D01*
X235297449Y-109387801D01*
X235297386Y-109460549D01*
X234346408Y-110411527D01*
X234219770Y-110601055D01*
X234175300Y-110824619D01*
X234175300Y-110940870D01*
X233889052Y-111132135D01*
X233622204Y-111531500D01*
X233528500Y-112002583D01*
X233528500Y-112050817D01*
X233622204Y-112521900D01*
X233817446Y-112814100D01*
X233780863Y-112814100D01*
X233780858Y-112814099D01*
X233596175Y-112850836D01*
X233439608Y-112955450D01*
X233439606Y-112955453D01*
X231040958Y-115354100D01*
X231035956Y-115354100D01*
X231247313Y-115037783D01*
X231341017Y-114566700D01*
X231247313Y-114095617D01*
X230980465Y-113696252D01*
X230581100Y-113429404D01*
X230110017Y-113335700D01*
X230061783Y-113335700D01*
X229590700Y-113429404D01*
X229191335Y-113696252D01*
X228924487Y-114095617D01*
X228830783Y-114566700D01*
X228924487Y-115037783D01*
X229135844Y-115354100D01*
X228815900Y-115354100D01*
X228631217Y-115390836D01*
X228474650Y-115495450D01*
X228007399Y-115962701D01*
X227570017Y-115875700D01*
X227521783Y-115875700D01*
X227050700Y-115969404D01*
X226651335Y-116236252D01*
X226384487Y-116635617D01*
X226290783Y-117106700D01*
X226384487Y-117577783D01*
X226651335Y-117977148D01*
X227050700Y-118243996D01*
X227521783Y-118337700D01*
X227570017Y-118337700D01*
X228041100Y-118243996D01*
X228440465Y-117977148D01*
X228707313Y-117577783D01*
X228801017Y-117106700D01*
X228707313Y-116635617D01*
X228704177Y-116630923D01*
X229015800Y-116319300D01*
X229135844Y-116319300D01*
X228924487Y-116635617D01*
X228830783Y-117106700D01*
X228924487Y-117577783D01*
X229191335Y-117977148D01*
X229467536Y-118161700D01*
X229109591Y-118161700D01*
X228876202Y-118258373D01*
X228697573Y-118437001D01*
X228600900Y-118670390D01*
X228600900Y-119016359D01*
X228440465Y-118776252D01*
X228041100Y-118509404D01*
X227570017Y-118415700D01*
X227521783Y-118415700D01*
X227050700Y-118509404D01*
X226651335Y-118776252D01*
X226384487Y-119175617D01*
X226290783Y-119646700D01*
X226384487Y-120117783D01*
X226651335Y-120517148D01*
X227050700Y-120783996D01*
X227521783Y-120877700D01*
X227570017Y-120877700D01*
X228041100Y-120783996D01*
X228440465Y-120517148D01*
X228600900Y-120277041D01*
X228600900Y-120623010D01*
X228697573Y-120856399D01*
X228876202Y-121035027D01*
X229109591Y-121131700D01*
X229800150Y-121131700D01*
X229958900Y-120972950D01*
X229958900Y-119773700D01*
X230212900Y-119773700D01*
X230212900Y-120972950D01*
X230371650Y-121131700D01*
X231062209Y-121131700D01*
X231295598Y-121035027D01*
X231474227Y-120856399D01*
X231570900Y-120623010D01*
X231570900Y-119932450D01*
X231412150Y-119773700D01*
X230212900Y-119773700D01*
X229958900Y-119773700D01*
X229938900Y-119773700D01*
X229938900Y-119519700D01*
X229958900Y-119519700D01*
X229958900Y-119499700D01*
X230212900Y-119499700D01*
X230212900Y-119519700D01*
X231412150Y-119519700D01*
X231570900Y-119360950D01*
X231570900Y-118670390D01*
X231474227Y-118437001D01*
X231295598Y-118258373D01*
X231062209Y-118161700D01*
X230704264Y-118161700D01*
X230980465Y-117977148D01*
X231239618Y-117589300D01*
X237401100Y-117589300D01*
X237585783Y-117552564D01*
X237742350Y-117447950D01*
X238910750Y-116279550D01*
X239015364Y-116122983D01*
X239052100Y-115938300D01*
X239052100Y-115516756D01*
X239368417Y-115728113D01*
X239839500Y-115821817D01*
X240310583Y-115728113D01*
X240709948Y-115461265D01*
X240976796Y-115061900D01*
X241070500Y-114590817D01*
X241070500Y-114542583D01*
X240976796Y-114071500D01*
X240709948Y-113672135D01*
X240324988Y-113414912D01*
X240606424Y-113298345D01*
X241034683Y-112908058D01*
X241280986Y-112383592D01*
X241160319Y-112153700D01*
X239966500Y-112153700D01*
X239966500Y-112173700D01*
X239712500Y-112173700D01*
X239712500Y-112153700D01*
X239692500Y-112153700D01*
X239692500Y-111899700D01*
X239712500Y-111899700D01*
X239712500Y-111879700D01*
X239966500Y-111879700D01*
X239966500Y-111899700D01*
X241160319Y-111899700D01*
X241280986Y-111669808D01*
X241034683Y-111145342D01*
X241026297Y-111137700D01*
X242582700Y-111137700D01*
X242767383Y-111100964D01*
X242923950Y-110996350D01*
X243887558Y-110032742D01*
X244102691Y-110032930D01*
X244378190Y-109919096D01*
X244589156Y-109708499D01*
X244703470Y-109433199D01*
X244703730Y-109135109D01*
X244589896Y-108859610D01*
X244531371Y-108800983D01*
X244589156Y-108743299D01*
X244703470Y-108467999D01*
X244703730Y-108169909D01*
X244589896Y-107894410D01*
X244379299Y-107683444D01*
X244103999Y-107569130D01*
X243805909Y-107568870D01*
X243530410Y-107682704D01*
X243363137Y-107849685D01*
X243248763Y-107872436D01*
X243092196Y-107977050D01*
X241404746Y-109664500D01*
X241249884Y-109664500D01*
X244983684Y-105930700D01*
X248081800Y-105930700D01*
X248081800Y-109385100D01*
X247662700Y-109385100D01*
X247439137Y-109429569D01*
X247249608Y-109556208D01*
X243223707Y-113582109D01*
X243144130Y-113701205D01*
X243116696Y-113634810D01*
X242906099Y-113423844D01*
X242630799Y-113309530D01*
X242332709Y-113309270D01*
X242057210Y-113423104D01*
X241846244Y-113633701D01*
X241731930Y-113909001D01*
X241731741Y-114125559D01*
X241644549Y-114212751D01*
X241539935Y-114369318D01*
X241503199Y-114554001D01*
X241503199Y-116865399D01*
X241539935Y-117050082D01*
X241644549Y-117206649D01*
X241936650Y-117498750D01*
X242093217Y-117603364D01*
X242277900Y-117640100D01*
X243840000Y-117640100D01*
X244024683Y-117603364D01*
X244181250Y-117498750D01*
X245578247Y-116101752D01*
X245578250Y-116101750D01*
X245682864Y-115945183D01*
X245719600Y-115760500D01*
X245719600Y-114372900D01*
X248362660Y-111729840D01*
X248474904Y-112001490D01*
X248520729Y-112047395D01*
X248475644Y-112092401D01*
X248361330Y-112367701D01*
X248361070Y-112665791D01*
X248474904Y-112941290D01*
X248685501Y-113152256D01*
X248960801Y-113266570D01*
X249258891Y-113266830D01*
X249534390Y-113152996D01*
X249745356Y-112942399D01*
X249832181Y-112733299D01*
X250383931Y-112733299D01*
X251161582Y-113510950D01*
X251318149Y-113615564D01*
X251502832Y-113652301D01*
X251502837Y-113652300D01*
X251648413Y-113652300D01*
X251599830Y-113769301D01*
X251599570Y-114067391D01*
X251713404Y-114342890D01*
X251924001Y-114553856D01*
X252199301Y-114668170D01*
X252415859Y-114668359D01*
X254025400Y-116277900D01*
X254025400Y-116713000D01*
X254062136Y-116897683D01*
X254166750Y-117054250D01*
X255182750Y-118070250D01*
X255339317Y-118174864D01*
X255524000Y-118211600D01*
X261620000Y-118211600D01*
X261793951Y-118176999D01*
X261912745Y-118402100D01*
X263105900Y-118402100D01*
X263105900Y-118382100D01*
X263359900Y-118382100D01*
X263359900Y-118402100D01*
X263379900Y-118402100D01*
X263379900Y-118656100D01*
X263359900Y-118656100D01*
X263359900Y-118676100D01*
X263105900Y-118676100D01*
X263105900Y-118656100D01*
X261912745Y-118656100D01*
X261791424Y-118885990D01*
X261961255Y-119296024D01*
X262351542Y-119724283D01*
X262836550Y-119952056D01*
X255309750Y-127478856D01*
X255205136Y-127635423D01*
X255168400Y-127820106D01*
X255168400Y-128578101D01*
X253800100Y-129946400D01*
X253510376Y-129946400D01*
X253555356Y-129901499D01*
X253669670Y-129626199D01*
X253669930Y-129328109D01*
X253556096Y-129052610D01*
X253403100Y-128899346D01*
X253403100Y-126682500D01*
X253366364Y-126497817D01*
X253261750Y-126341250D01*
X253261747Y-126341248D01*
X252437899Y-125517399D01*
X252437899Y-117906799D01*
X252401163Y-117722116D01*
X252336225Y-117624929D01*
X252336430Y-117390109D01*
X252222596Y-117114610D01*
X252011999Y-116903644D01*
X251736699Y-116789330D01*
X251438609Y-116789070D01*
X251163110Y-116902904D01*
X250952144Y-117113501D01*
X250837830Y-117388801D01*
X250837570Y-117686891D01*
X250951404Y-117962390D01*
X251162001Y-118173356D01*
X251437301Y-118287670D01*
X251472699Y-118287701D01*
X251472699Y-123536200D01*
X251051951Y-123115451D01*
X250895384Y-123010837D01*
X250710701Y-122974101D01*
X242880288Y-122974101D01*
X242728298Y-122821845D01*
X242452998Y-122707531D01*
X242154908Y-122707271D01*
X241879409Y-122821105D01*
X241668443Y-123031702D01*
X241554129Y-123307002D01*
X241553869Y-123605092D01*
X241667703Y-123880591D01*
X241878300Y-124091557D01*
X242153600Y-124205871D01*
X242451690Y-124206131D01*
X242727189Y-124092297D01*
X242880453Y-123939301D01*
X248784246Y-123939301D01*
X248705750Y-123991750D01*
X240871500Y-131826000D01*
X226390200Y-131826000D01*
X226390200Y-123444000D01*
X226345730Y-123220436D01*
X226219092Y-123030908D01*
X225666257Y-122478073D01*
X225666430Y-122279609D01*
X225552596Y-122004110D01*
X225341999Y-121793144D01*
X225066699Y-121678830D01*
X224768609Y-121678570D01*
X224493110Y-121792404D01*
X224282144Y-122003001D01*
X224167830Y-122278301D01*
X224167570Y-122576391D01*
X224281404Y-122851890D01*
X224492001Y-123062856D01*
X224674418Y-123138602D01*
X225221800Y-123685984D01*
X225221800Y-131840338D01*
X225067205Y-131869427D01*
X225046700Y-131882622D01*
X225037051Y-131876029D01*
X224790000Y-131826000D01*
X210566000Y-131826000D01*
X210335205Y-131869427D01*
X210123233Y-132005827D01*
X209981029Y-132213949D01*
X209931000Y-132461000D01*
X209931000Y-145923000D01*
X209974427Y-146153795D01*
X210110827Y-146365767D01*
X210318949Y-146507971D01*
X210417969Y-146528023D01*
X210417969Y-154940000D01*
X210426654Y-154986159D01*
X210453934Y-155028553D01*
X210495559Y-155056994D01*
X210544969Y-155067000D01*
X266551969Y-155067000D01*
X266598128Y-155058315D01*
X266640522Y-155031035D01*
X266668963Y-154989410D01*
X266678969Y-154940000D01*
X266678969Y-146538061D01*
X266803795Y-146514573D01*
X266879000Y-146466180D01*
X266879000Y-155119000D01*
X209371000Y-155119000D01*
X209371000Y-120264991D01*
X218497270Y-120264991D01*
X218611104Y-120540490D01*
X218821701Y-120751456D01*
X219097001Y-120865770D01*
X219395091Y-120866030D01*
X219426142Y-120853200D01*
X223298434Y-120853200D01*
X223349001Y-120903856D01*
X223624301Y-121018170D01*
X223922391Y-121018430D01*
X224197890Y-120904596D01*
X224408856Y-120693999D01*
X224523170Y-120418699D01*
X224523430Y-120120609D01*
X224409596Y-119845110D01*
X224198999Y-119634144D01*
X223923699Y-119519830D01*
X223625609Y-119519570D01*
X223350110Y-119633404D01*
X223298624Y-119684800D01*
X219874400Y-119684800D01*
X219830900Y-119641224D01*
X219830900Y-114566700D01*
X226290783Y-114566700D01*
X226384487Y-115037783D01*
X226651335Y-115437148D01*
X227050700Y-115703996D01*
X227521783Y-115797700D01*
X227570017Y-115797700D01*
X228041100Y-115703996D01*
X228440465Y-115437148D01*
X228707313Y-115037783D01*
X228801017Y-114566700D01*
X228707313Y-114095617D01*
X228440465Y-113696252D01*
X228041100Y-113429404D01*
X227570017Y-113335700D01*
X227521783Y-113335700D01*
X227050700Y-113429404D01*
X226651335Y-113696252D01*
X226384487Y-114095617D01*
X226290783Y-114566700D01*
X219830900Y-114566700D01*
X219830900Y-112026700D01*
X226290783Y-112026700D01*
X226384487Y-112497783D01*
X226651335Y-112897148D01*
X227050700Y-113163996D01*
X227521783Y-113257700D01*
X227570017Y-113257700D01*
X228041100Y-113163996D01*
X228440465Y-112897148D01*
X228707313Y-112497783D01*
X228801017Y-112026700D01*
X228830783Y-112026700D01*
X228924487Y-112497783D01*
X229191335Y-112897148D01*
X229590700Y-113163996D01*
X230061783Y-113257700D01*
X230110017Y-113257700D01*
X230581100Y-113163996D01*
X230980465Y-112897148D01*
X231247313Y-112497783D01*
X231341017Y-112026700D01*
X231247313Y-111555617D01*
X230980465Y-111156252D01*
X230581100Y-110889404D01*
X230110017Y-110795700D01*
X230061783Y-110795700D01*
X229590700Y-110889404D01*
X229191335Y-111156252D01*
X228924487Y-111555617D01*
X228830783Y-112026700D01*
X228801017Y-112026700D01*
X228707313Y-111555617D01*
X228440465Y-111156252D01*
X228041100Y-110889404D01*
X227570017Y-110795700D01*
X227521783Y-110795700D01*
X227050700Y-110889404D01*
X226651335Y-111156252D01*
X226384487Y-111555617D01*
X226290783Y-112026700D01*
X219830900Y-112026700D01*
X219830900Y-100406878D01*
X220076990Y-100305196D01*
X220287956Y-100094599D01*
X220402270Y-99819299D01*
X220402530Y-99521209D01*
X220288696Y-99245710D01*
X220078099Y-99034744D01*
X219802799Y-98920430D01*
X219504709Y-98920170D01*
X219229210Y-99034004D01*
X219018244Y-99244601D01*
X218903930Y-99519901D01*
X218903867Y-99592649D01*
X218833608Y-99662908D01*
X218706970Y-99852436D01*
X218662500Y-100076000D01*
X218662500Y-119641034D01*
X218611844Y-119691601D01*
X218497530Y-119966901D01*
X218497270Y-120264991D01*
X209371000Y-120264991D01*
X209371000Y-89356000D01*
X266879000Y-89356000D01*
X266879000Y-131916307D01*
M02*
